<svg xmlns="http://www.w3.org/2000/svg" xmlns:xlink="http://www.w3.org/1999/xlink" width="1024" zoomAndPan="magnify" viewBox="0 0 768 576" height="768" preserveAspectRatio="xMidYMid meet" version="1.0"><defs><filter x="0%" y="0%" width="100%" height="100%" id="d9dff57ec1"><feColorMatrix values="0 0 0 0 1 0 0 0 0 1 0 0 0 0 1 0 0 0 1 0" color-interpolation-filters="sRGB"/></filter><g/><mask id="77c77c9832"><g filter="url(#d9dff57ec1)"><rect x="-76.8" width="921.6" fill="#000000" y="-57.6" height="691.2" fill-opacity="0.2"/></g></mask><clipPath id="06c1062e80"><path d="M 0 0.441406 L 90 0.441406 L 90 29.480469 L 0 29.480469 Z M 0 0.441406 " clip-rule="nonzero"/></clipPath><clipPath id="be2707beeb"><rect x="0" width="90" y="0" height="30"/></clipPath><clipPath id="92a59caf1e"><path d="M 59.539062 186.792969 L 187.039062 186.792969 L 187.039062 219 L 59.539062 219 Z M 59.539062 186.792969 " clip-rule="nonzero"/></clipPath><mask id="b4cc5e9716"><g filter="url(#d9dff57ec1)"><rect x="-76.8" width="921.6" fill="#000000" y="-57.6" height="691.2" fill-opacity="0.1"/></g></mask><clipPath id="53d03bbdfa"><path d="M 1 0.238281 L 77.761719 0.238281 L 77.761719 6.71875 L 1 6.71875 Z M 1 0.238281 " clip-rule="nonzero"/></clipPath><clipPath id="a3a7a301d0"><rect x="0" width="78" y="0" height="7"/></clipPath></defs><rect x="-76.8" width="921.6" fill="#ffffff" y="-57.6" height="691.2" fill-opacity="1"/><rect x="-76.8" width="921.6" fill="#ffffff" y="-57.6" height="691.2" fill-opacity="1"/><path fill="#38b6ff" d="M 78.414062 199.554688 L 168 199.554688 L 168 221.882812 C 168 223.574219 167.328125 225.195312 166.128906 226.390625 C 164.933594 227.589844 163.3125 228.261719 161.621094 228.261719 L 84.796875 228.261719 C 83.101562 228.261719 81.480469 227.589844 80.285156 226.390625 C 79.085938 225.195312 78.414062 223.574219 78.414062 221.882812 Z M 78.414062 199.554688 " fill-opacity="1" fill-rule="nonzero"/><g mask="url(#77c77c9832)"><g transform="matrix(1, 0, 0, 1, 78, 199)"><g clip-path="url(#be2707beeb)"><g clip-path="url(#06c1062e80)"><path fill="#000000" d="M 0.414062 0.554688 L 90 0.554688 L 90 22.882812 C 90 24.574219 89.328125 26.195312 88.128906 27.390625 C 86.933594 28.589844 85.3125 29.261719 83.621094 29.261719 L 6.796875 29.261719 C 5.101562 29.261719 3.480469 28.589844 2.285156 27.390625 C 1.085938 26.195312 0.414062 24.574219 0.414062 22.882812 Z M 0.414062 0.554688 " fill-opacity="1" fill-rule="nonzero"/></g></g></g></g><g clip-path="url(#92a59caf1e)"><path fill="#38b6ff" d="M 171.1875 186.792969 L 75.496094 186.792969 C 71.265625 186.792969 67.210938 188.472656 64.21875 191.464844 C 61.226562 194.457031 59.546875 198.511719 59.546875 202.742188 C 59.546875 206.972656 61.226562 211.03125 64.21875 214.019531 C 67.210938 217.011719 71.265625 218.691406 75.496094 218.691406 C 79.171875 218.691406 82.738281 217.421875 85.585938 215.097656 C 88.433594 212.773438 90.390625 209.535156 91.125 205.933594 L 155.558594 205.933594 C 156.292969 209.535156 158.25 212.773438 161.101562 215.097656 C 163.949219 217.421875 167.511719 218.691406 171.1875 218.691406 C 175.417969 218.691406 179.476562 217.011719 182.464844 214.019531 C 185.457031 211.03125 187.136719 206.972656 187.136719 202.742188 C 187.136719 200.648438 186.726562 198.574219 185.921875 196.640625 C 185.121094 194.703125 183.949219 192.945312 182.464844 191.464844 C 179.476562 188.472656 175.417969 186.792969 171.1875 186.792969 Z M 171.1875 186.792969 " fill-opacity="1" fill-rule="nonzero"/></g><path fill="#38b6ff" d="M 161.621094 228.261719 L 85.066406 228.261719 L 85.066406 269.726562 L 161.621094 269.726562 Z M 161.621094 228.261719 " fill-opacity="1" fill-rule="nonzero"/><g mask="url(#b4cc5e9716)"><g transform="matrix(1, 0, 0, 1, 84, 228)"><g clip-path="url(#a3a7a301d0)"><g clip-path="url(#53d03bbdfa)"><path fill="#000000" d="M 77.621094 0.261719 L 1.066406 6.640625 L 1.066406 0.261719 Z M 77.621094 0.261719 " fill-opacity="1" fill-rule="nonzero"/></g></g></g></g><path stroke-linecap="butt" transform="matrix(0.75, 0, 0, 0.75, 27.551813, 235.289117)" fill="none" stroke-linejoin="miter" d="M 125.113213 21.999928 L 123.425713 21.999928 L 123.425713 11.208261 C 123.425713 10.802011 123.425713 10.447844 123.430921 10.150969 C 123.43613 9.859302 123.441338 9.588469 123.451755 9.338469 C 123.462171 9.093677 123.477796 8.843677 123.49863 8.58326 C 123.285088 8.807219 123.081963 8.994719 122.894463 9.150969 C 122.706963 9.307219 122.472588 9.499927 122.196546 9.729094 L 120.456963 11.124927 L 119.550713 9.947844 L 123.675713 6.77076 L 125.113213 6.77076 Z M 125.113213 21.999928 " stroke="#000000" stroke-width="0.586671" stroke-opacity="1" stroke-miterlimit="4"/><g fill="#000000" fill-opacity="1"><g transform="translate(115.770559, 251.789117)"><g><path d="M 5.625 0 L 4.359375 0 L 4.359375 -8.09375 C 4.359375 -8.40625 4.359375 -8.671875 4.359375 -8.890625 C 4.359375 -9.109375 4.363281 -9.3125 4.375 -9.5 C 4.382812 -9.6875 4.394531 -9.875 4.40625 -10.0625 C 4.25 -9.894531 4.097656 -9.753906 3.953125 -9.640625 C 3.816406 -9.523438 3.644531 -9.378906 3.4375 -9.203125 L 2.125 -8.15625 L 1.453125 -9.046875 L 4.546875 -11.421875 L 5.625 -11.421875 Z M 5.625 0 "/></g></g></g></svg>