<svg xmlns="http://www.w3.org/2000/svg" xmlns:xlink="http://www.w3.org/1999/xlink" width="1024" zoomAndPan="magnify" viewBox="0 0 768 576" height="768" preserveAspectRatio="xMidYMid meet" version="1.0"><defs><filter x="0%" y="0%" width="100%" height="100%" id="605c555e10"><feColorMatrix values="0 0 0 0 1 0 0 0 0 1 0 0 0 0 1 0 0 0 1 0" color-interpolation-filters="sRGB"/></filter><g/><mask id="e9fa1a2294"><g filter="url(#605c555e10)"><rect x="-76.8" width="921.6" fill="#000000" y="-57.6" height="691.2" fill-opacity="0.2"/></g></mask><clipPath id="fc53be9b71"><path d="M 1 0.441406 L 91 0.441406 L 91 29.480469 L 1 29.480469 Z M 1 0.441406 " clip-rule="nonzero"/></clipPath><clipPath id="017c3c38bf"><rect x="0" width="92" y="0" height="30"/></clipPath><clipPath id="13fdacf4b7"><path d="M 414.519531 186.792969 L 542.019531 186.792969 L 542.019531 219 L 414.519531 219 Z M 414.519531 186.792969 " clip-rule="nonzero"/></clipPath><mask id="b2d5b94fae"><g filter="url(#605c555e10)"><rect x="-76.8" width="921.6" fill="#000000" y="-57.6" height="691.2" fill-opacity="0.1"/></g></mask><clipPath id="a99194c8a5"><path d="M 1 0.238281 L 77.71875 0.238281 L 77.71875 6.71875 L 1 6.71875 Z M 1 0.238281 " clip-rule="nonzero"/></clipPath><clipPath id="17dbf10ca7"><rect x="0" width="78" y="0" height="7"/></clipPath></defs><rect x="-76.8" width="921.6" fill="#ffffff" y="-57.6" height="691.2" fill-opacity="1"/><rect x="-76.8" width="921.6" fill="#ffffff" y="-57.6" height="691.2" fill-opacity="1"/><path fill="#5ce1e6" d="M 433.394531 199.554688 L 522.980469 199.554688 L 522.980469 221.882812 C 522.980469 223.574219 522.308594 225.195312 521.109375 226.390625 C 519.914062 227.589844 518.292969 228.261719 516.601562 228.261719 L 439.773438 228.261719 C 438.082031 228.261719 436.460938 227.589844 435.265625 226.390625 C 434.066406 225.195312 433.394531 223.574219 433.394531 221.882812 Z M 433.394531 199.554688 " fill-opacity="1" fill-rule="nonzero"/><g mask="url(#e9fa1a2294)"><g transform="matrix(1, 0, 0, 1, 432, 199)"><g clip-path="url(#017c3c38bf)"><g clip-path="url(#fc53be9b71)"><path fill="#000000" d="M 1.394531 0.554688 L 90.980469 0.554688 L 90.980469 22.882812 C 90.980469 24.574219 90.308594 26.195312 89.109375 27.390625 C 87.914062 28.589844 86.292969 29.261719 84.601562 29.261719 L 7.773438 29.261719 C 6.082031 29.261719 4.460938 28.589844 3.265625 27.390625 C 2.066406 26.195312 1.394531 24.574219 1.394531 22.882812 Z M 1.394531 0.554688 " fill-opacity="1" fill-rule="nonzero"/></g></g></g></g><g clip-path="url(#13fdacf4b7)"><path fill="#5ce1e6" d="M 526.167969 186.792969 L 430.476562 186.792969 C 426.246094 186.792969 422.191406 188.472656 419.199219 191.464844 C 416.207031 194.457031 414.527344 198.511719 414.527344 202.742188 C 414.527344 206.972656 416.207031 211.03125 419.199219 214.019531 C 422.191406 217.011719 426.246094 218.691406 430.476562 218.691406 C 434.152344 218.691406 437.71875 217.421875 440.566406 215.097656 C 443.414062 212.773438 445.371094 209.535156 446.105469 205.933594 L 510.539062 205.933594 C 511.273438 209.535156 513.230469 212.773438 516.078125 215.097656 C 518.929688 217.421875 522.492188 218.691406 526.167969 218.691406 C 530.398438 218.691406 534.457031 217.011719 537.445312 214.019531 C 540.4375 211.03125 542.117188 206.972656 542.117188 202.742188 C 542.117188 200.648438 541.703125 198.574219 540.902344 196.640625 C 540.101562 194.703125 538.925781 192.945312 537.445312 191.464844 C 534.457031 188.472656 530.398438 186.792969 526.167969 186.792969 Z M 526.167969 186.792969 " fill-opacity="1" fill-rule="nonzero"/></g><path fill="#5ce1e6" d="M 516.601562 228.261719 L 440.046875 228.261719 L 440.046875 269.726562 L 516.601562 269.726562 Z M 516.601562 228.261719 " fill-opacity="1" fill-rule="nonzero"/><g mask="url(#b2d5b94fae)"><g transform="matrix(1, 0, 0, 1, 439, 228)"><g clip-path="url(#17dbf10ca7)"><g clip-path="url(#a99194c8a5)"><path fill="#000000" d="M 77.601562 0.261719 L 1.046875 6.640625 L 1.046875 0.261719 Z M 77.601562 0.261719 " fill-opacity="1" fill-rule="nonzero"/></g></g></g></g><path stroke-linecap="butt" transform="matrix(0.75, 0, 0, 0.75, 384.319993, 235.289117)" fill="none" stroke-linejoin="miter" d="M 128.094182 10.322844 C 128.094182 11.005136 127.958765 11.593677 127.698348 12.093677 C 127.432723 12.593677 127.062932 13.005136 126.594182 13.317636 C 126.120223 13.635344 125.562932 13.854094 124.927515 13.979094 L 124.927515 14.062427 C 126.135848 14.218677 127.042098 14.604094 127.651473 15.229094 C 128.25564 15.854094 128.562932 16.677011 128.562932 17.687428 C 128.562932 18.567636 128.354598 19.348886 127.94314 20.031178 C 127.526473 20.713469 126.896265 21.244719 126.047307 21.630136 C 125.19314 22.015553 124.104598 22.208261 122.781681 22.208261 C 121.97439 22.208261 121.229598 22.145761 120.547306 22.015553 C 119.865015 21.885344 119.208765 21.671803 118.583765 21.374928 L 118.583765 19.749928 C 119.213973 20.062428 119.901473 20.307219 120.646265 20.484303 C 121.385848 20.661386 122.104598 20.749928 122.802515 20.749928 C 124.187931 20.749928 125.19314 20.473886 125.812932 19.921803 C 126.427515 19.369719 126.740015 18.614511 126.740015 17.656178 C 126.740015 16.994719 126.56814 16.463469 126.22439 16.057219 C 125.88064 15.650969 125.385848 15.354094 124.745223 15.161386 C 124.09939 14.973886 123.328556 14.874927 122.427515 14.874927 L 120.906681 14.874927 L 120.906681 13.395761 L 122.437931 13.395761 C 123.260848 13.395761 123.963973 13.275969 124.542098 13.031177 C 125.115015 12.791594 125.557723 12.447844 125.859807 12.005136 C 126.16189 11.567636 126.312932 11.041594 126.312932 10.437427 C 126.312932 9.666594 126.052515 9.072844 125.542098 8.650969 C 125.026473 8.234302 124.328556 8.02076 123.448348 8.02076 C 122.906681 8.02076 122.41189 8.078052 121.969181 8.187427 C 121.521265 8.30201 121.104598 8.453052 120.719181 8.64576 C 120.328556 8.843677 119.94314 9.067636 119.552515 9.322844 L 118.677515 8.135344 C 119.234806 7.70826 119.91189 7.33326 120.708765 7.02076 C 121.50564 6.70826 122.41189 6.55201 123.427515 6.55201 C 124.979598 6.55201 126.146265 6.906177 126.927515 7.61451 C 127.703557 8.322844 128.094182 9.229094 128.094182 10.322844 Z M 128.094182 10.322844 " stroke="#000000" stroke-width="0.586671" stroke-opacity="1" stroke-miterlimit="4"/><g fill="#000000" fill-opacity="1"><g transform="translate(472.538739, 251.789117)"><g><path d="M 7.859375 -8.765625 C 7.859375 -8.253906 7.757812 -7.8125 7.5625 -7.4375 C 7.363281 -7.0625 7.085938 -6.753906 6.734375 -6.515625 C 6.378906 -6.273438 5.960938 -6.109375 5.484375 -6.015625 L 5.484375 -5.953125 C 6.390625 -5.835938 7.066406 -5.546875 7.515625 -5.078125 C 7.972656 -4.609375 8.203125 -3.992188 8.203125 -3.234375 C 8.203125 -2.578125 8.046875 -1.992188 7.734375 -1.484375 C 7.429688 -0.972656 6.957031 -0.570312 6.3125 -0.28125 C 5.675781 0.0078125 4.863281 0.15625 3.875 0.15625 C 3.269531 0.15625 2.707031 0.101562 2.1875 0 C 1.675781 -0.09375 1.1875 -0.25 0.71875 -0.46875 L 0.71875 -1.6875 C 1.195312 -1.457031 1.710938 -1.273438 2.265625 -1.140625 C 2.828125 -1.003906 3.367188 -0.9375 3.890625 -0.9375 C 4.929688 -0.9375 5.679688 -1.144531 6.140625 -1.5625 C 6.609375 -1.976562 6.84375 -2.546875 6.84375 -3.265625 C 6.84375 -3.753906 6.710938 -4.148438 6.453125 -4.453125 C 6.191406 -4.765625 5.820312 -4.988281 5.34375 -5.125 C 4.863281 -5.269531 4.285156 -5.34375 3.609375 -5.34375 L 2.46875 -5.34375 L 2.46875 -6.453125 L 3.609375 -6.453125 C 4.234375 -6.453125 4.757812 -6.539062 5.1875 -6.71875 C 5.625 -6.90625 5.953125 -7.164062 6.171875 -7.5 C 6.398438 -7.832031 6.515625 -8.222656 6.515625 -8.671875 C 6.515625 -9.253906 6.320312 -9.703125 5.9375 -10.015625 C 5.550781 -10.328125 5.03125 -10.484375 4.375 -10.484375 C 3.96875 -10.484375 3.597656 -10.441406 3.265625 -10.359375 C 2.929688 -10.273438 2.617188 -10.160156 2.328125 -10.015625 C 2.035156 -9.867188 1.742188 -9.703125 1.453125 -9.515625 L 0.796875 -10.40625 C 1.210938 -10.726562 1.71875 -11.003906 2.3125 -11.234375 C 2.914062 -11.472656 3.597656 -11.59375 4.359375 -11.59375 C 5.523438 -11.59375 6.398438 -11.328125 6.984375 -10.796875 C 7.566406 -10.265625 7.859375 -9.585938 7.859375 -8.765625 Z M 7.859375 -8.765625 "/></g></g></g></svg>