<svg xmlns="http://www.w3.org/2000/svg" xmlns:xlink="http://www.w3.org/1999/xlink" width="1024" zoomAndPan="magnify" viewBox="0 0 768 576" height="768" preserveAspectRatio="xMidYMid meet" version="1.0"><defs><g/><clipPath id="1026727423"><path d="M 127.519531 216 L 186 216 L 186 318.730469 L 127.519531 318.730469 Z M 127.519531 216 " clip-rule="nonzero"/></clipPath><clipPath id="1867091b93"><path d="M 185 216 L 243 216 L 243 318.730469 L 185 318.730469 Z M 185 216 " clip-rule="nonzero"/></clipPath><clipPath id="d508daf07f"><path d="M 127.519531 181.480469 L 243 181.480469 L 243 252 L 127.519531 252 Z M 127.519531 181.480469 " clip-rule="nonzero"/></clipPath></defs><rect x="-76.8" width="921.6" fill="#ffffff" y="-57.6" height="691.2" fill-opacity="1"/><rect x="-76.8" width="921.6" fill="#ffffff" y="-57.6" height="691.2" fill-opacity="1"/><g clip-path="url(#1026727423)"><path fill="#99bcff" d="M 185.105469 261.792969 L 185.105469 251.378906 L 127.519531 251.378906 L 127.519531 283.789062 L 185.105469 283.789062 Z M 127.519531 283.789062 L 185.105469 318.710938 L 185.105469 283.789062 Z M 127.519531 216.460938 L 185.105469 216.460938 L 185.105469 251.378906 L 127.519531 251.378906 Z M 127.519531 216.460938 " fill-opacity="1" fill-rule="nonzero"/></g><g clip-path="url(#1867091b93)"><path fill="#dee4ff" d="M 185.105469 251.378906 L 185.105469 283.789062 L 242.691406 283.789062 L 242.691406 251.378906 Z M 185.105469 216.460938 L 242.691406 216.460938 L 242.691406 251.378906 L 185.105469 251.378906 Z M 185.105469 318.710938 L 242.691406 283.789062 L 185.105469 283.789062 Z M 185.105469 318.710938 " fill-opacity="1" fill-rule="nonzero"/></g><g clip-path="url(#d508daf07f)"><path fill="#eef1ff" d="M 185.105469 251.378906 L 127.519531 216.460938 L 185.105469 181.539062 L 242.691406 216.460938 Z M 185.105469 251.378906 " fill-opacity="1" fill-rule="nonzero"/></g><g fill="#404040" fill-opacity="1"><g transform="translate(167.955286, 224.771612)"><g><path d="M 12.84375 -8.5625 C 12.84375 -7.1875 12.734375 -5.953125 12.515625 -4.859375 C 12.304688 -3.773438 11.960938 -2.851562 11.484375 -2.09375 C 11.015625 -1.34375 10.394531 -0.765625 9.625 -0.359375 C 8.863281 0.0351562 7.9375 0.234375 6.84375 0.234375 C 5.46875 0.234375 4.335938 -0.113281 3.453125 -0.8125 C 2.578125 -1.507812 1.925781 -2.515625 1.5 -3.828125 C 1.082031 -5.148438 0.875 -6.726562 0.875 -8.5625 C 0.875 -10.414062 1.066406 -12 1.453125 -13.3125 C 1.835938 -14.632812 2.46875 -15.644531 3.34375 -16.34375 C 4.21875 -17.050781 5.382812 -17.40625 6.84375 -17.40625 C 8.207031 -17.40625 9.332031 -17.054688 10.21875 -16.359375 C 11.113281 -15.660156 11.773438 -14.648438 12.203125 -13.328125 C 12.628906 -12.015625 12.84375 -10.425781 12.84375 -8.5625 Z M 4.46875 -8.5625 C 4.46875 -7.257812 4.539062 -6.171875 4.6875 -5.296875 C 4.832031 -4.429688 5.078125 -3.78125 5.421875 -3.34375 C 5.765625 -2.90625 6.238281 -2.6875 6.84375 -2.6875 C 7.445312 -2.6875 7.921875 -2.898438 8.265625 -3.328125 C 8.617188 -3.765625 8.867188 -4.414062 9.015625 -5.28125 C 9.160156 -6.15625 9.234375 -7.25 9.234375 -8.5625 C 9.234375 -9.875 9.160156 -10.96875 9.015625 -11.84375 C 8.867188 -12.71875 8.617188 -13.375 8.265625 -13.8125 C 7.921875 -14.25 7.445312 -14.46875 6.84375 -14.46875 C 6.238281 -14.46875 5.765625 -14.25 5.421875 -13.8125 C 5.078125 -13.375 4.832031 -12.71875 4.6875 -11.84375 C 4.539062 -10.96875 4.46875 -9.875 4.46875 -8.5625 Z M 4.46875 -8.5625 "/></g></g><g transform="translate(181.677942, 224.771612)"><g><path d="M 12.9375 0 L 0.96875 0 L 0.96875 -2.515625 L 5.265625 -6.875 C 6.128906 -7.757812 6.820312 -8.5 7.34375 -9.09375 C 7.875 -9.695312 8.257812 -10.242188 8.5 -10.734375 C 8.738281 -11.222656 8.859375 -11.75 8.859375 -12.3125 C 8.859375 -13 8.664062 -13.507812 8.28125 -13.84375 C 7.90625 -14.1875 7.40625 -14.359375 6.78125 -14.359375 C 6.113281 -14.359375 5.46875 -14.203125 4.84375 -13.890625 C 4.21875 -13.585938 3.566406 -13.15625 2.890625 -12.59375 L 0.921875 -14.9375 C 1.410156 -15.351562 1.929688 -15.75 2.484375 -16.125 C 3.035156 -16.5 3.675781 -16.800781 4.40625 -17.03125 C 5.132812 -17.257812 6.007812 -17.375 7.03125 -17.375 C 8.15625 -17.375 9.117188 -17.171875 9.921875 -16.765625 C 10.734375 -16.359375 11.359375 -15.804688 11.796875 -15.109375 C 12.234375 -14.410156 12.453125 -13.617188 12.453125 -12.734375 C 12.453125 -11.796875 12.265625 -10.9375 11.890625 -10.15625 C 11.515625 -9.375 10.96875 -8.597656 10.25 -7.828125 C 9.539062 -7.066406 8.679688 -6.21875 7.671875 -5.28125 L 5.46875 -3.21875 L 5.46875 -3.046875 L 12.9375 -3.046875 Z M 12.9375 0 "/></g></g><g transform="translate(195.400597, 224.771612)"><g><path d="M 1.375 -1.671875 C 1.375 -2.410156 1.570312 -2.925781 1.96875 -3.21875 C 2.375 -3.519531 2.863281 -3.671875 3.4375 -3.671875 C 3.988281 -3.671875 4.460938 -3.519531 4.859375 -3.21875 C 5.265625 -2.925781 5.46875 -2.410156 5.46875 -1.671875 C 5.46875 -0.972656 5.265625 -0.46875 4.859375 -0.15625 C 4.460938 0.15625 3.988281 0.3125 3.4375 0.3125 C 2.863281 0.3125 2.375 0.15625 1.96875 -0.15625 C 1.570312 -0.46875 1.375 -0.972656 1.375 -1.671875 Z M 1.375 -1.671875 "/></g></g></g></svg>