<svg xmlns="http://www.w3.org/2000/svg" xmlns:xlink="http://www.w3.org/1999/xlink" width="1024" zoomAndPan="magnify" viewBox="0 0 768 576" height="768" preserveAspectRatio="xMidYMid meet" version="1.0"><defs><clipPath id="f1816e9333"><path d="M 604 203.925781 L 662 203.925781 L 662 261.675781 L 604 261.675781 Z M 604 203.925781 " clip-rule="nonzero"/></clipPath></defs><rect x="-76.8" width="921.6" fill="#ffffff" y="-57.6" height="691.2" fill-opacity="1"/><rect x="-76.8" width="921.6" fill="#ffffff" y="-57.6" height="691.2" fill-opacity="1"/><g clip-path="url(#f1816e9333)"><path fill="#404040" d="M 646.007812 231.441406 C 645.769531 230.933594 645.546875 230.421875 645.328125 229.929688 C 647.4375 228.320312 648.027344 226.613281 647.183594 224.710938 C 646.335938 222.8125 644.648438 222.140625 641.878906 222.652344 C 641.214844 221.253906 640.546875 219.84375 639.878906 218.429688 C 638.574219 215.652344 637.292969 212.867188 635.953125 210.105469 C 635.808594 209.792969 635.609375 209.515625 635.367188 209.273438 C 635.121094 209.03125 634.839844 208.835938 634.527344 208.6875 C 634.214844 208.542969 633.886719 208.453125 633.542969 208.421875 C 633.199219 208.390625 632.859375 208.417969 632.523438 208.503906 C 632.191406 208.59375 631.878906 208.734375 631.59375 208.929688 C 631.308594 209.125 631.066406 209.359375 630.863281 209.640625 C 630.660156 209.921875 630.511719 210.226562 630.417969 210.558594 C 630.324219 210.890625 630.285156 211.230469 630.308594 211.574219 C 630.753906 214.433594 629.839844 216.941406 628.398438 219.300781 C 626.191406 222.882812 623.246094 225.691406 619.566406 227.726562 C 616.285156 229.585938 612.828125 231.152344 609.425781 232.796875 C 605.113281 234.871094 603.15625 239.328125 604.648438 243.664062 C 604.828125 244.179688 605.058594 244.671875 605.332031 245.140625 C 605.605469 245.613281 605.921875 246.054688 606.28125 246.464844 C 606.640625 246.875 607.03125 247.25 607.460938 247.585938 C 607.890625 247.921875 608.347656 248.21875 608.828125 248.46875 C 609.3125 248.71875 609.816406 248.921875 610.339844 249.078125 C 610.863281 249.230469 611.394531 249.335938 611.9375 249.390625 C 612.480469 249.445312 613.023438 249.449219 613.566406 249.402344 C 614.109375 249.355469 614.640625 249.257812 615.167969 249.109375 C 615.722656 248.9375 615.992188 249.128906 616.277344 249.585938 C 617.101562 250.921875 617.972656 252.230469 618.824219 253.550781 C 620.15625 255.621094 621.480469 257.703125 622.832031 259.761719 C 623.007812 260.058594 623.226562 260.316406 623.484375 260.546875 C 623.742188 260.773438 624.027344 260.953125 624.34375 261.089844 C 624.660156 261.226562 624.988281 261.3125 625.332031 261.34375 C 625.675781 261.378906 626.011719 261.355469 626.347656 261.28125 C 626.675781 261.25 626.984375 261.164062 627.285156 261.027344 C 627.582031 260.894531 627.847656 260.710938 628.085938 260.488281 C 628.324219 260.265625 628.519531 260.007812 628.671875 259.71875 C 628.824219 259.429688 628.929688 259.125 628.980469 258.800781 C 629.097656 257.84375 628.96875 256.921875 628.585938 256.035156 C 627.484375 253.457031 626.230469 250.941406 625.039062 248.410156 C 628.148438 246.671875 628.445312 246.164062 627.796875 243.769531 C 627.90625 243.6875 628.023438 243.617188 628.148438 243.5625 C 631.769531 242.386719 635.472656 242.019531 639.257812 242.460938 C 640.550781 242.582031 641.785156 242.914062 642.96875 243.449219 C 644.148438 243.984375 645.210938 244.699219 646.15625 245.589844 C 647.449219 246.898438 648.996094 247.125 650.28125 246.210938 C 651.539062 245.316406 651.835938 243.835938 651.0625 242.191406 C 649.378906 238.605469 647.695312 235.023438 646.007812 231.441406 Z M 645.234375 225.492188 C 645.6875 226.386719 645.441406 227.144531 644.359375 227.925781 L 642.839844 224.703125 C 644.054688 224.371094 644.800781 224.644531 645.234375 225.492188 Z M 614.160156 247.144531 C 613.792969 247.238281 613.417969 247.300781 613.039062 247.324219 C 612.65625 247.351562 612.277344 247.339844 611.898438 247.296875 C 611.519531 247.253906 611.148438 247.175781 610.785156 247.066406 C 610.421875 246.953125 610.070312 246.808594 609.730469 246.636719 C 609.394531 246.460938 609.074219 246.253906 608.773438 246.019531 C 608.472656 245.789062 608.195312 245.527344 607.941406 245.246094 C 607.6875 244.960938 607.460938 244.65625 607.265625 244.328125 C 607.066406 244.003906 606.898438 243.664062 606.761719 243.308594 C 606.609375 242.960938 606.492188 242.601562 606.402344 242.230469 C 606.316406 241.859375 606.261719 241.484375 606.242188 241.105469 C 606.21875 240.726562 606.234375 240.347656 606.28125 239.96875 C 606.324219 239.589844 606.40625 239.222656 606.519531 238.859375 C 606.628906 238.496094 606.773438 238.144531 606.949219 237.804688 C 607.125 237.46875 607.328125 237.148438 607.558594 236.847656 C 607.789062 236.546875 608.046875 236.265625 608.328125 236.011719 C 608.609375 235.753906 608.910156 235.523438 609.234375 235.324219 C 611.085938 234.21875 613.109375 233.390625 615.164062 232.386719 C 617.058594 236.414062 618.90625 240.328125 620.820312 244.390625 C 618.652344 245.4375 616.433594 246.355469 614.160156 247.144531 Z M 626.730469 256.949219 C 627.214844 257.984375 627.09375 258.75 626.339844 259.085938 C 625.464844 259.476562 624.867188 259.078125 624.382812 258.320312 C 622.21875 254.929688 620.027344 251.554688 617.789062 248.082031 L 621.632812 246.261719 C 621.785156 246.53125 621.9375 246.761719 622.054688 247.007812 C 623.617188 250.320312 625.175781 253.632812 626.730469 256.949219 Z M 624.105469 246.347656 C 623.957031 246.050781 623.800781 245.753906 623.585938 245.324219 L 625.585938 244.4375 C 626.179688 245.585938 626.039062 245.753906 624.105469 246.347656 Z M 649.367188 244.128906 C 649.300781 244.292969 649.1875 244.414062 649.03125 244.496094 C 648.589844 244.394531 648.011719 244.433594 647.734375 244.164062 C 646.691406 243.171875 645.523438 242.363281 644.226562 241.738281 C 642.929688 241.113281 641.570312 240.703125 640.144531 240.503906 C 635.222656 239.683594 630.484375 240.511719 625.839844 242.132812 C 624.804688 242.492188 623.792969 242.925781 622.660156 243.371094 C 620.777344 239.371094 618.949219 235.480469 617.21875 231.804688 C 619.878906 229.949219 622.570312 228.308594 624.984375 226.335938 C 628.472656 223.488281 631.195312 220.011719 632.199219 215.480469 C 632.410156 214.359375 632.496094 213.226562 632.457031 212.085938 C 632.457031 211.464844 632.246094 210.800781 633.007812 210.554688 C 633.871094 210.277344 634.070312 211.027344 634.339844 211.597656 C 637.132812 217.539062 639.925781 223.476562 642.71875 229.410156 C 644.800781 233.828125 646.878906 238.246094 648.960938 242.664062 C 649.035156 242.828125 649.089844 242.933594 649.175781 243.148438 C 649.457031 243.859375 649.394531 244.066406 649.367188 244.132812 Z M 641.914062 208.882812 C 641.707031 208.445312 641.746094 208.027344 642.023438 207.628906 C 642.722656 206.585938 643.429688 205.542969 644.148438 204.523438 C 644.417969 204.121094 644.792969 203.921875 645.273438 203.925781 C 645.777344 203.945312 646.15625 204.171875 646.410156 204.605469 L 646.492188 204.730469 L 646.457031 204.878906 C 646.445312 204.960938 646.433594 205.039062 646.425781 205.125 C 646.410156 205.382812 646.339844 205.621094 646.21875 205.847656 C 645.507812 206.9375 644.753906 208.023438 644.042969 209.035156 C 643.914062 209.226562 643.746094 209.375 643.539062 209.476562 C 643.109375 209.679688 642.699219 209.640625 642.3125 209.359375 C 642.136719 209.238281 642.003906 209.078125 641.910156 208.886719 Z M 661.332031 240.59375 L 661.242188 240.714844 L 661.09375 240.730469 C 661.015625 240.746094 660.9375 240.761719 660.851562 240.785156 C 660.605469 240.855469 660.359375 240.867188 660.105469 240.828125 C 658.839844 240.523438 657.566406 240.175781 656.371094 239.839844 C 656.148438 239.785156 655.957031 239.675781 655.792969 239.515625 C 655.457031 239.175781 655.355469 238.777344 655.492188 238.320312 C 655.535156 238.164062 655.609375 238.019531 655.707031 237.890625 C 655.808594 237.761719 655.933594 237.660156 656.074219 237.578125 C 656.21875 237.5 656.371094 237.449219 656.535156 237.429688 C 656.695312 237.410156 656.855469 237.421875 657.015625 237.46875 C 658.234375 237.777344 659.449219 238.097656 660.652344 238.433594 C 661.121094 238.550781 661.433594 238.839844 661.59375 239.296875 C 661.742188 239.777344 661.65625 240.207031 661.332031 240.59375 Z M 656.761719 220.503906 C 655.667969 221.207031 654.53125 221.886719 653.464844 222.515625 C 653.269531 222.636719 653.058594 222.703125 652.828125 222.710938 C 652.347656 222.71875 651.992188 222.515625 651.753906 222.097656 C 651.671875 221.957031 651.621094 221.804688 651.597656 221.640625 C 651.574219 221.476562 651.585938 221.316406 651.625 221.160156 C 651.667969 221 651.738281 220.855469 651.839844 220.722656 C 651.9375 220.59375 652.058594 220.484375 652.203125 220.402344 C 653.269531 219.738281 654.34375 219.082031 655.417969 218.449219 C 655.828125 218.191406 656.253906 218.164062 656.691406 218.367188 C 657.144531 218.59375 657.394531 218.957031 657.449219 219.457031 L 657.472656 219.605469 L 657.378906 219.726562 C 657.335938 219.792969 657.292969 219.863281 657.25 219.9375 C 657.128906 220.164062 656.96875 220.351562 656.761719 220.503906 Z M 656.761719 220.503906 " fill-opacity="1" fill-rule="nonzero"/></g></svg>