<svg version="1.0" preserveAspectRatio="xMidYMid meet" viewBox="267.9509632224168 120.1048951048951 58.66900175131348 58.56643356643357" zoomAndPan="magnify" xmlns:xlink="http://www.w3.org/1999/xlink" xmlns="http://www.w3.org/2000/svg" style="max-height: 500px" width="58.66900175131348" height="58.56643356643357"><defs><clipPath id="4631a03dab"><path clip-rule="nonzero" d="M 273.3125 124.40625 L 323 124.40625 L 323 174.65625 L 273.3125 174.65625 Z M 273.3125 124.40625"/></clipPath></defs><g clip-path="url(#4631a03dab)"><path fill-rule="nonzero" fill-opacity="1" d="M 321.59375 167.0625 L 312.3125 157.785156 C 311.910156 157.382812 311.257812 157.382812 310.855469 157.785156 L 309.398438 159.238281 L 307.441406 157.28125 C 310.570312 153.808594 312.492188 149.234375 312.492188 144.203125 C 312.492188 133.402344 303.703125 124.613281 292.902344 124.613281 C 282.101562 124.613281 273.3125 133.402344 273.3125 144.203125 C 273.3125 155.003906 282.101562 163.789062 292.902344 163.789062 C 297.929688 163.789062 302.511719 161.867188 305.984375 158.742188 L 307.941406 160.695312 L 306.484375 162.152344 C 306.082031 162.554688 306.082031 163.207031 306.484375 163.609375 L 315.761719 172.890625 C 316.546875 173.671875 317.582031 174.105469 318.679688 174.105469 C 319.777344 174.105469 320.808594 173.671875 321.59375 172.890625 C 323.199219 171.28125 323.199219 168.667969 321.59375 167.0625 Z M 275.375 144.203125 C 275.375 134.539062 283.238281 126.675781 292.902344 126.675781 C 302.566406 126.675781 310.429688 134.539062 310.429688 144.203125 C 310.429688 153.867188 302.566406 161.726562 292.902344 161.726562 C 283.238281 161.726562 275.375 153.867188 275.375 144.203125 Z M 320.132812 171.429688 C 319.347656 172.222656 318.007812 172.222656 317.21875 171.429688 L 308.667969 162.882812 L 311.582031 159.972656 L 320.132812 168.523438 C 320.949219 169.335938 320.949219 170.617188 320.132812 171.429688 Z M 320.132812 171.429688" fill="#5271ff"/></g><path fill-rule="nonzero" fill-opacity="1" d="M 292.902344 129.769531 C 284.945312 129.769531 278.46875 136.246094 278.46875 144.203125 C 278.46875 144.769531 278.929688 145.234375 279.5 145.234375 C 280.070312 145.234375 280.53125 144.769531 280.53125 144.203125 C 280.53125 137.378906 286.078125 131.832031 292.902344 131.832031 C 293.472656 131.832031 293.933594 131.367188 293.933594 130.800781 C 293.933594 130.230469 293.472656 129.769531 292.902344 129.769531 Z M 292.902344 129.769531" fill="#5271ff"/></svg>