<svg version="1.0" preserveAspectRatio="xMidYMid meet" viewBox="619.5110332749563 115.7214953271028 65.90542907180385 68.6355140186916" zoomAndPan="magnify" xmlns:xlink="http://www.w3.org/1999/xlink" xmlns="http://www.w3.org/2000/svg" style="max-height: 500px" width="65.90542907180385" height="68.6355140186916"><defs><clipPath id="d5644000a1"><path clip-rule="nonzero" d="M 625.664062 138 L 682.664062 138 L 682.664062 174.296875 L 625.664062 174.296875 Z M 625.664062 138"/></clipPath><clipPath id="aef1ce97c9"><path clip-rule="nonzero" d="M 630 119.546875 L 676 119.546875 L 676 149 L 630 149 Z M 630 119.546875"/></clipPath></defs><g clip-path="url(#d5644000a1)"><path fill-rule="nonzero" fill-opacity="1" d="M 681.589844 171.914062 L 675.640625 171.914062 L 675.640625 139.785156 C 675.640625 139.128906 675.105469 138.597656 674.449219 138.597656 L 664.929688 138.597656 C 664.273438 138.597656 663.742188 139.128906 663.742188 139.785156 L 663.742188 171.914062 L 658.980469 171.914062 L 658.980469 156.445312 C 658.980469 155.789062 658.449219 155.257812 657.789062 155.257812 L 648.269531 155.257812 C 647.613281 155.257812 647.082031 155.789062 647.082031 156.445312 L 647.082031 171.914062 L 642.320312 171.914062 L 642.320312 149.304688 C 642.320312 148.648438 641.789062 148.117188 641.132812 148.117188 L 631.613281 148.117188 C 630.957031 148.117188 630.421875 148.648438 630.421875 149.304688 L 630.421875 171.914062 L 626.851562 171.914062 C 626.195312 171.914062 625.664062 172.449219 625.664062 173.105469 C 625.664062 173.761719 626.195312 174.296875 626.851562 174.296875 L 681.589844 174.296875 C 682.246094 174.296875 682.78125 173.761719 682.78125 173.105469 C 682.78125 172.449219 682.246094 171.914062 681.589844 171.914062 Z M 632.800781 171.914062 L 632.800781 150.496094 L 639.941406 150.496094 L 639.941406 171.914062 Z M 649.460938 171.914062 L 649.460938 157.636719 L 656.601562 157.636719 L 656.601562 171.914062 Z M 666.121094 171.914062 L 666.121094 140.976562 L 673.261719 140.976562 L 673.261719 171.914062 Z M 666.121094 171.914062" fill="#29bed0"/></g><g clip-path="url(#aef1ce97c9)"><path fill-rule="nonzero" fill-opacity="1" d="M 636.371094 140.976562 C 638.390625 140.976562 640.175781 139.960938 641.25 138.417969 L 647.207031 140.960938 C 647.125 141.351562 647.082031 141.753906 647.082031 142.167969 C 647.082031 145.445312 649.75 148.117188 653.03125 148.117188 C 656.3125 148.117188 658.980469 145.445312 658.980469 142.167969 C 658.980469 140.957031 658.613281 139.832031 657.988281 138.890625 L 666.414062 130.46875 C 667.355469 131.089844 668.480469 131.457031 669.691406 131.457031 C 672.96875 131.457031 675.640625 128.789062 675.640625 125.507812 C 675.640625 122.226562 672.96875 119.558594 669.691406 119.558594 C 666.410156 119.558594 663.742188 122.226562 663.742188 125.507812 C 663.742188 126.71875 664.105469 127.84375 664.734375 128.78125 L 656.308594 137.207031 C 655.367188 136.582031 654.242188 136.21875 653.03125 136.21875 C 651.011719 136.21875 649.226562 137.234375 648.152344 138.777344 L 642.199219 136.230469 C 642.277344 135.84375 642.320312 135.4375 642.320312 135.027344 C 642.320312 131.746094 639.652344 129.078125 636.371094 129.078125 C 633.09375 129.078125 630.421875 131.746094 630.421875 135.027344 C 630.421875 138.308594 633.09375 140.976562 636.371094 140.976562 Z M 669.691406 121.9375 C 671.660156 121.9375 673.261719 123.539062 673.261719 125.507812 C 673.261719 127.476562 671.660156 129.078125 669.691406 129.078125 C 668.71875 129.078125 667.839844 128.6875 667.199219 128.054688 C 667.1875 128.046875 667.1875 128.03125 667.175781 128.023438 C 667.164062 128.015625 667.152344 128.011719 667.140625 128 C 666.511719 127.355469 666.121094 126.480469 666.121094 125.507812 C 666.121094 123.539062 667.722656 121.9375 669.691406 121.9375 Z M 653.03125 138.597656 C 654.003906 138.597656 654.878906 138.988281 655.523438 139.617188 C 655.53125 139.628906 655.535156 139.640625 655.546875 139.652344 C 655.558594 139.660156 655.570312 139.664062 655.578125 139.675781 C 656.210938 140.316406 656.601562 141.195312 656.601562 142.167969 C 656.601562 144.136719 655 145.738281 653.03125 145.738281 C 651.0625 145.738281 649.460938 144.136719 649.460938 142.167969 C 649.460938 140.199219 651.0625 138.597656 653.03125 138.597656 Z M 636.371094 131.457031 C 638.339844 131.457031 639.941406 133.058594 639.941406 135.027344 C 639.941406 136.996094 638.339844 138.597656 636.371094 138.597656 C 634.402344 138.597656 632.800781 136.996094 632.800781 135.027344 C 632.800781 133.058594 634.402344 131.457031 636.371094 131.457031 Z M 636.371094 131.457031" fill="#29bed0"/></g></svg>