<svg version="1.0" preserveAspectRatio="xMidYMid meet" viewBox="588.0378283712785 175.7607476635514 138.53590192644484 102.28037383177569" zoomAndPan="magnify" xmlns:xlink="http://www.w3.org/1999/xlink" xmlns="http://www.w3.org/2000/svg" style="max-height: 500px" width="138.53590192644484" height="102.28037383177569"><defs><filter id="b8905610fc" height="100%" width="100%" y="0%" x="0%"><feColorMatrix color-interpolation-filters="sRGB" values="0 0 0 0 1 0 0 0 0 1 0 0 0 0 1 0 0 0 1 0"/></filter><g/><mask id="53a96a5579"><g filter="url(#b8905610fc)"><rect fill-opacity="0.2" height="691.2" y="-57.6" fill="#000000" width="921.6" x="-76.8"/></g></mask><clipPath id="4dfd2468ab"><path clip-rule="nonzero" d="M 0.320312 0.441406 L 90.558594 0.441406 L 90.558594 29.480469 L 0.320312 29.480469 Z M 0.320312 0.441406"/></clipPath><clipPath id="376d2259d6"><rect height="30" y="0" width="91" x="0"/></clipPath><clipPath id="5bdae28dbf"><path clip-rule="nonzero" d="M 591.921875 186.792969 L 719.421875 186.792969 L 719.421875 219 L 591.921875 219 Z M 591.921875 186.792969"/></clipPath><mask id="e02ff8b9c2"><g filter="url(#b8905610fc)"><rect fill-opacity="0.1" height="691.2" y="-57.6" fill="#000000" width="921.6" x="-76.8"/></g></mask><clipPath id="7f979c215a"><path clip-rule="nonzero" d="M 0.28125 0.238281 L 77.078125 0.238281 L 77.078125 6.71875 L 0.28125 6.71875 Z M 0.28125 0.238281"/></clipPath><clipPath id="a04ffd9def"><rect height="7" y="0" width="78" x="0"/></clipPath></defs><path fill-rule="nonzero" fill-opacity="1" d="M 610.800781 199.554688 L 700.382812 199.554688 L 700.382812 221.882812 C 700.382812 223.574219 699.710938 225.195312 698.515625 226.390625 C 697.316406 227.589844 695.695312 228.261719 694.003906 228.261719 L 617.179688 228.261719 C 615.488281 228.261719 613.863281 227.589844 612.667969 226.390625 C 611.472656 225.195312 610.800781 223.574219 610.800781 221.882812 Z M 610.800781 199.554688" fill="#29bed0"/><g mask="url(#53a96a5579)"><g transform="matrix(1, 0, 0, 1, 610, 199)"><g clip-path="url(#376d2259d6)"><g clip-path="url(#4dfd2468ab)"><path fill-rule="nonzero" fill-opacity="1" d="M 0.800781 0.554688 L 90.382812 0.554688 L 90.382812 22.882812 C 90.382812 24.574219 89.710938 26.195312 88.515625 27.390625 C 87.316406 28.589844 85.695312 29.261719 84.003906 29.261719 L 7.179688 29.261719 C 5.488281 29.261719 3.863281 28.589844 2.667969 27.390625 C 1.472656 26.195312 0.800781 24.574219 0.800781 22.882812 Z M 0.800781 0.554688" fill="#000000"/></g></g></g></g><g clip-path="url(#5bdae28dbf)"><path fill-rule="nonzero" fill-opacity="1" d="M 703.574219 186.792969 L 607.878906 186.792969 C 603.648438 186.792969 599.59375 188.472656 596.601562 191.464844 C 593.609375 194.457031 591.929688 198.511719 591.929688 202.742188 C 591.929688 206.972656 593.609375 211.03125 596.601562 214.019531 C 599.59375 217.011719 603.648438 218.691406 607.878906 218.691406 C 611.554688 218.691406 615.121094 217.421875 617.96875 215.097656 C 620.816406 212.773438 622.773438 209.535156 623.507812 205.933594 L 687.941406 205.933594 C 688.679688 209.535156 690.636719 212.773438 693.484375 215.097656 C 696.332031 217.421875 699.894531 218.691406 703.574219 218.691406 C 707.800781 218.691406 711.859375 217.011719 714.851562 214.019531 C 717.839844 211.03125 719.519531 206.972656 719.519531 202.742188 C 719.519531 200.648438 719.109375 198.574219 718.308594 196.640625 C 717.503906 194.703125 716.332031 192.945312 714.851562 191.464844 C 711.859375 188.472656 707.800781 186.792969 703.574219 186.792969 Z M 703.574219 186.792969" fill="#29bed0"/></g><path fill-rule="nonzero" fill-opacity="1" d="M 694.003906 228.261719 L 617.449219 228.261719 L 617.449219 269.726562 L 694.003906 269.726562 Z M 694.003906 228.261719" fill="#29bed0"/><g mask="url(#e02ff8b9c2)"><g transform="matrix(1, 0, 0, 1, 617, 228)"><g clip-path="url(#a04ffd9def)"><g clip-path="url(#7f979c215a)"><path fill-rule="nonzero" fill-opacity="1" d="M 77.003906 0.261719 L 0.449219 6.640625 L 0.449219 0.261719 Z M 77.003906 0.261719" fill="#000000"/></g></g></g></g><path stroke-miterlimit="4" stroke-opacity="1" stroke-width="0.586671" stroke="#000000" d="M 129.41648 18.468678 L 127.13523 18.468678 L 127.13523 21.999928 L 125.44773 21.999928 L 125.44773 18.468678 L 118.083146 18.468678 L 118.083146 17.010344 L 125.333146 6.687427 L 127.13523 6.687427 L 127.13523 16.906178 L 129.41648 16.906178 Z M 125.44773 16.906178 L 125.44773 11.927011 C 125.44773 11.546802 125.44773 11.203052 125.458146 10.890552 C 125.463355 10.583261 125.473771 10.296802 125.489396 10.025969 C 125.499813 9.760344 125.515438 9.505136 125.525855 9.260344 C 125.536271 9.020761 125.54148 8.781177 125.551896 8.541594 L 125.468563 8.541594 C 125.333146 8.822844 125.182105 9.114511 125.015438 9.421802 C 124.843563 9.734302 124.671688 10.010344 124.499813 10.249927 L 119.801896 16.906178 Z M 125.44773 16.906178" stroke-linejoin="miter" fill="none" transform="matrix(0.75, 0, 0, 0.75, 562.695457, 235.289117)" stroke-linecap="butt"/><g fill-opacity="1" fill="#000000"><g transform="translate(650.914203, 251.789117)"><g><path d="M 8.84375 -2.65625 L 7.140625 -2.65625 L 7.140625 0 L 5.875 0 L 5.875 -2.65625 L 0.34375 -2.65625 L 0.34375 -3.75 L 5.78125 -11.484375 L 7.140625 -11.484375 L 7.140625 -3.828125 L 8.84375 -3.828125 Z M 5.875 -3.828125 L 5.875 -7.5625 C 5.875 -7.84375 5.875 -8.097656 5.875 -8.328125 C 5.882812 -8.566406 5.894531 -8.785156 5.90625 -8.984375 C 5.914062 -9.179688 5.921875 -9.367188 5.921875 -9.546875 C 5.929688 -9.734375 5.941406 -9.914062 5.953125 -10.09375 L 5.890625 -10.09375 C 5.785156 -9.882812 5.671875 -9.664062 5.546875 -9.4375 C 5.421875 -9.207031 5.289062 -9 5.15625 -8.8125 L 1.640625 -3.828125 Z M 5.875 -3.828125"/></g></g></g></svg>