<svg version="1.0" preserveAspectRatio="xMidYMid meet" viewBox="232.14851138353765 175.7607476635514 138.53590192644484 103.62616822429906" zoomAndPan="magnify" xmlns:xlink="http://www.w3.org/1999/xlink" xmlns="http://www.w3.org/2000/svg" style="max-height: 500px" width="138.53590192644484" height="103.62616822429906"><defs><filter id="f088ac79af" height="100%" width="100%" y="0%" x="0%"><feColorMatrix color-interpolation-filters="sRGB" values="0 0 0 0 1 0 0 0 0 1 0 0 0 0 1 0 0 0 1 0"/></filter><g/><mask id="5f5ef61f58"><g filter="url(#f088ac79af)"><rect fill-opacity="0.2" height="691.2" y="-57.6" fill="#000000" width="921.6" x="-76.8"/></g></mask><clipPath id="60c55d9464"><path clip-rule="nonzero" d="M 0.359375 0.441406 L 90.601562 0.441406 L 90.601562 29.480469 L 0.359375 29.480469 Z M 0.359375 0.441406"/></clipPath><clipPath id="8c84bc8022"><rect height="30" y="0" width="91" x="0"/></clipPath><clipPath id="74bc3e8d2d"><path clip-rule="nonzero" d="M 237 186.792969 L 364.5 186.792969 L 364.5 219 L 237 219 Z M 237 186.792969"/></clipPath><mask id="538c985d30"><g filter="url(#f088ac79af)"><rect fill-opacity="0.1" height="691.2" y="-57.6" fill="#000000" width="921.6" x="-76.8"/></g></mask><clipPath id="2256f8b8cd"><path clip-rule="nonzero" d="M 0.320312 0.238281 L 77.121094 0.238281 L 77.121094 6.71875 L 0.320312 6.71875 Z M 0.320312 0.238281"/></clipPath><clipPath id="cea8e076b7"><rect height="7" y="0" width="78" x="0"/></clipPath></defs><path fill-rule="nonzero" fill-opacity="1" d="M 255.875 199.554688 L 345.460938 199.554688 L 345.460938 221.882812 C 345.460938 223.574219 344.789062 225.195312 343.589844 226.390625 C 342.394531 227.589844 340.773438 228.261719 339.082031 228.261719 L 262.257812 228.261719 C 260.5625 228.261719 258.941406 227.589844 257.746094 226.390625 C 256.550781 225.195312 255.875 223.574219 255.875 221.882812 Z M 255.875 199.554688" fill="#5271ff"/><g mask="url(#5f5ef61f58)"><g transform="matrix(1, 0, 0, 1, 255, 199)"><g clip-path="url(#8c84bc8022)"><g clip-path="url(#60c55d9464)"><path fill-rule="nonzero" fill-opacity="1" d="M 0.875 0.554688 L 90.460938 0.554688 L 90.460938 22.882812 C 90.460938 24.574219 89.789062 26.195312 88.589844 27.390625 C 87.394531 28.589844 85.773438 29.261719 84.082031 29.261719 L 7.257812 29.261719 C 5.5625 29.261719 3.941406 28.589844 2.746094 27.390625 C 1.550781 26.195312 0.875 24.574219 0.875 22.882812 Z M 0.875 0.554688" fill="#000000"/></g></g></g></g><g clip-path="url(#74bc3e8d2d)"><path fill-rule="nonzero" fill-opacity="1" d="M 348.648438 186.792969 L 252.957031 186.792969 C 248.726562 186.792969 244.671875 188.472656 241.679688 191.464844 C 238.6875 194.457031 237.007812 198.511719 237.007812 202.742188 C 237.007812 206.972656 238.6875 211.03125 241.679688 214.019531 C 244.671875 217.011719 248.726562 218.691406 252.957031 218.691406 C 256.632812 218.691406 260.199219 217.421875 263.046875 215.097656 C 265.894531 212.773438 267.851562 209.535156 268.585938 205.933594 L 333.019531 205.933594 C 333.753906 209.535156 335.714844 212.773438 338.5625 215.097656 C 341.410156 217.421875 344.972656 218.691406 348.648438 218.691406 C 352.878906 218.691406 356.9375 217.011719 359.925781 214.019531 C 362.917969 211.03125 364.597656 206.972656 364.597656 202.742188 C 364.597656 200.648438 364.1875 198.574219 363.386719 196.640625 C 362.582031 194.703125 361.410156 192.945312 359.925781 191.464844 C 356.9375 188.472656 352.878906 186.792969 348.648438 186.792969 Z M 348.648438 186.792969" fill="#5271ff"/></g><path fill-rule="nonzero" fill-opacity="1" d="M 339.082031 228.261719 L 262.527344 228.261719 L 262.527344 269.726562 L 339.082031 269.726562 Z M 339.082031 228.261719" fill="#5271ff"/><g mask="url(#538c985d30)"><g transform="matrix(1, 0, 0, 1, 262, 228)"><g clip-path="url(#cea8e076b7)"><g clip-path="url(#2256f8b8cd)"><path fill-rule="nonzero" fill-opacity="1" d="M 77.082031 0.261719 L 0.527344 6.640625 L 0.527344 0.261719 Z M 77.082031 0.261719" fill="#000000"/></g></g></g></g><path stroke-miterlimit="4" stroke-opacity="1" stroke-width="0.586671" stroke="#000000" d="M 128.65443 21.999928 L 118.675263 21.999928 L 118.675263 20.552011 L 122.74818 16.416594 C 123.508597 15.656177 124.144013 14.973886 124.659638 14.374927 C 125.175264 13.781177 125.571097 13.192636 125.84193 12.609302 C 126.112764 12.031177 126.24818 11.395761 126.24818 10.697844 C 126.24818 9.838469 125.992972 9.182219 125.482555 8.723886 C 124.972138 8.27076 124.300263 8.041594 123.46693 8.041594 C 122.737763 8.041594 122.09193 8.166594 121.52943 8.416594 C 120.96693 8.666594 120.394013 9.020761 119.800263 9.479094 L 118.87318 8.312427 C 119.27943 7.973885 119.71693 7.671802 120.190888 7.406177 C 120.670055 7.14576 121.180472 6.937427 121.722138 6.781177 C 122.269013 6.630135 122.852347 6.55201 123.46693 6.55201 C 124.40443 6.55201 125.211722 6.718677 125.894014 7.041594 C 126.576305 7.369719 127.102347 7.83326 127.472139 8.437427 C 127.84193 9.041594 128.02943 9.760344 128.02943 10.593677 C 128.02943 11.400969 127.867972 12.150969 127.550264 12.838469 C 127.232555 13.531177 126.784639 14.213469 126.206514 14.890552 C 125.628389 15.567636 124.956513 16.286386 124.18568 17.041594 L 120.87318 20.343678 L 120.87318 20.416594 L 128.65443 20.416594 Z M 128.65443 21.999928" stroke-linejoin="miter" fill="none" transform="matrix(0.75, 0, 0, 0.75, 207.997463, 235.289117)" stroke-linecap="butt"/><g fill-opacity="1" fill="#000000"><g transform="translate(296.216209, 251.789117)"><g><path d="M 8.28125 0 L 0.796875 0 L 0.796875 -1.09375 L 3.84375 -4.1875 C 4.414062 -4.757812 4.894531 -5.269531 5.28125 -5.71875 C 5.664062 -6.164062 5.957031 -6.609375 6.15625 -7.046875 C 6.363281 -7.484375 6.46875 -7.960938 6.46875 -8.484375 C 6.46875 -9.128906 6.273438 -9.617188 5.890625 -9.953125 C 5.515625 -10.296875 5.015625 -10.46875 4.390625 -10.46875 C 3.835938 -10.46875 3.347656 -10.375 2.921875 -10.1875 C 2.503906 -10 2.078125 -9.734375 1.640625 -9.390625 L 0.9375 -10.265625 C 1.238281 -10.523438 1.566406 -10.753906 1.921875 -10.953125 C 2.285156 -11.148438 2.671875 -11.304688 3.078125 -11.421875 C 3.484375 -11.535156 3.921875 -11.59375 4.390625 -11.59375 C 5.085938 -11.59375 5.691406 -11.46875 6.203125 -11.21875 C 6.710938 -10.976562 7.109375 -10.628906 7.390625 -10.171875 C 7.671875 -9.722656 7.8125 -9.1875 7.8125 -8.5625 C 7.8125 -7.957031 7.691406 -7.394531 7.453125 -6.875 C 7.210938 -6.351562 6.875 -5.835938 6.4375 -5.328125 C 6.007812 -4.828125 5.503906 -4.289062 4.921875 -3.71875 L 2.4375 -1.25 L 2.4375 -1.1875 L 8.28125 -1.1875 Z M 8.28125 0"/></g></g></g></svg>