<svg xmlns="http://www.w3.org/2000/svg" xmlns:xlink="http://www.w3.org/1999/xlink" width="1024" zoomAndPan="magnify" viewBox="0 0 768 576" height="768" preserveAspectRatio="xMidYMid meet" version="1.0"><defs><g/><clipPath id="01349a5fe1"><path d="M 326.410156 95 L 384 95 L 384 197.398438 L 326.410156 197.398438 Z M 326.410156 95 " clip-rule="nonzero"/></clipPath><clipPath id="5d223bbac3"><path d="M 383 95 L 441.910156 95 L 441.910156 197.398438 L 383 197.398438 Z M 383 95 " clip-rule="nonzero"/></clipPath><clipPath id="215303c176"><path d="M 326.410156 60.148438 L 441.910156 60.148438 L 441.910156 131 L 326.410156 131 Z M 326.410156 60.148438 " clip-rule="nonzero"/></clipPath></defs><rect x="-76.8" width="921.6" fill="#ffffff" y="-57.6" height="691.2" fill-opacity="1"/><rect x="-76.8" width="921.6" fill="#ffffff" y="-57.6" height="691.2" fill-opacity="1"/><g clip-path="url(#01349a5fe1)"><path fill="#5ce1e6" d="M 383.996094 140.457031 L 383.996094 130.046875 L 326.410156 130.046875 L 326.410156 162.453125 L 383.996094 162.453125 Z M 326.410156 162.453125 L 383.996094 197.375 L 383.996094 162.453125 Z M 326.410156 95.125 L 383.996094 95.125 L 383.996094 130.046875 L 326.410156 130.046875 Z M 326.410156 95.125 " fill-opacity="1" fill-rule="nonzero"/></g><g clip-path="url(#5d223bbac3)"><path fill="#acfcff" d="M 383.996094 130.046875 L 383.996094 162.453125 L 441.582031 162.453125 L 441.582031 130.046875 Z M 383.996094 95.125 L 441.582031 95.125 L 441.582031 130.046875 L 383.996094 130.046875 Z M 383.996094 197.375 L 441.582031 162.453125 L 383.996094 162.453125 Z M 383.996094 197.375 " fill-opacity="1" fill-rule="nonzero"/></g><g clip-path="url(#215303c176)"><path fill="#dffffc" d="M 383.996094 130.046875 L 326.410156 95.125 L 383.996094 60.207031 L 441.582031 95.125 Z M 383.996094 130.046875 " fill-opacity="1" fill-rule="nonzero"/></g><g fill="#404040" fill-opacity="1"><g transform="translate(366.848071, 105.122761)"><g><path d="M 12.84375 -8.5625 C 12.84375 -7.1875 12.734375 -5.953125 12.515625 -4.859375 C 12.304688 -3.773438 11.960938 -2.851562 11.484375 -2.09375 C 11.015625 -1.34375 10.394531 -0.765625 9.625 -0.359375 C 8.863281 0.0351562 7.9375 0.234375 6.84375 0.234375 C 5.46875 0.234375 4.335938 -0.113281 3.453125 -0.8125 C 2.578125 -1.507812 1.925781 -2.515625 1.5 -3.828125 C 1.082031 -5.148438 0.875 -6.726562 0.875 -8.5625 C 0.875 -10.414062 1.066406 -12 1.453125 -13.3125 C 1.835938 -14.632812 2.46875 -15.644531 3.34375 -16.34375 C 4.21875 -17.050781 5.382812 -17.40625 6.84375 -17.40625 C 8.207031 -17.40625 9.332031 -17.054688 10.21875 -16.359375 C 11.113281 -15.660156 11.773438 -14.648438 12.203125 -13.328125 C 12.628906 -12.015625 12.84375 -10.425781 12.84375 -8.5625 Z M 4.46875 -8.5625 C 4.46875 -7.257812 4.539062 -6.171875 4.6875 -5.296875 C 4.832031 -4.429688 5.078125 -3.78125 5.421875 -3.34375 C 5.765625 -2.90625 6.238281 -2.6875 6.84375 -2.6875 C 7.445312 -2.6875 7.921875 -2.898438 8.265625 -3.328125 C 8.617188 -3.765625 8.867188 -4.414062 9.015625 -5.28125 C 9.160156 -6.15625 9.234375 -7.25 9.234375 -8.5625 C 9.234375 -9.875 9.160156 -10.96875 9.015625 -11.84375 C 8.867188 -12.71875 8.617188 -13.375 8.265625 -13.8125 C 7.921875 -14.25 7.445312 -14.46875 6.84375 -14.46875 C 6.238281 -14.46875 5.765625 -14.25 5.421875 -13.8125 C 5.078125 -13.375 4.832031 -12.71875 4.6875 -11.84375 C 4.539062 -10.96875 4.46875 -9.875 4.46875 -8.5625 Z M 4.46875 -8.5625 "/></g></g><g transform="translate(380.570726, 105.122761)"><g><path d="M 12.265625 -13.296875 C 12.265625 -12.515625 12.097656 -11.832031 11.765625 -11.25 C 11.441406 -10.675781 11 -10.203125 10.4375 -9.828125 C 9.882812 -9.460938 9.257812 -9.195312 8.5625 -9.03125 L 8.5625 -8.953125 C 9.9375 -8.785156 10.984375 -8.363281 11.703125 -7.6875 C 12.421875 -7.019531 12.78125 -6.125 12.78125 -5 C 12.78125 -4 12.535156 -3.101562 12.046875 -2.3125 C 11.554688 -1.519531 10.800781 -0.894531 9.78125 -0.4375 C 8.769531 0.0078125 7.460938 0.234375 5.859375 0.234375 C 4.910156 0.234375 4.03125 0.15625 3.21875 0 C 2.40625 -0.144531 1.640625 -0.375 0.921875 -0.6875 L 0.921875 -3.78125 C 1.648438 -3.40625 2.414062 -3.117188 3.21875 -2.921875 C 4.03125 -2.734375 4.78125 -2.640625 5.46875 -2.640625 C 6.769531 -2.640625 7.679688 -2.863281 8.203125 -3.3125 C 8.722656 -3.757812 8.984375 -4.390625 8.984375 -5.203125 C 8.984375 -5.679688 8.859375 -6.082031 8.609375 -6.40625 C 8.367188 -6.738281 7.945312 -6.988281 7.34375 -7.15625 C 6.75 -7.332031 5.921875 -7.421875 4.859375 -7.421875 L 3.546875 -7.421875 L 3.546875 -10.203125 L 4.875 -10.203125 C 5.925781 -10.203125 6.726562 -10.300781 7.28125 -10.5 C 7.832031 -10.695312 8.207031 -10.96875 8.40625 -11.3125 C 8.601562 -11.664062 8.703125 -12.0625 8.703125 -12.5 C 8.703125 -13.113281 8.515625 -13.59375 8.140625 -13.9375 C 7.765625 -14.28125 7.140625 -14.453125 6.265625 -14.453125 C 5.722656 -14.453125 5.226562 -14.382812 4.78125 -14.25 C 4.332031 -14.113281 3.925781 -13.945312 3.5625 -13.75 C 3.207031 -13.5625 2.890625 -13.378906 2.609375 -13.203125 L 0.9375 -15.6875 C 1.613281 -16.175781 2.398438 -16.578125 3.296875 -16.890625 C 4.203125 -17.210938 5.28125 -17.375 6.53125 -17.375 C 8.289062 -17.375 9.6875 -17.019531 10.71875 -16.3125 C 11.75 -15.601562 12.265625 -14.597656 12.265625 -13.296875 Z M 12.265625 -13.296875 "/></g></g><g transform="translate(394.293382, 105.122761)"><g><path d="M 1.375 -1.671875 C 1.375 -2.410156 1.570312 -2.925781 1.96875 -3.21875 C 2.375 -3.519531 2.863281 -3.671875 3.4375 -3.671875 C 3.988281 -3.671875 4.460938 -3.519531 4.859375 -3.21875 C 5.265625 -2.925781 5.46875 -2.410156 5.46875 -1.671875 C 5.46875 -0.972656 5.265625 -0.46875 4.859375 -0.15625 C 4.460938 0.15625 3.988281 0.3125 3.4375 0.3125 C 2.863281 0.3125 2.375 0.15625 1.96875 -0.15625 C 1.570312 -0.46875 1.375 -0.972656 1.375 -1.671875 Z M 1.375 -1.671875 "/></g></g></g></svg>