<svg xmlns="http://www.w3.org/2000/svg" xmlns:xlink="http://www.w3.org/1999/xlink" width="1024" zoomAndPan="magnify" viewBox="0 0 768 576" height="768" preserveAspectRatio="xMidYMid meet" version="1.0"><defs><clipPath id="399fa1ea08"><path d="M 602.21875 306 L 659.96875 306 L 659.96875 365 L 602.21875 365 Z M 602.21875 306 " clip-rule="nonzero"/></clipPath></defs><rect x="-76.8" width="921.6" fill="#ffffff" y="-57.6" height="691.2" fill-opacity="1"/><rect x="-76.8" width="921.6" fill="#ffffff" y="-57.6" height="691.2" fill-opacity="1"/><g clip-path="url(#399fa1ea08)"><path fill="#333333" d="M 631.09375 306.074219 C 628.875 306.074219 627.121094 307.886719 627.121094 310.089844 C 627.121094 311 627.414062 311.832031 627.917969 312.507812 C 626.074219 313.605469 624.859375 315.632812 624.859375 317.953125 L 624.859375 318.855469 C 624.859375 320.882812 626.476562 322.496094 628.453125 322.496094 L 633.730469 322.496094 C 635.707031 322.496094 637.324219 320.871094 637.324219 318.855469 L 637.324219 317.953125 C 637.324219 315.632812 636.109375 313.605469 634.265625 312.507812 C 634.777344 311.832031 635.0625 311 635.0625 310.089844 C 635.0625 307.886719 633.308594 306.074219 631.09375 306.074219 Z M 631.09375 308.007812 C 632.210938 308.007812 633.136719 308.921875 633.136719 310.089844 C 633.136719 311.257812 632.210938 312.175781 631.09375 312.175781 C 629.972656 312.175781 629.042969 311.257812 629.042969 310.089844 C 629.042969 308.921875 629.972656 308.007812 631.09375 308.007812 Z M 629.628906 313.824219 C 630.09375 314.015625 630.585938 314.105469 631.09375 314.105469 C 631.597656 314.105469 632.050781 314.023438 632.5625 313.824219 C 634.183594 314.417969 635.398438 316.015625 635.398438 317.953125 L 635.398438 318.855469 C 635.398438 319.792969 634.667969 320.5625 633.730469 320.5625 L 628.453125 320.5625 C 627.519531 320.5625 626.785156 319.792969 626.785156 318.855469 L 626.785156 317.953125 C 626.785156 315.984375 628.039062 314.386719 629.628906 313.824219 Z M 619.492188 318.832031 C 619.335938 318.84375 619.191406 318.890625 619.066406 318.96875 C 611.585938 323.300781 607.03125 331.253906 607.03125 339.882812 C 607.050781 341.171875 608.917969 341.167969 608.953125 339.882812 C 608.953125 331.945312 613.171875 324.613281 620.023438 320.644531 C 620.871094 320.148438 620.550781 318.828125 619.492188 318.832031 Z M 642.621094 318.832031 C 641.597656 318.910156 641.355469 320.148438 642.160156 320.644531 C 649.011719 324.613281 653.230469 331.945312 653.230469 339.882812 C 653.230469 341.171875 655.160156 341.171875 655.160156 339.882812 C 655.160156 331.253906 650.566406 323.28125 643.125 318.96875 C 642.984375 318.882812 642.828125 318.839844 642.621094 318.832031 Z M 631.09375 324.429688 C 622.535156 324.429688 615.6875 331.417969 615.6875 339.882812 C 615.6875 348.351562 622.53125 355.339844 631.09375 355.339844 C 639.660156 355.339844 646.488281 348.375 646.488281 339.882812 C 646.488281 331.382812 639.648438 324.429688 631.09375 324.429688 Z M 628.253906 326.660156 C 626.695312 328.089844 625.414062 329.761719 624.449219 331.613281 C 623.539062 331.183594 622.664062 330.671875 621.832031 330.066406 C 623.597656 328.394531 625.824219 327.191406 628.253906 326.660156 Z M 633.929688 326.667969 C 636.367188 327.191406 638.589844 328.386719 640.351562 330.058594 C 639.519531 330.667969 638.648438 331.191406 637.734375 331.621094 C 636.773438 329.769531 635.488281 328.089844 633.929688 326.667969 Z M 632.050781 327.582031 C 633.644531 328.910156 634.96875 330.542969 635.933594 332.335938 C 634.679688 332.75 633.371094 333.011719 632.050781 333.09375 Z M 630.125 327.597656 L 630.125 333.097656 C 628.804688 333.011719 627.496094 332.753906 626.25 332.34375 C 627.210938 330.546875 628.535156 328.921875 630.125 327.597656 Z M 620.53125 331.492188 C 621.515625 332.230469 622.554688 332.867188 623.652344 333.382812 C 622.972656 335.132812 622.558594 336.996094 622.453125 338.917969 L 617.65625 338.917969 C 617.851562 336.121094 618.890625 333.558594 620.53125 331.492188 Z M 641.660156 331.496094 C 643.292969 333.566406 644.332031 336.121094 644.527344 338.917969 L 639.722656 338.917969 C 639.625 336.996094 639.21875 335.132812 638.53125 333.378906 C 639.628906 332.867188 640.671875 332.230469 641.660156 331.496094 Z M 625.4375 334.109375 C 626.941406 334.625 628.523438 334.933594 630.125 335.023438 L 630.125 338.917969 L 624.382812 338.917969 C 624.484375 337.246094 624.839844 335.632812 625.4375 334.109375 Z M 636.746094 334.109375 C 637.339844 335.632812 637.699219 337.242188 637.800781 338.917969 L 632.050781 338.917969 L 632.050781 335.027344 C 633.652344 334.9375 635.234375 334.625 636.746094 334.109375 Z M 617.652344 340.851562 L 622.453125 340.851562 C 622.558594 342.777344 622.972656 344.636719 623.65625 346.394531 C 622.558594 346.90625 621.511719 347.542969 620.523438 348.277344 C 618.890625 346.207031 617.847656 343.652344 617.652344 340.851562 Z M 624.382812 340.851562 L 630.125 340.851562 L 630.125 344.742188 C 628.523438 344.835938 626.945312 345.144531 625.4375 345.664062 C 624.839844 344.136719 624.484375 342.523438 624.382812 340.851562 Z M 632.050781 340.851562 L 637.800781 340.851562 C 637.699219 342.523438 637.34375 344.136719 636.746094 345.664062 C 635.238281 345.144531 633.648438 344.828125 632.050781 344.742188 Z M 639.722656 340.851562 L 644.527344 340.851562 C 644.332031 343.652344 643.289062 346.203125 641.65625 348.277344 C 640.671875 347.535156 639.625 346.90625 638.527344 346.394531 C 639.214844 344.636719 639.625 342.777344 639.722656 340.851562 Z M 609.917969 343.746094 C 607.253906 343.746094 605.105469 345.917969 605.105469 348.574219 C 605.105469 349.765625 605.535156 350.863281 606.257812 351.707031 C 603.851562 353.011719 602.21875 355.585938 602.21875 358.542969 L 602.21875 359.671875 C 602.21875 362.066406 604.125 364.03125 606.554688 364.03125 L 613.285156 364.03125 C 615.671875 364.03125 617.613281 362.109375 617.613281 359.671875 L 617.613281 358.542969 C 617.613281 355.585938 615.996094 353.019531 613.578125 351.710938 C 614.296875 350.867188 614.730469 349.769531 614.730469 348.574219 C 614.730469 345.917969 612.578125 343.746094 609.917969 343.746094 Z M 652.265625 344.023438 C 649.59375 344.023438 647.453125 346.199219 647.453125 348.855469 C 647.453125 349.964844 647.820312 350.976562 648.457031 351.796875 C 646.117188 353.128906 644.5625 355.679688 644.5625 358.542969 L 644.5625 359.671875 C 644.5625 362.066406 646.480469 364.03125 648.898438 364.03125 L 655.636719 364.03125 C 658.0625 364.03125 659.96875 362.066406 659.96875 359.671875 L 659.96875 358.542969 C 659.96875 355.652344 658.417969 353.128906 656.078125 351.796875 C 656.71875 350.976562 657.085938 349.945312 657.085938 348.855469 C 657.085938 346.199219 654.933594 344.023438 652.265625 344.023438 Z M 609.917969 345.679688 C 611.496094 345.679688 612.804688 346.960938 612.804688 348.574219 C 612.804688 350.1875 611.507812 351.476562 609.917969 351.476562 C 608.332031 351.476562 607.03125 350.1875 607.03125 348.574219 C 607.03125 346.960938 608.335938 345.679688 609.917969 345.679688 Z M 652.265625 345.957031 C 653.847656 345.957031 655.160156 347.238281 655.160156 348.855469 C 655.160156 350.464844 653.847656 351.757812 652.265625 351.757812 C 650.6875 351.757812 649.378906 350.464844 649.378906 348.855469 C 649.378906 347.238281 650.6875 345.957031 652.265625 345.957031 Z M 630.125 346.675781 L 630.125 352.179688 C 628.535156 350.855469 627.210938 349.226562 626.25 347.429688 C 627.496094 347.023438 628.804688 346.761719 630.125 346.675781 Z M 632.050781 346.675781 C 633.371094 346.761719 634.675781 347.019531 635.929688 347.429688 C 634.96875 349.226562 633.652344 350.851562 632.058594 352.175781 Z M 624.449219 348.15625 C 625.414062 350 626.695312 351.675781 628.25 353.101562 C 625.789062 352.570312 623.59375 351.378906 621.832031 349.703125 C 622.664062 349.101562 623.539062 348.582031 624.449219 348.15625 Z M 637.734375 348.15625 C 638.648438 348.582031 639.523438 349.101562 640.355469 349.710938 C 638.621094 351.359375 636.386719 352.578125 633.925781 353.105469 C 635.488281 351.671875 636.773438 350 637.734375 348.15625 Z M 611.785156 353.03125 C 614.03125 353.785156 615.6875 355.953125 615.6875 358.542969 L 615.6875 359.671875 C 615.6875 361.007812 614.632812 362.101562 613.285156 362.101562 L 606.554688 362.101562 C 605.21875 362.101562 604.140625 361.035156 604.140625 359.671875 L 604.140625 358.542969 C 604.140625 355.953125 605.792969 353.789062 608.046875 353.03125 C 608.613281 353.265625 609.269531 353.40625 609.917969 353.40625 C 610.570312 353.40625 611.21875 353.265625 611.785156 353.03125 Z M 650.070312 353.152344 C 650.722656 353.484375 651.488281 353.6875 652.265625 353.6875 C 653.042969 353.6875 653.8125 353.488281 654.460938 353.152344 C 656.539062 353.992188 658.042969 356.074219 658.042969 358.542969 L 658.042969 359.671875 C 658.042969 361.035156 656.964844 362.101562 655.636719 362.101562 L 648.898438 362.101562 C 647.578125 362.101562 646.488281 361.035156 646.488281 359.671875 L 646.488281 358.542969 C 646.488281 356.074219 648.03125 353.976562 650.070312 353.152344 Z M 622.179688 360.34375 C 621.179688 360.441406 620.964844 361.800781 621.898438 362.203125 C 627.785156 364.640625 634.390625 364.640625 640.28125 362.203125 C 641.25 361.777344 640.960938 360.410156 639.980469 360.34375 C 639.828125 360.34375 639.683594 360.351562 639.550781 360.421875 C 634.128906 362.664062 628.050781 362.664062 622.628906 360.421875 C 622.484375 360.355469 622.339844 360.335938 622.179688 360.34375 " fill-opacity="1" fill-rule="nonzero"/></g></svg>