<svg xmlns="http://www.w3.org/2000/svg" xmlns:xlink="http://www.w3.org/1999/xlink" width="1024" zoomAndPan="magnify" viewBox="0 0 768 576" height="768" preserveAspectRatio="xMidYMid meet" version="1.0"><defs><clipPath id="467f3d1e22"><path d="M 606.207031 402.097656 L 670.707031 402.097656 L 670.707031 465.097656 L 606.207031 465.097656 Z M 606.207031 402.097656 " clip-rule="nonzero"/></clipPath></defs><rect x="-76.8" width="921.6" fill="#ffffff" y="-57.6" height="691.2" fill-opacity="1"/><rect x="-76.8" width="921.6" fill="#ffffff" y="-57.6" height="691.2" fill-opacity="1"/><path fill="#000000" d="M 623.542969 411.558594 L 619.382812 415.683594 L 617.9375 414.25 C 617.578125 413.894531 616.996094 413.894531 616.636719 414.25 C 616.273438 414.609375 616.273438 415.1875 616.636719 415.542969 L 618.730469 417.625 C 618.910156 417.800781 619.148438 417.890625 619.382812 417.890625 C 619.617188 417.890625 619.855469 417.800781 620.035156 417.625 L 621.285156 416.382812 L 621.285156 418.359375 L 614.105469 418.359375 L 614.105469 411.238281 L 621.417969 411.238281 C 621.578125 411.5 621.871094 411.675781 622.207031 411.675781 C 622.714844 411.675781 623.125 411.265625 623.125 410.761719 L 623.125 410.324219 C 623.125 409.816406 622.714844 409.410156 622.207031 409.410156 L 613.183594 409.410156 C 612.675781 409.410156 612.261719 409.816406 612.261719 410.324219 L 612.261719 419.273438 C 612.261719 419.777344 612.675781 420.1875 613.183594 420.1875 L 622.207031 420.1875 C 622.714844 420.1875 623.125 419.777344 623.125 419.273438 L 623.125 414.589844 C 623.125 414.578125 623.125 414.566406 623.125 414.558594 L 624.84375 412.851562 C 625.203125 412.492188 625.203125 411.914062 624.84375 411.558594 C 624.484375 411.203125 623.902344 411.203125 623.542969 411.558594 Z M 623.542969 411.558594 " fill-opacity="1" fill-rule="nonzero"/><path fill="#000000" d="M 628.117188 413.199219 L 644.414062 413.199219 C 644.921875 413.199219 645.332031 412.792969 645.332031 412.289062 C 645.332031 411.78125 644.921875 411.375 644.414062 411.375 L 628.117188 411.375 C 627.605469 411.375 627.195312 411.78125 627.195312 412.289062 C 627.195312 412.792969 627.605469 413.199219 628.117188 413.199219 Z M 628.117188 413.199219 " fill-opacity="1" fill-rule="nonzero"/><path fill="#000000" d="M 628.117188 418.222656 L 644.414062 418.222656 C 644.921875 418.222656 645.332031 417.8125 645.332031 417.308594 C 645.332031 416.804688 644.921875 416.394531 644.414062 416.394531 L 628.117188 416.394531 C 627.605469 416.394531 627.195312 416.804688 627.195312 417.308594 C 627.195312 417.8125 627.605469 418.222656 628.117188 418.222656 Z M 628.117188 418.222656 " fill-opacity="1" fill-rule="nonzero"/><path fill="#000000" d="M 623.542969 427.105469 L 619.382812 431.230469 L 617.9375 429.796875 C 617.578125 429.441406 616.996094 429.441406 616.636719 429.796875 C 616.273438 430.152344 616.273438 430.730469 616.636719 431.089844 L 618.730469 433.167969 C 618.910156 433.347656 619.148438 433.4375 619.382812 433.4375 C 619.617188 433.4375 619.855469 433.347656 620.035156 433.167969 L 621.285156 431.929688 L 621.285156 433.90625 L 614.105469 433.90625 L 614.105469 426.78125 L 621.417969 426.78125 C 621.578125 427.046875 621.871094 427.222656 622.207031 427.222656 C 622.714844 427.222656 623.125 426.8125 623.125 426.308594 L 623.125 425.867188 C 623.125 425.363281 622.714844 424.957031 622.207031 424.957031 L 613.183594 424.957031 C 612.675781 424.957031 612.261719 425.363281 612.261719 425.867188 L 612.261719 434.820312 C 612.261719 435.324219 612.675781 435.734375 613.183594 435.734375 L 622.207031 435.734375 C 622.714844 435.734375 623.125 435.324219 623.125 434.820312 L 623.125 430.136719 C 623.125 430.125 623.125 430.113281 623.125 430.101562 L 624.84375 428.398438 C 625.203125 428.039062 625.203125 427.460938 624.84375 427.105469 C 624.484375 426.746094 623.902344 426.746094 623.542969 427.105469 Z M 623.542969 427.105469 " fill-opacity="1" fill-rule="nonzero"/><path fill="#000000" d="M 628.117188 428.746094 L 644.414062 428.746094 C 644.921875 428.746094 645.332031 428.339844 645.332031 427.832031 C 645.332031 427.328125 644.921875 426.917969 644.414062 426.917969 L 628.117188 426.917969 C 627.605469 426.917969 627.195312 427.328125 627.195312 427.832031 C 627.195312 428.339844 627.605469 428.746094 628.117188 428.746094 Z M 628.117188 428.746094 " fill-opacity="1" fill-rule="nonzero"/><path fill="#000000" d="M 628.117188 433.769531 L 644.414062 433.769531 C 644.921875 433.769531 645.332031 433.359375 645.332031 432.855469 C 645.332031 432.351562 644.921875 431.941406 644.414062 431.941406 L 628.117188 431.941406 C 627.605469 431.941406 627.195312 432.351562 627.195312 432.855469 C 627.195312 433.359375 627.605469 433.769531 628.117188 433.769531 Z M 628.117188 433.769531 " fill-opacity="1" fill-rule="nonzero"/><path fill="#000000" d="M 623.542969 442.652344 L 619.382812 446.777344 L 617.9375 445.34375 C 617.578125 444.988281 616.996094 444.988281 616.636719 445.34375 C 616.273438 445.699219 616.273438 446.277344 616.636719 446.636719 L 618.730469 448.714844 C 618.90625 448.886719 619.140625 448.984375 619.382812 448.984375 C 619.628906 448.984375 619.863281 448.886719 620.035156 448.714844 L 621.285156 447.476562 L 621.285156 449.453125 L 614.105469 449.453125 L 614.105469 442.328125 L 621.417969 442.328125 C 621.578125 442.589844 621.871094 442.765625 622.207031 442.765625 C 622.714844 442.765625 623.125 442.359375 623.125 441.855469 L 623.125 441.414062 C 623.125 440.910156 622.714844 440.5 622.207031 440.5 L 613.183594 440.5 C 612.675781 440.5 612.261719 440.910156 612.261719 441.414062 L 612.261719 450.367188 C 612.261719 450.871094 612.675781 451.277344 613.183594 451.277344 L 622.207031 451.277344 C 622.714844 451.277344 623.125 450.871094 623.125 450.367188 L 623.125 445.683594 C 623.125 445.671875 623.125 445.660156 623.125 445.648438 L 624.84375 443.941406 C 625.203125 443.585938 625.203125 443.007812 624.84375 442.652344 C 624.484375 442.292969 623.902344 442.292969 623.542969 442.652344 Z M 623.542969 442.652344 " fill-opacity="1" fill-rule="nonzero"/><path fill="#000000" d="M 628.117188 444.292969 L 644.414062 444.292969 C 644.921875 444.292969 645.332031 443.882812 645.332031 443.378906 C 645.332031 442.875 644.921875 442.464844 644.414062 442.464844 L 628.117188 442.464844 C 627.605469 442.464844 627.195312 442.875 627.195312 443.378906 C 627.195312 443.882812 627.605469 444.292969 628.117188 444.292969 Z M 628.117188 444.292969 " fill-opacity="1" fill-rule="nonzero"/><path fill="#000000" d="M 634.410156 448.402344 C 634.410156 447.894531 633.996094 447.488281 633.488281 447.488281 L 628.117188 447.488281 C 627.605469 447.488281 627.195312 447.894531 627.195312 448.402344 C 627.195312 448.90625 627.605469 449.3125 628.117188 449.3125 L 633.488281 449.3125 C 633.996094 449.3125 634.410156 448.90625 634.410156 448.402344 Z M 634.410156 448.402344 " fill-opacity="1" fill-rule="nonzero"/><g clip-path="url(#467f3d1e22)"><path fill="#000000" d="M 669.144531 456.984375 C 668.363281 455.855469 667.347656 454.929688 666.160156 454.265625 C 666.824219 453.359375 667.179688 452.269531 667.179688 451.128906 C 667.179688 449.691406 666.617188 448.339844 665.589844 447.324219 C 664.566406 446.308594 663.207031 445.75 661.757812 445.75 C 660.308594 445.75 658.949219 446.308594 657.921875 447.324219 C 657.722656 447.523438 657.535156 447.738281 657.371094 447.964844 C 656.796875 447.394531 656.148438 446.90625 655.445312 446.511719 C 656.105469 445.601562 656.464844 444.511719 656.464844 443.371094 C 656.464844 441.933594 655.898438 440.582031 654.875 439.566406 C 654.050781 438.746094 653.007812 438.226562 651.875 438.054688 L 651.875 403.011719 C 651.875 402.507812 651.460938 402.097656 650.953125 402.097656 L 607.128906 402.097656 C 606.621094 402.097656 606.207031 402.507812 606.207031 403.011719 L 606.207031 456.648438 C 606.207031 457.152344 606.621094 457.5625 607.128906 457.5625 L 632.484375 457.5625 C 631.703125 458.90625 631.292969 460.425781 631.292969 461.996094 L 631.292969 464.1875 C 631.292969 464.691406 631.703125 465.101562 632.210938 465.101562 L 648.261719 465.101562 C 648.773438 465.101562 649.183594 464.691406 649.183594 464.1875 L 649.183594 461.996094 C 649.183594 460.339844 648.726562 458.738281 647.855469 457.34375 L 654.136719 457.34375 C 653.269531 458.738281 652.8125 460.339844 652.8125 461.996094 L 652.8125 464.1875 C 652.8125 464.691406 653.222656 465.101562 653.730469 465.101562 L 669.78125 465.101562 C 670.292969 465.101562 670.703125 464.691406 670.703125 464.1875 L 670.703125 461.996094 C 670.703125 460.195312 670.164062 458.464844 669.144531 456.984375 Z M 661.757812 447.574219 C 663.730469 447.574219 665.335938 449.167969 665.335938 451.128906 C 665.335938 453.085938 663.730469 454.679688 661.757812 454.679688 C 659.785156 454.679688 658.175781 453.085938 658.175781 451.128906 C 658.175781 449.167969 659.785156 447.574219 661.757812 447.574219 Z M 656.515625 449.746094 C 656.398438 450.191406 656.335938 450.65625 656.335938 451.128906 C 656.335938 452.269531 656.691406 453.359375 657.355469 454.265625 C 656.734375 454.613281 656.160156 455.035156 655.644531 455.515625 L 646.351562 455.515625 C 645.835938 455.03125 645.261719 454.613281 644.640625 454.265625 C 645.304688 453.359375 645.660156 452.269531 645.660156 451.128906 C 645.660156 450.683594 645.605469 450.246094 645.5 449.828125 C 646.183594 448.984375 647.054688 448.304688 648.035156 447.847656 C 648.917969 448.433594 649.957031 448.75 651.042969 448.75 C 652.128906 448.75 653.164062 448.433594 654.046875 447.847656 C 654.996094 448.289062 655.84375 448.941406 656.515625 449.746094 Z M 636.65625 451.128906 C 636.65625 449.167969 638.265625 447.574219 640.238281 447.574219 C 642.210938 447.574219 643.816406 449.167969 643.816406 451.128906 C 643.816406 453.085938 642.210938 454.679688 640.238281 454.679688 C 638.265625 454.679688 636.65625 453.085938 636.65625 451.128906 Z M 654.621094 443.371094 C 654.621094 445.328125 653.015625 446.921875 651.042969 446.921875 C 649.066406 446.921875 647.460938 445.328125 647.460938 443.371094 C 647.460938 441.410156 649.066406 439.816406 651.042969 439.816406 C 653.015625 439.816406 654.621094 441.410156 654.621094 443.371094 Z M 608.050781 403.925781 L 650.03125 403.925781 L 650.03125 438.082031 C 648.96875 438.28125 647.988281 438.789062 647.207031 439.566406 C 646.183594 440.582031 645.621094 441.933594 645.621094 443.371094 C 645.621094 444.511719 645.976562 445.601562 646.636719 446.507812 C 645.914062 446.917969 645.246094 447.425781 644.660156 448.015625 C 644.488281 447.769531 644.289062 447.539062 644.070312 447.324219 C 643.046875 446.308594 641.6875 445.75 640.238281 445.75 C 638.789062 445.75 637.429688 446.308594 636.402344 447.324219 C 635.378906 448.339844 634.816406 449.691406 634.816406 451.128906 C 634.816406 452.269531 635.171875 453.359375 635.835938 454.265625 C 635.121094 454.667969 634.46875 455.160156 633.894531 455.734375 L 608.050781 455.734375 Z M 647.34375 463.273438 L 633.132812 463.273438 L 633.132812 461.996094 C 633.132812 460.582031 633.554688 459.21875 634.347656 458.054688 C 634.535156 457.78125 634.738281 457.519531 634.960938 457.277344 C 634.96875 457.265625 634.980469 457.253906 634.992188 457.242188 C 635.621094 456.558594 636.378906 456 637.230469 455.605469 C 638.113281 456.191406 639.152344 456.507812 640.238281 456.507812 C 641.324219 456.507812 642.359375 456.191406 643.242188 455.605469 C 644.394531 456.140625 645.378906 456.96875 646.101562 458.015625 C 646.914062 459.191406 647.34375 460.566406 647.34375 461.996094 Z M 668.863281 463.273438 L 654.652344 463.273438 L 654.652344 461.996094 C 654.652344 460.582031 655.074219 459.21875 655.867188 458.054688 C 656.589844 456.988281 657.585938 456.148438 658.75 455.605469 C 659.632812 456.191406 660.671875 456.507812 661.757812 456.507812 C 662.84375 456.507812 663.882812 456.191406 664.765625 455.605469 C 665.914062 456.140625 666.898438 456.96875 667.625 458.015625 C 668.433594 459.191406 668.863281 460.566406 668.863281 461.996094 Z M 668.863281 463.273438 " fill-opacity="1" fill-rule="nonzero"/></g></svg>