<svg xmlns="http://www.w3.org/2000/svg" xmlns:xlink="http://www.w3.org/1999/xlink" width="1024" zoomAndPan="magnify" viewBox="0 0 768 576" height="768" preserveAspectRatio="xMidYMid meet" version="1.0"><defs><clipPath id="26d5b64849"><path d="M 624.757812 301.875 L 725.636719 301.875 L 725.636719 322.804688 L 624.757812 322.804688 Z M 624.757812 301.875 " clip-rule="nonzero"/></clipPath><clipPath id="4e35e4a3ab"><path d="M 675.183594 301.875 C 647.335938 301.875 624.757812 306.5625 624.757812 312.339844 C 624.757812 318.117188 647.335938 322.804688 675.183594 322.804688 C 703.035156 322.804688 725.613281 318.117188 725.613281 312.339844 C 725.613281 306.5625 703.035156 301.875 675.183594 301.875 Z M 675.183594 301.875 " clip-rule="nonzero"/></clipPath><clipPath id="1b823f7d80"><path d="M 624.757812 298.121094 L 725.613281 298.121094 L 725.613281 312.339844 L 624.757812 312.339844 Z M 624.757812 298.121094 " clip-rule="nonzero"/></clipPath><clipPath id="81c7b0cd28"><path d="M 624.757812 289.539062 L 725.667969 289.539062 L 725.667969 306.703125 L 624.757812 306.703125 Z M 624.757812 289.539062 " clip-rule="nonzero"/></clipPath><clipPath id="80757c6051"><path d="M 675.183594 289.539062 C 647.335938 289.539062 624.757812 293.382812 624.757812 298.121094 C 624.757812 302.863281 647.335938 306.703125 675.183594 306.703125 C 703.035156 306.703125 725.613281 302.863281 725.613281 298.121094 C 725.613281 293.382812 703.035156 289.539062 675.183594 289.539062 Z M 675.183594 289.539062 " clip-rule="nonzero"/></clipPath></defs><rect x="-76.8" width="921.6" fill="#ffffff" y="-57.6" height="691.2" fill-opacity="1"/><rect x="-76.8" width="921.6" fill="#ffffff" y="-57.6" height="691.2" fill-opacity="1"/><g clip-path="url(#26d5b64849)"><g clip-path="url(#4e35e4a3ab)"><path fill="#3e9dff" d="M 624.757812 301.875 L 725.636719 301.875 L 725.636719 322.804688 L 624.757812 322.804688 Z M 624.757812 301.875 " fill-opacity="1" fill-rule="nonzero"/></g></g><g clip-path="url(#1b823f7d80)"><path fill="#3e9dff" d="M 624.757812 298.121094 L 725.613281 298.121094 L 725.613281 312.339844 L 624.757812 312.339844 Z M 624.757812 298.121094 " fill-opacity="1" fill-rule="nonzero"/></g><g clip-path="url(#81c7b0cd28)"><g clip-path="url(#80757c6051)"><path fill="#b1d7ff" d="M 624.757812 289.539062 L 725.601562 289.539062 L 725.601562 306.703125 L 624.757812 306.703125 Z M 624.757812 289.539062 " fill-opacity="1" fill-rule="nonzero"/></g></g></svg>