<svg xmlns="http://www.w3.org/2000/svg" xmlns:xlink="http://www.w3.org/1999/xlink" width="1024" zoomAndPan="magnify" viewBox="0 0 768 576" height="768" preserveAspectRatio="xMidYMid meet" version="1.0"><defs><clipPath id="c22fc320e4"><path d="M 367.117188 246 L 407 246 L 407 286.726562 L 367.117188 286.726562 Z M 367.117188 246 " clip-rule="nonzero"/></clipPath><clipPath id="76c3901f3f"><path d="M 396 241 L 412.867188 241 L 412.867188 258 L 396 258 Z M 396 241 " clip-rule="nonzero"/></clipPath></defs><rect x="-76.8" width="921.6" fill="#ffffff" y="-57.6" height="691.2" fill-opacity="1"/><rect x="-76.8" width="921.6" fill="#ffffff" y="-57.6" height="691.2" fill-opacity="1"/><path fill="#ffffff" d="M 408.023438 245.585938 L 401.683594 251.964844 L 392.070312 261.539062 L 385.734375 267.917969 L 381.746094 263.929688 L 402.21875 243.457031 C 403.101562 242.574219 404.433594 242.441406 405.453125 243.058594 Z M 408.023438 245.585938 " fill-opacity="1" fill-rule="nonzero"/><g clip-path="url(#c22fc320e4)"><path stroke-linecap="round" transform="matrix(0.443101, 0, 0, 0.443101, 356.488932, 230.165562)" fill="none" stroke-linejoin="round" d="M 93.004282 40.196258 L 32.995738 40.196258 C 29.698662 40.196258 27.001055 42.902682 27.001055 46.199757 L 27.001055 118.197668 C 27.001055 121.50356 29.698662 124.201167 32.995738 124.201167 L 105.002465 124.201167 C 108.29954 124.201167 110.997148 121.50356 110.997148 118.197668 L 110.997148 58.19794 " stroke="#032193" stroke-width="6" stroke-opacity="1" stroke-miterlimit="4"/></g><path stroke-linecap="round" transform="matrix(0.443101, 0, 0, 0.443101, 356.488932, 230.165562)" fill="none" stroke-linejoin="round" d="M 75.002601 94.201303 L 65.402291 96.599177 L 50.99742 100.195987 L 54.197523 87.40439 L 54.603046 85.799931 L 57.000919 76.199622 Z M 75.002601 94.201303 " stroke="#032193" stroke-width="6" stroke-opacity="1" stroke-miterlimit="4"/><path stroke-linecap="round" transform="matrix(0.313314, -0.313325, 0.313325, 0.313314, 346.345356, 265.201766)" fill="none" stroke-linejoin="round" d="M 58.497112 54.401679 L 109.401088 54.402567 L 109.400643 79.89819 L 58.496668 79.897302 Z M 58.497112 54.401679 " stroke="#032193" stroke-width="6" stroke-opacity="1" stroke-miterlimit="4"/><path stroke-linecap="round" transform="matrix(0.443101, 0, 0, 0.443101, 356.488932, 230.165562)" fill="none" stroke-linejoin="round" d="M 86.90381 112.202985 L 93.004282 112.202985 " stroke="#2056ff" stroke-width="6" stroke-opacity="1" stroke-miterlimit="4"/><path stroke-linecap="round" transform="matrix(0.443101, 0, 0, 0.443101, 356.488932, 230.165562)" fill="none" stroke-linejoin="round" d="M 45.002736 112.202985 L 75.099573 112.202985 " stroke="#2056ff" stroke-width="6" stroke-opacity="1" stroke-miterlimit="4"/><g clip-path="url(#76c3901f3f)"><path stroke-linecap="round" transform="matrix(0.443101, 0, 0, 0.443101, 356.488932, 230.165562)" fill="none" stroke-linejoin="round" d="M 121.196925 47.90119 L 110.997148 58.19794 L 93.004282 40.196258 L 103.20406 29.996481 C 105.19641 28.00413 108.202568 27.704396 110.503468 29.097278 C 110.900175 29.397013 111.402671 29.696747 111.702405 29.996481 L 121.196925 39.499817 C 123.603615 41.800718 123.603615 45.600289 121.196925 47.90119 Z M 121.196925 47.90119 " stroke="#2056ff" stroke-width="6" stroke-opacity="1" stroke-miterlimit="4"/></g></svg>