<svg version="1.0" preserveAspectRatio="xMidYMid meet" viewBox="125.70674662668665 384.9984 119.74812593703149 140.54399999999998" zoomAndPan="magnify" xmlns:xlink="http://www.w3.org/1999/xlink" xmlns="http://www.w3.org/2000/svg" style="max-height: 500px" width="119.74812593703149" height="140.54399999999998"><defs><g/><clipPath id="80f49611c2"><path clip-rule="nonzero" d="M 127.519531 421 L 186 421 L 186 523.375 L 127.519531 523.375 Z M 127.519531 421"/></clipPath><clipPath id="66cd0f8497"><path clip-rule="nonzero" d="M 185 421 L 243 421 L 243 523.375 L 185 523.375 Z M 185 421"/></clipPath><clipPath id="41d73405d3"><path clip-rule="nonzero" d="M 127.519531 386.125 L 243 386.125 L 243 457 L 127.519531 457 Z M 127.519531 386.125"/></clipPath></defs><g clip-path="url(#80f49611c2)"><path fill-rule="nonzero" fill-opacity="1" d="M 185.105469 466.433594 L 185.105469 456.019531 L 127.519531 456.019531 L 127.519531 488.429688 L 185.105469 488.429688 Z M 127.519531 488.429688 L 185.105469 523.351562 L 185.105469 488.429688 Z M 127.519531 421.101562 L 185.105469 421.101562 L 185.105469 456.019531 L 127.519531 456.019531 Z M 127.519531 421.101562" fill="#a6deff"/></g><g clip-path="url(#66cd0f8497)"><path fill-rule="nonzero" fill-opacity="1" d="M 185.105469 456.019531 L 185.105469 488.429688 L 242.691406 488.429688 L 242.691406 456.019531 Z M 185.105469 421.101562 L 242.691406 421.101562 L 242.691406 456.019531 L 185.105469 456.019531 Z M 185.105469 523.351562 L 242.691406 488.429688 L 185.105469 488.429688 Z M 185.105469 523.351562" fill="#c8ebff"/></g><g clip-path="url(#41d73405d3)"><path fill-rule="nonzero" fill-opacity="1" d="M 185.105469 456.019531 L 127.519531 421.101562 L 185.105469 386.179688 L 242.691406 421.101562 Z M 185.105469 456.019531" fill="#e0f1fa"/></g><g fill-opacity="1" fill="#404040"><g transform="translate(167.955286, 429.412586)"><g><path d="M 12.84375 -8.5625 C 12.84375 -7.1875 12.734375 -5.953125 12.515625 -4.859375 C 12.304688 -3.773438 11.960938 -2.851562 11.484375 -2.09375 C 11.015625 -1.34375 10.394531 -0.765625 9.625 -0.359375 C 8.863281 0.0351562 7.9375 0.234375 6.84375 0.234375 C 5.46875 0.234375 4.335938 -0.113281 3.453125 -0.8125 C 2.578125 -1.507812 1.925781 -2.515625 1.5 -3.828125 C 1.082031 -5.148438 0.875 -6.726562 0.875 -8.5625 C 0.875 -10.414062 1.066406 -12 1.453125 -13.3125 C 1.835938 -14.632812 2.46875 -15.644531 3.34375 -16.34375 C 4.21875 -17.050781 5.382812 -17.40625 6.84375 -17.40625 C 8.207031 -17.40625 9.332031 -17.054688 10.21875 -16.359375 C 11.113281 -15.660156 11.773438 -14.648438 12.203125 -13.328125 C 12.628906 -12.015625 12.84375 -10.425781 12.84375 -8.5625 Z M 4.46875 -8.5625 C 4.46875 -7.257812 4.539062 -6.171875 4.6875 -5.296875 C 4.832031 -4.429688 5.078125 -3.78125 5.421875 -3.34375 C 5.765625 -2.90625 6.238281 -2.6875 6.84375 -2.6875 C 7.445312 -2.6875 7.921875 -2.898438 8.265625 -3.328125 C 8.617188 -3.765625 8.867188 -4.414062 9.015625 -5.28125 C 9.160156 -6.15625 9.234375 -7.25 9.234375 -8.5625 C 9.234375 -9.875 9.160156 -10.96875 9.015625 -11.84375 C 8.867188 -12.71875 8.617188 -13.375 8.265625 -13.8125 C 7.921875 -14.25 7.445312 -14.46875 6.84375 -14.46875 C 6.238281 -14.46875 5.765625 -14.25 5.421875 -13.8125 C 5.078125 -13.375 4.832031 -12.71875 4.6875 -11.84375 C 4.539062 -10.96875 4.46875 -9.875 4.46875 -8.5625 Z M 4.46875 -8.5625"/></g></g><g transform="translate(181.677942, 429.412586)"><g><path d="M 13.328125 -3.546875 L 11.265625 -3.546875 L 11.265625 0 L 7.71875 0 L 7.71875 -3.546875 L 0.40625 -3.546875 L 0.40625 -6.078125 L 7.921875 -17.140625 L 11.265625 -17.140625 L 11.265625 -6.359375 L 13.328125 -6.359375 Z M 7.71875 -6.359375 L 7.71875 -9.265625 C 7.71875 -9.546875 7.722656 -9.875 7.734375 -10.25 C 7.753906 -10.625 7.769531 -11 7.78125 -11.375 C 7.800781 -11.75 7.816406 -12.082031 7.828125 -12.375 C 7.847656 -12.664062 7.863281 -12.867188 7.875 -12.984375 L 7.78125 -12.984375 C 7.632812 -12.660156 7.476562 -12.347656 7.3125 -12.046875 C 7.144531 -11.753906 6.953125 -11.441406 6.734375 -11.109375 L 3.59375 -6.359375 Z M 7.71875 -6.359375"/></g></g><g transform="translate(195.400597, 429.412586)"><g><path d="M 1.375 -1.671875 C 1.375 -2.410156 1.570312 -2.925781 1.96875 -3.21875 C 2.375 -3.519531 2.863281 -3.671875 3.4375 -3.671875 C 3.988281 -3.671875 4.460938 -3.519531 4.859375 -3.21875 C 5.265625 -2.925781 5.46875 -2.410156 5.46875 -1.671875 C 5.46875 -0.972656 5.265625 -0.46875 4.859375 -0.15625 C 4.460938 0.15625 3.988281 0.3125 3.4375 0.3125 C 2.863281 0.3125 2.375 0.15625 1.96875 -0.15625 C 1.570312 -0.46875 1.375 -0.972656 1.375 -1.671875 Z M 1.375 -1.671875"/></g></g></g></svg>