<svg version="1.0" preserveAspectRatio="xMidYMid meet" viewBox="67.70374812593704 76.9536 120.89955022488756 139.392" zoomAndPan="magnify" xmlns:xlink="http://www.w3.org/1999/xlink" xmlns="http://www.w3.org/2000/svg" style="max-height: 500px" width="120.89955022488756" height="139.392"><defs><g/><clipPath id="ed4a2721fe"><path clip-rule="nonzero" d="M 69.929688 114 L 128 114 L 128 216.480469 L 69.929688 216.480469 Z M 69.929688 114"/></clipPath><clipPath id="9b94b41c60"><path clip-rule="nonzero" d="M 127 114 L 185.429688 114 L 185.429688 216.480469 L 127 216.480469 Z M 127 114"/></clipPath><clipPath id="a0bc3d2252"><path clip-rule="nonzero" d="M 69.929688 79.230469 L 185.429688 79.230469 L 185.429688 150 L 69.929688 150 Z M 69.929688 79.230469"/></clipPath></defs><g fill-opacity="1" fill="#ffffff"><g transform="translate(35.283476, 476.082888)"><g><path d="M -4.15625 -10.734375 C -3.269531 -10.734375 -2.5 -10.515625 -1.84375 -10.078125 C -1.1875 -9.648438 -0.679688 -9.023438 -0.328125 -8.203125 C 0.0234375 -7.378906 0.203125 -6.378906 0.203125 -5.203125 C 0.203125 -4.691406 0.164062 -4.1875 0.09375 -3.6875 C 0.03125 -3.1875 -0.0664062 -2.707031 -0.203125 -2.25 C -0.335938 -1.800781 -0.503906 -1.375 -0.703125 -0.96875 L -3.65625 -0.96875 C -3.332031 -1.675781 -3.046875 -2.410156 -2.796875 -3.171875 C -2.546875 -3.941406 -2.421875 -4.703125 -2.421875 -5.453125 C -2.421875 -5.972656 -2.488281 -6.390625 -2.625 -6.703125 C -2.757812 -7.023438 -2.945312 -7.257812 -3.1875 -7.40625 C -3.425781 -7.550781 -3.703125 -7.625 -4.015625 -7.625 C -4.390625 -7.625 -4.707031 -7.492188 -4.96875 -7.234375 C -5.238281 -6.984375 -5.488281 -6.632812 -5.71875 -6.1875 C -5.957031 -5.75 -6.207031 -5.253906 -6.46875 -4.703125 C -6.632812 -4.359375 -6.832031 -3.976562 -7.0625 -3.5625 C -7.300781 -3.15625 -7.59375 -2.765625 -7.9375 -2.390625 C -8.28125 -2.023438 -8.695312 -1.722656 -9.1875 -1.484375 C -9.675781 -1.253906 -10.257812 -1.140625 -10.9375 -1.140625 C -11.832031 -1.140625 -12.597656 -1.34375 -13.234375 -1.75 C -13.867188 -2.164062 -14.351562 -2.753906 -14.6875 -3.515625 C -15.03125 -4.273438 -15.203125 -5.175781 -15.203125 -6.21875 C -15.203125 -7 -15.109375 -7.738281 -14.921875 -8.4375 C -14.742188 -9.144531 -14.488281 -9.890625 -14.15625 -10.671875 L -11.671875 -9.640625 C -11.953125 -8.953125 -12.171875 -8.332031 -12.328125 -7.78125 C -12.484375 -7.238281 -12.5625 -6.679688 -12.5625 -6.109375 C -12.5625 -5.710938 -12.5 -5.375 -12.375 -5.09375 C -12.25 -4.8125 -12.070312 -4.597656 -11.84375 -4.453125 C -11.613281 -4.316406 -11.347656 -4.25 -11.046875 -4.25 C -10.691406 -4.25 -10.390625 -4.351562 -10.140625 -4.5625 C -9.898438 -4.769531 -9.664062 -5.082031 -9.4375 -5.5 C -9.21875 -5.914062 -8.957031 -6.441406 -8.65625 -7.078125 C -8.289062 -7.835938 -7.910156 -8.488281 -7.515625 -9.03125 C -7.128906 -9.582031 -6.671875 -10.003906 -6.140625 -10.296875 C -5.609375 -10.585938 -4.945312 -10.734375 -4.15625 -10.734375 Z M -4.15625 -10.734375"/></g></g></g><g fill-opacity="1" fill="#ffffff"><g transform="translate(35.283476, 463.466482)"><g><path d="M 0 -7.671875 L 0 -4.484375 L -12.34375 -4.484375 L -12.34375 -0.421875 L -14.984375 -0.421875 L -14.984375 -11.734375 L -12.34375 -11.734375 L -12.34375 -7.671875 Z M 0 -7.671875"/></g></g></g><g fill-opacity="1" fill="#ffffff"><g transform="translate(35.283476, 450.255351)"><g><path d="M 0 -10.515625 L 0 -1.890625 L -14.984375 -1.890625 L -14.984375 -10.515625 L -12.390625 -10.515625 L -12.390625 -5.0625 L -9.09375 -5.0625 L -9.09375 -10.140625 L -6.484375 -10.140625 L -6.484375 -5.0625 L -2.625 -5.0625 L -2.625 -10.515625 Z M 0 -10.515625"/></g></g></g><g fill-opacity="1" fill="#ffffff"><g transform="translate(35.283476, 437.444123)"><g><path d="M -14.984375 -6.671875 C -14.984375 -8.609375 -14.566406 -10.019531 -13.734375 -10.90625 C -12.910156 -11.800781 -11.769531 -12.25 -10.3125 -12.25 C -9.65625 -12.25 -9.023438 -12.148438 -8.421875 -11.953125 C -7.828125 -11.753906 -7.296875 -11.429688 -6.828125 -10.984375 C -6.367188 -10.535156 -6.003906 -9.9375 -5.734375 -9.1875 C -5.460938 -8.4375 -5.328125 -7.515625 -5.328125 -6.421875 L -5.328125 -5.0625 L 0 -5.0625 L 0 -1.890625 L -14.984375 -1.890625 Z M -12.390625 -6.515625 L -12.390625 -5.0625 L -7.9375 -5.0625 L -7.9375 -6.109375 C -7.9375 -6.703125 -8.015625 -7.21875 -8.171875 -7.65625 C -8.328125 -8.09375 -8.570312 -8.429688 -8.90625 -8.671875 C -9.238281 -8.910156 -9.671875 -9.03125 -10.203125 -9.03125 C -10.941406 -9.03125 -11.488281 -8.820312 -11.84375 -8.40625 C -12.207031 -8 -12.390625 -7.367188 -12.390625 -6.515625 Z M -12.390625 -6.515625"/></g></g></g><g fill-opacity="1" fill="#ffffff"><g transform="translate(35.283476, 423.207599)"><g><path d="M -4.15625 -10.734375 C -3.269531 -10.734375 -2.5 -10.515625 -1.84375 -10.078125 C -1.1875 -9.648438 -0.679688 -9.023438 -0.328125 -8.203125 C 0.0234375 -7.378906 0.203125 -6.378906 0.203125 -5.203125 C 0.203125 -4.691406 0.164062 -4.1875 0.09375 -3.6875 C 0.03125 -3.1875 -0.0664062 -2.707031 -0.203125 -2.25 C -0.335938 -1.800781 -0.503906 -1.375 -0.703125 -0.96875 L -3.65625 -0.96875 C -3.332031 -1.675781 -3.046875 -2.410156 -2.796875 -3.171875 C -2.546875 -3.941406 -2.421875 -4.703125 -2.421875 -5.453125 C -2.421875 -5.972656 -2.488281 -6.390625 -2.625 -6.703125 C -2.757812 -7.023438 -2.945312 -7.257812 -3.1875 -7.40625 C -3.425781 -7.550781 -3.703125 -7.625 -4.015625 -7.625 C -4.390625 -7.625 -4.707031 -7.492188 -4.96875 -7.234375 C -5.238281 -6.984375 -5.488281 -6.632812 -5.71875 -6.1875 C -5.957031 -5.75 -6.207031 -5.253906 -6.46875 -4.703125 C -6.632812 -4.359375 -6.832031 -3.976562 -7.0625 -3.5625 C -7.300781 -3.15625 -7.59375 -2.765625 -7.9375 -2.390625 C -8.28125 -2.023438 -8.695312 -1.722656 -9.1875 -1.484375 C -9.675781 -1.253906 -10.257812 -1.140625 -10.9375 -1.140625 C -11.832031 -1.140625 -12.597656 -1.34375 -13.234375 -1.75 C -13.867188 -2.164062 -14.351562 -2.753906 -14.6875 -3.515625 C -15.03125 -4.273438 -15.203125 -5.175781 -15.203125 -6.21875 C -15.203125 -7 -15.109375 -7.738281 -14.921875 -8.4375 C -14.742188 -9.144531 -14.488281 -9.890625 -14.15625 -10.671875 L -11.671875 -9.640625 C -11.953125 -8.953125 -12.171875 -8.332031 -12.328125 -7.78125 C -12.484375 -7.238281 -12.5625 -6.679688 -12.5625 -6.109375 C -12.5625 -5.710938 -12.5 -5.375 -12.375 -5.09375 C -12.25 -4.8125 -12.070312 -4.597656 -11.84375 -4.453125 C -11.613281 -4.316406 -11.347656 -4.25 -11.046875 -4.25 C -10.691406 -4.25 -10.390625 -4.351562 -10.140625 -4.5625 C -9.898438 -4.769531 -9.664062 -5.082031 -9.4375 -5.5 C -9.21875 -5.914062 -8.957031 -6.441406 -8.65625 -7.078125 C -8.289062 -7.835938 -7.910156 -8.488281 -7.515625 -9.03125 C -7.128906 -9.582031 -6.671875 -10.003906 -6.140625 -10.296875 C -5.609375 -10.585938 -4.945312 -10.734375 -4.15625 -10.734375 Z M -4.15625 -10.734375"/></g></g></g><g fill-opacity="1" fill="#ffffff"><g transform="translate(35.283476, 410.591191)"><g/></g></g><g fill-opacity="1" fill="#ffffff"><g transform="translate(35.283476, 404.086112)"><g><path d="M 0 -5.015625 L 0 -1.890625 L -14.984375 -1.890625 L -14.984375 -10.484375 L -12.390625 -10.484375 L -12.390625 -5.015625 L -8.515625 -5.015625 L -8.515625 -10.09375 L -5.921875 -10.09375 L -5.921875 -5.015625 Z M 0 -5.015625"/></g></g></g><g fill-opacity="1" fill="#ffffff"><g transform="translate(35.283476, 391.510721)"><g><path d="M -7.515625 -15.5 C -6.359375 -15.5 -5.304688 -15.351562 -4.359375 -15.0625 C -3.410156 -14.769531 -2.59375 -14.332031 -1.90625 -13.75 C -1.226562 -13.164062 -0.707031 -12.425781 -0.34375 -11.53125 C 0.0195312 -10.632812 0.203125 -9.578125 0.203125 -8.359375 C 0.203125 -7.128906 0.0195312 -6.066406 -0.34375 -5.171875 C -0.707031 -4.273438 -1.226562 -3.535156 -1.90625 -2.953125 C -2.59375 -2.367188 -3.410156 -1.929688 -4.359375 -1.640625 C -5.316406 -1.359375 -6.375 -1.21875 -7.53125 -1.21875 C -9.082031 -1.21875 -10.429688 -1.472656 -11.578125 -1.984375 C -12.734375 -2.492188 -13.628906 -3.273438 -14.265625 -4.328125 C -14.910156 -5.390625 -15.234375 -6.738281 -15.234375 -8.375 C -15.234375 -10 -14.910156 -11.335938 -14.265625 -12.390625 C -13.628906 -13.441406 -12.734375 -14.222656 -11.578125 -14.734375 C -10.429688 -15.242188 -9.078125 -15.5 -7.515625 -15.5 Z M -7.515625 -4.546875 C -6.472656 -4.546875 -5.570312 -4.675781 -4.8125 -4.9375 C -4.0625 -5.207031 -3.484375 -5.625 -3.078125 -6.1875 C -2.671875 -6.75 -2.46875 -7.472656 -2.46875 -8.359375 C -2.46875 -9.253906 -2.671875 -9.984375 -3.078125 -10.546875 C -3.484375 -11.109375 -4.0625 -11.515625 -4.8125 -11.765625 C -5.570312 -12.023438 -6.472656 -12.15625 -7.515625 -12.15625 C -9.085938 -12.15625 -10.320312 -11.859375 -11.21875 -11.265625 C -12.125 -10.679688 -12.578125 -9.71875 -12.578125 -8.375 C -12.578125 -7.476562 -12.375 -6.75 -11.96875 -6.1875 C -11.5625 -5.625 -10.976562 -5.207031 -10.21875 -4.9375 C -9.46875 -4.675781 -8.566406 -4.546875 -7.515625 -4.546875 Z M -7.515625 -4.546875"/></g></g></g><g fill-opacity="1" fill="#ffffff"><g transform="translate(35.283476, 373.746859)"><g><path d="M -14.984375 -6.25 C -14.984375 -7.613281 -14.816406 -8.738281 -14.484375 -9.625 C -14.160156 -10.507812 -13.664062 -11.164062 -13 -11.59375 C -12.34375 -12.03125 -11.507812 -12.25 -10.5 -12.25 C -9.8125 -12.25 -9.210938 -12.117188 -8.703125 -11.859375 C -8.191406 -11.597656 -7.757812 -11.253906 -7.40625 -10.828125 C -7.050781 -10.398438 -6.757812 -9.941406 -6.53125 -9.453125 L 0 -13.859375 L 0 -10.34375 L -5.75 -6.75 L -5.75 -5.0625 L 0 -5.0625 L 0 -1.890625 L -14.984375 -1.890625 Z M -12.390625 -6.03125 L -12.390625 -5.0625 L -8.34375 -5.0625 L -8.34375 -6.09375 C -8.34375 -7.144531 -8.515625 -7.894531 -8.859375 -8.34375 C -9.210938 -8.800781 -9.734375 -9.03125 -10.421875 -9.03125 C -11.128906 -9.03125 -11.632812 -8.785156 -11.9375 -8.296875 C -12.238281 -7.804688 -12.390625 -7.050781 -12.390625 -6.03125 Z M -12.390625 -6.03125"/></g></g></g><g fill-opacity="1" fill="#ffffff"><g transform="translate(35.283476, 358.833583)"><g/></g></g><g fill-opacity="1" fill="#ffffff"><g transform="translate(35.283476, 352.32851)"><g><path d="M 0 -7.671875 L 0 -4.484375 L -12.34375 -4.484375 L -12.34375 -0.421875 L -14.984375 -0.421875 L -14.984375 -11.734375 L -12.34375 -11.734375 L -12.34375 -7.671875 Z M 0 -7.671875"/></g></g></g><g fill-opacity="1" fill="#ffffff"><g transform="translate(35.283476, 339.117382)"><g><path d="M 0 -11.0625 L -3.5625 -9.984375 L -3.5625 -4.515625 L 0 -3.421875 L 0 0 L -15.046875 -5.296875 L -15.046875 -9.171875 L 0 -14.484375 Z M -6.234375 -9.21875 L -9.71875 -8.125 C -9.945312 -8.0625 -10.242188 -7.972656 -10.609375 -7.859375 C -10.984375 -7.742188 -11.359375 -7.628906 -11.734375 -7.515625 C -12.117188 -7.410156 -12.445312 -7.320312 -12.71875 -7.25 C -12.445312 -7.175781 -12.101562 -7.078125 -11.6875 -6.953125 C -11.269531 -6.835938 -10.875 -6.722656 -10.5 -6.609375 C -10.132812 -6.503906 -9.875 -6.429688 -9.71875 -6.390625 L -6.234375 -5.3125 Z M -6.234375 -9.21875"/></g></g></g><g fill-opacity="1" fill="#ffffff"><g transform="translate(35.283476, 323.578618)"><g><path d="M 0 -13.953125 L 0 -10.34375 L -6.3125 -6.40625 L -5.359375 -5.0625 L 0 -5.0625 L 0 -1.890625 L -14.984375 -1.890625 L -14.984375 -5.0625 L -8.125 -5.0625 C -8.425781 -5.28125 -8.722656 -5.488281 -9.015625 -5.6875 C -9.304688 -5.894531 -9.597656 -6.101562 -9.890625 -6.3125 L -14.984375 -10.375 L -14.984375 -13.90625 L -8.359375 -8.671875 Z M 0 -13.953125"/></g></g></g><g fill-opacity="1" fill="#ffffff"><g transform="translate(35.283476, 308.583311)"><g><path d="M 0 -1.890625 L -14.984375 -1.890625 L -14.984375 -5.0625 L 0 -5.0625 Z M 0 -1.890625"/></g></g></g><g fill-opacity="1" fill="#ffffff"><g transform="translate(35.283476, 300.581167)"><g><path d="M 0 -15.1875 L 0 -11.140625 L -11.34375 -4.625 L -11.34375 -4.53125 C -10.875 -4.5625 -10.398438 -4.585938 -9.921875 -4.609375 C -9.441406 -4.628906 -8.960938 -4.648438 -8.484375 -4.671875 C -8.003906 -4.691406 -7.53125 -4.710938 -7.0625 -4.734375 L 0 -4.734375 L 0 -1.890625 L -14.984375 -1.890625 L -14.984375 -5.890625 L -3.765625 -12.40625 L -3.765625 -12.484375 C -4.222656 -12.460938 -4.679688 -12.441406 -5.140625 -12.421875 C -5.597656 -12.398438 -6.054688 -12.378906 -6.515625 -12.359375 C -6.972656 -12.347656 -7.429688 -12.335938 -7.890625 -12.328125 L -14.984375 -12.328125 L -14.984375 -15.1875 Z M 0 -15.1875"/></g></g></g><g fill-opacity="1" fill="#ffffff"><g transform="translate(35.283476, 282.458407)"><g><path d="M -8.421875 -7.578125 L -8.421875 -13.53125 L -0.640625 -13.53125 C -0.378906 -12.738281 -0.171875 -11.914062 -0.015625 -11.0625 C 0.128906 -10.21875 0.203125 -9.257812 0.203125 -8.1875 C 0.203125 -6.695312 -0.0859375 -5.429688 -0.671875 -4.390625 C -1.265625 -3.359375 -2.132812 -2.570312 -3.28125 -2.03125 C -4.425781 -1.488281 -5.835938 -1.21875 -7.515625 -1.21875 C -9.085938 -1.21875 -10.445312 -1.519531 -11.59375 -2.125 C -12.738281 -2.726562 -13.625 -3.613281 -14.25 -4.78125 C -14.882812 -5.945312 -15.203125 -7.367188 -15.203125 -9.046875 C -15.203125 -9.847656 -15.113281 -10.632812 -14.9375 -11.40625 C -14.769531 -12.175781 -14.550781 -12.875 -14.28125 -13.5 L -11.734375 -12.453125 C -11.972656 -11.992188 -12.171875 -11.46875 -12.328125 -10.875 C -12.484375 -10.289062 -12.5625 -9.675781 -12.5625 -9.03125 C -12.5625 -8.113281 -12.347656 -7.3125 -11.921875 -6.625 C -11.503906 -5.945312 -10.910156 -5.421875 -10.140625 -5.046875 C -9.378906 -4.671875 -8.484375 -4.484375 -7.453125 -4.484375 C -6.472656 -4.484375 -5.601562 -4.617188 -4.84375 -4.890625 C -4.09375 -5.160156 -3.503906 -5.582031 -3.078125 -6.15625 C -2.648438 -6.726562 -2.4375 -7.472656 -2.4375 -8.390625 C -2.4375 -8.847656 -2.457031 -9.234375 -2.5 -9.546875 C -2.550781 -9.859375 -2.597656 -10.148438 -2.640625 -10.421875 L -5.765625 -10.421875 L -5.765625 -7.578125 Z M -8.421875 -7.578125"/></g></g></g><g fill-opacity="1" fill="#ffffff"><g transform="translate(35.283476, 266.201869)"><g/></g></g><g fill-opacity="1" fill="#ffffff"><g transform="translate(35.283476, 259.696796)"><g><path d="M -8.8125 -6.546875 L -14.984375 -9.6875 L -14.984375 -13.109375 L -5.828125 -8.125 L 0 -8.125 L 0 -4.96875 L -5.734375 -4.96875 L -14.984375 0 L -14.984375 -3.453125 Z M -8.8125 -6.546875"/></g></g></g><g fill-opacity="1" fill="#ffffff"><g transform="translate(35.283476, 245.542309)"><g><path d="M -7.515625 -15.5 C -6.359375 -15.5 -5.304688 -15.351562 -4.359375 -15.0625 C -3.410156 -14.769531 -2.59375 -14.332031 -1.90625 -13.75 C -1.226562 -13.164062 -0.707031 -12.425781 -0.34375 -11.53125 C 0.0195312 -10.632812 0.203125 -9.578125 0.203125 -8.359375 C 0.203125 -7.128906 0.0195312 -6.066406 -0.34375 -5.171875 C -0.707031 -4.273438 -1.226562 -3.535156 -1.90625 -2.953125 C -2.59375 -2.367188 -3.410156 -1.929688 -4.359375 -1.640625 C -5.316406 -1.359375 -6.375 -1.21875 -7.53125 -1.21875 C -9.082031 -1.21875 -10.429688 -1.472656 -11.578125 -1.984375 C -12.734375 -2.492188 -13.628906 -3.273438 -14.265625 -4.328125 C -14.910156 -5.390625 -15.234375 -6.738281 -15.234375 -8.375 C -15.234375 -10 -14.910156 -11.335938 -14.265625 -12.390625 C -13.628906 -13.441406 -12.734375 -14.222656 -11.578125 -14.734375 C -10.429688 -15.242188 -9.078125 -15.5 -7.515625 -15.5 Z M -7.515625 -4.546875 C -6.472656 -4.546875 -5.570312 -4.675781 -4.8125 -4.9375 C -4.0625 -5.207031 -3.484375 -5.625 -3.078125 -6.1875 C -2.671875 -6.75 -2.46875 -7.472656 -2.46875 -8.359375 C -2.46875 -9.253906 -2.671875 -9.984375 -3.078125 -10.546875 C -3.484375 -11.109375 -4.0625 -11.515625 -4.8125 -11.765625 C -5.570312 -12.023438 -6.472656 -12.15625 -7.515625 -12.15625 C -9.085938 -12.15625 -10.320312 -11.859375 -11.21875 -11.265625 C -12.125 -10.679688 -12.578125 -9.71875 -12.578125 -8.375 C -12.578125 -7.476562 -12.375 -6.75 -11.96875 -6.1875 C -11.5625 -5.625 -10.976562 -5.207031 -10.21875 -4.9375 C -9.46875 -4.675781 -8.566406 -4.546875 -7.515625 -4.546875 Z M -7.515625 -4.546875"/></g></g></g><g fill-opacity="1" fill="#ffffff"><g transform="translate(35.283476, 227.778447)"><g><path d="M -14.984375 -14.09375 L -5.296875 -14.09375 C -4.265625 -14.09375 -3.332031 -13.863281 -2.5 -13.40625 C -1.664062 -12.945312 -1.003906 -12.257812 -0.515625 -11.34375 C -0.0351562 -10.425781 0.203125 -9.269531 0.203125 -7.875 C 0.203125 -5.894531 -0.300781 -4.382812 -1.3125 -3.34375 C -2.320312 -2.300781 -3.660156 -1.78125 -5.328125 -1.78125 L -14.984375 -1.78125 L -14.984375 -4.953125 L -5.8125 -4.953125 C -4.570312 -4.953125 -3.703125 -5.203125 -3.203125 -5.703125 C -2.710938 -6.210938 -2.46875 -6.960938 -2.46875 -7.953125 C -2.46875 -8.648438 -2.582031 -9.21875 -2.8125 -9.65625 C -3.050781 -10.09375 -3.421875 -10.410156 -3.921875 -10.609375 C -4.421875 -10.816406 -5.054688 -10.921875 -5.828125 -10.921875 L -14.984375 -10.921875 Z M -14.984375 -14.09375"/></g></g></g><g fill-opacity="1" fill="#ffffff"><g transform="translate(35.283476, 210.855406)"><g><path d="M -14.984375 -6.25 C -14.984375 -7.613281 -14.816406 -8.738281 -14.484375 -9.625 C -14.160156 -10.507812 -13.664062 -11.164062 -13 -11.59375 C -12.34375 -12.03125 -11.507812 -12.25 -10.5 -12.25 C -9.8125 -12.25 -9.210938 -12.117188 -8.703125 -11.859375 C -8.191406 -11.597656 -7.757812 -11.253906 -7.40625 -10.828125 C -7.050781 -10.398438 -6.757812 -9.941406 -6.53125 -9.453125 L 0 -13.859375 L 0 -10.34375 L -5.75 -6.75 L -5.75 -5.0625 L 0 -5.0625 L 0 -1.890625 L -14.984375 -1.890625 Z M -12.390625 -6.03125 L -12.390625 -5.0625 L -8.34375 -5.0625 L -8.34375 -6.09375 C -8.34375 -7.144531 -8.515625 -7.894531 -8.859375 -8.34375 C -9.210938 -8.800781 -9.734375 -9.03125 -10.421875 -9.03125 C -11.128906 -9.03125 -11.632812 -8.785156 -11.9375 -8.296875 C -12.238281 -7.804688 -12.390625 -7.050781 -12.390625 -6.03125 Z M -12.390625 -6.03125"/></g></g></g><g fill-opacity="1" fill="#ffffff"><g transform="translate(35.283476, 195.94213)"><g/></g></g><g fill-opacity="1" fill="#ffffff"><g transform="translate(35.283476, 189.437056)"><g><path d="M -14.984375 -6.671875 C -14.984375 -8.609375 -14.566406 -10.019531 -13.734375 -10.90625 C -12.910156 -11.800781 -11.769531 -12.25 -10.3125 -12.25 C -9.65625 -12.25 -9.023438 -12.148438 -8.421875 -11.953125 C -7.828125 -11.753906 -7.296875 -11.429688 -6.828125 -10.984375 C -6.367188 -10.535156 -6.003906 -9.9375 -5.734375 -9.1875 C -5.460938 -8.4375 -5.328125 -7.515625 -5.328125 -6.421875 L -5.328125 -5.0625 L 0 -5.0625 L 0 -1.890625 L -14.984375 -1.890625 Z M -12.390625 -6.515625 L -12.390625 -5.0625 L -7.9375 -5.0625 L -7.9375 -6.109375 C -7.9375 -6.703125 -8.015625 -7.21875 -8.171875 -7.65625 C -8.328125 -8.09375 -8.570312 -8.429688 -8.90625 -8.671875 C -9.238281 -8.910156 -9.671875 -9.03125 -10.203125 -9.03125 C -10.941406 -9.03125 -11.488281 -8.820312 -11.84375 -8.40625 C -12.207031 -8 -12.390625 -7.367188 -12.390625 -6.515625 Z M -12.390625 -6.515625"/></g></g></g><g fill-opacity="1" fill="#ffffff"><g transform="translate(35.283476, 175.200538)"><g><path d="M 0 -10.515625 L 0 -1.890625 L -14.984375 -1.890625 L -14.984375 -10.515625 L -12.390625 -10.515625 L -12.390625 -5.0625 L -9.09375 -5.0625 L -9.09375 -10.140625 L -6.484375 -10.140625 L -6.484375 -5.0625 L -2.625 -5.0625 L -2.625 -10.515625 Z M 0 -10.515625"/></g></g></g><g fill-opacity="1" fill="#ffffff"><g transform="translate(35.283476, 162.389313)"><g><path d="M -14.984375 -6.25 C -14.984375 -7.613281 -14.816406 -8.738281 -14.484375 -9.625 C -14.160156 -10.507812 -13.664062 -11.164062 -13 -11.59375 C -12.34375 -12.03125 -11.507812 -12.25 -10.5 -12.25 C -9.8125 -12.25 -9.210938 -12.117188 -8.703125 -11.859375 C -8.191406 -11.597656 -7.757812 -11.253906 -7.40625 -10.828125 C -7.050781 -10.398438 -6.757812 -9.941406 -6.53125 -9.453125 L 0 -13.859375 L 0 -10.34375 L -5.75 -6.75 L -5.75 -5.0625 L 0 -5.0625 L 0 -1.890625 L -14.984375 -1.890625 Z M -12.390625 -6.03125 L -12.390625 -5.0625 L -8.34375 -5.0625 L -8.34375 -6.09375 C -8.34375 -7.144531 -8.515625 -7.894531 -8.859375 -8.34375 C -9.210938 -8.800781 -9.734375 -9.03125 -10.421875 -9.03125 C -11.128906 -9.03125 -11.632812 -8.785156 -11.9375 -8.296875 C -12.238281 -7.804688 -12.390625 -7.050781 -12.390625 -6.03125 Z M -12.390625 -6.03125"/></g></g></g><g fill-opacity="1" fill="#ffffff"><g transform="translate(35.283476, 147.476036)"><g><path d="M -4.15625 -10.734375 C -3.269531 -10.734375 -2.5 -10.515625 -1.84375 -10.078125 C -1.1875 -9.648438 -0.679688 -9.023438 -0.328125 -8.203125 C 0.0234375 -7.378906 0.203125 -6.378906 0.203125 -5.203125 C 0.203125 -4.691406 0.164062 -4.1875 0.09375 -3.6875 C 0.03125 -3.1875 -0.0664062 -2.707031 -0.203125 -2.25 C -0.335938 -1.800781 -0.503906 -1.375 -0.703125 -0.96875 L -3.65625 -0.96875 C -3.332031 -1.675781 -3.046875 -2.410156 -2.796875 -3.171875 C -2.546875 -3.941406 -2.421875 -4.703125 -2.421875 -5.453125 C -2.421875 -5.972656 -2.488281 -6.390625 -2.625 -6.703125 C -2.757812 -7.023438 -2.945312 -7.257812 -3.1875 -7.40625 C -3.425781 -7.550781 -3.703125 -7.625 -4.015625 -7.625 C -4.390625 -7.625 -4.707031 -7.492188 -4.96875 -7.234375 C -5.238281 -6.984375 -5.488281 -6.632812 -5.71875 -6.1875 C -5.957031 -5.75 -6.207031 -5.253906 -6.46875 -4.703125 C -6.632812 -4.359375 -6.832031 -3.976562 -7.0625 -3.5625 C -7.300781 -3.15625 -7.59375 -2.765625 -7.9375 -2.390625 C -8.28125 -2.023438 -8.695312 -1.722656 -9.1875 -1.484375 C -9.675781 -1.253906 -10.257812 -1.140625 -10.9375 -1.140625 C -11.832031 -1.140625 -12.597656 -1.34375 -13.234375 -1.75 C -13.867188 -2.164062 -14.351562 -2.753906 -14.6875 -3.515625 C -15.03125 -4.273438 -15.203125 -5.175781 -15.203125 -6.21875 C -15.203125 -7 -15.109375 -7.738281 -14.921875 -8.4375 C -14.742188 -9.144531 -14.488281 -9.890625 -14.15625 -10.671875 L -11.671875 -9.640625 C -11.953125 -8.953125 -12.171875 -8.332031 -12.328125 -7.78125 C -12.484375 -7.238281 -12.5625 -6.679688 -12.5625 -6.109375 C -12.5625 -5.710938 -12.5 -5.375 -12.375 -5.09375 C -12.25 -4.8125 -12.070312 -4.597656 -11.84375 -4.453125 C -11.613281 -4.316406 -11.347656 -4.25 -11.046875 -4.25 C -10.691406 -4.25 -10.390625 -4.351562 -10.140625 -4.5625 C -9.898438 -4.769531 -9.664062 -5.082031 -9.4375 -5.5 C -9.21875 -5.914062 -8.957031 -6.441406 -8.65625 -7.078125 C -8.289062 -7.835938 -7.910156 -8.488281 -7.515625 -9.03125 C -7.128906 -9.582031 -6.671875 -10.003906 -6.140625 -10.296875 C -5.609375 -10.585938 -4.945312 -10.734375 -4.15625 -10.734375 Z M -4.15625 -10.734375"/></g></g></g><g fill-opacity="1" fill="#ffffff"><g transform="translate(35.283476, 134.859635)"><g><path d="M -7.515625 -15.5 C -6.359375 -15.5 -5.304688 -15.351562 -4.359375 -15.0625 C -3.410156 -14.769531 -2.59375 -14.332031 -1.90625 -13.75 C -1.226562 -13.164062 -0.707031 -12.425781 -0.34375 -11.53125 C 0.0195312 -10.632812 0.203125 -9.578125 0.203125 -8.359375 C 0.203125 -7.128906 0.0195312 -6.066406 -0.34375 -5.171875 C -0.707031 -4.273438 -1.226562 -3.535156 -1.90625 -2.953125 C -2.59375 -2.367188 -3.410156 -1.929688 -4.359375 -1.640625 C -5.316406 -1.359375 -6.375 -1.21875 -7.53125 -1.21875 C -9.082031 -1.21875 -10.429688 -1.472656 -11.578125 -1.984375 C -12.734375 -2.492188 -13.628906 -3.273438 -14.265625 -4.328125 C -14.910156 -5.390625 -15.234375 -6.738281 -15.234375 -8.375 C -15.234375 -10 -14.910156 -11.335938 -14.265625 -12.390625 C -13.628906 -13.441406 -12.734375 -14.222656 -11.578125 -14.734375 C -10.429688 -15.242188 -9.078125 -15.5 -7.515625 -15.5 Z M -7.515625 -4.546875 C -6.472656 -4.546875 -5.570312 -4.675781 -4.8125 -4.9375 C -4.0625 -5.207031 -3.484375 -5.625 -3.078125 -6.1875 C -2.671875 -6.75 -2.46875 -7.472656 -2.46875 -8.359375 C -2.46875 -9.253906 -2.671875 -9.984375 -3.078125 -10.546875 C -3.484375 -11.109375 -4.0625 -11.515625 -4.8125 -11.765625 C -5.570312 -12.023438 -6.472656 -12.15625 -7.515625 -12.15625 C -9.085938 -12.15625 -10.320312 -11.859375 -11.21875 -11.265625 C -12.125 -10.679688 -12.578125 -9.71875 -12.578125 -8.375 C -12.578125 -7.476562 -12.375 -6.75 -11.96875 -6.1875 C -11.5625 -5.625 -10.976562 -5.207031 -10.21875 -4.9375 C -9.46875 -4.675781 -8.566406 -4.546875 -7.515625 -4.546875 Z M -7.515625 -4.546875"/></g></g></g><g fill-opacity="1" fill="#ffffff"><g transform="translate(35.283476, 117.095773)"><g><path d="M 0 -15.1875 L 0 -11.140625 L -11.34375 -4.625 L -11.34375 -4.53125 C -10.875 -4.5625 -10.398438 -4.585938 -9.921875 -4.609375 C -9.441406 -4.628906 -8.960938 -4.648438 -8.484375 -4.671875 C -8.003906 -4.691406 -7.53125 -4.710938 -7.0625 -4.734375 L 0 -4.734375 L 0 -1.890625 L -14.984375 -1.890625 L -14.984375 -5.890625 L -3.765625 -12.40625 L -3.765625 -12.484375 C -4.222656 -12.460938 -4.679688 -12.441406 -5.140625 -12.421875 C -5.597656 -12.398438 -6.054688 -12.378906 -6.515625 -12.359375 C -6.972656 -12.347656 -7.429688 -12.335938 -7.890625 -12.328125 L -14.984375 -12.328125 L -14.984375 -15.1875 Z M 0 -15.1875"/></g></g></g><g fill-opacity="1" fill="#ffffff"><g transform="translate(35.283476, 98.973025)"><g><path d="M 0 -11.0625 L -3.5625 -9.984375 L -3.5625 -4.515625 L 0 -3.421875 L 0 0 L -15.046875 -5.296875 L -15.046875 -9.171875 L 0 -14.484375 Z M -6.234375 -9.21875 L -9.71875 -8.125 C -9.945312 -8.0625 -10.242188 -7.972656 -10.609375 -7.859375 C -10.984375 -7.742188 -11.359375 -7.628906 -11.734375 -7.515625 C -12.117188 -7.410156 -12.445312 -7.320312 -12.71875 -7.25 C -12.445312 -7.175781 -12.101562 -7.078125 -11.6875 -6.953125 C -11.269531 -6.835938 -10.875 -6.722656 -10.5 -6.609375 C -10.132812 -6.503906 -9.875 -6.429688 -9.71875 -6.390625 L -6.234375 -5.3125 Z M -6.234375 -9.21875"/></g></g></g><g fill-opacity="1" fill="#ffffff"><g transform="translate(35.283476, 83.434237)"><g><path d="M 0 -1.890625 L -14.984375 -1.890625 L -14.984375 -5.0625 L -2.625 -5.0625 L -2.625 -11.140625 L 0 -11.140625 Z M 0 -1.890625"/></g></g></g><g fill-opacity="1" fill="#ffffff"><g transform="translate(64.533474, 436.356327)"><g><path d="M -8.421875 -7.578125 L -8.421875 -13.53125 L -0.640625 -13.53125 C -0.378906 -12.738281 -0.171875 -11.914062 -0.015625 -11.0625 C 0.128906 -10.21875 0.203125 -9.257812 0.203125 -8.1875 C 0.203125 -6.695312 -0.0859375 -5.429688 -0.671875 -4.390625 C -1.265625 -3.359375 -2.132812 -2.570312 -3.28125 -2.03125 C -4.425781 -1.488281 -5.835938 -1.21875 -7.515625 -1.21875 C -9.085938 -1.21875 -10.445312 -1.519531 -11.59375 -2.125 C -12.738281 -2.726562 -13.625 -3.613281 -14.25 -4.78125 C -14.882812 -5.945312 -15.203125 -7.367188 -15.203125 -9.046875 C -15.203125 -9.847656 -15.113281 -10.632812 -14.9375 -11.40625 C -14.769531 -12.175781 -14.550781 -12.875 -14.28125 -13.5 L -11.734375 -12.453125 C -11.972656 -11.992188 -12.171875 -11.46875 -12.328125 -10.875 C -12.484375 -10.289062 -12.5625 -9.675781 -12.5625 -9.03125 C -12.5625 -8.113281 -12.347656 -7.3125 -11.921875 -6.625 C -11.503906 -5.945312 -10.910156 -5.421875 -10.140625 -5.046875 C -9.378906 -4.671875 -8.484375 -4.484375 -7.453125 -4.484375 C -6.472656 -4.484375 -5.601562 -4.617188 -4.84375 -4.890625 C -4.09375 -5.160156 -3.503906 -5.582031 -3.078125 -6.15625 C -2.648438 -6.726562 -2.4375 -7.472656 -2.4375 -8.390625 C -2.4375 -8.847656 -2.457031 -9.234375 -2.5 -9.546875 C -2.550781 -9.859375 -2.597656 -10.148438 -2.640625 -10.421875 L -5.765625 -10.421875 L -5.765625 -7.578125 Z M -8.421875 -7.578125"/></g></g></g><g fill-opacity="1" fill="#ffffff"><g transform="translate(64.533474, 420.099785)"><g><path d="M -14.984375 -6.25 C -14.984375 -7.613281 -14.816406 -8.738281 -14.484375 -9.625 C -14.160156 -10.507812 -13.664062 -11.164062 -13 -11.59375 C -12.34375 -12.03125 -11.507812 -12.25 -10.5 -12.25 C -9.8125 -12.25 -9.210938 -12.117188 -8.703125 -11.859375 C -8.191406 -11.597656 -7.757812 -11.253906 -7.40625 -10.828125 C -7.050781 -10.398438 -6.757812 -9.941406 -6.53125 -9.453125 L 0 -13.859375 L 0 -10.34375 L -5.75 -6.75 L -5.75 -5.0625 L 0 -5.0625 L 0 -1.890625 L -14.984375 -1.890625 Z M -12.390625 -6.03125 L -12.390625 -5.0625 L -8.34375 -5.0625 L -8.34375 -6.09375 C -8.34375 -7.144531 -8.515625 -7.894531 -8.859375 -8.34375 C -9.210938 -8.800781 -9.734375 -9.03125 -10.421875 -9.03125 C -11.128906 -9.03125 -11.632812 -8.785156 -11.9375 -8.296875 C -12.238281 -7.804688 -12.390625 -7.050781 -12.390625 -6.03125 Z M -12.390625 -6.03125"/></g></g></g><g fill-opacity="1" fill="#ffffff"><g transform="translate(64.533474, 405.186505)"><g><path d="M -7.515625 -15.5 C -6.359375 -15.5 -5.304688 -15.351562 -4.359375 -15.0625 C -3.410156 -14.769531 -2.59375 -14.332031 -1.90625 -13.75 C -1.226562 -13.164062 -0.707031 -12.425781 -0.34375 -11.53125 C 0.0195312 -10.632812 0.203125 -9.578125 0.203125 -8.359375 C 0.203125 -7.128906 0.0195312 -6.066406 -0.34375 -5.171875 C -0.707031 -4.273438 -1.226562 -3.535156 -1.90625 -2.953125 C -2.59375 -2.367188 -3.410156 -1.929688 -4.359375 -1.640625 C -5.316406 -1.359375 -6.375 -1.21875 -7.53125 -1.21875 C -9.082031 -1.21875 -10.429688 -1.472656 -11.578125 -1.984375 C -12.734375 -2.492188 -13.628906 -3.273438 -14.265625 -4.328125 C -14.910156 -5.390625 -15.234375 -6.738281 -15.234375 -8.375 C -15.234375 -10 -14.910156 -11.335938 -14.265625 -12.390625 C -13.628906 -13.441406 -12.734375 -14.222656 -11.578125 -14.734375 C -10.429688 -15.242188 -9.078125 -15.5 -7.515625 -15.5 Z M -7.515625 -4.546875 C -6.472656 -4.546875 -5.570312 -4.675781 -4.8125 -4.9375 C -4.0625 -5.207031 -3.484375 -5.625 -3.078125 -6.1875 C -2.671875 -6.75 -2.46875 -7.472656 -2.46875 -8.359375 C -2.46875 -9.253906 -2.671875 -9.984375 -3.078125 -10.546875 C -3.484375 -11.109375 -4.0625 -11.515625 -4.8125 -11.765625 C -5.570312 -12.023438 -6.472656 -12.15625 -7.515625 -12.15625 C -9.085938 -12.15625 -10.320312 -11.859375 -11.21875 -11.265625 C -12.125 -10.679688 -12.578125 -9.71875 -12.578125 -8.375 C -12.578125 -7.476562 -12.375 -6.75 -11.96875 -6.1875 C -11.5625 -5.625 -10.976562 -5.207031 -10.21875 -4.9375 C -9.46875 -4.675781 -8.566406 -4.546875 -7.515625 -4.546875 Z M -7.515625 -4.546875"/></g></g></g><g fill-opacity="1" fill="#ffffff"><g transform="translate(64.533474, 387.42264)"><g><path d="M -14.984375 -20.296875 L 0 -16.484375 L 0 -12.875 L -7.875 -10.84375 C -8.019531 -10.800781 -8.25 -10.742188 -8.5625 -10.671875 C -8.875 -10.609375 -9.210938 -10.535156 -9.578125 -10.453125 C -9.941406 -10.378906 -10.285156 -10.3125 -10.609375 -10.25 C -10.929688 -10.195312 -11.1875 -10.160156 -11.375 -10.140625 C -11.1875 -10.117188 -10.929688 -10.078125 -10.609375 -10.015625 C -10.285156 -9.960938 -9.941406 -9.898438 -9.578125 -9.828125 C -9.222656 -9.753906 -8.882812 -9.679688 -8.5625 -9.609375 C -8.25 -9.546875 -8.015625 -9.492188 -7.859375 -9.453125 L 0 -7.4375 L 0 -3.828125 L -14.984375 0 L -14.984375 -3.125 L -6.8125 -5.046875 C -6.5625 -5.097656 -6.265625 -5.160156 -5.921875 -5.234375 C -5.585938 -5.304688 -5.234375 -5.378906 -4.859375 -5.453125 C -4.484375 -5.523438 -4.125 -5.585938 -3.78125 -5.640625 C -3.4375 -5.703125 -3.132812 -5.742188 -2.875 -5.765625 C -3.132812 -5.804688 -3.4375 -5.851562 -3.78125 -5.90625 C -4.132812 -5.957031 -4.488281 -6.015625 -4.84375 -6.078125 C -5.207031 -6.148438 -5.539062 -6.21875 -5.84375 -6.28125 C -6.15625 -6.351562 -6.40625 -6.414062 -6.59375 -6.46875 L -14.984375 -8.65625 L -14.984375 -11.65625 L -6.59375 -13.84375 C -6.40625 -13.894531 -6.15625 -13.953125 -5.84375 -14.015625 C -5.539062 -14.078125 -5.207031 -14.140625 -4.84375 -14.203125 C -4.476562 -14.273438 -4.125 -14.335938 -3.78125 -14.390625 C -3.4375 -14.453125 -3.132812 -14.5 -2.875 -14.53125 C -3.21875 -14.582031 -3.632812 -14.648438 -4.125 -14.734375 C -4.613281 -14.816406 -5.097656 -14.90625 -5.578125 -15 C -6.066406 -15.101562 -6.476562 -15.191406 -6.8125 -15.265625 L -14.984375 -17.171875 Z M -14.984375 -20.296875"/></g></g></g><g fill-opacity="1" fill="#ffffff"><g transform="translate(64.533474, 366.069905)"><g><path d="M 0 -7.671875 L 0 -4.484375 L -12.34375 -4.484375 L -12.34375 -0.421875 L -14.984375 -0.421875 L -14.984375 -11.734375 L -12.34375 -11.734375 L -12.34375 -7.671875 Z M 0 -7.671875"/></g></g></g><g fill-opacity="1" fill="#ffffff"><g transform="translate(64.533474, 352.858772)"><g><path d="M 0 -14.171875 L 0 -11 L -6.46875 -11 L -6.46875 -5.0625 L 0 -5.0625 L 0 -1.890625 L -14.984375 -1.890625 L -14.984375 -5.0625 L -9.109375 -5.0625 L -9.109375 -11 L -14.984375 -11 L -14.984375 -14.171875 Z M 0 -14.171875"/></g></g></g><g fill-opacity="1" fill="#ffffff"><g transform="translate(64.533474, 335.740907)"><g/></g></g><g fill-opacity="1" fill="#ffffff"><g transform="translate(64.533474, 329.235833)"><g><path d="M 0 -7.671875 L 0 -4.484375 L -12.34375 -4.484375 L -12.34375 -0.421875 L -14.984375 -0.421875 L -14.984375 -11.734375 L -12.34375 -11.734375 L -12.34375 -7.671875 Z M 0 -7.671875"/></g></g></g><g fill-opacity="1" fill="#ffffff"><g transform="translate(64.533474, 316.024705)"><g><path d="M -7.515625 -15.5 C -6.359375 -15.5 -5.304688 -15.351562 -4.359375 -15.0625 C -3.410156 -14.769531 -2.59375 -14.332031 -1.90625 -13.75 C -1.226562 -13.164062 -0.707031 -12.425781 -0.34375 -11.53125 C 0.0195312 -10.632812 0.203125 -9.578125 0.203125 -8.359375 C 0.203125 -7.128906 0.0195312 -6.066406 -0.34375 -5.171875 C -0.707031 -4.273438 -1.226562 -3.535156 -1.90625 -2.953125 C -2.59375 -2.367188 -3.410156 -1.929688 -4.359375 -1.640625 C -5.316406 -1.359375 -6.375 -1.21875 -7.53125 -1.21875 C -9.082031 -1.21875 -10.429688 -1.472656 -11.578125 -1.984375 C -12.734375 -2.492188 -13.628906 -3.273438 -14.265625 -4.328125 C -14.910156 -5.390625 -15.234375 -6.738281 -15.234375 -8.375 C -15.234375 -10 -14.910156 -11.335938 -14.265625 -12.390625 C -13.628906 -13.441406 -12.734375 -14.222656 -11.578125 -14.734375 C -10.429688 -15.242188 -9.078125 -15.5 -7.515625 -15.5 Z M -7.515625 -4.546875 C -6.472656 -4.546875 -5.570312 -4.675781 -4.8125 -4.9375 C -4.0625 -5.207031 -3.484375 -5.625 -3.078125 -6.1875 C -2.671875 -6.75 -2.46875 -7.472656 -2.46875 -8.359375 C -2.46875 -9.253906 -2.671875 -9.984375 -3.078125 -10.546875 C -3.484375 -11.109375 -4.0625 -11.515625 -4.8125 -11.765625 C -5.570312 -12.023438 -6.472656 -12.15625 -7.515625 -12.15625 C -9.085938 -12.15625 -10.320312 -11.859375 -11.21875 -11.265625 C -12.125 -10.679688 -12.578125 -9.71875 -12.578125 -8.375 C -12.578125 -7.476562 -12.375 -6.75 -11.96875 -6.1875 C -11.5625 -5.625 -10.976562 -5.207031 -10.21875 -4.9375 C -9.46875 -4.675781 -8.566406 -4.546875 -7.515625 -4.546875 Z M -7.515625 -4.546875"/></g></g></g><g fill-opacity="1" fill="#ffffff"><g transform="translate(64.533474, 298.260844)"><g/></g></g><g fill-opacity="1" fill="#ffffff"><g transform="translate(64.533474, 291.75577)"><g><path d="M 0 -7.671875 L 0 -4.484375 L -12.34375 -4.484375 L -12.34375 -0.421875 L -14.984375 -0.421875 L -14.984375 -11.734375 L -12.34375 -11.734375 L -12.34375 -7.671875 Z M 0 -7.671875"/></g></g></g><g fill-opacity="1" fill="#ffffff"><g transform="translate(64.533474, 278.544642)"><g><path d="M 0 -14.171875 L 0 -11 L -6.46875 -11 L -6.46875 -5.0625 L 0 -5.0625 L 0 -1.890625 L -14.984375 -1.890625 L -14.984375 -5.0625 L -9.109375 -5.0625 L -9.109375 -11 L -14.984375 -11 L -14.984375 -14.171875 Z M 0 -14.171875"/></g></g></g><g fill-opacity="1" fill="#ffffff"><g transform="translate(64.533474, 261.426777)"><g><path d="M 0 -10.515625 L 0 -1.890625 L -14.984375 -1.890625 L -14.984375 -10.515625 L -12.390625 -10.515625 L -12.390625 -5.0625 L -9.09375 -5.0625 L -9.09375 -10.140625 L -6.484375 -10.140625 L -6.484375 -5.0625 L -2.625 -5.0625 L -2.625 -10.515625 Z M 0 -10.515625"/></g></g></g><g fill-opacity="1" fill="#ffffff"><g transform="translate(64.533474, 248.615551)"><g/></g></g><g fill-opacity="1" fill="#ffffff"><g transform="translate(64.533474, 242.110478)"><g><path d="M 0 -15.1875 L 0 -11.140625 L -11.34375 -4.625 L -11.34375 -4.53125 C -10.875 -4.5625 -10.398438 -4.585938 -9.921875 -4.609375 C -9.441406 -4.628906 -8.960938 -4.648438 -8.484375 -4.671875 C -8.003906 -4.691406 -7.53125 -4.710938 -7.0625 -4.734375 L 0 -4.734375 L 0 -1.890625 L -14.984375 -1.890625 L -14.984375 -5.890625 L -3.765625 -12.40625 L -3.765625 -12.484375 C -4.222656 -12.460938 -4.679688 -12.441406 -5.140625 -12.421875 C -5.597656 -12.398438 -6.054688 -12.378906 -6.515625 -12.359375 C -6.972656 -12.347656 -7.429688 -12.335938 -7.890625 -12.328125 L -14.984375 -12.328125 L -14.984375 -15.1875 Z M 0 -15.1875"/></g></g></g><g fill-opacity="1" fill="#ffffff"><g transform="translate(64.533474, 223.987729)"><g><path d="M 0 -10.515625 L 0 -1.890625 L -14.984375 -1.890625 L -14.984375 -10.515625 L -12.390625 -10.515625 L -12.390625 -5.0625 L -9.09375 -5.0625 L -9.09375 -10.140625 L -6.484375 -10.140625 L -6.484375 -5.0625 L -2.625 -5.0625 L -2.625 -10.515625 Z M 0 -10.515625"/></g></g></g><g fill-opacity="1" fill="#ffffff"><g transform="translate(64.533474, 211.176503)"><g><path d="M 0 -14 L 0 -10.375 L -5.671875 -6.890625 L 0 -3.40625 L 0 0 L -7.734375 -4.96875 L -14.984375 -0.3125 L -14.984375 -3.828125 L -9.59375 -7.0625 L -14.984375 -10.21875 L -14.984375 -13.640625 L -7.5625 -8.9375 Z M 0 -14"/></g></g></g><g fill-opacity="1" fill="#ffffff"><g transform="translate(64.533474, 196.119672)"><g><path d="M 0 -7.671875 L 0 -4.484375 L -12.34375 -4.484375 L -12.34375 -0.421875 L -14.984375 -0.421875 L -14.984375 -11.734375 L -12.34375 -11.734375 L -12.34375 -7.671875 Z M 0 -7.671875"/></g></g></g><g fill-opacity="1" fill="#ffffff"><g transform="translate(64.533474, 182.908544)"><g/></g></g><g fill-opacity="1" fill="#ffffff"><g transform="translate(64.533474, 176.403471)"><g><path d="M 0 -1.890625 L -14.984375 -1.890625 L -14.984375 -5.0625 L -2.625 -5.0625 L -2.625 -11.140625 L 0 -11.140625 Z M 0 -1.890625"/></g></g></g><g fill-opacity="1" fill="#ffffff"><g transform="translate(64.533474, 163.489707)"><g><path d="M 0 -10.515625 L 0 -1.890625 L -14.984375 -1.890625 L -14.984375 -10.515625 L -12.390625 -10.515625 L -12.390625 -5.0625 L -9.09375 -5.0625 L -9.09375 -10.140625 L -6.484375 -10.140625 L -6.484375 -5.0625 L -2.625 -5.0625 L -2.625 -10.515625 Z M 0 -10.515625"/></g></g></g><g fill-opacity="1" fill="#ffffff"><g transform="translate(64.533474, 150.678481)"><g><path d="M -14.984375 -13.640625 L 0 -8.546875 L 0 -5.09375 L -14.984375 0 L -14.984375 -3.203125 L -6.078125 -6.03125 C -5.921875 -6.070312 -5.632812 -6.144531 -5.21875 -6.25 C -4.8125 -6.363281 -4.375 -6.476562 -3.90625 -6.59375 C -3.445312 -6.707031 -3.066406 -6.785156 -2.765625 -6.828125 C -3.066406 -6.867188 -3.445312 -6.941406 -3.90625 -7.046875 C -4.363281 -7.148438 -4.796875 -7.253906 -5.203125 -7.359375 C -5.617188 -7.472656 -5.910156 -7.550781 -6.078125 -7.59375 L -14.984375 -10.4375 Z M -14.984375 -13.640625"/></g></g></g><g fill-opacity="1" fill="#ffffff"><g transform="translate(64.533474, 135.980537)"><g><path d="M 0 -10.515625 L 0 -1.890625 L -14.984375 -1.890625 L -14.984375 -10.515625 L -12.390625 -10.515625 L -12.390625 -5.0625 L -9.09375 -5.0625 L -9.09375 -10.140625 L -6.484375 -10.140625 L -6.484375 -5.0625 L -2.625 -5.0625 L -2.625 -10.515625 Z M 0 -10.515625"/></g></g></g><g fill-opacity="1" fill="#ffffff"><g transform="translate(64.533474, 123.169311)"><g><path d="M 0 -1.890625 L -14.984375 -1.890625 L -14.984375 -5.0625 L -2.625 -5.0625 L -2.625 -11.140625 L 0 -11.140625 Z M 0 -1.890625"/></g></g></g><g clip-path="url(#ed4a2721fe)"><path fill-rule="nonzero" fill-opacity="1" d="M 127.515625 159.542969 L 127.515625 149.128906 L 69.929688 149.128906 L 69.929688 181.539062 L 127.515625 181.539062 Z M 69.929688 181.539062 L 127.515625 216.460938 L 127.515625 181.539062 Z M 69.929688 114.210938 L 127.515625 114.210938 L 127.515625 149.128906 L 69.929688 149.128906 Z M 69.929688 114.210938" fill="#6ee9ff"/></g><g clip-path="url(#9b94b41c60)"><path fill-rule="nonzero" fill-opacity="1" d="M 127.515625 149.128906 L 127.515625 181.539062 L 185.101562 181.539062 L 185.101562 149.128906 Z M 127.515625 114.210938 L 185.101562 114.210938 L 185.101562 149.128906 L 127.515625 149.128906 Z M 127.515625 216.460938 L 185.101562 181.539062 L 127.515625 181.539062 Z M 127.515625 216.460938" fill="#b6f2fd"/></g><g clip-path="url(#a0bc3d2252)"><path fill-rule="nonzero" fill-opacity="1" d="M 127.515625 149.128906 L 69.929688 114.210938 L 127.515625 79.289062 L 185.101562 114.210938 Z M 127.515625 149.128906" fill="#def4f8"/></g><g fill-opacity="1" fill="#404040"><g transform="translate(110.367197, 124.206922)"><g><path d="M 12.84375 -8.5625 C 12.84375 -7.1875 12.734375 -5.953125 12.515625 -4.859375 C 12.304688 -3.773438 11.960938 -2.851562 11.484375 -2.09375 C 11.015625 -1.34375 10.394531 -0.765625 9.625 -0.359375 C 8.863281 0.0351562 7.9375 0.234375 6.84375 0.234375 C 5.46875 0.234375 4.335938 -0.113281 3.453125 -0.8125 C 2.578125 -1.507812 1.925781 -2.515625 1.5 -3.828125 C 1.082031 -5.148438 0.875 -6.726562 0.875 -8.5625 C 0.875 -10.414062 1.066406 -12 1.453125 -13.3125 C 1.835938 -14.632812 2.46875 -15.644531 3.34375 -16.34375 C 4.21875 -17.050781 5.382812 -17.40625 6.84375 -17.40625 C 8.207031 -17.40625 9.332031 -17.054688 10.21875 -16.359375 C 11.113281 -15.660156 11.773438 -14.648438 12.203125 -13.328125 C 12.628906 -12.015625 12.84375 -10.425781 12.84375 -8.5625 Z M 4.46875 -8.5625 C 4.46875 -7.257812 4.539062 -6.171875 4.6875 -5.296875 C 4.832031 -4.429688 5.078125 -3.78125 5.421875 -3.34375 C 5.765625 -2.90625 6.238281 -2.6875 6.84375 -2.6875 C 7.445312 -2.6875 7.921875 -2.898438 8.265625 -3.328125 C 8.617188 -3.765625 8.867188 -4.414062 9.015625 -5.28125 C 9.160156 -6.15625 9.234375 -7.25 9.234375 -8.5625 C 9.234375 -9.875 9.160156 -10.96875 9.015625 -11.84375 C 8.867188 -12.71875 8.617188 -13.375 8.265625 -13.8125 C 7.921875 -14.25 7.445312 -14.46875 6.84375 -14.46875 C 6.238281 -14.46875 5.765625 -14.25 5.421875 -13.8125 C 5.078125 -13.375 4.832031 -12.71875 4.6875 -11.84375 C 4.539062 -10.96875 4.46875 -9.875 4.46875 -8.5625 Z M 4.46875 -8.5625"/></g></g><g transform="translate(124.089853, 124.206922)"><g><path d="M 9.921875 0 L 6.296875 0 L 6.296875 -9.921875 C 6.296875 -10.191406 6.296875 -10.523438 6.296875 -10.921875 C 6.304688 -11.328125 6.316406 -11.742188 6.328125 -12.171875 C 6.347656 -12.597656 6.367188 -12.984375 6.390625 -13.328125 C 6.304688 -13.222656 6.128906 -13.046875 5.859375 -12.796875 C 5.597656 -12.554688 5.359375 -12.335938 5.140625 -12.140625 L 3.171875 -10.5625 L 1.421875 -12.734375 L 6.9375 -17.140625 L 9.921875 -17.140625 Z M 9.921875 0"/></g></g><g transform="translate(137.812509, 124.206922)"><g><path d="M 1.375 -1.671875 C 1.375 -2.410156 1.570312 -2.925781 1.96875 -3.21875 C 2.375 -3.519531 2.863281 -3.671875 3.4375 -3.671875 C 3.988281 -3.671875 4.460938 -3.519531 4.859375 -3.21875 C 5.265625 -2.925781 5.46875 -2.410156 5.46875 -1.671875 C 5.46875 -0.972656 5.265625 -0.46875 4.859375 -0.15625 C 4.460938 0.15625 3.988281 0.3125 3.4375 0.3125 C 2.863281 0.3125 2.375 0.15625 1.96875 -0.15625 C 1.570312 -0.46875 1.375 -0.972656 1.375 -1.671875 Z M 1.375 -1.671875"/></g></g></g></svg>