<svg version="1.0" preserveAspectRatio="xMidYMid meet" viewBox="596.4089955022489 96.5376 69.08545727136432 70.27199999999999" zoomAndPan="magnify" xmlns:xlink="http://www.w3.org/1999/xlink" xmlns="http://www.w3.org/2000/svg" style="max-height: 500px" width="69.08545727136432" height="70.27199999999999"><defs><clipPath id="afbfd181f3"><path clip-rule="nonzero" d="M 601.113281 101.480469 L 661 101.480469 L 661 159.230469 L 601.113281 159.230469 Z M 601.113281 101.480469"/></clipPath></defs><g clip-path="url(#afbfd181f3)"><path fill-rule="nonzero" fill-opacity="1" d="M 659.769531 154.316406 C 659.644531 153.925781 659.285156 153.664062 658.875 153.664062 L 657.660156 153.664062 L 656.320312 150.433594 C 656.175781 150.082031 655.832031 149.855469 655.453125 149.855469 L 606.761719 149.855469 C 606.382812 149.855469 606.042969 150.082031 605.898438 150.433594 L 604.554688 153.664062 L 603.339844 153.664062 C 602.933594 153.664062 602.570312 153.925781 602.449219 154.316406 L 601.277344 157.980469 C 601.183594 158.269531 601.234375 158.582031 601.410156 158.824219 C 601.589844 159.066406 601.871094 159.207031 602.167969 159.207031 L 660.046875 159.207031 C 660.347656 159.207031 660.628906 159.066406 660.804688 158.824219 C 660.980469 158.582031 661.03125 158.269531 660.941406 157.980469 Z M 607.386719 151.734375 L 654.828125 151.734375 L 655.628906 153.664062 L 606.585938 153.664062 Z M 603.453125 157.328125 L 604.023438 155.542969 L 658.191406 155.542969 L 658.761719 157.328125 Z M 602.488281 120.613281 C 602.640625 120.949219 602.972656 121.164062 603.339844 121.164062 L 605.042969 121.164062 L 606.488281 124.492188 C 606.636719 124.832031 606.976562 125.054688 607.347656 125.054688 L 654.867188 125.054688 C 655.242188 125.054688 655.578125 124.832031 655.726562 124.492188 L 657.171875 121.164062 L 658.875 121.164062 C 659.242188 121.164062 659.578125 120.949219 659.730469 120.613281 L 660.902344 118.023438 C 661.105469 117.570312 660.921875 117.035156 660.480469 116.804688 L 631.542969 101.632812 C 631.269531 101.488281 630.945312 101.488281 630.675781 101.632812 L 601.734375 116.804688 C 601.292969 117.035156 601.109375 117.570312 601.316406 118.023438 Z M 654.253906 123.175781 L 607.960938 123.175781 L 607.089844 121.164062 L 655.128906 121.164062 Z M 631.109375 103.523438 L 658.828125 118.058594 L 658.273438 119.285156 L 603.945312 119.285156 L 603.386719 118.058594 Z M 631.109375 117.164062 C 633.941406 117.164062 636.246094 114.851562 636.246094 112.011719 C 636.246094 109.167969 633.941406 106.859375 631.109375 106.859375 C 628.273438 106.859375 625.96875 109.167969 625.96875 112.011719 C 625.96875 114.851562 628.273438 117.164062 631.109375 117.164062 Z M 631.109375 108.738281 C 632.90625 108.738281 634.371094 110.207031 634.371094 112.011719 C 634.371094 113.816406 632.90625 115.28125 631.109375 115.28125 C 629.308594 115.28125 627.84375 113.816406 627.84375 112.011719 C 627.84375 110.207031 629.308594 108.738281 631.109375 108.738281 Z M 660.980469 145.46875 C 660.710938 141.84375 658.347656 138.804688 655.140625 137.515625 C 656.378906 136.515625 657.167969 134.980469 657.167969 133.269531 C 657.167969 130.253906 654.722656 127.800781 651.71875 127.800781 C 648.710938 127.800781 646.265625 130.253906 646.265625 133.269531 C 646.265625 134.980469 647.058594 136.511719 648.292969 137.515625 C 645.085938 138.804688 642.726562 141.84375 642.453125 145.46875 C 642.421875 145.890625 642.566406 146.3125 642.855469 146.621094 C 643.140625 146.929688 643.546875 147.109375 643.96875 147.109375 L 659.464844 147.109375 C 659.886719 147.109375 660.292969 146.929688 660.582031 146.621094 C 660.867188 146.3125 661.011719 145.890625 660.980469 145.46875 Z M 648.140625 133.269531 C 648.140625 131.289062 649.746094 129.679688 651.71875 129.679688 C 653.691406 129.679688 655.292969 131.289062 655.292969 133.269531 C 655.292969 135.246094 653.691406 136.851562 651.71875 136.855469 C 651.714844 136.855469 651.714844 136.855469 651.714844 136.855469 C 649.742188 136.851562 648.140625 135.246094 648.140625 133.269531 Z M 644.359375 145.226562 C 644.828125 141.558594 647.984375 138.734375 651.714844 138.734375 C 651.714844 138.734375 651.714844 138.734375 651.71875 138.734375 C 655.449219 138.734375 658.605469 141.558594 659.074219 145.226562 Z M 621.84375 145.46875 C 621.8125 145.890625 621.957031 146.3125 622.246094 146.621094 C 622.53125 146.929688 622.9375 147.109375 623.359375 147.109375 L 638.855469 147.109375 C 639.277344 147.109375 639.683594 146.929688 639.972656 146.621094 C 640.257812 146.3125 640.402344 145.890625 640.371094 145.46875 C 640.101562 141.84375 637.738281 138.804688 634.53125 137.515625 C 635.769531 136.515625 636.558594 134.980469 636.558594 133.269531 C 636.558594 130.253906 634.113281 127.800781 631.109375 127.800781 C 628.101562 127.800781 625.65625 130.253906 625.65625 133.269531 C 625.65625 134.980469 626.449219 136.511719 627.683594 137.515625 C 624.476562 138.804688 622.117188 141.84375 621.84375 145.46875 Z M 627.53125 133.269531 C 627.53125 131.289062 629.136719 129.679688 631.109375 129.679688 C 633.082031 129.679688 634.683594 131.289062 634.683594 133.269531 C 634.683594 135.246094 633.082031 136.851562 631.109375 136.855469 C 631.105469 136.855469 631.105469 136.855469 631.105469 136.855469 C 629.132812 136.851562 627.53125 135.246094 627.53125 133.269531 Z M 631.105469 138.734375 C 631.105469 138.734375 631.105469 138.734375 631.109375 138.734375 C 634.839844 138.734375 637.996094 141.558594 638.464844 145.226562 L 623.753906 145.226562 C 624.21875 141.558594 627.378906 138.734375 631.105469 138.734375 Z M 602.75 147.109375 L 618.246094 147.109375 C 618.671875 147.109375 619.078125 146.929688 619.363281 146.621094 C 619.648438 146.3125 619.796875 145.890625 619.761719 145.46875 C 619.492188 141.84375 617.128906 138.804688 613.925781 137.515625 C 615.160156 136.515625 615.953125 134.980469 615.953125 133.269531 C 615.953125 130.253906 613.503906 127.800781 610.5 127.800781 C 607.492188 127.800781 605.046875 130.253906 605.046875 133.269531 C 605.046875 134.980469 605.839844 136.511719 607.074219 137.515625 C 603.871094 138.804688 601.507812 141.84375 601.234375 145.46875 C 601.203125 145.890625 601.351562 146.3125 601.636719 146.621094 C 601.921875 146.929688 602.328125 147.109375 602.75 147.109375 Z M 606.921875 133.269531 C 606.921875 131.289062 608.527344 129.679688 610.5 129.679688 C 612.472656 129.679688 614.078125 131.289062 614.078125 133.269531 C 614.078125 135.246094 612.472656 136.851562 610.5 136.855469 C 610.5 136.855469 610.496094 136.855469 610.496094 136.855469 C 608.527344 136.851562 606.921875 135.246094 606.921875 133.269531 Z M 610.496094 138.734375 C 610.496094 138.734375 610.5 138.734375 610.5 138.734375 C 614.230469 138.734375 617.386719 141.558594 617.855469 145.226562 L 603.144531 145.226562 C 603.609375 141.558594 606.769531 138.734375 610.496094 138.734375 Z M 610.496094 138.734375" fill="#000000"/></g></svg>