<svg xmlns="http://www.w3.org/2000/svg" xmlns:xlink="http://www.w3.org/1999/xlink" version="1.1" id="Capa_1" x="0px" y="0px" viewBox="0 0 150 60" style="enable-background:new 0 0 150 60;" xml:space="preserve" width="150"  height="60" >
<style type="text/css">
	.st0{fill:#434142;}
	.st1{fill:#152E80;}
	.st2{fill:#1C96C3;}
	.st3{fill:#191E7D;}
	.st4{fill:url(#SVGID_1_);}
	.st5{fill:#FFFFFF;}
	.st6{fill:url(#SVGID_2_);}
	.st7{fill:url(#SVGID_3_);}
</style>
<g>
	<g>
		<path class="st0" d="M61.9,42.6h0.8V49h-0.8v-4.4L59.9,49h-0.6l-1.9-4.4V49h-0.8v-6.4h0.8l2.3,5.3L61.9,42.6z"/>
		<path class="st0" d="M68.2,44.4V49h-0.9v-0.8c-0.1,0.3-0.3,0.5-0.6,0.6s-0.6,0.2-0.9,0.2c-0.4,0-0.8-0.1-1.1-0.3    c-0.3-0.2-0.5-0.5-0.7-0.8c-0.2-0.4-0.3-0.8-0.3-1.2s0.1-0.9,0.3-1.2c0.2-0.4,0.4-0.6,0.7-0.8s0.7-0.3,1-0.3    c0.4,0,0.6,0.1,0.9,0.2s0.5,0.4,0.6,0.6v-0.7H68.2z M66.9,47.9c0.2-0.3,0.3-0.7,0.3-1.2s-0.1-0.9-0.3-1.2c-0.2-0.3-0.5-0.4-1-0.4    c-0.4,0-0.7,0.1-1,0.4c-0.2,0.3-0.4,0.7-0.4,1.2s0.1,0.9,0.4,1.2c0.2,0.3,0.5,0.4,1,0.4C66.4,48.3,66.7,48.2,66.9,47.9z"/>
		<path class="st0" d="M72.1,44.4l0,0.8c-0.2-0.1-0.3-0.1-0.5-0.1c-0.4,0-0.7,0.1-0.9,0.4c-0.2,0.3-0.3,0.6-0.3,1V49h-0.9v-3.3    c0-0.5,0-0.9-0.1-1.3h0.9l0.1,0.8c0.1-0.3,0.3-0.5,0.6-0.7c0.3-0.2,0.5-0.2,0.9-0.2C71.8,44.3,72,44.3,72.1,44.4z"/>
		<path class="st0" d="M77,49h-1.2l-2.2-2.1V49h-0.9v-6.7h0.9v4.2l2-2h1.1l-2.2,2.2L77,49z"/>
		<path class="st0" d="M81.3,46.7H78c0,1.1,0.5,1.6,1.5,1.6c0.5,0,1-0.2,1.4-0.5l0.3,0.6c-0.2,0.2-0.5,0.3-0.8,0.4s-0.6,0.2-1,0.2    c-0.7,0-1.3-0.2-1.7-0.6c-0.4-0.4-0.6-1-0.6-1.7c0-0.5,0.1-0.9,0.3-1.2s0.5-0.6,0.8-0.8c0.3-0.2,0.7-0.3,1.1-0.3    c0.6,0,1.1,0.2,1.5,0.6c0.4,0.4,0.5,1,0.5,1.7L81.3,46.7L81.3,46.7z M78.5,45.3c-0.2,0.2-0.4,0.5-0.4,0.9h2.4    c0-0.4-0.1-0.7-0.4-0.9c-0.2-0.2-0.5-0.3-0.8-0.3C79,45,78.7,45.1,78.5,45.3z"/>
		<path class="st0" d="M83.4,45.1v2.3c0,0.3,0.1,0.5,0.2,0.7c0.1,0.1,0.3,0.2,0.6,0.2c0.2,0,0.3,0,0.5-0.1v0.7    C84.4,49,84.2,49,83.9,49c-0.5,0-0.8-0.1-1.1-0.4s-0.4-0.6-0.4-1.2v-2.4h-0.9v-0.7h0.9v-1.1l0.9-0.3v1.5h1.3v0.7L83.4,45.1    L83.4,45.1z"/>
		<path class="st0" d="M85.3,42.4h1v1h-1V42.4z M85.4,49v-4.6h0.9V49H85.4z"/>
		<path class="st0" d="M91.6,46.1V49h-0.9v-2.8c0-0.4-0.1-0.7-0.2-0.9c-0.1-0.2-0.4-0.3-0.7-0.3c-0.4,0-0.7,0.1-0.9,0.4    s-0.4,0.6-0.4,1V49h-0.9v-3.3c0-0.5,0-0.9-0.1-1.3h0.9l0.1,0.8c0.1-0.3,0.4-0.5,0.6-0.7c0.3-0.1,0.6-0.2,0.9-0.2    C91,44.3,91.6,44.9,91.6,46.1z"/>
		<path class="st0" d="M97,44.4v4.5c0,0.7-0.2,1.2-0.5,1.6c-0.4,0.4-0.9,0.5-1.6,0.5c-0.7,0-1.3-0.1-1.8-0.5l0.1-0.7    c0.3,0.1,0.5,0.3,0.8,0.3c0.3,0.1,0.5,0.1,0.8,0.1c0.9,0,1.3-0.4,1.3-1.3v-1c-0.1,0.3-0.3,0.5-0.6,0.6c-0.3,0.1-0.6,0.2-0.9,0.2    c-0.4,0-0.8-0.1-1.1-0.3c-0.3-0.2-0.5-0.5-0.7-0.8s-0.3-0.7-0.3-1.2s0.1-0.8,0.3-1.2c0.2-0.3,0.4-0.6,0.7-0.8    c0.3-0.2,0.7-0.3,1.1-0.3c0.4,0,0.7,0.1,0.9,0.2c0.3,0.1,0.5,0.4,0.6,0.6v-0.7L97,44.4L97,44.4z M95.7,47.7    c0.2-0.3,0.4-0.6,0.4-1.1s-0.1-0.9-0.4-1.1c-0.2-0.3-0.5-0.4-1-0.4c-0.4,0-0.7,0.1-1,0.4c-0.2,0.3-0.4,0.6-0.4,1.1    s0.1,0.8,0.4,1.1c0.2,0.3,0.6,0.4,1,0.4C95.2,48.1,95.5,48,95.7,47.7z"/>
		<path class="st0" d="M100.7,49v-6.4h4.2v0.8h-3.3v2h3.1v0.8h-3.1v2.1h3.3V49L100.7,49L100.7,49z"/>
		<path class="st0" d="M105.5,48.5l0.3-0.7c0.5,0.4,1,0.5,1.6,0.5c0.3,0,0.5,0,0.7-0.2c0.2-0.1,0.2-0.3,0.2-0.5c0-0.2,0-0.3-0.2-0.4    s-0.3-0.2-0.6-0.2l-0.8-0.2c-0.4-0.1-0.7-0.2-0.9-0.5c-0.2-0.2-0.3-0.5-0.3-0.8c0-0.4,0.2-0.7,0.5-1c0.3-0.3,0.8-0.4,1.3-0.4    c0.3,0,0.6,0,0.9,0.1s0.5,0.2,0.7,0.4l-0.3,0.6c-0.4-0.4-0.9-0.5-1.4-0.5c-0.3,0-0.5,0-0.7,0.2c-0.2,0.1-0.2,0.3-0.2,0.5    c0,0.2,0,0.3,0.1,0.4c0.1,0.1,0.3,0.2,0.5,0.2l0.8,0.2c0.4,0.1,0.8,0.2,1,0.5c0.2,0.2,0.3,0.5,0.3,0.8c0,0.4-0.2,0.7-0.5,1    c-0.3,0.2-0.8,0.4-1.3,0.4C106.6,49.1,106,48.9,105.5,48.5z"/>
		<path class="st0" d="M111.4,45.1v2.3c0,0.3,0.1,0.5,0.2,0.7c0.1,0.1,0.3,0.2,0.6,0.2c0.2,0,0.3,0,0.5-0.1v0.7    c-0.2,0.1-0.4,0.1-0.7,0.1c-0.5,0-0.8-0.1-1.1-0.4c-0.3-0.3-0.4-0.6-0.4-1.2v-2.4h-0.9v-0.7h0.9v-1.1l0.9-0.3v1.5h1.3v0.7    L111.4,45.1L111.4,45.1z"/>
		<path class="st0" d="M116.1,44.4l0,0.8c-0.2-0.1-0.3-0.1-0.5-0.1c-0.4,0-0.7,0.1-0.9,0.4c-0.2,0.3-0.3,0.6-0.3,1V49h-0.9v-3.3    c0-0.5,0-0.9-0.1-1.3h0.9l0.1,0.8c0.1-0.3,0.3-0.5,0.6-0.7c0.3-0.2,0.5-0.2,0.9-0.2C115.8,44.3,115.9,44.3,116.1,44.4z"/>
		<path class="st0" d="M120.8,44.4V49h-0.9v-0.8c-0.1,0.3-0.3,0.5-0.6,0.6s-0.6,0.2-0.9,0.2c-0.4,0-0.8-0.1-1.1-0.3    c-0.3-0.2-0.5-0.5-0.7-0.8c-0.2-0.4-0.3-0.8-0.3-1.2s0.1-0.9,0.3-1.2c0.2-0.4,0.4-0.6,0.7-0.8s0.7-0.3,1-0.3    c0.4,0,0.6,0.1,0.9,0.2s0.5,0.4,0.6,0.6v-0.7H120.8z M119.5,47.9c0.2-0.3,0.3-0.7,0.3-1.2s-0.1-0.9-0.3-1.2    c-0.2-0.3-0.5-0.4-1-0.4c-0.4,0-0.7,0.1-1,0.4c-0.2,0.3-0.4,0.7-0.4,1.2s0.1,0.9,0.4,1.2c0.2,0.3,0.5,0.4,1,0.4    C119,48.3,119.3,48.2,119.5,47.9z"/>
		<path class="st0" d="M123.2,45.1v2.3c0,0.3,0.1,0.5,0.2,0.7c0.1,0.1,0.3,0.2,0.6,0.2c0.2,0,0.3,0,0.5-0.1v0.7    c-0.2,0.1-0.4,0.1-0.7,0.1c-0.5,0-0.8-0.1-1.1-0.4c-0.3-0.3-0.4-0.6-0.4-1.2v-2.4h-0.9v-0.7h0.9v-1.1l0.9-0.3v1.5h1.3v0.7    L123.2,45.1L123.2,45.1z"/>
		<path class="st0" d="M129.1,46.7h-3.3c0,1.1,0.5,1.6,1.5,1.6c0.5,0,1-0.2,1.4-0.5l0.3,0.6c-0.2,0.2-0.5,0.3-0.8,0.4    c-0.3,0.1-0.6,0.2-1,0.2c-0.7,0-1.3-0.2-1.7-0.6c-0.4-0.4-0.6-1-0.6-1.7c0-0.5,0.1-0.9,0.3-1.2c0.2-0.4,0.5-0.6,0.8-0.8    c0.3-0.2,0.7-0.3,1.1-0.3c0.6,0,1.1,0.2,1.5,0.6c0.4,0.4,0.5,1,0.5,1.7V46.7z M126.3,45.3c-0.2,0.2-0.4,0.5-0.4,0.9h2.4    c0-0.4-0.1-0.7-0.4-0.9c-0.2-0.2-0.5-0.3-0.8-0.3C126.8,45,126.5,45.1,126.3,45.3z M127.4,43.8h-0.6l0.9-1.9h1L127.4,43.8z"/>
		<path class="st0" d="M134.3,44.4v4.5c0,0.7-0.2,1.2-0.5,1.6c-0.4,0.4-0.9,0.5-1.6,0.5c-0.7,0-1.3-0.1-1.8-0.5l0.1-0.7    c0.3,0.1,0.5,0.3,0.8,0.3c0.3,0.1,0.5,0.1,0.8,0.1c0.9,0,1.3-0.4,1.3-1.3v-1c-0.1,0.3-0.3,0.5-0.6,0.6s-0.6,0.2-0.9,0.2    c-0.4,0-0.8-0.1-1.1-0.3c-0.3-0.2-0.5-0.5-0.7-0.8s-0.3-0.7-0.3-1.2s0.1-0.8,0.3-1.2c0.2-0.3,0.4-0.6,0.7-0.8    c0.3-0.2,0.7-0.3,1.1-0.3c0.4,0,0.7,0.1,0.9,0.2c0.3,0.1,0.5,0.4,0.6,0.6v-0.7L134.3,44.4L134.3,44.4z M133,47.7    c0.2-0.3,0.4-0.6,0.4-1.1s-0.1-0.9-0.4-1.1c-0.2-0.3-0.5-0.4-1-0.4c-0.4,0-0.7,0.1-1,0.4c-0.2,0.3-0.4,0.6-0.4,1.1    s0.1,0.8,0.4,1.1c0.2,0.3,0.6,0.4,1,0.4S132.8,48,133,47.7z"/>
		<path class="st0" d="M135.4,42.4h1v1h-1V42.4z M135.5,49v-4.6h0.9V49H135.5z"/>
		<path class="st0" d="M138.5,48.8c-0.3-0.2-0.6-0.5-0.8-0.8c-0.2-0.4-0.3-0.8-0.3-1.2s0.1-0.9,0.3-1.2c0.2-0.4,0.5-0.6,0.8-0.8    c0.3-0.2,0.7-0.3,1.2-0.3c0.3,0,0.6,0,0.9,0.2c0.3,0.1,0.5,0.2,0.7,0.4l-0.3,0.7c-0.4-0.3-0.9-0.5-1.3-0.5c-0.4,0-0.8,0.1-1,0.4    c-0.2,0.3-0.4,0.7-0.4,1.2c0,0.5,0.1,0.9,0.4,1.2c0.3,0.3,0.6,0.4,1,0.4c0.5,0,0.9-0.2,1.3-0.5l0.3,0.7c-0.2,0.2-0.4,0.3-0.7,0.4    s-0.6,0.1-0.9,0.1C139.2,49.1,138.8,49,138.5,48.8z"/>
		<path class="st0" d="M142.9,48.8c-0.3-0.2-0.6-0.5-0.8-0.8c-0.2-0.4-0.3-0.8-0.3-1.2s0.1-0.9,0.3-1.3c0.2-0.4,0.5-0.6,0.8-0.8    c0.3-0.2,0.7-0.3,1.2-0.3c0.4,0,0.8,0.1,1.2,0.3c0.3,0.2,0.6,0.5,0.8,0.8c0.2,0.4,0.3,0.8,0.3,1.3s-0.1,0.9-0.3,1.2    c-0.2,0.4-0.5,0.6-0.8,0.8c-0.3,0.2-0.7,0.3-1.2,0.3C143.6,49.1,143.2,49,142.9,48.8z M145,47.9c0.2-0.3,0.3-0.7,0.3-1.2    s-0.1-0.9-0.3-1.2c-0.2-0.3-0.5-0.4-1-0.4c-0.4,0-0.7,0.1-1,0.4c-0.2,0.3-0.3,0.7-0.3,1.2c0,0.5,0.1,1,0.3,1.2    c0.2,0.3,0.5,0.4,1,0.4C144.4,48.3,144.8,48.2,145,47.9z"/>
	</g>
	<g>
		<path class="st1" d="M56.3,40.2V13.5c0-0.2,0.1-0.3,0.3-0.3h6.6c0.2,0,0.3,0.1,0.3,0.3v26.7c0,0.2-0.1,0.3-0.3,0.3h-6.6    C56.5,40.6,56.3,40.4,56.3,40.2z"/>
		<path class="st2" d="M89.9,22.6c1.1,1.4,1.7,3.5,1.7,6.3v11.3c0,0.2-0.1,0.3-0.3,0.3H85c-0.2,0-0.3-0.1-0.3-0.3v-11    c0-1.2-0.2-2.1-0.6-2.6c-0.4-0.5-1-0.8-1.9-0.8c-1,0-1.9,0.4-2.5,1c-0.6,0.7-1,1.6-1,2.8v10.5c0,0.2-0.1,0.3-0.3,0.3H72    c-0.2,0-0.3-0.1-0.3-0.3V26.6c0-2-0.1-3.7-0.3-5.2c0-0.2,0.1-0.4,0.3-0.4h5.9c0.2,0,0.3,0.1,0.3,0.3l0.2,1.8    c0,0.3,0.4,0.4,0.6,0.2c0.6-0.8,1.4-1.4,2.3-1.9c1.1-0.6,2.4-0.9,3.7-0.9C87.1,20.5,88.8,21.2,89.9,22.6z"/>
		<path class="st2" d="M120.6,40.6H113c-0.1,0-0.2,0-0.3-0.1l-5.9-7.5c-0.2-0.3-0.6-0.1-0.6,0.2v7.1c0,0.2-0.1,0.3-0.3,0.3h-6.3    c-0.2,0-0.3-0.1-0.3-0.3V12.6c0-0.2,0.1-0.3,0.3-0.3h6.3c0.2,0,0.3,0.1,0.3,0.3v15.6c0,0.3,0.4,0.5,0.6,0.2l5.8-7.2    c0.1-0.1,0.2-0.1,0.3-0.1h7.4c0.3,0,0.5,0.3,0.3,0.5l-7,8.6c-0.1,0.1-0.1,0.3,0,0.4l7.4,9.4C121,40.2,120.9,40.6,120.6,40.6z"/>
		<path class="st1" d="M146.3,21.4v18.9c0,0.2-0.1,0.3-0.3,0.3h-6.2c-0.2,0-0.3-0.1-0.3-0.3v-1.3c0-0.3-0.4-0.5-0.6-0.2    c-0.5,0.5-1.1,1-1.9,1.4c-1.1,0.5-2.3,0.8-3.5,0.8c-1.7,0-3.2-0.4-4.5-1.2c-1.3-0.8-2.3-2-3-3.5c-0.7-1.5-1.1-3.3-1.1-5.3    c0-2,0.4-3.8,1.1-5.4c0.7-1.6,1.8-2.8,3.1-3.7c1.3-0.9,2.8-1.3,4.4-1.3c1.3,0,2.5,0.3,3.5,0.8c0.7,0.4,1.4,0.9,1.9,1.4    c0.2,0.2,0.6,0.1,0.6-0.2v-1.2c0-0.2,0.1-0.3,0.3-0.3h6.2C146.1,21,146.3,21.2,146.3,21.4z M138.4,34.4c0.7-0.9,1-2.1,1-3.7    c0-1.6-0.3-2.9-1-3.7c-0.7-0.9-1.6-1.3-2.9-1.3c-1.2,0-2.2,0.5-2.9,1.3c-0.7,0.9-1,2.1-1,3.8c0,1.6,0.3,2.8,1,3.6    c0.7,0.8,1.6,1.3,2.9,1.3C136.8,35.7,137.7,35.3,138.4,34.4z"/>
	</g>
	<g>
		<path class="st3" d="M134,15.5c0.2,0.2,0.3,0.5,0.3,0.8c0,0.3-0.1,0.6-0.3,0.8c-0.2,0.2-0.4,0.4-0.7,0.5s-0.7,0.2-1.1,0.2    c-0.4,0-0.7,0-1.1-0.1c-0.4-0.1-0.6-0.2-0.8-0.4l0.5-1c0.5,0.3,1,0.5,1.4,0.5c0.3,0,0.5,0,0.6-0.1c0.1-0.1,0.2-0.2,0.2-0.5    c0-0.2-0.1-0.3-0.2-0.4c-0.1-0.1-0.3-0.1-0.6-0.1h-0.8v-1.1h0.7c0.3,0,0.5,0,0.6-0.1c0.1-0.1,0.2-0.2,0.2-0.4c0-0.2,0-0.3-0.2-0.4    c-0.1-0.1-0.3-0.1-0.5-0.1s-0.5,0-0.7,0.1c-0.2,0.1-0.5,0.2-0.7,0.4l-0.5-1c0.2-0.2,0.5-0.3,0.8-0.4c0.4-0.1,0.7-0.2,1-0.2    c0.4,0,0.7,0.1,1,0.2c0.3,0.1,0.5,0.3,0.7,0.5c0.2,0.2,0.2,0.5,0.2,0.8c0,0.3-0.1,0.5-0.2,0.7c-0.1,0.2-0.4,0.4-0.6,0.5    C133.6,15.1,133.9,15.3,134,15.5z"/>
		<path class="st3" d="M138,14.5c0.2,0.1,0.4,0.4,0.6,0.6c0.1,0.3,0.2,0.6,0.2,0.9c0,0.4-0.1,0.7-0.2,1s-0.4,0.5-0.7,0.7    c-0.3,0.2-0.6,0.2-1,0.2c-0.7,0-1.3-0.2-1.7-0.7c-0.4-0.5-0.6-1.1-0.6-2c0-0.6,0.1-1.1,0.3-1.5c0.2-0.4,0.5-0.7,0.8-1    c0.4-0.2,0.8-0.3,1.2-0.3c0.3,0,0.7,0,1,0.1c0.3,0.1,0.6,0.2,0.8,0.4l-0.5,1c-0.2-0.2-0.5-0.3-0.7-0.4c-0.2-0.1-0.4-0.1-0.6-0.1    c-0.6,0-0.9,0.5-1,1.3c0.1-0.2,0.3-0.3,0.5-0.4c0.2-0.1,0.4-0.1,0.6-0.1C137.5,14.3,137.8,14.3,138,14.5z M137.3,16.6    c0.1-0.1,0.2-0.3,0.2-0.5c0-0.2,0-0.4-0.2-0.5c-0.1-0.1-0.3-0.2-0.5-0.2c-0.2,0-0.3,0.1-0.5,0.2c-0.1,0.1-0.2,0.3-0.2,0.5    c0,0.2,0,0.4,0.2,0.5c0.1,0.1,0.3,0.2,0.5,0.2C137.1,16.8,137.2,16.7,137.3,16.6z"/>
		<path class="st3" d="M139.7,17.1c-0.4-0.5-0.5-1.1-0.5-2c0-0.9,0.2-1.5,0.5-2c0.4-0.5,0.9-0.7,1.5-0.7c0.7,0,1.2,0.2,1.5,0.7    c0.4,0.5,0.5,1.1,0.5,2c0,0.9-0.2,1.6-0.5,2s-0.9,0.7-1.5,0.7S140,17.6,139.7,17.1z M141.7,16.4c0.1-0.3,0.2-0.7,0.2-1.3    s0-1-0.2-1.3c-0.1-0.3-0.3-0.4-0.5-0.4s-0.4,0.1-0.5,0.4c-0.1,0.3-0.2,0.7-0.2,1.3c0,0.6,0,1,0.2,1.3c0.1,0.3,0.3,0.4,0.5,0.4    C141.4,16.8,141.6,16.7,141.7,16.4z"/>
		<path class="st3" d="M143.8,14.4c-0.2-0.2-0.4-0.5-0.4-0.8c0-0.3,0.1-0.6,0.4-0.8c0.2-0.2,0.6-0.3,1-0.3c0.5,0,0.8,0.1,1,0.3    c0.2,0.2,0.3,0.5,0.3,0.8c0,0.3-0.1,0.6-0.3,0.8c-0.2,0.2-0.6,0.3-1,0.3C144.4,14.8,144,14.6,143.8,14.4z M145.1,13.8    c0-0.1,0.1-0.1,0.1-0.2c0-0.2-0.1-0.3-0.3-0.3s-0.3,0.1-0.3,0.3c0,0.1,0,0.2,0.1,0.2c0,0.1,0.1,0.1,0.2,0.1    C144.9,13.9,145,13.9,145.1,13.8z"/>
	</g>
	<g>
		<g>
			
				<radialGradient id="SVGID_1_" cx="26.9163" cy="32.9976" r="21.8357" gradientTransform="matrix(1 0 0 -1 0 62)" gradientUnits="userSpaceOnUse">
				<stop offset="0" style="stop-color:#13115E"/>
				<stop offset="0.2185" style="stop-color:#151662"/>
				<stop offset="0.4693" style="stop-color:#12256F"/>
				<stop offset="0.7348" style="stop-color:#183C85"/>
				<stop offset="1" style="stop-color:#175A9E"/>
			</radialGradient>
			<path class="st4" d="M19.6,36.3H5.1V21.7h14.6L19.6,36.3L19.6,36.3z M34.2,7.2H19.6v14.6h14.6V7.2z M34.2,36.3H19.6v14.6h14.6     V36.3z M48.8,21.7H34.2v14.6h14.6V21.7z"/>
		</g>
		<g>
			<circle class="st5" cx="26.9" cy="29" r="11.9"/>
		</g>
		<g>
			<g>
				
					<radialGradient id="SVGID_2_" cx="26.9044" cy="32.9976" r="19.8919" gradientTransform="matrix(1 0 0 -1 0 62)" gradientUnits="userSpaceOnUse">
					<stop offset="1.721070e-03" style="stop-color:#69A5C6"/>
					<stop offset="0.3395" style="stop-color:#538EBB"/>
					<stop offset="1" style="stop-color:#19498D"/>
				</radialGradient>
				<path class="st6" d="M19.6,21.7h-7.3v-7.3h7.3V21.7z M41.5,14.4h-7.3v7.3h7.3V14.4z M41.5,36.3h-7.3v7.3h7.3V36.3z M19.6,36.3      h-7.3v7.3h7.3V36.3z"/>
			</g>
		</g>
		
			<radialGradient id="SVGID_3_" cx="47.3317" cy="-5.1738" r="13.5765" gradientTransform="matrix(7.669650e-02 -0.9971 -0.8834 -6.795201e-02 19.2099 69.9599)" gradientUnits="userSpaceOnUse">
			<stop offset="1.721070e-03" style="stop-color:#69A5C6"/>
			<stop offset="0.3395" style="stop-color:#538EBB"/>
			<stop offset="1" style="stop-color:#19498D"/>
		</radialGradient>
		<path class="st7" d="M21.6,31.1c0.4,2.5,1.3,5.5,3.2,8c-2-0.4-3.7-1.4-5.1-2.7c0.3-2,0.9-3.8,1.7-5.3    C21.5,31.1,21.5,31.1,21.6,31.1z M34.9,22.5c-0.6,0-1.8,0.1-3.2,0.4c-0.8,0.2-1.6,0.5-2.6,0.9c0,0.1,0,0.2,0,0.3    c0,0.1,0,0.3-0.1,0.4c1.2,0.8,2.2,1.6,3,2.4c1.8,1.8,3,3.8,3.7,5.6c0,0,0,0,0,0c0.3,0,0.5,0.1,0.7,0.2c0.5-1.2,0.7-2.4,0.7-3.7    C37.2,26.5,36.4,24.3,34.9,22.5z M21,29c0.1-0.1,0.3-0.2,0.5-0.2c0-2.3,0.6-4.2,1.3-5.8c-0.2-0.2-0.3-0.4-0.3-0.7c0,0,0,0,0-0.1    c-1-0.2-2-0.3-3-0.4c-0.8,0.8-1.4,1.8-1.9,2.8c0,0.1,0.1,0.2,0.1,0.2C18.4,26.1,19.5,27.6,21,29z M35.4,32.6    c-0.7-1.7-1.9-3.6-3.6-5.4c-0.8-0.8-1.8-1.6-3-2.4c-0.2,0.2-0.5,0.4-0.9,0.4c-0.4,0-0.7-0.2-0.9-0.5c-0.9,0.5-1.8,1.3-2.7,2.1    c-0.6,0.6-1.2,1.4-1.8,2.2c0.2,0.2,0.3,0.5,0.3,0.8c0,0.2,0,0.4-0.1,0.5c0.6,0.4,1.2,0.8,2,1.2c2.5,1.3,6.1,2.4,10,2.2    c0,0,0-0.1,0-0.1C34.7,33.2,35,32.8,35.4,32.6z M23.4,21.4c0,0,0.1,0,0.2,0c0.1-0.2,0.2-0.4,0.4-0.6c0.5-0.8,1-1.5,1.4-2    c-2.1,0.3-3.9,1.3-5.4,2.6c0.9,0,1.8,0.2,2.7,0.4C22.7,21.5,23,21.4,23.4,21.4z M34.8,34.2c-0.4,0-0.7,0-1.1,0    c-3.6,0-6.9-1-9.3-2.2c-0.7-0.4-1.4-0.8-2-1.2C22.4,30.9,22.2,31,22,31c0.4,2.6,1.4,5.6,3.4,8.2c0.5,0.1,1,0.1,1.5,0.1    c3.6,0,6.7-1.8,8.6-4.6C35.2,34.7,35,34.5,34.8,34.2z M20.5,29.9c0-0.2,0.1-0.5,0.2-0.6c-1.5-1.4-2.6-2.9-3.3-4.2    c-0.5,1.2-0.8,2.5-0.8,3.9c0,2.7,1,5.2,2.8,7c0.3-1.9,0.9-3.6,1.7-5.1C20.7,30.7,20.5,30.3,20.5,29.9z M24.2,22.7    c-0.1,0.3-0.5,0.5-0.8,0.5c-0.1,0-0.2,0-0.3,0c-0.6,1.5-1.2,3.4-1.2,5.6c0.1,0,0.2,0.1,0.4,0.1c0.6-0.9,1.2-1.6,1.9-2.2    c0.9-0.9,1.9-1.6,2.8-2.2c0-0.1,0-0.2,0-0.3s0-0.2,0-0.3C26,23.3,25.1,23,24.2,22.7z M23.9,21.5c0.2,0.2,0.4,0.4,0.4,0.7    c1,0.3,1.9,0.7,2.8,1.1c0.2-0.3,0.5-0.5,0.9-0.5c0.4,0,0.7,0.2,0.9,0.5c1-0.4,1.9-0.7,2.7-0.9c1.2-0.3,2.3-0.4,3-0.4    c-1.9-2.1-4.6-3.4-7.7-3.4c-0.3,0-0.7,0-1,0c-0.5,0.5-1.1,1.3-1.7,2.3C24.1,21.2,24,21.4,23.9,21.5z"/>
	</g>
</g>
</svg>