<svg version="1.0" preserveAspectRatio="xMidYMid meet" viewBox="265.7358234295416 70.110407239819 87.3616298811545 86.00904977375565" zoomAndPan="magnify" xmlns:xlink="http://www.w3.org/1999/xlink" xmlns="http://www.w3.org/2000/svg" style="max-height: 500px" width="87.3616298811545" height="86.00904977375565"><defs><clipPath id="a38e95011c"><path clip-rule="nonzero" d="M 307 112 L 322 112 L 322 115 L 307 115 Z M 307 112"/></clipPath><clipPath id="0705040f04"><path clip-rule="nonzero" d="M 270.375 112.210938 C 270.375 133.933594 287.984375 151.546875 309.707031 151.546875 C 331.433594 151.546875 349.042969 133.933594 349.042969 112.210938 C 349.042969 90.488281 331.433594 72.878906 309.707031 72.878906 C 287.984375 72.878906 270.375 90.488281 270.375 112.210938 Z M 270.375 112.210938"/></clipPath><clipPath id="957831b882"><path clip-rule="nonzero" d="M 309.707031 73.777344 C 330.933594 73.777344 348.140625 90.984375 348.140625 112.210938 C 348.140625 133.4375 330.933594 150.644531 309.707031 150.644531 C 288.480469 150.644531 271.273438 133.4375 271.273438 112.210938 C 271.273438 90.984375 288.480469 73.777344 309.707031 73.777344 Z M 309.707031 73.777344"/></clipPath><clipPath id="2883c80fae"><path clip-rule="nonzero" d="M 307 118 L 322 118 L 322 122 L 307 122 Z M 307 118"/></clipPath><clipPath id="844335b228"><path clip-rule="nonzero" d="M 270.375 112.210938 C 270.375 133.933594 287.984375 151.546875 309.707031 151.546875 C 331.433594 151.546875 349.042969 133.933594 349.042969 112.210938 C 349.042969 90.488281 331.433594 72.878906 309.707031 72.878906 C 287.984375 72.878906 270.375 90.488281 270.375 112.210938 Z M 270.375 112.210938"/></clipPath><clipPath id="8e34482fdd"><path clip-rule="nonzero" d="M 309.707031 73.777344 C 330.933594 73.777344 348.140625 90.984375 348.140625 112.210938 C 348.140625 133.4375 330.933594 150.644531 309.707031 150.644531 C 288.480469 150.644531 271.273438 133.4375 271.273438 112.210938 C 271.273438 90.984375 288.480469 73.777344 309.707031 73.777344 Z M 309.707031 73.777344"/></clipPath><clipPath id="fd2df757fb"><path clip-rule="nonzero" d="M 307 125 L 322 125 L 322 129 L 307 129 Z M 307 125"/></clipPath><clipPath id="8a05daebfa"><path clip-rule="nonzero" d="M 270.375 112.210938 C 270.375 133.933594 287.984375 151.546875 309.707031 151.546875 C 331.433594 151.546875 349.042969 133.933594 349.042969 112.210938 C 349.042969 90.488281 331.433594 72.878906 309.707031 72.878906 C 287.984375 72.878906 270.375 90.488281 270.375 112.210938 Z M 270.375 112.210938"/></clipPath><clipPath id="80809ac946"><path clip-rule="nonzero" d="M 309.707031 73.777344 C 330.933594 73.777344 348.140625 90.984375 348.140625 112.210938 C 348.140625 133.4375 330.933594 150.644531 309.707031 150.644531 C 288.480469 150.644531 271.273438 133.4375 271.273438 112.210938 C 271.273438 90.984375 288.480469 73.777344 309.707031 73.777344 Z M 309.707031 73.777344"/></clipPath><clipPath id="5d97b800b1"><path clip-rule="nonzero" d="M 298 105 L 322 105 L 322 109 L 298 109 Z M 298 105"/></clipPath><clipPath id="411690d58a"><path clip-rule="nonzero" d="M 270.375 112.210938 C 270.375 133.933594 287.984375 151.546875 309.707031 151.546875 C 331.433594 151.546875 349.042969 133.933594 349.042969 112.210938 C 349.042969 90.488281 331.433594 72.878906 309.707031 72.878906 C 287.984375 72.878906 270.375 90.488281 270.375 112.210938 Z M 270.375 112.210938"/></clipPath><clipPath id="2542d0e58e"><path clip-rule="nonzero" d="M 309.707031 73.777344 C 330.933594 73.777344 348.140625 90.984375 348.140625 112.210938 C 348.140625 133.4375 330.933594 150.644531 309.707031 150.644531 C 288.480469 150.644531 271.273438 133.4375 271.273438 112.210938 C 271.273438 90.984375 288.480469 73.777344 309.707031 73.777344 Z M 309.707031 73.777344"/></clipPath><clipPath id="1d33bfa340"><path clip-rule="nonzero" d="M 298 113 L 306 113 L 306 119 L 298 119 Z M 298 113"/></clipPath><clipPath id="ba81df9f16"><path clip-rule="nonzero" d="M 270.375 112.210938 C 270.375 133.933594 287.984375 151.546875 309.707031 151.546875 C 331.433594 151.546875 349.042969 133.933594 349.042969 112.210938 C 349.042969 90.488281 331.433594 72.878906 309.707031 72.878906 C 287.984375 72.878906 270.375 90.488281 270.375 112.210938 Z M 270.375 112.210938"/></clipPath><clipPath id="f7c3f6efa5"><path clip-rule="nonzero" d="M 309.707031 73.777344 C 330.933594 73.777344 348.140625 90.984375 348.140625 112.210938 C 348.140625 133.4375 330.933594 150.644531 309.707031 150.644531 C 288.480469 150.644531 271.273438 133.4375 271.273438 112.210938 C 271.273438 90.984375 288.480469 73.777344 309.707031 73.777344 Z M 309.707031 73.777344"/></clipPath><clipPath id="7eda875889"><path clip-rule="nonzero" d="M 298 122 L 306 122 L 306 129 L 298 129 Z M 298 122"/></clipPath><clipPath id="b8d6323cd8"><path clip-rule="nonzero" d="M 270.375 112.210938 C 270.375 133.933594 287.984375 151.546875 309.707031 151.546875 C 331.433594 151.546875 349.042969 133.933594 349.042969 112.210938 C 349.042969 90.488281 331.433594 72.878906 309.707031 72.878906 C 287.984375 72.878906 270.375 90.488281 270.375 112.210938 Z M 270.375 112.210938"/></clipPath><clipPath id="ffc2918b89"><path clip-rule="nonzero" d="M 309.707031 73.777344 C 330.933594 73.777344 348.140625 90.984375 348.140625 112.210938 C 348.140625 133.4375 330.933594 150.644531 309.707031 150.644531 C 288.480469 150.644531 271.273438 133.4375 271.273438 112.210938 C 271.273438 90.984375 288.480469 73.777344 309.707031 73.777344 Z M 309.707031 73.777344"/></clipPath><clipPath id="6a797c285d"><path clip-rule="nonzero" d="M 299 89 L 319 89 L 319 102 L 299 102 Z M 299 89"/></clipPath><clipPath id="356c90f475"><path clip-rule="nonzero" d="M 270.375 112.210938 C 270.375 133.933594 287.984375 151.546875 309.707031 151.546875 C 331.433594 151.546875 349.042969 133.933594 349.042969 112.210938 C 349.042969 90.488281 331.433594 72.878906 309.707031 72.878906 C 287.984375 72.878906 270.375 90.488281 270.375 112.210938 Z M 270.375 112.210938"/></clipPath><clipPath id="4fd71283b3"><path clip-rule="nonzero" d="M 309.707031 73.777344 C 330.933594 73.777344 348.140625 90.984375 348.140625 112.210938 C 348.140625 133.4375 330.933594 150.644531 309.707031 150.644531 C 288.480469 150.644531 271.273438 133.4375 271.273438 112.210938 C 271.273438 90.984375 288.480469 73.777344 309.707031 73.777344 Z M 309.707031 73.777344"/></clipPath><clipPath id="a139809df3"><path clip-rule="nonzero" d="M 292 94 L 327 94 L 327 136 L 292 136 Z M 292 94"/></clipPath><clipPath id="2890a2a2b6"><path clip-rule="nonzero" d="M 270.375 112.210938 C 270.375 133.933594 287.984375 151.546875 309.707031 151.546875 C 331.433594 151.546875 349.042969 133.933594 349.042969 112.210938 C 349.042969 90.488281 331.433594 72.878906 309.707031 72.878906 C 287.984375 72.878906 270.375 90.488281 270.375 112.210938 Z M 270.375 112.210938"/></clipPath><clipPath id="187c205ed2"><path clip-rule="nonzero" d="M 309.707031 73.777344 C 330.933594 73.777344 348.140625 90.984375 348.140625 112.210938 C 348.140625 133.4375 330.933594 150.644531 309.707031 150.644531 C 288.480469 150.644531 271.273438 133.4375 271.273438 112.210938 C 271.273438 90.984375 288.480469 73.777344 309.707031 73.777344 Z M 309.707031 73.777344"/></clipPath><clipPath id="536a741398"><path clip-rule="nonzero" d="M 271.125 73.628906 L 348.375 73.628906 L 348.375 150.878906 L 271.125 150.878906 Z M 271.125 73.628906"/></clipPath><clipPath id="078030c2cf"><path clip-rule="nonzero" d="M 270.375 112.210938 C 270.375 133.933594 287.984375 151.546875 309.707031 151.546875 C 331.433594 151.546875 349.042969 133.933594 349.042969 112.210938 C 349.042969 90.488281 331.433594 72.878906 309.707031 72.878906 C 287.984375 72.878906 270.375 90.488281 270.375 112.210938 Z M 270.375 112.210938"/></clipPath><clipPath id="6716e7f5bb"><path clip-rule="nonzero" d="M 309.707031 73.777344 C 330.933594 73.777344 348.140625 90.984375 348.140625 112.210938 C 348.140625 133.4375 330.933594 150.644531 309.707031 150.644531 C 288.480469 150.644531 271.273438 133.4375 271.273438 112.210938 C 271.273438 90.984375 288.480469 73.777344 309.707031 73.777344 Z M 309.707031 73.777344"/></clipPath><clipPath id="f86e36778e"><path clip-rule="nonzero" d="M 270.375 72.878906 L 349.113281 72.878906 L 349.113281 151.617188 L 270.375 151.617188 Z M 270.375 72.878906"/></clipPath><clipPath id="e66c3e95ba"><path clip-rule="nonzero" d="M 270.375 112.210938 C 270.375 133.933594 287.984375 151.546875 309.707031 151.546875 C 331.433594 151.546875 349.042969 133.933594 349.042969 112.210938 C 349.042969 90.488281 331.433594 72.878906 309.707031 72.878906 C 287.984375 72.878906 270.375 90.488281 270.375 112.210938 Z M 270.375 112.210938"/></clipPath><clipPath id="7958520da5"><path clip-rule="nonzero" d="M 270.375 112.207031 C 270.375 133.925781 287.984375 151.535156 309.703125 151.535156 C 331.421875 151.535156 349.03125 133.925781 349.03125 112.207031 C 349.03125 90.484375 331.421875 72.878906 309.703125 72.878906 C 287.984375 72.878906 270.375 90.484375 270.375 112.207031 Z M 270.375 112.207031"/></clipPath></defs><g clip-path="url(#a38e95011c)"><g clip-path="url(#0705040f04)"><g clip-path="url(#957831b882)"><path fill-rule="nonzero" fill-opacity="1" d="M 319.910156 114.945312 L 308.871094 114.945312 C 308.125 114.945312 307.523438 114.34375 307.523438 113.601562 C 307.523438 112.855469 308.125 112.253906 308.871094 112.253906 L 319.910156 112.253906 C 320.652344 112.253906 321.253906 112.855469 321.253906 113.601562 C 321.253906 114.34375 320.652344 114.945312 319.910156 114.945312 Z M 319.910156 114.945312" fill="#000000"/></g></g></g><g clip-path="url(#2883c80fae)"><g clip-path="url(#844335b228)"><g clip-path="url(#8e34482fdd)"><path fill-rule="nonzero" fill-opacity="1" d="M 319.910156 121.648438 L 308.871094 121.648438 C 308.125 121.648438 307.523438 121.046875 307.523438 120.300781 C 307.523438 119.554688 308.125 118.953125 308.871094 118.953125 L 319.910156 118.953125 C 320.652344 118.953125 321.253906 119.554688 321.253906 120.300781 C 321.253906 121.046875 320.652344 121.648438 319.910156 121.648438 Z M 319.910156 121.648438" fill="#000000"/></g></g></g><g clip-path="url(#fd2df757fb)"><g clip-path="url(#8a05daebfa)"><g clip-path="url(#80809ac946)"><path fill-rule="nonzero" fill-opacity="1" d="M 319.910156 128.363281 L 308.871094 128.363281 C 308.125 128.363281 307.523438 127.761719 307.523438 127.015625 C 307.523438 126.269531 308.125 125.671875 308.871094 125.671875 L 319.910156 125.671875 C 320.652344 125.671875 321.253906 126.269531 321.253906 127.015625 C 321.253906 127.761719 320.652344 128.363281 319.910156 128.363281 Z M 319.910156 128.363281" fill="#000000"/></g></g></g><g clip-path="url(#5d97b800b1)"><g clip-path="url(#411690d58a)"><g clip-path="url(#2542d0e58e)"><path fill-rule="nonzero" fill-opacity="1" d="M 319.910156 108.230469 L 299.777344 108.230469 C 299.035156 108.230469 298.433594 107.628906 298.433594 106.882812 C 298.433594 106.140625 299.035156 105.539062 299.777344 105.539062 L 319.910156 105.539062 C 320.652344 105.539062 321.253906 106.140625 321.253906 106.882812 C 321.253906 107.628906 320.652344 108.230469 319.910156 108.230469 Z M 319.910156 108.230469" fill="#000000"/></g></g></g><g clip-path="url(#1d33bfa340)"><g clip-path="url(#ba81df9f16)"><g clip-path="url(#f7c3f6efa5)"><path fill-rule="nonzero" fill-opacity="1" d="M 300.78125 118.96875 C 300.710938 118.96875 300.652344 118.96875 300.582031 118.953125 C 300.152344 118.882812 299.792969 118.625 299.59375 118.238281 L 298.605469 116.304688 C 298.261719 115.648438 298.519531 114.832031 299.191406 114.5 C 299.851562 114.160156 300.667969 114.414062 300.996094 115.089844 L 301.136719 115.375 L 302.871094 113.628906 C 303.386719 113.097656 304.246094 113.097656 304.773438 113.613281 C 305.304688 114.128906 305.304688 114.988281 304.789062 115.519531 L 301.753906 118.582031 C 301.480469 118.824219 301.125 118.96875 300.78125 118.96875 Z M 300.78125 118.96875" fill="#000000"/></g></g></g><g clip-path="url(#7eda875889)"><g clip-path="url(#b8d6323cd8)"><g clip-path="url(#ffc2918b89)"><path fill-rule="nonzero" fill-opacity="1" d="M 300.78125 128.148438 C 300.722656 128.148438 300.667969 128.148438 300.609375 128.132812 C 300.25 128.089844 299.921875 127.890625 299.691406 127.601562 L 298.703125 126.257812 C 298.261719 125.65625 298.390625 124.824219 298.992188 124.382812 C 299.59375 123.9375 300.421875 124.066406 300.867188 124.667969 L 301.023438 124.882812 L 302.972656 123.292969 C 303.542969 122.820312 304.390625 122.90625 304.859375 123.480469 C 305.332031 124.050781 305.246094 124.898438 304.675781 125.371094 L 301.640625 127.847656 C 301.382812 128.046875 301.082031 128.148438 300.78125 128.148438 Z M 300.78125 128.148438" fill="#000000"/></g></g></g><g clip-path="url(#6a797c285d)"><g clip-path="url(#356c90f475)"><g clip-path="url(#4fd71283b3)"><path fill-rule="nonzero" fill-opacity="1" d="M 317.230469 101.515625 L 301.125 101.515625 C 300.378906 101.515625 299.777344 100.914062 299.777344 100.167969 L 299.777344 93.453125 C 299.777344 92.710938 300.378906 92.109375 301.125 92.109375 L 305.5625 92.109375 C 306.25 90.433594 307.652344 89.417969 309.398438 89.417969 C 311.148438 89.417969 312.535156 90.417969 313.238281 92.109375 L 317.230469 92.109375 C 317.976562 92.109375 318.578125 92.710938 318.578125 93.453125 L 318.578125 100.167969 C 318.578125 100.914062 317.976562 101.515625 317.230469 101.515625 Z M 302.46875 98.835938 L 315.902344 98.835938 L 315.902344 94.8125 L 312.25 94.8125 C 311.621094 94.8125 311.0625 94.371094 310.933594 93.742188 C 310.773438 93.011719 310.386719 92.121094 309.398438 92.121094 C 308.414062 92.121094 308.027344 92.996094 307.867188 93.742188 C 307.738281 94.371094 307.195312 94.8125 306.550781 94.8125 L 302.46875 94.8125 Z M 302.46875 98.835938" fill="#000000"/></g></g></g><g clip-path="url(#a139809df3)"><g clip-path="url(#2890a2a2b6)"><g clip-path="url(#187c205ed2)"><path fill-rule="nonzero" fill-opacity="1" d="M 325.148438 135.078125 L 294.28125 135.078125 C 293.535156 135.078125 292.933594 134.476562 292.933594 133.730469 L 292.933594 96.144531 C 292.933594 95.402344 293.535156 94.800781 294.28125 94.800781 L 300.996094 94.800781 C 301.738281 94.800781 302.339844 95.402344 302.339844 96.144531 C 302.339844 96.890625 301.738281 97.492188 300.996094 97.492188 L 295.625 97.492188 L 295.625 132.398438 L 323.820312 132.398438 L 323.820312 97.492188 L 317.101562 97.492188 C 316.359375 97.492188 315.757812 96.890625 315.757812 96.144531 C 315.757812 95.402344 316.359375 94.800781 317.101562 94.800781 L 325.164062 94.800781 C 325.910156 94.800781 326.511719 95.402344 326.511719 96.144531 L 326.511719 133.730469 C 326.496094 134.476562 325.894531 135.078125 325.148438 135.078125 Z M 325.148438 135.078125" fill="#000000"/></g></g></g><g clip-path="url(#536a741398)"><g clip-path="url(#078030c2cf)"><g clip-path="url(#6716e7f5bb)"><path fill-rule="nonzero" fill-opacity="1" d="M 309.757812 151.628906 C 304.445312 151.628906 299.292969 150.582031 294.4375 148.535156 C 289.742188 146.546875 285.53125 143.710938 281.921875 140.101562 C 278.300781 136.480469 275.464844 132.269531 273.488281 127.589844 C 271.429688 122.71875 270.382812 117.566406 270.382812 112.253906 C 270.382812 106.941406 271.429688 101.789062 273.476562 96.933594 C 275.464844 92.238281 278.300781 88.027344 281.910156 84.417969 C 285.515625 80.8125 289.742188 77.960938 294.421875 75.984375 C 299.292969 73.925781 304.445312 72.878906 309.757812 72.878906 C 315.070312 72.878906 320.226562 73.925781 325.078125 75.972656 C 329.773438 77.960938 333.984375 80.796875 337.59375 84.40625 C 341.199219 88.027344 344.050781 92.238281 346.027344 96.917969 C 348.074219 101.773438 349.117188 106.925781 349.117188 112.238281 C 349.117188 117.550781 348.074219 122.707031 346.027344 127.558594 C 344.035156 132.257812 341.199219 136.464844 337.59375 140.074219 C 333.96875 143.683594 329.761719 146.53125 325.078125 148.507812 C 320.226562 150.582031 315.070312 151.628906 309.757812 151.628906 Z M 309.757812 75.570312 C 289.527344 75.570312 273.0625 92.035156 273.0625 112.269531 C 273.0625 132.5 289.527344 148.964844 309.757812 148.964844 C 329.988281 148.964844 346.457031 132.515625 346.457031 112.269531 C 346.457031 92.023438 329.988281 75.570312 309.757812 75.570312 Z M 309.757812 75.570312" fill="#000000"/></g></g></g><g clip-path="url(#f86e36778e)"><g clip-path="url(#e66c3e95ba)"><g clip-path="url(#7958520da5)"><path stroke-miterlimit="4" stroke-opacity="1" stroke-width="22" stroke="#5ce1e6" d="M -0.0000617792 52.438724 C -0.0000617792 81.397061 23.479107 104.87623 52.437444 104.87623 C 81.39578 104.87623 104.874949 81.397061 104.874949 52.438724 C 104.874949 23.47518 81.39578 0.00121878 52.437444 0.00121878 C 23.479107 0.00121878 -0.0000617792 23.47518 -0.0000617792 52.438724 Z M -0.0000617792 52.438724" stroke-linejoin="miter" fill="none" transform="matrix(0.75, 0, 0, 0.75, 270.375046, 72.877992)" stroke-linecap="butt"/></g></g></g></svg>