<svg version="1.0" preserveAspectRatio="xMidYMid meet" viewBox="336.9067466266867 176.94719999999998 86.3568215892054 86.39999999999999" zoomAndPan="magnify" xmlns:xlink="http://www.w3.org/1999/xlink" xmlns="http://www.w3.org/2000/svg" style="max-height: 500px" width="86.3568215892054" height="86.39999999999999"><defs><clipPath id="7a4b926980"><path clip-rule="nonzero" d="M 355 194 L 382 194 L 382 245 L 355 245 Z M 355 194"/></clipPath><clipPath id="396749c55e"><path clip-rule="nonzero" d="M 339.464844 219.664062 C 339.464844 241.683594 357.3125 259.53125 379.328125 259.53125 C 401.347656 259.53125 419.195312 241.683594 419.195312 219.664062 C 419.195312 197.648438 401.347656 179.800781 379.328125 179.800781 C 357.3125 179.800781 339.464844 197.648438 339.464844 219.664062 Z M 339.464844 219.664062"/></clipPath><clipPath id="2b4b187a8e"><path clip-rule="nonzero" d="M 379.328125 180.699219 C 400.847656 180.699219 418.296875 198.144531 418.296875 219.664062 C 418.296875 241.183594 400.847656 258.628906 379.328125 258.628906 C 357.808594 258.628906 340.363281 241.183594 340.363281 219.664062 C 340.363281 198.144531 357.808594 180.699219 379.328125 180.699219 Z M 379.328125 180.699219"/></clipPath><clipPath id="103bd0ba32"><path clip-rule="nonzero" d="M 369 208 L 382 208 L 382 231 L 369 231 Z M 369 208"/></clipPath><clipPath id="09ea3fd06a"><path clip-rule="nonzero" d="M 339.464844 219.664062 C 339.464844 241.683594 357.3125 259.53125 379.328125 259.53125 C 401.347656 259.53125 419.195312 241.683594 419.195312 219.664062 C 419.195312 197.648438 401.347656 179.800781 379.328125 179.800781 C 357.3125 179.800781 339.464844 197.648438 339.464844 219.664062 Z M 339.464844 219.664062"/></clipPath><clipPath id="fe44412df4"><path clip-rule="nonzero" d="M 379.328125 180.699219 C 400.847656 180.699219 418.296875 198.144531 418.296875 219.664062 C 418.296875 241.183594 400.847656 258.628906 379.328125 258.628906 C 357.808594 258.628906 340.363281 241.183594 340.363281 219.664062 C 340.363281 198.144531 357.808594 180.699219 379.328125 180.699219 Z M 379.328125 180.699219"/></clipPath><clipPath id="d53661b24d"><path clip-rule="nonzero" d="M 380 202 L 391 202 L 391 211 L 380 211 Z M 380 202"/></clipPath><clipPath id="c65c745b7b"><path clip-rule="nonzero" d="M 339.464844 219.664062 C 339.464844 241.683594 357.3125 259.53125 379.328125 259.53125 C 401.347656 259.53125 419.195312 241.683594 419.195312 219.664062 C 419.195312 197.648438 401.347656 179.800781 379.328125 179.800781 C 357.3125 179.800781 339.464844 197.648438 339.464844 219.664062 Z M 339.464844 219.664062"/></clipPath><clipPath id="647fd30c2d"><path clip-rule="nonzero" d="M 379.328125 180.699219 C 400.847656 180.699219 418.296875 198.144531 418.296875 219.664062 C 418.296875 241.183594 400.847656 258.628906 379.328125 258.628906 C 357.808594 258.628906 340.363281 241.183594 340.363281 219.664062 C 340.363281 198.144531 357.808594 180.699219 379.328125 180.699219 Z M 379.328125 180.699219"/></clipPath><clipPath id="8e1b634ff8"><path clip-rule="nonzero" d="M 389 200 L 396 200 L 396 206 L 389 206 Z M 389 200"/></clipPath><clipPath id="b4c87c7bd8"><path clip-rule="nonzero" d="M 339.464844 219.664062 C 339.464844 241.683594 357.3125 259.53125 379.328125 259.53125 C 401.347656 259.53125 419.195312 241.683594 419.195312 219.664062 C 419.195312 197.648438 401.347656 179.800781 379.328125 179.800781 C 357.3125 179.800781 339.464844 197.648438 339.464844 219.664062 Z M 339.464844 219.664062"/></clipPath><clipPath id="d45e747a2f"><path clip-rule="nonzero" d="M 379.328125 180.699219 C 400.847656 180.699219 418.296875 198.144531 418.296875 219.664062 C 418.296875 241.183594 400.847656 258.628906 379.328125 258.628906 C 357.808594 258.628906 340.363281 241.183594 340.363281 219.664062 C 340.363281 198.144531 357.808594 180.699219 379.328125 180.699219 Z M 379.328125 180.699219"/></clipPath><clipPath id="2b3deaee7a"><path clip-rule="nonzero" d="M 380 209 L 395 209 L 395 216 L 380 216 Z M 380 209"/></clipPath><clipPath id="dfb99e3e10"><path clip-rule="nonzero" d="M 339.464844 219.664062 C 339.464844 241.683594 357.3125 259.53125 379.328125 259.53125 C 401.347656 259.53125 419.195312 241.683594 419.195312 219.664062 C 419.195312 197.648438 401.347656 179.800781 379.328125 179.800781 C 357.3125 179.800781 339.464844 197.648438 339.464844 219.664062 Z M 339.464844 219.664062"/></clipPath><clipPath id="ea30240e36"><path clip-rule="nonzero" d="M 379.328125 180.699219 C 400.847656 180.699219 418.296875 198.144531 418.296875 219.664062 C 418.296875 241.183594 400.847656 258.628906 379.328125 258.628906 C 357.808594 258.628906 340.363281 241.183594 340.363281 219.664062 C 340.363281 198.144531 357.808594 180.699219 379.328125 180.699219 Z M 379.328125 180.699219"/></clipPath><clipPath id="70a491aada"><path clip-rule="nonzero" d="M 393 207 L 400 207 L 400 214 L 393 214 Z M 393 207"/></clipPath><clipPath id="2c10a84ed1"><path clip-rule="nonzero" d="M 339.464844 219.664062 C 339.464844 241.683594 357.3125 259.53125 379.328125 259.53125 C 401.347656 259.53125 419.195312 241.683594 419.195312 219.664062 C 419.195312 197.648438 401.347656 179.800781 379.328125 179.800781 C 357.3125 179.800781 339.464844 197.648438 339.464844 219.664062 Z M 339.464844 219.664062"/></clipPath><clipPath id="9364a0fdca"><path clip-rule="nonzero" d="M 379.328125 180.699219 C 400.847656 180.699219 418.296875 198.144531 418.296875 219.664062 C 418.296875 241.183594 400.847656 258.628906 379.328125 258.628906 C 357.808594 258.628906 340.363281 241.183594 340.363281 219.664062 C 340.363281 198.144531 357.808594 180.699219 379.328125 180.699219 Z M 379.328125 180.699219"/></clipPath><clipPath id="220a650e8e"><path clip-rule="nonzero" d="M 380 228 L 391 228 L 391 237 L 380 237 Z M 380 228"/></clipPath><clipPath id="de1f0ff233"><path clip-rule="nonzero" d="M 339.464844 219.664062 C 339.464844 241.683594 357.3125 259.53125 379.328125 259.53125 C 401.347656 259.53125 419.195312 241.683594 419.195312 219.664062 C 419.195312 197.648438 401.347656 179.800781 379.328125 179.800781 C 357.3125 179.800781 339.464844 197.648438 339.464844 219.664062 Z M 339.464844 219.664062"/></clipPath><clipPath id="721f1e8ce4"><path clip-rule="nonzero" d="M 379.328125 180.699219 C 400.847656 180.699219 418.296875 198.144531 418.296875 219.664062 C 418.296875 241.183594 400.847656 258.628906 379.328125 258.628906 C 357.808594 258.628906 340.363281 241.183594 340.363281 219.664062 C 340.363281 198.144531 357.808594 180.699219 379.328125 180.699219 Z M 379.328125 180.699219"/></clipPath><clipPath id="5e3edadc70"><path clip-rule="nonzero" d="M 389 233 L 396 233 L 396 240 L 389 240 Z M 389 233"/></clipPath><clipPath id="710cdae15b"><path clip-rule="nonzero" d="M 339.464844 219.664062 C 339.464844 241.683594 357.3125 259.53125 379.328125 259.53125 C 401.347656 259.53125 419.195312 241.683594 419.195312 219.664062 C 419.195312 197.648438 401.347656 179.800781 379.328125 179.800781 C 357.3125 179.800781 339.464844 197.648438 339.464844 219.664062 Z M 339.464844 219.664062"/></clipPath><clipPath id="42f1b345df"><path clip-rule="nonzero" d="M 379.328125 180.699219 C 400.847656 180.699219 418.296875 198.144531 418.296875 219.664062 C 418.296875 241.183594 400.847656 258.628906 379.328125 258.628906 C 357.808594 258.628906 340.363281 241.183594 340.363281 219.664062 C 340.363281 198.144531 357.808594 180.699219 379.328125 180.699219 Z M 379.328125 180.699219"/></clipPath><clipPath id="e4aa451edc"><path clip-rule="nonzero" d="M 380 223 L 395 223 L 395 230 L 380 230 Z M 380 223"/></clipPath><clipPath id="664ef90626"><path clip-rule="nonzero" d="M 339.464844 219.664062 C 339.464844 241.683594 357.3125 259.53125 379.328125 259.53125 C 401.347656 259.53125 419.195312 241.683594 419.195312 219.664062 C 419.195312 197.648438 401.347656 179.800781 379.328125 179.800781 C 357.3125 179.800781 339.464844 197.648438 339.464844 219.664062 Z M 339.464844 219.664062"/></clipPath><clipPath id="4c7eadddac"><path clip-rule="nonzero" d="M 379.328125 180.699219 C 400.847656 180.699219 418.296875 198.144531 418.296875 219.664062 C 418.296875 241.183594 400.847656 258.628906 379.328125 258.628906 C 357.808594 258.628906 340.363281 241.183594 340.363281 219.664062 C 340.363281 198.144531 357.808594 180.699219 379.328125 180.699219 Z M 379.328125 180.699219"/></clipPath><clipPath id="4ce2e38e3c"><path clip-rule="nonzero" d="M 393 226 L 400 226 L 400 232 L 393 232 Z M 393 226"/></clipPath><clipPath id="e7f67e3193"><path clip-rule="nonzero" d="M 339.464844 219.664062 C 339.464844 241.683594 357.3125 259.53125 379.328125 259.53125 C 401.347656 259.53125 419.195312 241.683594 419.195312 219.664062 C 419.195312 197.648438 401.347656 179.800781 379.328125 179.800781 C 357.3125 179.800781 339.464844 197.648438 339.464844 219.664062 Z M 339.464844 219.664062"/></clipPath><clipPath id="bc6ca5bd23"><path clip-rule="nonzero" d="M 379.328125 180.699219 C 400.847656 180.699219 418.296875 198.144531 418.296875 219.664062 C 418.296875 241.183594 400.847656 258.628906 379.328125 258.628906 C 357.808594 258.628906 340.363281 241.183594 340.363281 219.664062 C 340.363281 198.144531 357.808594 180.699219 379.328125 180.699219 Z M 379.328125 180.699219"/></clipPath><clipPath id="e4c7599420"><path clip-rule="nonzero" d="M 396 216 L 403 216 L 403 223 L 396 223 Z M 396 216"/></clipPath><clipPath id="10fb0cce09"><path clip-rule="nonzero" d="M 339.464844 219.664062 C 339.464844 241.683594 357.3125 259.53125 379.328125 259.53125 C 401.347656 259.53125 419.195312 241.683594 419.195312 219.664062 C 419.195312 197.648438 401.347656 179.800781 379.328125 179.800781 C 357.3125 179.800781 339.464844 197.648438 339.464844 219.664062 Z M 339.464844 219.664062"/></clipPath><clipPath id="40b683133d"><path clip-rule="nonzero" d="M 379.328125 180.699219 C 400.847656 180.699219 418.296875 198.144531 418.296875 219.664062 C 418.296875 241.183594 400.847656 258.628906 379.328125 258.628906 C 357.808594 258.628906 340.363281 241.183594 340.363281 219.664062 C 340.363281 198.144531 357.808594 180.699219 379.328125 180.699219 Z M 379.328125 180.699219"/></clipPath><clipPath id="76eb316254"><path clip-rule="nonzero" d="M 380 218 L 399 218 L 399 221 L 380 221 Z M 380 218"/></clipPath><clipPath id="1a579e6ce0"><path clip-rule="nonzero" d="M 339.464844 219.664062 C 339.464844 241.683594 357.3125 259.53125 379.328125 259.53125 C 401.347656 259.53125 419.195312 241.683594 419.195312 219.664062 C 419.195312 197.648438 401.347656 179.800781 379.328125 179.800781 C 357.3125 179.800781 339.464844 197.648438 339.464844 219.664062 Z M 339.464844 219.664062"/></clipPath><clipPath id="81805f8e45"><path clip-rule="nonzero" d="M 379.328125 180.699219 C 400.847656 180.699219 418.296875 198.144531 418.296875 219.664062 C 418.296875 241.183594 400.847656 258.628906 379.328125 258.628906 C 357.808594 258.628906 340.363281 241.183594 340.363281 219.664062 C 340.363281 198.144531 357.808594 180.699219 379.328125 180.699219 Z M 379.328125 180.699219"/></clipPath><clipPath id="cf5a50d790"><path clip-rule="nonzero" d="M 340.214844 180.550781 L 418.960938 180.550781 L 418.960938 259 L 340.214844 259 Z M 340.214844 180.550781"/></clipPath><clipPath id="a40e9c6390"><path clip-rule="nonzero" d="M 339.464844 219.664062 C 339.464844 241.683594 357.3125 259.53125 379.328125 259.53125 C 401.347656 259.53125 419.195312 241.683594 419.195312 219.664062 C 419.195312 197.648438 401.347656 179.800781 379.328125 179.800781 C 357.3125 179.800781 339.464844 197.648438 339.464844 219.664062 Z M 339.464844 219.664062"/></clipPath><clipPath id="57b8659543"><path clip-rule="nonzero" d="M 379.328125 180.699219 C 400.847656 180.699219 418.296875 198.144531 418.296875 219.664062 C 418.296875 241.183594 400.847656 258.628906 379.328125 258.628906 C 357.808594 258.628906 340.363281 241.183594 340.363281 219.664062 C 340.363281 198.144531 357.808594 180.699219 379.328125 180.699219 Z M 379.328125 180.699219"/></clipPath><clipPath id="8f676f354a"><path clip-rule="nonzero" d="M 339.464844 179.800781 L 418.964844 179.800781 L 418.964844 259.300781 L 339.464844 259.300781 Z M 339.464844 179.800781"/></clipPath><clipPath id="54c4469b67"><path clip-rule="nonzero" d="M 339.464844 219.664062 C 339.464844 241.683594 357.3125 259.53125 379.328125 259.53125 C 401.347656 259.53125 419.195312 241.683594 419.195312 219.664062 C 419.195312 197.648438 401.347656 179.800781 379.328125 179.800781 C 357.3125 179.800781 339.464844 197.648438 339.464844 219.664062 Z M 339.464844 219.664062"/></clipPath><clipPath id="06a36ae5ae"><path clip-rule="nonzero" d="M 339.464844 219.660156 C 339.464844 241.675781 357.308594 259.523438 379.324219 259.523438 C 401.339844 259.523438 419.1875 241.675781 419.1875 219.660156 C 419.1875 197.644531 401.339844 179.800781 379.324219 179.800781 C 357.308594 179.800781 339.464844 197.644531 339.464844 219.660156 Z M 339.464844 219.660156"/></clipPath></defs><g clip-path="url(#7a4b926980)"><g clip-path="url(#396749c55e)"><g clip-path="url(#2b4b187a8e)"><path fill-rule="evenodd" fill-opacity="1" d="M 370.132812 235.535156 C 370.242188 235.535156 370.347656 235.566406 370.441406 235.625 C 372.292969 236.800781 374.320312 237.640625 376.476562 238.125 C 376.710938 238.175781 376.886719 238.363281 376.921875 238.597656 L 377.632812 243.453125 L 380.074219 243.453125 L 380.074219 235.007812 C 371.808594 234.707031 365.175781 227.886719 365.175781 219.550781 C 365.175781 211.214844 371.808594 204.394531 380.074219 204.09375 L 380.074219 195.640625 L 377.632812 195.640625 L 376.917969 200.492188 C 376.882812 200.726562 376.707031 200.917969 376.476562 200.96875 C 374.316406 201.449219 372.289062 202.292969 370.441406 203.464844 C 370.238281 203.59375 369.980469 203.582031 369.789062 203.441406 L 365.859375 200.515625 L 361.605469 204.765625 L 364.535156 208.699219 C 364.675781 208.886719 364.683594 209.148438 364.558594 209.347656 C 363.382812 211.199219 362.542969 213.226562 362.0625 215.382812 C 362.007812 215.617188 361.820312 215.792969 361.585938 215.828125 L 356.734375 216.539062 L 356.734375 222.550781 L 361.585938 223.265625 C 361.820312 223.300781 362.007812 223.476562 362.0625 223.707031 C 362.542969 225.863281 363.382812 227.894531 364.558594 229.742188 C 364.6875 229.945312 364.675781 230.203125 364.535156 230.394531 L 361.605469 234.324219 L 365.859375 238.578125 L 369.789062 235.648438 C 369.894531 235.574219 370.011719 235.535156 370.132812 235.535156 Z M 377.136719 244.597656 C 376.851562 244.597656 376.613281 244.390625 376.570312 244.105469 L 375.84375 239.152344 C 373.828125 238.660156 371.921875 237.875 370.164062 236.804688 L 366.148438 239.792969 C 365.921875 239.964844 365.605469 239.9375 365.402344 239.738281 L 360.449219 234.785156 C 360.246094 234.582031 360.222656 234.265625 360.394531 234.035156 L 363.382812 230.019531 C 362.3125 228.261719 361.523438 226.359375 361.03125 224.34375 L 356.078125 223.617188 C 355.796875 223.574219 355.585938 223.332031 355.585938 223.046875 L 355.585938 216.042969 C 355.585938 215.757812 355.796875 215.515625 356.078125 215.476562 L 361.03125 214.75 C 361.523438 212.734375 362.3125 210.828125 363.382812 209.070312 L 360.394531 205.054688 C 360.222656 204.828125 360.246094 204.507812 360.449219 204.304688 L 365.402344 199.351562 C 365.605469 199.148438 365.921875 199.128906 366.148438 199.296875 L 370.164062 202.285156 C 371.921875 201.214844 373.828125 200.429688 375.84375 199.9375 L 376.570312 194.980469 C 376.613281 194.699219 376.851562 194.492188 377.136719 194.492188 L 380.644531 194.492188 C 380.964844 194.492188 381.21875 194.746094 381.21875 195.066406 L 381.21875 204.65625 C 381.21875 204.972656 380.964844 205.230469 380.644531 205.230469 C 372.75 205.230469 366.324219 211.65625 366.324219 219.554688 C 366.324219 227.449219 372.746094 233.875 380.644531 233.875 C 380.964844 233.875 381.21875 234.132812 381.21875 234.449219 L 381.21875 244.027344 C 381.21875 244.347656 380.964844 244.601562 380.644531 244.601562 Z M 377.136719 244.597656" fill="#000000"/></g></g></g><g clip-path="url(#103bd0ba32)"><g clip-path="url(#09ea3fd06a)"><g clip-path="url(#fe44412df4)"><path fill-rule="evenodd" fill-opacity="1" d="M 380.074219 209.65625 C 374.871094 209.953125 370.730469 214.277344 370.730469 219.554688 C 370.730469 224.832031 374.871094 229.15625 380.074219 229.453125 Z M 380.644531 230.613281 C 374.546875 230.613281 369.582031 225.652344 369.582031 219.554688 C 369.582031 213.453125 374.542969 208.492188 380.644531 208.492188 C 380.964844 208.492188 381.21875 208.746094 381.21875 209.066406 L 381.21875 230.042969 C 381.21875 230.355469 380.964844 230.613281 380.644531 230.613281 Z M 380.644531 230.613281" fill="#000000"/></g></g></g><g clip-path="url(#d53661b24d)"><g clip-path="url(#c65c745b7b)"><g clip-path="url(#647fd30c2d)"><path fill-rule="evenodd" fill-opacity="1" d="M 384.050781 210.84375 L 380.644531 210.84375 C 380.328125 210.84375 380.070312 210.589844 380.070312 210.273438 C 380.070312 209.953125 380.324219 209.695312 380.644531 209.695312 L 384.050781 209.695312 C 384.292969 209.695312 384.5 209.527344 384.546875 209.289062 L 385.695312 203.683594 C 385.855469 202.917969 386.535156 202.363281 387.316406 202.363281 L 390.277344 202.363281 C 390.597656 202.363281 390.855469 202.617188 390.855469 202.9375 C 390.855469 203.253906 390.597656 203.511719 390.277344 203.511719 L 387.316406 203.511719 C 387.078125 203.511719 386.871094 203.683594 386.820312 203.917969 L 385.671875 209.523438 C 385.515625 210.289062 384.832031 210.84375 384.050781 210.84375 Z M 384.050781 210.84375" fill="#000000"/></g></g></g><g clip-path="url(#8e1b634ff8)"><g clip-path="url(#b4c87c7bd8)"><g clip-path="url(#d45e747a2f)"><path fill-rule="evenodd" fill-opacity="1" d="M 392.625 201.164062 C 391.648438 201.164062 390.855469 201.960938 390.855469 202.9375 C 390.855469 203.914062 391.648438 204.710938 392.625 204.710938 C 393.605469 204.710938 394.398438 203.914062 394.398438 202.9375 C 394.398438 201.960938 393.605469 201.164062 392.625 201.164062 Z M 392.625 205.855469 C 391.015625 205.855469 389.707031 204.546875 389.707031 202.9375 C 389.707031 201.328125 391.015625 200.019531 392.625 200.019531 C 394.234375 200.019531 395.546875 201.328125 395.546875 202.9375 C 395.546875 204.546875 394.234375 205.855469 392.625 205.855469 Z M 392.625 205.855469" fill="#000000"/></g></g></g><g clip-path="url(#2b3deaee7a)"><g clip-path="url(#dfb99e3e10)"><g clip-path="url(#ea30240e36)"><path fill-rule="evenodd" fill-opacity="1" d="M 386.625 215.652344 L 380.644531 215.652344 C 380.324219 215.652344 380.070312 215.394531 380.070312 215.078125 C 380.070312 214.757812 380.324219 214.5 380.644531 214.5 L 386.621094 214.5 C 386.703125 214.5 386.769531 214.453125 386.796875 214.382812 L 388.105469 210.429688 C 388.285156 209.886719 388.792969 209.527344 389.367188 209.527344 L 393.945312 209.527344 C 394.261719 209.527344 394.519531 209.78125 394.519531 210.101562 C 394.519531 210.417969 394.261719 210.675781 393.945312 210.675781 L 389.367188 210.675781 C 389.285156 210.675781 389.21875 210.722656 389.195312 210.796875 L 387.886719 214.746094 C 387.707031 215.289062 387.199219 215.652344 386.625 215.652344 Z M 386.625 215.652344" fill="#000000"/></g></g></g><g clip-path="url(#70a491aada)"><g clip-path="url(#2c10a84ed1)"><g clip-path="url(#9364a0fdca)"><path fill-rule="evenodd" fill-opacity="1" d="M 396.304688 208.316406 C 395.328125 208.316406 394.53125 209.113281 394.53125 210.089844 C 394.53125 211.066406 395.332031 211.859375 396.304688 211.859375 C 397.28125 211.859375 398.078125 211.066406 398.078125 210.089844 C 398.074219 209.113281 397.28125 208.316406 396.304688 208.316406 Z M 396.304688 213.007812 C 394.695312 213.007812 393.386719 211.699219 393.386719 210.089844 C 393.386719 208.480469 394.695312 207.171875 396.304688 207.171875 C 397.914062 207.171875 399.222656 208.480469 399.222656 210.089844 C 399.222656 211.699219 397.914062 213.007812 396.304688 213.007812 Z M 396.304688 213.007812" fill="#000000"/></g></g></g><g clip-path="url(#220a650e8e)"><g clip-path="url(#de1f0ff233)"><g clip-path="url(#721f1e8ce4)"><path fill-rule="evenodd" fill-opacity="1" d="M 390.277344 236.742188 L 387.316406 236.742188 C 386.535156 236.742188 385.855469 236.1875 385.695312 235.417969 L 384.546875 229.816406 C 384.5 229.582031 384.292969 229.410156 384.050781 229.410156 L 380.644531 229.410156 C 380.328125 229.410156 380.070312 229.152344 380.070312 228.835938 C 380.070312 228.515625 380.324219 228.257812 380.644531 228.257812 L 384.050781 228.257812 C 384.832031 228.257812 385.515625 228.816406 385.671875 229.582031 L 386.820312 235.183594 C 386.867188 235.417969 387.074219 235.59375 387.316406 235.59375 L 390.277344 235.59375 C 390.59375 235.59375 390.851562 235.847656 390.851562 236.167969 C 390.855469 236.484375 390.597656 236.742188 390.277344 236.742188 Z M 390.277344 236.742188" fill="#000000"/></g></g></g><g clip-path="url(#5e3edadc70)"><g clip-path="url(#710cdae15b)"><g clip-path="url(#42f1b345df)"><path fill-rule="evenodd" fill-opacity="1" d="M 392.625 234.398438 C 391.648438 234.398438 390.855469 235.191406 390.855469 236.167969 C 390.855469 237.144531 391.648438 237.941406 392.625 237.941406 C 393.605469 237.941406 394.398438 237.144531 394.398438 236.167969 C 394.398438 235.191406 393.605469 234.398438 392.625 234.398438 Z M 392.625 239.089844 C 391.015625 239.089844 389.707031 237.777344 389.707031 236.167969 C 389.707031 234.558594 391.015625 233.25 392.625 233.25 C 394.234375 233.25 395.546875 234.558594 395.546875 236.167969 C 395.546875 237.777344 394.234375 239.089844 392.625 239.089844 Z M 392.625 239.089844" fill="#000000"/></g></g></g><g clip-path="url(#e4aa451edc)"><g clip-path="url(#664ef90626)"><g clip-path="url(#4c7eadddac)"><path fill-rule="evenodd" fill-opacity="1" d="M 393.949219 229.578125 L 389.371094 229.578125 C 388.796875 229.578125 388.289062 229.214844 388.109375 228.675781 L 386.796875 224.722656 C 386.773438 224.648438 386.707031 224.605469 386.625 224.605469 L 380.644531 224.605469 C 380.328125 224.605469 380.070312 224.347656 380.070312 224.03125 C 380.070312 223.710938 380.324219 223.453125 380.644531 223.453125 L 386.625 223.453125 C 387.199219 223.453125 387.707031 223.816406 387.886719 224.355469 L 389.195312 228.3125 C 389.21875 228.382812 389.285156 228.429688 389.367188 228.429688 L 393.945312 228.429688 C 394.261719 228.429688 394.519531 228.683594 394.519531 229.003906 C 394.519531 229.320312 394.261719 229.578125 393.949219 229.578125 Z M 393.949219 229.578125" fill="#000000"/></g></g></g><g clip-path="url(#4ce2e38e3c)"><g clip-path="url(#e7f67e3193)"><g clip-path="url(#bc6ca5bd23)"><path fill-rule="evenodd" fill-opacity="1" d="M 396.304688 227.246094 C 395.328125 227.246094 394.53125 228.039062 394.53125 229.015625 C 394.53125 229.996094 395.332031 230.789062 396.304688 230.789062 C 397.28125 230.789062 398.078125 229.996094 398.078125 229.015625 C 398.074219 228.039062 397.28125 227.246094 396.304688 227.246094 Z M 396.304688 231.9375 C 394.695312 231.9375 393.386719 230.628906 393.386719 229.015625 C 393.386719 227.40625 394.695312 226.097656 396.304688 226.097656 C 397.914062 226.097656 399.222656 227.40625 399.222656 229.015625 C 399.222656 230.625 397.914062 231.9375 396.304688 231.9375 Z M 396.304688 231.9375" fill="#000000"/></g></g></g><g clip-path="url(#e4c7599420)"><g clip-path="url(#10fb0cce09)"><g clip-path="url(#40b683133d)"><path fill-rule="evenodd" fill-opacity="1" d="M 399.914062 217.78125 C 398.9375 217.78125 398.140625 218.574219 398.140625 219.554688 C 398.140625 220.53125 398.9375 221.324219 399.914062 221.324219 C 400.890625 221.324219 401.683594 220.53125 401.683594 219.554688 C 401.6875 218.574219 400.890625 217.78125 399.914062 217.78125 Z M 399.914062 222.472656 C 398.304688 222.472656 396.992188 221.164062 396.992188 219.554688 C 396.992188 217.941406 398.304688 216.632812 399.914062 216.632812 C 401.523438 216.632812 402.832031 217.941406 402.832031 219.554688 C 402.832031 221.160156 401.523438 222.472656 399.914062 222.472656 Z M 399.914062 222.472656" fill="#000000"/></g></g></g><g clip-path="url(#76eb316254)"><g clip-path="url(#1a579e6ce0)"><g clip-path="url(#81805f8e45)"><path fill-rule="evenodd" fill-opacity="1" d="M 397.570312 220.125 L 380.644531 220.125 C 380.328125 220.125 380.070312 219.871094 380.070312 219.550781 C 380.070312 219.234375 380.324219 218.976562 380.644531 218.976562 L 397.566406 218.976562 C 397.882812 218.976562 398.140625 219.230469 398.140625 219.550781 C 398.140625 219.867188 397.882812 220.125 397.570312 220.125 Z M 397.570312 220.125" fill="#000000"/></g></g></g><g clip-path="url(#cf5a50d790)"><g clip-path="url(#a40e9c6390)"><g clip-path="url(#57b8659543)"><path fill-rule="nonzero" fill-opacity="1" d="M 379.210938 179.796875 C 390.183594 179.796875 400.121094 184.25 407.320312 191.4375 C 414.507812 198.625 418.960938 208.566406 418.960938 219.546875 C 418.960938 230.519531 414.507812 240.457031 407.320312 247.65625 C 400.132812 254.84375 390.191406 259.296875 379.210938 259.296875 C 368.238281 259.296875 358.300781 254.84375 351.101562 247.65625 C 343.914062 240.46875 339.460938 230.53125 339.460938 219.546875 C 339.460938 208.574219 343.914062 198.636719 351.101562 191.4375 C 358.292969 184.238281 368.226562 179.796875 379.210938 179.796875 Z M 406.058594 192.6875 C 399.1875 185.816406 389.695312 181.566406 379.210938 181.566406 C 368.714844 181.570312 359.222656 185.816406 352.351562 192.6875 C 345.480469 199.558594 341.230469 209.054688 341.230469 219.535156 C 341.230469 230.019531 345.480469 239.511719 352.351562 246.382812 C 359.222656 253.253906 368.714844 257.503906 379.199219 257.503906 C 389.679688 257.503906 399.175781 253.253906 406.046875 246.382812 C 412.914062 239.511719 417.164062 230.019531 417.164062 219.535156 C 417.179688 209.054688 412.929688 199.558594 406.058594 192.6875 Z M 406.058594 192.6875" fill="#000000"/></g></g></g><g clip-path="url(#8f676f354a)"><g clip-path="url(#54c4469b67)"><g clip-path="url(#06a36ae5ae)"><path stroke-miterlimit="4" stroke-opacity="1" stroke-width="22" stroke="#0cc0df" d="M 0.00227133 53.148299 C 0.00227133 82.502467 23.793939 106.299343 53.148107 106.299343 C 82.502275 106.299343 106.299151 82.502467 106.299151 53.148299 C 106.299151 23.794132 82.502275 0.00246392 53.148107 0.00246392 C 23.793939 0.00246392 0.00227133 23.794132 0.00227133 53.148299 Z M 0.00227133 53.148299" stroke-linejoin="miter" fill="none" transform="matrix(0.75, 0, 0, 0.75, 339.46314, 179.798933)" stroke-linecap="butt"/></g></g></g></svg>