<svg xmlns="http://www.w3.org/2000/svg" xmlns:xlink="http://www.w3.org/1999/xlink" width="1024" zoomAndPan="magnify" viewBox="0 0 768 576" height="768" preserveAspectRatio="xMidYMid meet" version="1.0"><defs><clipPath id="089ac74ce4"><path d="M 357 349 L 402 349 L 402 354 L 357 354 Z M 357 349 " clip-rule="nonzero"/></clipPath><clipPath id="32027148e4"><path d="M 339.464844 341.269531 C 339.464844 363.289062 357.3125 381.136719 379.328125 381.136719 C 401.347656 381.136719 419.195312 363.289062 419.195312 341.269531 C 419.195312 319.253906 401.347656 301.40625 379.328125 301.40625 C 357.3125 301.40625 339.464844 319.253906 339.464844 341.269531 Z M 339.464844 341.269531 " clip-rule="nonzero"/></clipPath><clipPath id="0790c360c5"><path d="M 379.328125 302.304688 C 400.847656 302.304688 418.296875 319.75 418.296875 341.269531 C 418.296875 362.789062 400.847656 380.234375 379.328125 380.234375 C 357.808594 380.234375 340.363281 362.789062 340.363281 341.269531 C 340.363281 319.75 357.808594 302.304688 379.328125 302.304688 Z M 379.328125 302.304688 " clip-rule="nonzero"/></clipPath><clipPath id="cd7722a0a4"><path d="M 360 345 L 398 345 L 398 349 L 360 349 Z M 360 345 " clip-rule="nonzero"/></clipPath><clipPath id="c803623711"><path d="M 339.464844 341.269531 C 339.464844 363.289062 357.3125 381.136719 379.328125 381.136719 C 401.347656 381.136719 419.195312 363.289062 419.195312 341.269531 C 419.195312 319.253906 401.347656 301.40625 379.328125 301.40625 C 357.3125 301.40625 339.464844 319.253906 339.464844 341.269531 Z M 339.464844 341.269531 " clip-rule="nonzero"/></clipPath><clipPath id="02afe14df4"><path d="M 379.328125 302.304688 C 400.847656 302.304688 418.296875 319.75 418.296875 341.269531 C 418.296875 362.789062 400.847656 380.234375 379.328125 380.234375 C 357.808594 380.234375 340.363281 362.789062 340.363281 341.269531 C 340.363281 319.75 357.808594 302.304688 379.328125 302.304688 Z M 379.328125 302.304688 " clip-rule="nonzero"/></clipPath><clipPath id="199458aa38"><path d="M 364 340 L 395 340 L 395 345 L 364 345 Z M 364 340 " clip-rule="nonzero"/></clipPath><clipPath id="d28e48f59d"><path d="M 339.464844 341.269531 C 339.464844 363.289062 357.3125 381.136719 379.328125 381.136719 C 401.347656 381.136719 419.195312 363.289062 419.195312 341.269531 C 419.195312 319.253906 401.347656 301.40625 379.328125 301.40625 C 357.3125 301.40625 339.464844 319.253906 339.464844 341.269531 Z M 339.464844 341.269531 " clip-rule="nonzero"/></clipPath><clipPath id="b6311f3ec4"><path d="M 379.328125 302.304688 C 400.847656 302.304688 418.296875 319.75 418.296875 341.269531 C 418.296875 362.789062 400.847656 380.234375 379.328125 380.234375 C 357.808594 380.234375 340.363281 362.789062 340.363281 341.269531 C 340.363281 319.75 357.808594 302.304688 379.328125 302.304688 Z M 379.328125 302.304688 " clip-rule="nonzero"/></clipPath><clipPath id="7ed43b992a"><path d="M 367 335 L 391 335 L 391 340 L 367 340 Z M 367 335 " clip-rule="nonzero"/></clipPath><clipPath id="a8b59651ae"><path d="M 339.464844 341.269531 C 339.464844 363.289062 357.3125 381.136719 379.328125 381.136719 C 401.347656 381.136719 419.195312 363.289062 419.195312 341.269531 C 419.195312 319.253906 401.347656 301.40625 379.328125 301.40625 C 357.3125 301.40625 339.464844 319.253906 339.464844 341.269531 Z M 339.464844 341.269531 " clip-rule="nonzero"/></clipPath><clipPath id="4ad1f1bc4d"><path d="M 379.328125 302.304688 C 400.847656 302.304688 418.296875 319.75 418.296875 341.269531 C 418.296875 362.789062 400.847656 380.234375 379.328125 380.234375 C 357.808594 380.234375 340.363281 362.789062 340.363281 341.269531 C 340.363281 319.75 357.808594 302.304688 379.328125 302.304688 Z M 379.328125 302.304688 " clip-rule="nonzero"/></clipPath><clipPath id="07986ab634"><path d="M 373 331 L 386 331 L 386 336 L 373 336 Z M 373 331 " clip-rule="nonzero"/></clipPath><clipPath id="c8707306f7"><path d="M 339.464844 341.269531 C 339.464844 363.289062 357.3125 381.136719 379.328125 381.136719 C 401.347656 381.136719 419.195312 363.289062 419.195312 341.269531 C 419.195312 319.253906 401.347656 301.40625 379.328125 301.40625 C 357.3125 301.40625 339.464844 319.253906 339.464844 341.269531 Z M 339.464844 341.269531 " clip-rule="nonzero"/></clipPath><clipPath id="635b82e76a"><path d="M 379.328125 302.304688 C 400.847656 302.304688 418.296875 319.75 418.296875 341.269531 C 418.296875 362.789062 400.847656 380.234375 379.328125 380.234375 C 357.808594 380.234375 340.363281 362.789062 340.363281 341.269531 C 340.363281 319.75 357.808594 302.304688 379.328125 302.304688 Z M 379.328125 302.304688 " clip-rule="nonzero"/></clipPath><clipPath id="4fb1c94a37"><path d="M 375 322 L 384 322 L 384 331 L 375 331 Z M 375 322 " clip-rule="nonzero"/></clipPath><clipPath id="c9ad46f7da"><path d="M 339.464844 341.269531 C 339.464844 363.289062 357.3125 381.136719 379.328125 381.136719 C 401.347656 381.136719 419.195312 363.289062 419.195312 341.269531 C 419.195312 319.253906 401.347656 301.40625 379.328125 301.40625 C 357.3125 301.40625 339.464844 319.253906 339.464844 341.269531 Z M 339.464844 341.269531 " clip-rule="nonzero"/></clipPath><clipPath id="a3f9c440a9"><path d="M 379.328125 302.304688 C 400.847656 302.304688 418.296875 319.75 418.296875 341.269531 C 418.296875 362.789062 400.847656 380.234375 379.328125 380.234375 C 357.808594 380.234375 340.363281 362.789062 340.363281 341.269531 C 340.363281 319.75 357.808594 302.304688 379.328125 302.304688 Z M 379.328125 302.304688 " clip-rule="nonzero"/></clipPath><clipPath id="a7e80a7be0"><path d="M 340.214844 302.15625 L 418.960938 302.15625 L 418.960938 380.902344 L 340.214844 380.902344 Z M 340.214844 302.15625 " clip-rule="nonzero"/></clipPath><clipPath id="3078906308"><path d="M 339.464844 341.269531 C 339.464844 363.289062 357.3125 381.136719 379.328125 381.136719 C 401.347656 381.136719 419.195312 363.289062 419.195312 341.269531 C 419.195312 319.253906 401.347656 301.40625 379.328125 301.40625 C 357.3125 301.40625 339.464844 319.253906 339.464844 341.269531 Z M 339.464844 341.269531 " clip-rule="nonzero"/></clipPath><clipPath id="2dacc64743"><path d="M 379.328125 302.304688 C 400.847656 302.304688 418.296875 319.75 418.296875 341.269531 C 418.296875 362.789062 400.847656 380.234375 379.328125 380.234375 C 357.808594 380.234375 340.363281 362.789062 340.363281 341.269531 C 340.363281 319.75 357.808594 302.304688 379.328125 302.304688 Z M 379.328125 302.304688 " clip-rule="nonzero"/></clipPath><clipPath id="0797525f1a"><path d="M 339.464844 301.40625 L 418.964844 301.40625 L 418.964844 380.90625 L 339.464844 380.90625 Z M 339.464844 301.40625 " clip-rule="nonzero"/></clipPath><clipPath id="ce6387dcde"><path d="M 339.464844 341.269531 C 339.464844 363.289062 357.3125 381.136719 379.328125 381.136719 C 401.347656 381.136719 419.195312 363.289062 419.195312 341.269531 C 419.195312 319.253906 401.347656 301.40625 379.328125 301.40625 C 357.3125 301.40625 339.464844 319.253906 339.464844 341.269531 Z M 339.464844 341.269531 " clip-rule="nonzero"/></clipPath><clipPath id="2ab0ff884a"><path d="M 339.464844 341.265625 C 339.464844 363.28125 357.308594 381.128906 379.324219 381.128906 C 401.339844 381.128906 419.1875 363.28125 419.1875 341.265625 C 419.1875 319.25 401.339844 301.40625 379.324219 301.40625 C 357.308594 301.40625 339.464844 319.25 339.464844 341.265625 Z M 339.464844 341.265625 " clip-rule="nonzero"/></clipPath></defs><rect x="-76.8" width="921.6" fill="#ffffff" y="-57.6" height="691.2" fill-opacity="1"/><rect x="-76.8" width="921.6" fill="#ffffff" y="-57.6" height="691.2" fill-opacity="1"/><g clip-path="url(#089ac74ce4)"><g clip-path="url(#32027148e4)"><g clip-path="url(#0790c360c5)"><path fill="#000000" d="M 401.074219 349.652344 L 401.074219 353.503906 L 357.347656 353.503906 L 357.347656 349.652344 L 401.074219 349.652344 " fill-opacity="1" fill-rule="nonzero"/></g></g></g><g clip-path="url(#cd7722a0a4)"><g clip-path="url(#c803623711)"><g clip-path="url(#02afe14df4)"><path fill="#000000" d="M 397.589844 345.085938 L 397.589844 348.9375 L 360.832031 348.9375 L 360.832031 345.085938 L 397.589844 345.085938 " fill-opacity="1" fill-rule="nonzero"/></g></g></g><g clip-path="url(#199458aa38)"><g clip-path="url(#d28e48f59d)"><g clip-path="url(#b6311f3ec4)"><path fill="#000000" d="M 394.109375 340.519531 L 394.109375 344.371094 L 364.3125 344.371094 L 364.3125 340.519531 L 394.109375 340.519531 " fill-opacity="1" fill-rule="nonzero"/></g></g></g><g clip-path="url(#7ed43b992a)"><g clip-path="url(#a8b59651ae)"><g clip-path="url(#4ad1f1bc4d)"><path fill="#000000" d="M 390.625 335.953125 L 390.625 339.804688 L 367.796875 339.804688 L 367.796875 335.953125 L 390.625 335.953125 " fill-opacity="1" fill-rule="nonzero"/></g></g></g><g clip-path="url(#07986ab634)"><g clip-path="url(#c8707306f7)"><g clip-path="url(#635b82e76a)"><path fill="#000000" d="M 385.402344 331.386719 L 385.402344 335.238281 L 373.019531 335.238281 L 373.019531 331.386719 L 385.402344 331.386719 " fill-opacity="1" fill-rule="nonzero"/></g></g></g><g clip-path="url(#4fb1c94a37)"><g clip-path="url(#c9ad46f7da)"><g clip-path="url(#a3f9c440a9)"><path fill="#000000" d="M 383.289062 325.417969 L 380.980469 327.09375 C 380.855469 327.1875 380.800781 327.347656 380.847656 327.496094 L 381.730469 330.210938 L 379.421875 328.535156 C 379.359375 328.488281 379.285156 328.464844 379.210938 328.464844 C 379.136719 328.464844 379.0625 328.488281 379 328.535156 L 376.691406 330.210938 L 377.574219 327.496094 C 377.621094 327.347656 377.570312 327.1875 377.441406 327.09375 L 375.132812 325.417969 L 377.988281 325.417969 C 378.144531 325.417969 378.28125 325.316406 378.328125 325.171875 L 379.210938 322.457031 L 380.09375 325.171875 C 380.140625 325.316406 380.277344 325.417969 380.433594 325.417969 L 383.289062 325.417969 " fill-opacity="1" fill-rule="nonzero"/></g></g></g><g clip-path="url(#a7e80a7be0)"><g clip-path="url(#3078906308)"><g clip-path="url(#2dacc64743)"><path fill="#000000" d="M 379.210938 301.402344 C 357.257812 301.402344 339.460938 319.199219 339.460938 341.152344 C 339.460938 363.105469 357.257812 380.902344 379.210938 380.902344 C 401.164062 380.902344 418.960938 363.105469 418.960938 341.152344 C 418.960938 319.199219 401.164062 301.402344 379.210938 301.402344 Z M 379.210938 303.3125 C 381.78125 303.3125 384.347656 303.570312 386.839844 304.078125 C 389.269531 304.578125 391.65625 305.316406 393.941406 306.285156 C 396.183594 307.230469 398.34375 308.40625 400.367188 309.773438 C 402.371094 311.125 404.257812 312.679688 405.96875 314.394531 C 407.683594 316.105469 409.238281 317.992188 410.589844 319.996094 C 411.957031 322.019531 413.132812 324.179688 414.078125 326.421875 C 415.046875 328.707031 415.785156 331.09375 416.285156 333.523438 C 416.792969 336.015625 417.050781 338.582031 417.050781 341.152344 C 417.050781 343.722656 416.792969 346.289062 416.285156 348.78125 C 415.785156 351.210938 415.046875 353.597656 414.078125 355.882812 C 413.132812 358.125 411.957031 360.285156 410.589844 362.308594 C 409.238281 364.3125 407.683594 366.199219 405.96875 367.910156 C 404.257812 369.625 402.371094 371.179688 400.367188 372.53125 C 398.34375 373.898438 396.183594 375.074219 393.941406 376.023438 C 391.65625 376.988281 389.269531 377.726562 386.839844 378.226562 C 384.347656 378.734375 381.78125 378.996094 379.210938 378.996094 C 376.640625 378.996094 374.074219 378.734375 371.582031 378.226562 C 369.152344 377.726562 366.765625 376.988281 364.480469 376.023438 C 362.238281 375.074219 360.078125 373.898438 358.054688 372.53125 C 356.050781 371.179688 354.164062 369.625 352.453125 367.910156 C 350.738281 366.199219 349.183594 364.3125 347.832031 362.308594 C 346.464844 360.285156 345.289062 358.125 344.34375 355.882812 C 343.375 353.597656 342.636719 351.210938 342.136719 348.78125 C 341.628906 346.289062 341.367188 343.722656 341.367188 341.152344 C 341.367188 338.582031 341.628906 336.015625 342.136719 333.523438 C 342.636719 331.09375 343.375 328.707031 344.34375 326.421875 C 345.289062 324.179688 346.464844 322.019531 347.832031 319.996094 C 349.183594 317.992188 350.738281 316.105469 352.453125 314.394531 C 354.164062 312.679688 356.050781 311.125 358.054688 309.773438 C 360.078125 308.40625 362.238281 307.230469 364.480469 306.285156 C 366.765625 305.316406 369.152344 304.578125 371.582031 304.078125 C 374.074219 303.570312 376.640625 303.3125 379.210938 303.3125 " fill-opacity="1" fill-rule="nonzero"/></g></g></g><g clip-path="url(#0797525f1a)"><g clip-path="url(#ce6387dcde)"><g clip-path="url(#2ab0ff884a)"><path stroke-linecap="butt" transform="matrix(0.75, 0, 0, 0.75, 339.46314, 301.404499)" fill="none" stroke-linejoin="miter" d="M 0.00227133 53.14817 C 0.00227133 82.502338 23.793939 106.299214 53.148107 106.299214 C 82.502275 106.299214 106.299151 82.502338 106.299151 53.14817 C 106.299151 23.794002 82.502275 0.00233408 53.148107 0.00233408 C 23.793939 0.00233408 0.00227133 23.794002 0.00227133 53.14817 Z M 0.00227133 53.14817 " stroke="#0097b2" stroke-width="22" stroke-opacity="1" stroke-miterlimit="4"/></g></g></g></svg>