<svg xmlns="http://www.w3.org/2000/svg" xmlns:xlink="http://www.w3.org/1999/xlink" width="1024" zoomAndPan="magnify" viewBox="0 0 768 576" height="768" preserveAspectRatio="xMidYMid meet" version="1.0"><defs><clipPath id="dd91c71c9f"><path d="M 281.875 418.804688 L 361 418.804688 L 361 496.054688 L 281.875 496.054688 Z M 281.875 418.804688 " clip-rule="nonzero"/></clipPath><clipPath id="bf012ca231"><path d="M 321.4375 418.804688 C 299.589844 418.804688 281.875 436.105469 281.875 457.453125 C 281.875 478.796875 299.589844 496.101562 321.4375 496.101562 C 343.289062 496.101562 361 478.796875 361 457.453125 C 361 436.105469 343.289062 418.804688 321.4375 418.804688 Z M 321.4375 418.804688 " clip-rule="nonzero"/></clipPath><clipPath id="e219ad7d1c"><path d="M 290.164062 426.179688 L 353 426.179688 L 353 489 L 290.164062 489 Z M 290.164062 426.179688 " clip-rule="nonzero"/></clipPath><clipPath id="2888d41d2a"><path d="M 289.414062 457.457031 C 289.414062 475.144531 303.753906 489.480469 321.441406 489.480469 C 339.128906 489.480469 353.46875 475.144531 353.46875 457.457031 C 353.46875 439.769531 339.128906 425.429688 321.441406 425.429688 C 303.753906 425.429688 289.414062 439.769531 289.414062 457.457031 Z M 289.414062 457.457031 " clip-rule="nonzero"/></clipPath><clipPath id="475b0ab171"><path d="M 321.441406 426.332031 C 338.632812 426.332031 352.566406 440.265625 352.566406 457.457031 C 352.566406 474.648438 338.632812 488.582031 321.441406 488.582031 C 304.25 488.582031 290.316406 474.648438 290.316406 457.457031 C 290.316406 440.265625 304.25 426.332031 321.441406 426.332031 Z M 321.441406 426.332031 " clip-rule="nonzero"/></clipPath><clipPath id="a3581456d5"><path d="M 289.414062 425.429688 L 353.164062 425.429688 L 353.164062 489.179688 L 289.414062 489.179688 Z M 289.414062 425.429688 " clip-rule="nonzero"/></clipPath><clipPath id="734685f387"><path d="M 289.414062 457.457031 C 289.414062 475.144531 303.753906 489.480469 321.441406 489.480469 C 339.128906 489.480469 353.46875 475.144531 353.46875 457.457031 C 353.46875 439.769531 339.128906 425.429688 321.441406 425.429688 C 303.753906 425.429688 289.414062 439.769531 289.414062 457.457031 Z M 289.414062 457.457031 " clip-rule="nonzero"/></clipPath><clipPath id="e6e4fe58cb"><path d="M 289.414062 457.453125 C 289.414062 475.136719 303.753906 489.472656 321.4375 489.472656 C 339.121094 489.472656 353.457031 475.136719 353.457031 457.453125 C 353.457031 439.765625 339.121094 425.429688 321.4375 425.429688 C 303.753906 425.429688 289.414062 439.765625 289.414062 457.453125 Z M 289.414062 457.453125 " clip-rule="nonzero"/></clipPath></defs><rect x="-76.8" width="921.6" fill="#ffffff" y="-57.6" height="691.2" fill-opacity="1"/><rect x="-76.8" width="921.6" fill="#ffffff" y="-57.6" height="691.2" fill-opacity="1"/><g clip-path="url(#dd91c71c9f)"><g clip-path="url(#bf012ca231)"><path stroke-linecap="butt" transform="matrix(0.75, 0, 0, 0.75, 281.876297, 418.803051)" fill="none" stroke-linejoin="miter" d="M 52.748273 0.0021826 C 23.618063 0.0021826 -0.00172941 23.069892 -0.00172941 51.533435 C -0.00172941 79.991769 23.618063 103.064687 52.748273 103.064687 C 81.883691 103.064687 105.498275 79.991769 105.498275 51.533435 C 105.498275 23.069892 81.883691 0.0021826 52.748273 0.0021826 Z M 52.748273 0.0021826 " stroke="#246a7d" stroke-width="22" stroke-opacity="1" stroke-miterlimit="4"/></g></g><g clip-path="url(#e219ad7d1c)"><g clip-path="url(#2888d41d2a)"><g clip-path="url(#475b0ab171)"><path fill="#000000" d="M 321.289062 489.175781 C 303.722656 489.175781 289.414062 474.867188 289.414062 457.300781 C 289.414062 439.734375 303.722656 425.425781 321.289062 425.425781 C 338.851562 425.425781 353.164062 439.734375 353.164062 457.300781 C 353.164062 474.867188 338.851562 489.175781 321.289062 489.175781 Z M 321.289062 426.8125 C 304.484375 426.8125 290.796875 440.496094 290.796875 457.300781 C 290.796875 474.105469 304.484375 487.789062 321.289062 487.789062 C 338.089844 487.789062 351.777344 474.105469 351.777344 457.300781 C 351.777344 440.496094 338.089844 426.8125 321.289062 426.8125 Z M 335.664062 466.484375 L 307.949219 466.484375 C 306.042969 466.484375 304.484375 464.925781 304.484375 463.019531 L 304.484375 443.617188 C 304.484375 441.710938 306.042969 440.152344 307.949219 440.152344 L 317.648438 440.152344 L 317.648438 441.539062 L 307.949219 441.539062 C 306.804688 441.539062 305.871094 442.472656 305.871094 443.617188 L 305.871094 463.019531 C 305.871094 464.160156 306.804688 465.097656 307.949219 465.097656 L 335.664062 465.097656 C 336.808594 465.097656 337.746094 464.160156 337.746094 463.019531 L 337.746094 456.089844 L 339.128906 456.089844 L 339.128906 463.019531 C 339.128906 464.925781 337.570312 466.484375 335.664062 466.484375 Z M 325.6875 458.027344 L 331.058594 454.011719 L 337.050781 454.011719 C 338.957031 454.011719 340.515625 452.449219 340.515625 450.546875 L 340.515625 442.230469 C 340.515625 440.324219 338.957031 438.765625 337.050781 438.765625 L 323.191406 438.765625 C 321.289062 438.765625 319.726562 440.324219 319.726562 442.230469 L 319.726562 450.546875 C 319.726562 452.449219 321.289062 454.011719 323.191406 454.011719 L 324.578125 454.011719 L 324.578125 457.476562 C 324.578125 457.753906 324.71875 457.996094 324.960938 458.097656 C 325.0625 458.132812 325.167969 458.167969 325.273438 458.167969 C 325.410156 458.167969 325.550781 458.132812 325.6875 458.027344 Z M 337.050781 440.152344 C 338.195312 440.152344 339.128906 441.085938 339.128906 442.230469 L 339.128906 450.546875 C 339.128906 451.6875 338.195312 452.625 337.050781 452.625 L 330.816406 452.625 C 330.675781 452.625 330.503906 452.660156 330.398438 452.761719 L 325.964844 456.089844 L 325.964844 453.316406 C 325.964844 452.9375 325.652344 452.625 325.273438 452.625 L 323.191406 452.625 C 322.050781 452.625 321.113281 451.6875 321.113281 450.546875 L 321.113281 442.230469 C 321.113281 441.085938 322.050781 440.152344 323.191406 440.152344 Z M 335.664062 443.617188 L 324.578125 443.617188 L 324.578125 445.003906 L 335.664062 445.003906 Z M 335.664062 447.773438 L 324.578125 447.773438 L 324.578125 449.160156 L 335.664062 449.160156 Z M 340.515625 472.71875 L 340.515625 469.949219 C 340.515625 469.566406 340.203125 469.253906 339.824219 469.253906 L 326.65625 469.253906 C 326.484375 469.253906 326.3125 469.324219 326.171875 469.460938 L 324.996094 470.640625 L 318.621094 470.640625 L 317.441406 469.460938 C 317.304688 469.324219 317.128906 469.253906 316.957031 469.253906 L 303.789062 469.253906 C 303.410156 469.253906 303.097656 469.566406 303.097656 469.949219 L 303.097656 472.71875 C 303.097656 474.625 304.65625 476.183594 306.5625 476.183594 L 337.050781 476.183594 C 338.957031 476.183594 340.515625 474.625 340.515625 472.71875 Z M 316.679688 470.640625 L 317.859375 471.820312 C 317.996094 471.957031 318.167969 472.027344 318.34375 472.027344 L 325.273438 472.027344 C 325.445312 472.027344 325.617188 471.957031 325.757812 471.820312 L 326.933594 470.640625 L 339.128906 470.640625 L 339.128906 472.71875 C 339.128906 473.863281 338.195312 474.796875 337.050781 474.796875 L 306.5625 474.796875 C 305.417969 474.796875 304.484375 473.863281 304.484375 472.71875 L 304.484375 470.640625 Z M 316.679688 470.640625 " fill-opacity="1" fill-rule="nonzero"/></g></g></g><g clip-path="url(#a3581456d5)"><g clip-path="url(#734685f387)"><g clip-path="url(#e6e4fe58cb)"><path stroke-linecap="butt" transform="matrix(0.75, 0, 0, 0.75, 289.415964, 425.430122)" fill="none" stroke-linejoin="miter" d="M -0.00253525 42.697339 C -0.00253525 66.275465 19.117257 85.390049 42.695383 85.390049 C 66.273509 85.390049 85.388093 66.275465 85.388093 42.697339 C 85.388093 19.114004 66.273509 -0.000579698 42.695383 -0.000579698 C 19.117257 -0.000579698 -0.00253525 19.114004 -0.00253525 42.697339 Z M -0.00253525 42.697339 " stroke="#ffffff" stroke-width="18" stroke-opacity="1" stroke-miterlimit="4"/></g></g></g></svg>