<svg xmlns="http://www.w3.org/2000/svg" xmlns:xlink="http://www.w3.org/1999/xlink" width="1024" zoomAndPan="magnify" viewBox="0 0 768 576" height="768" preserveAspectRatio="xMidYMid meet" version="1.0"><defs><g/></defs><rect x="-76.8" width="921.6" fill="#ffffff" y="-57.6" height="691.2" fill-opacity="1"/><rect x="-76.8" width="921.6" fill="#ffffff" y="-57.6" height="691.2" fill-opacity="1"/><g fill="#000000" fill-opacity="1"><g transform="translate(357.714448, 107.321574)"><g><path d="M 3.40625 0 L 3.40625 -18.828125 C 3.101562 -18.460938 2.675781 -18.179688 2.125 -17.984375 C 1.582031 -17.785156 1.050781 -17.6875 0.53125 -17.6875 L 0.53125 -20.3125 C 1.269531 -20.414062 1.976562 -20.71875 2.65625 -21.21875 C 3.332031 -21.726562 3.84375 -22.394531 4.1875 -23.21875 L 6.9375 -23.21875 L 6.9375 0 Z M 3.40625 0 "/></g></g></g><g fill="#000000" fill-opacity="1"><g transform="translate(366.622689, 107.321574)"><g/></g></g><g fill="#000000" fill-opacity="1"><g transform="translate(371.458974, 107.321574)"><g><path d="M 1.171875 -8.71875 L 1.171875 -11.015625 L 7.46875 -11.015625 L 7.46875 -8.71875 Z M 1.171875 -8.71875 "/></g></g></g><g fill="#000000" fill-opacity="1"><g transform="translate(425.147934, 336.380396)"><g><path d="M 11.4375 -6.625 C 11.4375 -4.3125 11.023438 -2.582031 10.203125 -1.4375 C 9.390625 -0.300781 8.078125 0.265625 6.265625 0.265625 C 4.460938 0.265625 3.195312 -0.253906 2.46875 -1.296875 C 1.75 -2.335938 1.390625 -3.988281 1.390625 -6.25 L 1.390625 -7.765625 L 4.6875 -7.765625 L 4.6875 -6.15625 C 4.6875 -4.882812 4.785156 -4 4.984375 -3.5 C 5.179688 -3.007812 5.613281 -2.765625 6.28125 -2.765625 C 6.957031 -2.765625 7.40625 -3.0625 7.625 -3.65625 C 7.851562 -4.25 7.96875 -5.289062 7.96875 -6.78125 C 7.96875 -8.269531 7.820312 -9.332031 7.53125 -9.96875 C 7.238281 -10.601562 6.671875 -10.921875 5.828125 -10.921875 L 4.828125 -10.921875 L 4.828125 -13.609375 L 5.796875 -13.609375 C 6.628906 -13.609375 7.195312 -13.882812 7.5 -14.4375 C 7.8125 -15 7.96875 -15.914062 7.96875 -17.1875 C 7.96875 -18.46875 7.835938 -19.328125 7.578125 -19.765625 C 7.316406 -20.203125 6.90625 -20.421875 6.34375 -20.421875 C 5.78125 -20.421875 5.382812 -20.1875 5.15625 -19.71875 C 4.9375 -19.257812 4.828125 -18.460938 4.828125 -17.328125 L 4.828125 -16.625 L 1.40625 -16.625 L 1.40625 -17.34375 C 1.40625 -19.46875 1.78125 -21.019531 2.53125 -22 C 3.28125 -22.976562 4.53125 -23.46875 6.28125 -23.46875 C 8.03125 -23.46875 9.316406 -22.960938 10.140625 -21.953125 C 10.972656 -20.941406 11.390625 -19.40625 11.390625 -17.34375 C 11.390625 -16.070312 11.191406 -15.003906 10.796875 -14.140625 C 10.398438 -13.273438 9.800781 -12.695312 9 -12.40625 C 9.882812 -11.988281 10.507812 -11.300781 10.875 -10.34375 C 11.25 -9.382812 11.4375 -8.144531 11.4375 -6.625 Z M 11.4375 -6.625 "/></g></g></g><g fill="#000000" fill-opacity="1"><g transform="translate(437.798691, 336.380396)"><g/></g></g><g fill="#000000" fill-opacity="1"><g transform="translate(442.634975, 336.380396)"><g><path d="M 1.171875 -8.71875 L 1.171875 -11.015625 L 7.46875 -11.015625 L 7.46875 -8.71875 Z M 1.171875 -8.71875 "/></g></g></g><g fill="#000000" fill-opacity="1"><g transform="translate(374.055834, 486.929376)"><g><path d="M 6.90625 0.015625 L 6.90625 -4.09375 L 1.1875 -4.09375 L 1.1875 -6.6875 L 6.28125 -23.21875 L 10.0625 -23.21875 L 10.0625 -6.9375 L 11.859375 -6.9375 L 11.859375 -4.09375 L 10.0625 -4.09375 L 10.0625 0.015625 Z M 3.921875 -6.9375 L 6.90625 -6.9375 L 6.90625 -18.390625 Z M 3.921875 -6.9375 "/></g></g></g><g fill="#000000" fill-opacity="1"><g transform="translate(386.587995, 486.929376)"><g/></g></g><g fill="#000000" fill-opacity="1"><g transform="translate(391.42428, 486.929376)"><g><path d="M 1.171875 -8.71875 L 1.171875 -11.015625 L 7.46875 -11.015625 L 7.46875 -8.71875 Z M 1.171875 -8.71875 "/></g></g></g><g fill="#000000" fill-opacity="1"><g transform="translate(400.598802, 486.929376)"><g/></g></g><g fill="#000000" fill-opacity="1"><g transform="translate(422.806278, 218.02948)"><g><path d="M 2.109375 0 L 2.109375 -1.375 C 2.109375 -2.582031 2.304688 -3.769531 2.703125 -4.9375 C 3.109375 -6.113281 3.738281 -7.453125 4.59375 -8.953125 C 4.625 -9.003906 4.941406 -9.550781 5.546875 -10.59375 C 6.148438 -11.644531 6.59375 -12.367188 6.875 -12.765625 C 7.5625 -13.890625 7.90625 -15.445312 7.90625 -17.4375 C 7.90625 -19.425781 7.484375 -20.421875 6.640625 -20.421875 C 5.941406 -20.421875 5.507812 -19.867188 5.34375 -18.765625 C 5.269531 -18.285156 5.234375 -17.691406 5.234375 -16.984375 L 5.234375 -14.046875 L 1.859375 -14.046875 L 1.859375 -15.46875 C 1.859375 -18.34375 2.128906 -20.285156 2.671875 -21.296875 C 3.210938 -22.304688 3.957031 -22.953125 4.90625 -23.234375 C 5.4375 -23.390625 6.070312 -23.46875 6.8125 -23.46875 C 7.5625 -23.46875 8.234375 -23.300781 8.828125 -22.96875 C 9.410156 -22.632812 9.878906 -22.164062 10.234375 -21.5625 C 10.921875 -20.394531 11.265625 -18.875 11.265625 -17 C 11.265625 -15.125 10.898438 -13.476562 10.171875 -12.0625 C 9.441406 -10.644531 8.71875 -9.390625 8 -8.296875 C 6.695312 -6.285156 5.851562 -4.441406 5.46875 -2.765625 L 10.828125 -2.765625 L 10.828125 0 Z M 2.109375 0 "/></g></g></g><g fill="#000000" fill-opacity="1"><g transform="translate(435.33844, 218.02948)"><g/></g></g><g fill="#000000" fill-opacity="1"><g transform="translate(440.174724, 218.02948)"><g><path d="M 1.171875 -8.71875 L 1.171875 -11.015625 L 7.46875 -11.015625 L 7.46875 -8.71875 Z M 1.171875 -8.71875 "/></g></g></g></svg>