<?xml version="1.0"?>
<svg width="751.5" height="475.499981" xmlns="http://www.w3.org/2000/svg" xmlns:svg="http://www.w3.org/2000/svg" preserveAspectRatio="xMidYMid meet" version="1.0">
 <defs>
  <g id="svg_1"/>
  <clipPath id="6d7df815cf">
   <path clip-rule="nonzero" d="m46.3,86.51l40.41,0l0,40.4l-40.41,0l0,-40.4zm0,0" id="svg_2"/>
  </clipPath>
  <clipPath id="9ff3759e6b">
   <path clip-rule="nonzero" d="m66.5,86.51c-11.15,0 -20.2,9.04 -20.2,20.2c0,11.16 9.05,20.2 20.2,20.2c11.16,0 20.21,-9.04 20.21,-20.2c0,-11.16 -9.05,-20.2 -20.21,-20.2zm0,0" id="svg_3"/>
  </clipPath>
  <clipPath id="bab45bd259">
   <path clip-rule="nonzero" d="m46.3,86.51l40.4,0l0,40.4l-40.4,0l0,-40.4zm0,0" id="svg_4"/>
  </clipPath>
  <clipPath id="7c00dd973b">
   <path clip-rule="nonzero" d="m66.5,86.51c-11.15,0 -20.2,9.04 -20.2,20.2c0,11.16 9.05,20.2 20.2,20.2c11.16,0 20.2,-9.04 20.2,-20.2c0,-11.16 -9.04,-20.2 -20.2,-20.2zm0,0" id="svg_5"/>
  </clipPath>
  <clipPath id="6acfd48d5d">
   <path clip-rule="nonzero" d="m215.15,87.39l40.4,0l0,40.4l-40.4,0l0,-40.4zm0,0" id="svg_6"/>
  </clipPath>
  <clipPath id="2776b01267">
   <path clip-rule="nonzero" d="m235.36,87.39c-11.16,0 -20.21,9.04 -20.21,20.2c0,11.16 9.05,20.2 20.21,20.2c11.15,0 20.19,-9.04 20.19,-20.2c0,-11.16 -9.04,-20.2 -20.19,-20.2zm0,0" id="svg_7"/>
  </clipPath>
  <clipPath id="9aececdf0d">
   <path clip-rule="nonzero" d="m215.15,87.39l40.4,0l0,40.4l-40.4,0l0,-40.4zm0,0" id="svg_8"/>
  </clipPath>
  <clipPath id="995b0f09eb">
   <path clip-rule="nonzero" d="m235.35,87.39c-11.15,0 -20.2,9.04 -20.2,20.2c0,11.15 9.05,20.2 20.2,20.2c11.16,0 20.2,-9.05 20.2,-20.2c0,-11.16 -9.04,-20.2 -20.2,-20.2zm0,0" id="svg_9"/>
  </clipPath>
  <clipPath id="4c3ced7137">
   <path clip-rule="nonzero" d="m360.34,87.39l40.4,0l0,40.4l-40.4,0l0,-40.4zm0,0" id="svg_10"/>
  </clipPath>
  <clipPath id="54de877da6">
   <path clip-rule="nonzero" d="m380.54,87.39c-11.16,0 -20.2,9.04 -20.2,20.2c0,11.16 9.04,20.2 20.2,20.2c11.16,0 20.2,-9.04 20.2,-20.2c0,-11.16 -9.04,-20.2 -20.2,-20.2zm0,0" id="svg_11"/>
  </clipPath>
  <clipPath id="2f39c595f8">
   <path clip-rule="nonzero" d="m360.34,87.39l40.4,0l0,40.4l-40.4,0l0,-40.4zm0,0" id="svg_12"/>
  </clipPath>
  <clipPath id="b402547eef">
   <path clip-rule="nonzero" d="m380.54,87.39c-11.16,0 -20.2,9.04 -20.2,20.2c0,11.15 9.04,20.2 20.2,20.2c11.15,0 20.2,-9.05 20.2,-20.2c0,-11.16 -9.05,-20.2 -20.2,-20.2zm0,0" id="svg_13"/>
  </clipPath>
  <clipPath id="f89b54159e">
   <path clip-rule="nonzero" d="m501.87,87.39l40.4,0l0,40.4l-40.4,0l0,-40.4zm0,0" id="svg_14"/>
  </clipPath>
  <clipPath id="7847af3154">
   <path clip-rule="nonzero" d="m522.07,87.39c-11.16,0 -20.2,9.04 -20.2,20.2c0,11.16 9.04,20.2 20.2,20.2c11.16,0 20.2,-9.04 20.2,-20.2c0,-11.16 -9.04,-20.2 -20.2,-20.2zm0,0" id="svg_15"/>
  </clipPath>
  <clipPath id="eda90c62b4">
   <path clip-rule="nonzero" d="m501.87,87.39l40.4,0l0,40.4l-40.4,0l0,-40.4zm0,0" id="svg_16"/>
  </clipPath>
  <clipPath id="38b2da7acc">
   <path clip-rule="nonzero" d="m522.07,87.39c-11.16,0 -20.2,9.04 -20.2,20.2c0,11.15 9.04,20.2 20.2,20.2c11.15,0 20.2,-9.05 20.2,-20.2c0,-11.16 -9.05,-20.2 -20.2,-20.2zm0,0" id="svg_17"/>
  </clipPath>
  <clipPath id="5b0795ad5e">
   <path clip-rule="nonzero" d="m645.82,87.39l40.4,0l0,40.4l-40.4,0l0,-40.4zm0,0" id="svg_18"/>
  </clipPath>
  <clipPath id="30c8575ba0">
   <path clip-rule="nonzero" d="m666.02,87.39c-11.16,0 -20.2,9.04 -20.2,20.2c0,11.16 9.04,20.2 20.2,20.2c11.16,0 20.2,-9.04 20.2,-20.2c0,-11.16 -9.04,-20.2 -20.2,-20.2zm0,0" id="svg_19"/>
  </clipPath>
  <clipPath id="ebd5e04428">
   <path clip-rule="nonzero" d="m645.82,87.39l40.4,0l0,40.4l-40.4,0l0,-40.4zm0,0" id="svg_20"/>
  </clipPath>
  <clipPath id="4d7ff32b27">
   <path clip-rule="nonzero" d="m666.02,87.39c-11.16,0 -20.2,9.04 -20.2,20.2c0,11.15 9.04,20.2 20.2,20.2c11.16,0 20.2,-9.05 20.2,-20.2c0,-11.16 -9.04,-20.2 -20.2,-20.2zm0,0" id="svg_21"/>
  </clipPath>
  <clipPath id="860a5a0b1b">
   <path clip-rule="nonzero" d="m61.21,151.61l12.95,0l0,12.96l-12.95,0l0,-12.96zm0,0" id="svg_22"/>
  </clipPath>
  <clipPath id="6a94f8f4d4">
   <path clip-rule="nonzero" d="m67.69,151.61c-3.58,0 -6.48,2.9 -6.48,6.48c0,3.57 2.9,6.48 6.48,6.48c3.58,0 6.47,-2.91 6.47,-6.48c0,-3.58 -2.89,-6.48 -6.47,-6.48zm0,0" id="svg_23"/>
  </clipPath>
  <clipPath id="be2b12106e">
   <path clip-rule="nonzero" d="m61.21,151.61l12.73,0l0,12.73l-12.73,0l0,-12.73zm0,0" id="svg_24"/>
  </clipPath>
  <clipPath id="b97cce0ad4">
   <path clip-rule="nonzero" d="m67.68,151.61c-3.57,0 -6.47,2.89 -6.47,6.48c0,3.57 2.9,6.47 6.47,6.47c3.58,0 6.48,-2.9 6.48,-6.47c0,-3.59 -2.9,-6.48 -6.48,-6.48zm0,0" id="svg_25"/>
  </clipPath>
  <clipPath id="5add791397">
   <path clip-rule="nonzero" d="m373.14,154.19l12.96,0l0,12.96l-12.96,0l0,-12.96zm0,0" id="svg_26"/>
  </clipPath>
  <clipPath id="887650ed0c">
   <path clip-rule="nonzero" d="m379.62,154.19c-3.58,0 -6.48,2.9 -6.48,6.48c0,3.58 2.9,6.48 6.48,6.48c3.58,0 6.48,-2.9 6.48,-6.48c0,-3.58 -2.9,-6.48 -6.48,-6.48zm0,0" id="svg_27"/>
  </clipPath>
  <clipPath id="55b037d2e0">
   <path clip-rule="nonzero" d="m373.14,154.19l12.74,0l0,12.74l-12.74,0l0,-12.74zm0,0" id="svg_28"/>
  </clipPath>
  <clipPath id="353a889977">
   <path clip-rule="nonzero" d="m379.62,154.19c-3.58,0 -6.48,2.9 -6.48,6.48c0,3.58 2.9,6.48 6.48,6.48c3.58,0 6.48,-2.9 6.48,-6.48c0,-3.58 -2.9,-6.48 -6.48,-6.48zm0,0" id="svg_29"/>
  </clipPath>
  <clipPath id="401d88e4a1">
   <path clip-rule="nonzero" d="m229.94,206.74l12.96,0l0,12.96l-12.96,0l0,-12.96zm0,0" id="svg_30"/>
  </clipPath>
  <clipPath id="d84fe2f14b">
   <path clip-rule="nonzero" d="m236.42,206.74c-3.58,0 -6.48,2.9 -6.48,6.48c0,3.58 2.9,6.48 6.48,6.48c3.58,0 6.48,-2.9 6.48,-6.48c0,-3.58 -2.9,-6.48 -6.48,-6.48zm0,0" id="svg_31"/>
  </clipPath>
  <clipPath id="038ecfe460">
   <path clip-rule="nonzero" d="m229.94,206.74l12.73,0l0,12.73l-12.73,0l0,-12.73zm0,0" id="svg_32"/>
  </clipPath>
  <clipPath id="c716720ae9">
   <path clip-rule="nonzero" d="m236.42,206.74c-3.58,0 -6.48,2.9 -6.48,6.48c0,3.58 2.9,6.48 6.48,6.48c3.58,0 6.47,-2.9 6.47,-6.48c0,-3.58 -2.89,-6.48 -6.47,-6.48zm0,0" id="svg_33"/>
  </clipPath>
  <clipPath id="732aca3501">
   <path clip-rule="nonzero" d="m516.34,206.74l12.96,0l0,12.96l-12.96,0l0,-12.96zm0,0" id="svg_34"/>
  </clipPath>
  <clipPath id="7bbfebaa86">
   <path clip-rule="nonzero" d="m522.82,206.74c-3.58,0 -6.48,2.9 -6.48,6.48c0,3.58 2.9,6.48 6.48,6.48c3.58,0 6.48,-2.9 6.48,-6.48c0,-3.58 -2.9,-6.48 -6.48,-6.48zm0,0" id="svg_35"/>
  </clipPath>
  <clipPath id="77106e62a7">
   <path clip-rule="nonzero" d="m516.34,206.74l12.73,0l0,12.73l-12.73,0l0,-12.73zm0,0" id="svg_36"/>
  </clipPath>
  <clipPath id="57e1a2ea5a">
   <path clip-rule="nonzero" d="m522.82,206.74c-3.58,0 -6.48,2.9 -6.48,6.48c0,3.58 2.9,6.48 6.48,6.48c3.58,0 6.48,-2.9 6.48,-6.48c0,-3.58 -2.9,-6.48 -6.48,-6.48zm0,0" id="svg_37"/>
  </clipPath>
  <clipPath id="9322e22f32">
   <path clip-rule="nonzero" d="m659.54,154.19l12.96,0l0,12.96l-12.96,0l0,-12.96zm0,0" id="svg_38"/>
  </clipPath>
  <clipPath id="c600894126">
   <path clip-rule="nonzero" d="m666.02,154.19c-3.58,0 -6.48,2.9 -6.48,6.48c0,3.58 2.9,6.48 6.48,6.48c3.58,0 6.48,-2.9 6.48,-6.48c0,-3.58 -2.9,-6.48 -6.48,-6.48zm0,0" id="svg_39"/>
  </clipPath>
  <clipPath id="3ca6df30ce">
   <path clip-rule="nonzero" d="m659.54,154.19l12.74,0l0,12.74l-12.74,0l0,-12.74zm0,0" id="svg_40"/>
  </clipPath>
  <clipPath id="4ad566727b">
   <path clip-rule="nonzero" d="m666.02,154.19c-3.58,0 -6.48,2.9 -6.48,6.48c0,3.58 2.9,6.48 6.48,6.48c3.58,0 6.48,-2.9 6.48,-6.48c0,-3.58 -2.9,-6.48 -6.48,-6.48zm0,0" id="svg_41"/>
  </clipPath>
  <clipPath id="59d162a436">
   <path clip-rule="nonzero" d="m19.37,250.46l100.77,0l0,20.91l-100.77,0l0,-20.91zm0,0" id="svg_42"/>
  </clipPath>
  <clipPath id="9c4ac905ad">
   <path clip-rule="nonzero" d="m69.74,250.46c-27.82,0 -50.37,4.68 -50.37,10.45c0,5.78 22.55,10.46 50.37,10.46c27.82,0 50.38,-4.68 50.38,-10.46c0,-5.77 -22.56,-10.45 -50.38,-10.45zm0,0" id="svg_43"/>
  </clipPath>
  <clipPath id="c87b3bbaee">
   <path clip-rule="nonzero" d="m19.37,246.71l100.75,0l0,14.2l-100.75,0l0,-14.2zm0,0" id="svg_44"/>
  </clipPath>
  <clipPath id="49c3cac6a7">
   <path clip-rule="nonzero" d="m19.37,238.14l100.8,0l0,17.15l-100.8,0l0,-17.15zm0,0" id="svg_45"/>
  </clipPath>
  <clipPath id="e44d82adda">
   <path clip-rule="nonzero" d="m69.74,238.14c-27.82,0 -50.37,3.84 -50.37,8.57c0,4.74 22.55,8.58 50.37,8.58c27.82,0 50.38,-3.84 50.38,-8.58c0,-4.73 -22.56,-8.57 -50.38,-8.57zm0,0" id="svg_46"/>
  </clipPath>
  <clipPath id="c8debc34d6">
   <path clip-rule="nonzero" d="m186.04,313l100.77,0l0,20.91l-100.77,0l0,-20.91zm0,0" id="svg_47"/>
  </clipPath>
  <clipPath id="028939f402">
   <path clip-rule="nonzero" d="m236.42,313c-27.83,0 -50.38,4.68 -50.38,10.45c0,5.78 22.55,10.46 50.38,10.46c27.82,0 50.37,-4.68 50.37,-10.46c0,-5.77 -22.55,-10.45 -50.37,-10.45zm0,0" id="svg_48"/>
  </clipPath>
  <clipPath id="c4906d15b0">
   <path clip-rule="nonzero" d="m186.04,309.25l100.75,0l0,14.2l-100.75,0l0,-14.2zm0,0" id="svg_49"/>
  </clipPath>
  <clipPath id="b35f675503">
   <path clip-rule="nonzero" d="m186.04,300.68l100.81,0l0,17.14l-100.81,0l0,-17.14zm0,0" id="svg_50"/>
  </clipPath>
  <clipPath id="ca11ab885e">
   <path clip-rule="nonzero" d="m236.42,300.68c-27.83,0 -50.38,3.84 -50.38,8.57c0,4.74 22.55,8.57 50.38,8.57c27.82,0 50.37,-3.83 50.37,-8.57c0,-4.73 -22.55,-8.57 -50.37,-8.57zm0,0" id="svg_51"/>
  </clipPath>
  <clipPath id="6614e57bf4">
   <path clip-rule="nonzero" d="m56,198.28l21,0l0,40.72l-21,0l0,-40.72zm0,0" id="svg_52"/>
  </clipPath>
  <clipPath id="598f0eb955">
   <path clip-rule="nonzero" d="m46.11,198.28l40.89,0l0,40.72l-40.89,0l0,-40.72zm0,0" id="svg_53"/>
  </clipPath>
  <clipPath id="5b75b42500">
   <path clip-rule="nonzero" d="m81,233l10.81,0l0,10.98l-10.81,0l0,-10.98zm0,0" id="svg_54"/>
  </clipPath>
  <clipPath id="dc39dc16ea">
   <path clip-rule="nonzero" d="m472.45,313l100.77,0l0,20.91l-100.77,0l0,-20.91zm0,0" id="svg_55"/>
  </clipPath>
  <clipPath id="68f773bfbb">
   <path clip-rule="nonzero" d="m522.82,313c-27.82,0 -50.37,4.68 -50.37,10.45c0,5.78 22.55,10.46 50.37,10.46c27.82,0 50.38,-4.68 50.38,-10.46c0,-5.77 -22.56,-10.45 -50.38,-10.45zm0,0" id="svg_56"/>
  </clipPath>
  <clipPath id="fd01e45368">
   <path clip-rule="nonzero" d="m472.45,309.25l100.75,0l0,14.2l-100.75,0l0,-14.2zm0,0" id="svg_57"/>
  </clipPath>
  <clipPath id="60c90e750f">
   <path clip-rule="nonzero" d="m472.45,300.68l100.8,0l0,17.14l-100.8,0l0,-17.14zm0,0" id="svg_58"/>
  </clipPath>
  <clipPath id="7108d5076d">
   <path clip-rule="nonzero" d="m522.82,300.68c-27.82,0 -50.37,3.84 -50.37,8.57c0,4.74 22.55,8.57 50.37,8.57c27.82,0 50.38,-3.83 50.38,-8.57c0,-4.73 -22.56,-8.57 -50.38,-8.57zm0,0" id="svg_59"/>
  </clipPath>
  <clipPath id="35985825b1">
   <path clip-rule="nonzero" d="m615.64,253.05l100.78,0l0,20.9l-100.78,0l0,-20.9zm0,0" id="svg_60"/>
  </clipPath>
  <clipPath id="babea2b1b0">
   <path clip-rule="nonzero" d="m666.02,253.05c-27.82,0 -50.38,4.68 -50.38,10.45c0,5.77 22.56,10.45 50.38,10.45c27.82,0 50.38,-4.68 50.38,-10.45c0,-5.77 -22.56,-10.45 -50.38,-10.45zm0,0" id="svg_61"/>
  </clipPath>
  <clipPath id="ffd1791064">
   <path clip-rule="nonzero" d="m615.64,249.3l100.76,0l0,14.2l-100.76,0l0,-14.2zm0,0" id="svg_62"/>
  </clipPath>
  <clipPath id="fd2e4fb609">
   <path clip-rule="nonzero" d="m615.64,240.72l100.81,0l0,17.15l-100.81,0l0,-17.15zm0,0" id="svg_63"/>
  </clipPath>
  <clipPath id="8a815d6b0e">
   <path clip-rule="nonzero" d="m666.02,240.72c-27.82,0 -50.38,3.84 -50.38,8.58c0,4.73 22.56,8.57 50.38,8.57c27.82,0 50.38,-3.84 50.38,-8.57c0,-4.74 -22.56,-8.58 -50.38,-8.58zm0,0" id="svg_64"/>
  </clipPath>
  <clipPath id="67a6eff97e">
   <path clip-rule="nonzero" d="m675,230l13.84,0l0,14l-13.84,0l0,-14zm0,0" id="svg_65"/>
  </clipPath>
  <clipPath id="a1d6df13be">
   <path clip-rule="nonzero" d="m643.14,198.32l40.86,0l0,40.68l-40.86,0l0,-40.68zm0,0" id="svg_66"/>
  </clipPath>
  <clipPath id="7b5d6bd2fe">
   <path clip-rule="nonzero" d="m329.24,249.48l100.76,0l0,20.91l-100.76,0l0,-20.91zm0,0" id="svg_67"/>
  </clipPath>
  <clipPath id="1a68361544">
   <path clip-rule="nonzero" d="m379.62,249.48c-27.82,0 -50.38,4.68 -50.38,10.46c0,5.77 22.56,10.45 50.38,10.45c27.82,0 50.37,-4.68 50.37,-10.45c0,-5.78 -22.55,-10.46 -50.37,-10.46zm0,0" id="svg_68"/>
  </clipPath>
  <clipPath id="a53a664fea">
   <path clip-rule="nonzero" d="m329.24,245.73l100.75,0l0,14.21l-100.75,0l0,-14.21zm0,0" id="svg_69"/>
  </clipPath>
  <clipPath id="6561bae5c9">
   <path clip-rule="nonzero" d="m329.24,237.16l100.76,0l0,17.15l-100.76,0l0,-17.15zm0,0" id="svg_70"/>
  </clipPath>
  <clipPath id="bb59144c28">
   <path clip-rule="nonzero" d="m379.62,237.16c-27.82,0 -50.38,3.84 -50.38,8.57c0,4.74 22.56,8.58 50.38,8.58c27.82,0 50.37,-3.84 50.37,-8.58c0,-4.73 -22.55,-8.57 -50.37,-8.57zm0,0" id="svg_71"/>
  </clipPath>
  <clipPath id="8896cf96c1">
   <path clip-rule="nonzero" d="m502,265.05l38,0l0,39.95l-38,0l0,-39.95zm0,0" id="svg_72"/>
  </clipPath>
  <clipPath id="5c565dbd53">
   <path clip-rule="nonzero" d="m524,286l21.02,0l0,21.01l-21.02,0l0,-21.01zm0,0" id="svg_73"/>
  </clipPath>
  <clipPath id="1ab8ea4c31">
   <path clip-rule="nonzero" d="m499.32,274l10.68,0l0,5l-10.68,0l0,-5zm0,0" id="svg_74"/>
  </clipPath>
  <clipPath id="f7224eab8b">
   <path clip-rule="nonzero" d="m499.32,283l10.68,0l0,4l-10.68,0l0,-4zm0,0" id="svg_75"/>
  </clipPath>
  <clipPath id="255ff35668">
   <path clip-rule="nonzero" d="m499.32,291l10.68,0l0,5l-10.68,0l0,-5zm0,0" id="svg_76"/>
  </clipPath>
  <clipPath id="706643e6a1">
   <path clip-rule="nonzero" d="m358.27,197l40.73,0l0,40.91l-40.73,0l0,-40.91zm0,0" id="svg_77"/>
  </clipPath>
  <clipPath id="6a31eac5f6">
   <path clip-rule="nonzero" d="m387,192.21l16.98,0l0,16.79l-16.98,0l0,-16.79zm0,0" id="svg_78"/>
  </clipPath>
  <clipPath id="206bb4f3f6">
   <path clip-rule="nonzero" d="m208,256.38l52,0l0,51.62l-52,0l0,-51.62zm0,0" id="svg_79"/>
  </clipPath>
 </defs>
 <g class="layer">
  <title>Layer 1</title>
  <path d="m2.5,2.5l370.05,0c0.15,0 0.31,0.06 0.41,0.17c0.11,0.11 0.17,0.26 0.17,0.42c0,0.15 0.06,0.3 0.17,0.41c0.11,0.11 0.26,0.17 0.42,0.17l370.05,0" fill="none" id="svg_80" stroke="#13329b" stroke-linecap="round" stroke-miterlimit="4" stroke-width="5" transform="matrix(0.749212, 0, 0, 0.749212, 86.706834, 104.839931)"/>
  <g clip-path="url(#6d7df815cf)" id="svg_81">
   <g clip-path="url(#9ff3759e6b)" id="svg_82">
    <path d="m46.3,86.51l40.41,0l0,40.4l-40.41,0l0,-40.4zm0,0" fill="#3e9dff" fill-rule="nonzero" id="svg_83"/>
   </g>
  </g>
  <g clip-path="url(#bab45bd259)" id="svg_84">
   <g clip-path="url(#7c00dd973b)" id="svg_85">
    <path d="m26.96,0c-14.89,0 -26.96,12.07 -26.96,26.96c0,14.89 12.07,26.96 26.96,26.96c14.89,0 26.96,-12.07 26.96,-26.96c0,-14.89 -12.07,-26.96 -26.96,-26.96zm0,0" fill="none" id="svg_86" stroke="#ffffff" stroke-miterlimit="4" stroke-width="8" transform="matrix(0.749212, 0, 0, 0.749212, 46.304495, 86.511788)"/>
   </g>
  </g>
  <g clip-path="url(#6acfd48d5d)" id="svg_87">
   <g clip-path="url(#2776b01267)" id="svg_88">
    <path d="m215.15,87.39l40.4,0l0,40.4l-40.4,0l0,-40.4zm0,0" fill="#3e9dff" fill-rule="nonzero" id="svg_89"/>
   </g>
  </g>
  <g clip-path="url(#9aececdf0d)" id="svg_90">
   <g clip-path="url(#995b0f09eb)" id="svg_91">
    <path d="m26.96,0c-14.89,0 -26.96,12.07 -26.96,26.96c0,14.89 12.07,26.96 26.96,26.96c14.89,0 26.96,-12.07 26.96,-26.96c0,-14.89 -12.07,-26.96 -26.96,-26.96zm0,0" fill="none" id="svg_92" stroke="#ffffff" stroke-miterlimit="4" stroke-width="8" transform="matrix(0.749212, 0, 0, 0.749212, 215.152478, 87.3874)"/>
   </g>
  </g>
  <g clip-path="url(#4c3ced7137)" id="svg_93">
   <g clip-path="url(#54de877da6)" id="svg_94">
    <path d="m360.34,87.39l40.4,0l0,40.4l-40.4,0l0,-40.4zm0,0" fill="#3e9dff" fill-rule="nonzero" id="svg_95"/>
   </g>
  </g>
  <g clip-path="url(#2f39c595f8)" id="svg_96">
   <g clip-path="url(#b402547eef)" id="svg_97">
    <path d="m26.96,0c-14.89,0 -26.96,12.07 -26.96,26.96c0,14.89 12.07,26.96 26.96,26.96c14.89,0 26.96,-12.07 26.96,-26.96c0,-14.89 -12.07,-26.96 -26.96,-26.96zm0,0" fill="none" id="svg_98" stroke="#ffffff" stroke-miterlimit="4" stroke-width="8" transform="matrix(0.749212, 0, 0, 0.749212, 360.337423, 87.3874)"/>
   </g>
  </g>
  <g clip-path="url(#f89b54159e)" id="svg_99">
   <g clip-path="url(#7847af3154)" id="svg_100">
    <path d="m501.87,87.39l40.4,0l0,40.4l-40.4,0l0,-40.4zm0,0" fill="#3e9dff" fill-rule="nonzero" id="svg_101"/>
   </g>
  </g>
  <g clip-path="url(#eda90c62b4)" id="svg_102">
   <g clip-path="url(#38b2da7acc)" id="svg_103">
    <path d="m26.96,0c-14.89,0 -26.96,12.07 -26.96,26.96c0,14.89 12.07,26.96 26.96,26.96c14.89,0 26.96,-12.07 26.96,-26.96c0,-14.89 -12.07,-26.96 -26.96,-26.96zm0,0" fill="none" id="svg_104" stroke="#ffffff" stroke-miterlimit="4" stroke-width="8" transform="matrix(0.749212, 0, 0, 0.749212, 501.869101, 87.3874)"/>
   </g>
  </g>
  <g clip-path="url(#5b0795ad5e)" id="svg_105">
   <g clip-path="url(#30c8575ba0)" id="svg_106">
    <path d="m645.82,87.39l40.4,0l0,40.4l-40.4,0l0,-40.4zm0,0" fill="#3e9dff" fill-rule="nonzero" id="svg_107"/>
   </g>
  </g>
  <g clip-path="url(#ebd5e04428)" id="svg_108">
   <g clip-path="url(#4d7ff32b27)" id="svg_109">
    <path d="m26.96,0c-14.89,0 -26.96,12.07 -26.96,26.96c0,14.89 12.07,26.96 26.96,26.96c14.89,0 26.96,-12.07 26.96,-26.96c0,-14.89 -12.07,-26.96 -26.96,-26.96zm0,0" fill="none" id="svg_110" stroke="#ffffff" stroke-miterlimit="4" stroke-width="8" transform="matrix(0.749212, 0, 0, 0.749212, 645.819721, 87.3874)"/>
   </g>
  </g>
  <g clip-path="url(#860a5a0b1b)" id="svg_111">
   <g clip-path="url(#6a94f8f4d4)" id="svg_112">
    <path d="m61.21,151.61l12.95,0l0,12.96l-12.95,0l0,-12.96zm0,0" fill="#3e9dff" fill-rule="nonzero" id="svg_113"/>
   </g>
  </g>
  <g clip-path="url(#be2b12106e)" id="svg_114">
   <g clip-path="url(#b97cce0ad4)" id="svg_115">
    <path d="m8.65,0c-4.78,0 -8.65,3.87 -8.65,8.65c0,4.78 3.87,8.65 8.65,8.65c4.77,0 8.65,-3.87 8.65,-8.65c0,-4.78 -3.88,-8.65 -8.65,-8.65zm0,0" fill="none" id="svg_116" stroke="#ffffff" stroke-miterlimit="4" stroke-width="8" transform="matrix(0.749212, 0, 0, 0.749212, 61.205607, 151.6048)"/>
   </g>
  </g>
  <g clip-path="url(#5add791397)" id="svg_117">
   <g clip-path="url(#887650ed0c)" id="svg_118">
    <path d="m373.14,154.19l12.96,0l0,12.96l-12.96,0l0,-12.96zm0,0" fill="#3e9dff" fill-rule="nonzero" id="svg_119"/>
   </g>
  </g>
  <g clip-path="url(#55b037d2e0)" id="svg_120">
   <g clip-path="url(#353a889977)" id="svg_121">
    <path d="m8.65,0c-4.78,0 -8.65,3.87 -8.65,8.65c0,4.78 3.87,8.65 8.65,8.65c4.77,0 8.65,-3.87 8.65,-8.65c0,-4.78 -3.88,-8.65 -8.65,-8.65zm0,0" fill="none" id="svg_122" stroke="#ffffff" stroke-miterlimit="4" stroke-width="8" transform="matrix(0.749212, 0, 0, 0.749212, 373.138093, 154.190255)"/>
   </g>
  </g>
  <g clip-path="url(#401d88e4a1)" id="svg_123">
   <g clip-path="url(#d84fe2f14b)" id="svg_124">
    <path d="m229.94,206.74l12.96,0l0,12.96l-12.96,0l0,-12.96zm0,0" fill="#3e9dff" fill-rule="nonzero" id="svg_125"/>
   </g>
  </g>
  <g clip-path="url(#038ecfe460)" id="svg_126">
   <g clip-path="url(#c716720ae9)" id="svg_127">
    <path d="m8.65,0c-4.78,0 -8.65,3.87 -8.65,8.65c0,4.78 3.87,8.65 8.65,8.65c4.78,0 8.65,-3.87 8.65,-8.65c0,-4.78 -3.87,-8.65 -8.65,-8.65zm0,0" fill="none" id="svg_128" stroke="#ffffff" stroke-miterlimit="4" stroke-width="8" transform="matrix(0.749212, 0, 0, 0.749212, 229.936686, 206.737359)"/>
   </g>
  </g>
  <g clip-path="url(#732aca3501)" id="svg_129">
   <g clip-path="url(#7bbfebaa86)" id="svg_130">
    <path d="m516.34,206.74l12.96,0l0,12.96l-12.96,0l0,-12.96zm0,0" fill="#3e9dff" fill-rule="nonzero" id="svg_131"/>
   </g>
  </g>
  <g clip-path="url(#77106e62a7)" id="svg_132">
   <g clip-path="url(#57e1a2ea5a)" id="svg_133">
    <path d="m8.65,0c-4.78,0 -8.65,3.87 -8.65,8.65c0,4.78 3.87,8.65 8.65,8.65c4.78,0 8.64,-3.87 8.64,-8.65c0,-4.78 -3.86,-8.65 -8.64,-8.65zm0,0" fill="none" id="svg_134" stroke="#ffffff" stroke-miterlimit="4" stroke-width="8" transform="matrix(0.749212, 0, 0, 0.749212, 516.339492, 206.737359)"/>
   </g>
  </g>
  <path d="m2,2l64.83,0" fill="none" id="svg_135" stroke="#3e9dff" stroke-linecap="round" stroke-miterlimit="4" stroke-width="4" transform="matrix(0, 0.749212, -0.749212, 0, 69.181358, 107.591236)"/>
  <path d="m2,2l146.8,0" fill="none" id="svg_136" stroke="#3e9dff" stroke-linecap="round" stroke-miterlimit="4" stroke-width="4" transform="matrix(0, 0.749212, -0.749212, 0, 237.649431, 102.671349)"/>
  <path d="m2,2l64.84,0" fill="none" id="svg_137" stroke="#3e9dff" stroke-linecap="round" stroke-miterlimit="4" stroke-width="4" transform="matrix(0, 0.749212, -0.749212, 0, 381.15876, 106.515246)"/>
  <path d="m2,2l146.81,0" fill="none" id="svg_138" stroke="#3e9dff" stroke-linecap="round" stroke-miterlimit="4" stroke-width="4" transform="matrix(0, 0.749212, -0.749212, 0, 524.315136, 97.700831)"/>
  <path d="m2,2l64.84,0" fill="none" id="svg_139" stroke="#3e9dff" stroke-linecap="round" stroke-miterlimit="4" stroke-width="4" transform="matrix(0, 0.749212, -0.749212, 0, 667.516665, 112.24603)"/>
  <g clip-path="url(#9322e22f32)" id="svg_140">
   <g clip-path="url(#c600894126)" id="svg_141">
    <path d="m659.54,154.19l12.96,0l0,12.96l-12.96,0l0,-12.96zm0,0" fill="#3e9dff" fill-rule="nonzero" id="svg_142"/>
   </g>
  </g>
  <g clip-path="url(#3ca6df30ce)" id="svg_143">
   <g clip-path="url(#4ad566727b)" id="svg_144">
    <path d="m8.65,0c-4.78,0 -8.65,3.87 -8.65,8.65c0,4.78 3.87,8.65 8.65,8.65c4.77,0 8.65,-3.87 8.65,-8.65c0,-4.78 -3.88,-8.65 -8.65,-8.65zm0,0" fill="none" id="svg_145" stroke="#ffffff" stroke-miterlimit="4" stroke-width="8" transform="matrix(0.749212, 0, 0, 0.749212, 659.5409, 154.190255)"/>
   </g>
  </g>
  <g clip-path="url(#59d162a436)" id="svg_146">
   <g clip-path="url(#9c4ac905ad)" id="svg_147">
    <path d="m19.37,250.46l100.77,0l0,20.91l-100.77,0l0,-20.91zm0,0" fill="#3e9dff" fill-rule="nonzero" id="svg_148"/>
   </g>
  </g>
  <g clip-path="url(#c87b3bbaee)" id="svg_149">
   <path d="m19.37,246.71l100.75,0l0,14.2l-100.75,0l0,-14.2zm0,0" fill="#3e9dff" fill-rule="nonzero" id="svg_150"/>
  </g>
  <g clip-path="url(#49c3cac6a7)" id="svg_151">
   <g clip-path="url(#e44d82adda)" id="svg_152">
    <path d="m19.37,238.14l100.74,0l0,17.15l-100.74,0l0,-17.15zm0,0" fill="#b1d7ff" fill-rule="nonzero" id="svg_153"/>
   </g>
  </g>
  <g clip-path="url(#c8debc34d6)" id="svg_154">
   <g clip-path="url(#028939f402)" id="svg_155">
    <path d="m186.04,313l100.77,0l0,20.91l-100.77,0l0,-20.91zm0,0" fill="#3e9dff" fill-rule="nonzero" id="svg_156"/>
   </g>
  </g>
  <g clip-path="url(#c4906d15b0)" id="svg_157">
   <path d="m186.04,309.25l100.75,0l0,14.2l-100.75,0l0,-14.2zm0,0" fill="#3e9dff" fill-rule="nonzero" id="svg_158"/>
  </g>
  <g clip-path="url(#b35f675503)" id="svg_159">
   <g clip-path="url(#ca11ab885e)" id="svg_160">
    <path d="m186.04,300.68l100.74,0l0,17.14l-100.74,0l0,-17.14zm0,0" fill="#b1d7ff" fill-rule="nonzero" id="svg_161"/>
   </g>
  </g>
  <g clip-path="url(#6614e57bf4)" id="svg_162">
   <path d="m85.7,70.5c0,2.26 -0.1,4.51 -0.29,6.73c-0.2,2.22 -0.49,4.38 -0.87,6.47c-0.38,2.1 -0.85,4.09 -1.4,5.97c-0.56,1.88 -1.19,3.62 -1.89,5.23c-0.71,1.6 -1.48,3.03 -2.31,4.28c-0.83,1.27 -1.7,2.32 -2.62,3.2c-0.92,0.86 -1.87,1.52 -2.85,1.96c-0.98,0.44 -1.97,0.66 -2.97,0.66c-1,0 -1.98,-0.22 -2.96,-0.66c-0.98,-0.44 -1.93,-1.1 -2.86,-1.96c-0.92,-0.88 -1.8,-1.93 -2.63,-3.2c-0.83,-1.25 -1.59,-2.68 -2.3,-4.28c-0.7,-1.61 -1.34,-3.35 -1.89,-5.23c-0.55,-1.88 -1.02,-3.87 -1.41,-5.97c-0.38,-2.09 -0.67,-4.25 -0.86,-6.47c-0.19,-2.22 -0.29,-4.47 -0.29,-6.73c0,-2.26 0.1,-4.51 0.29,-6.73c0.19,-2.22 0.48,-4.38 0.86,-6.47c0.39,-2.1 0.86,-4.09 1.41,-5.97c0.55,-1.88 1.19,-3.62 1.89,-5.23c0.71,-1.6 1.47,-3.03 2.3,-4.28c0.83,-1.27 1.71,-2.32 2.63,-3.2c0.93,-0.86 1.88,-1.52 2.86,-1.96c0.98,-0.44 1.96,-0.66 2.96,-0.66c1,0 1.99,0.22 2.97,0.66c0.98,0.44 1.93,1.1 2.85,1.96c0.92,0.88 1.79,1.93 2.62,3.2c0.83,1.25 1.6,2.68 2.31,4.28c0.7,1.61 1.33,3.35 1.89,5.23c0.55,1.88 1.02,3.87 1.4,5.97c0.38,2.09 0.67,4.25 0.87,6.47c0.19,2.22 0.29,4.47 0.29,6.73zm0,0" fill="none" id="svg_163" stroke="#b1d7ff" stroke-linecap="round" stroke-linejoin="round" stroke-miterlimit="10" stroke-width="6" transform="matrix(0.542135, 0, 0, 0.542135, 28.221964, 180.388872)"/>
  </g>
  <path d="m101.9,57l-62.8,0" fill="none" id="svg_164" stroke="#b1d7ff" stroke-linecap="round" stroke-linejoin="round" stroke-miterlimit="10" stroke-width="6" transform="matrix(0.542135, 0, 0, 0.542135, 28.221964, 180.388872)"/>
  <path d="m101.9,84l-62.8,0" fill="none" id="svg_165" stroke="#b1d7ff" stroke-linecap="round" stroke-linejoin="round" stroke-miterlimit="10" stroke-width="6" transform="matrix(0.542135, 0, 0, 0.542135, 28.221964, 180.388872)"/>
  <g clip-path="url(#598f0eb955)" id="svg_166">
   <path d="m105,70.5c0,1.13 -0.05,2.26 -0.17,3.38c-0.11,1.12 -0.27,2.24 -0.5,3.35c-0.21,1.11 -0.49,2.2 -0.82,3.29c-0.32,1.08 -0.7,2.14 -1.14,3.18c-0.43,1.04 -0.91,2.07 -1.44,3.06c-0.54,1 -1.11,1.97 -1.75,2.91c-0.62,0.94 -1.29,1.84 -2.01,2.72c-0.72,0.87 -1.47,1.71 -2.27,2.51c-0.8,0.8 -1.64,1.55 -2.51,2.27c-0.87,0.72 -1.78,1.39 -2.73,2.01c-0.93,0.63 -1.9,1.21 -2.9,1.75c-0.99,0.53 -2.02,1.01 -3.05,1.45c-1.05,0.43 -2.12,0.8 -3.2,1.13c-1.08,0.33 -2.17,0.61 -3.28,0.83c-1.1,0.22 -2.22,0.39 -3.35,0.49c-1.12,0.11 -2.25,0.17 -3.38,0.17c-1.13,0 -2.26,-0.06 -3.38,-0.17c-1.13,-0.1 -2.24,-0.27 -3.35,-0.49c-1.11,-0.22 -2.21,-0.5 -3.29,-0.83c-1.08,-0.33 -2.14,-0.7 -3.18,-1.13c-1.05,-0.44 -2.07,-0.92 -3.06,-1.45c-1,-0.54 -1.96,-1.12 -2.91,-1.75c-0.93,-0.62 -1.84,-1.29 -2.71,-2.01c-0.88,-0.72 -1.72,-1.47 -2.51,-2.27c-0.8,-0.8 -1.57,-1.64 -2.28,-2.51c-0.71,-0.88 -1.39,-1.78 -2.02,-2.72c-0.62,-0.94 -1.21,-1.91 -1.73,-2.91c-0.54,-0.99 -1.02,-2.02 -1.45,-3.06c-0.43,-1.04 -0.82,-2.1 -1.15,-3.18c-0.32,-1.09 -0.59,-2.18 -0.82,-3.29c-0.21,-1.11 -0.38,-2.23 -0.5,-3.35c-0.1,-1.12 -0.16,-2.25 -0.16,-3.38c0,-1.13 0.06,-2.26 0.16,-3.38c0.12,-1.12 0.29,-2.24 0.5,-3.35c0.23,-1.11 0.5,-2.2 0.82,-3.29c0.33,-1.08 0.72,-2.14 1.15,-3.18c0.43,-1.04 0.91,-2.07 1.45,-3.06c0.52,-1 1.11,-1.97 1.73,-2.91c0.63,-0.94 1.31,-1.84 2.02,-2.72c0.71,-0.87 1.48,-1.71 2.28,-2.51c0.79,-0.8 1.63,-1.55 2.51,-2.27c0.87,-0.72 1.78,-1.39 2.71,-2.01c0.95,-0.63 1.91,-1.21 2.91,-1.75c0.99,-0.53 2.01,-1.01 3.06,-1.45c1.04,-0.43 2.1,-0.8 3.18,-1.13c1.08,-0.33 2.18,-0.61 3.29,-0.83c1.11,-0.22 2.22,-0.39 3.35,-0.49c1.12,-0.11 2.25,-0.17 3.38,-0.17c1.13,0 2.26,0.06 3.38,0.17c1.13,0.1 2.25,0.27 3.35,0.49c1.11,0.22 2.2,0.5 3.28,0.83c1.08,0.33 2.15,0.7 3.2,1.13c1.03,0.44 2.06,0.92 3.05,1.45c1,0.54 1.97,1.12 2.9,1.75c0.95,0.62 1.86,1.29 2.73,2.01c0.87,0.72 1.71,1.47 2.51,2.27c0.8,0.8 1.55,1.64 2.27,2.51c0.72,0.88 1.39,1.78 2.01,2.72c0.64,0.94 1.21,1.91 1.75,2.91c0.53,0.99 1.01,2.02 1.44,3.06c0.44,1.04 0.82,2.1 1.14,3.18c0.33,1.09 0.61,2.18 0.82,3.29c0.23,1.11 0.39,2.23 0.5,3.35c0.12,1.12 0.17,2.25 0.17,3.38zm0,0" fill="none" id="svg_167" stroke="#13329b" stroke-linecap="round" stroke-linejoin="round" stroke-miterlimit="10" stroke-width="6" transform="matrix(0.542135, 0, 0, 0.542135, 28.221964, 180.388872)"/>
  </g>
  <g clip-path="url(#5b75b42500)" id="svg_168">
   <path d="m114,114l-13.4,-13.4" fill="none" id="svg_169" stroke="#13329b" stroke-linecap="round" stroke-linejoin="round" stroke-miterlimit="10" stroke-width="6" transform="matrix(0.542135, 0, 0, 0.542135, 28.221964, 180.388872)"/>
  </g>
  <path d="m88.4,230c0,0.69 -0.07,1.38 -0.2,2.05c-0.14,0.69 -0.34,1.35 -0.61,1.99c-0.26,0.64 -0.59,1.25 -0.97,1.83c-0.39,0.58 -0.83,1.11 -1.32,1.6c-0.49,0.49 -1.02,0.93 -1.6,1.32c-0.57,0.38 -1.18,0.71 -1.83,0.97c-0.64,0.27 -1.3,0.47 -1.98,0.6c-0.68,0.14 -1.37,0.21 -2.06,0.21c-0.7,0 -1.38,-0.07 -2.06,-0.21c-0.68,-0.13 -1.35,-0.33 -1.99,-0.6c-0.64,-0.26 -1.25,-0.59 -1.83,-0.97c-0.57,-0.39 -1.11,-0.83 -1.6,-1.32c-0.49,-0.49 -0.93,-1.02 -1.31,-1.6c-0.39,-0.58 -0.72,-1.19 -0.98,-1.83c-0.27,-0.64 -0.47,-1.3 -0.6,-1.99c-0.14,-0.67 -0.21,-1.36 -0.21,-2.05c0,-0.7 0.07,-1.39 0.21,-2.07c0.13,-0.68 0.33,-1.34 0.6,-1.98c0.26,-0.64 0.59,-1.25 0.98,-1.83c0.38,-0.58 0.82,-1.11 1.31,-1.6c0.49,-0.49 1.03,-0.93 1.6,-1.32c0.58,-0.38 1.19,-0.71 1.83,-0.97c0.64,-0.27 1.31,-0.47 1.99,-0.6c0.68,-0.14 1.36,-0.21 2.06,-0.21c0.69,0 1.38,0.07 2.06,0.21c0.68,0.13 1.34,0.33 1.98,0.6c0.65,0.26 1.26,0.59 1.83,0.97c0.58,0.39 1.11,0.83 1.6,1.32c0.49,0.49 0.93,1.02 1.32,1.6c0.38,0.58 0.71,1.19 0.97,1.83c0.27,0.64 0.47,1.3 0.61,1.98c0.13,0.68 0.2,1.37 0.2,2.07zm0,0" fill="#3e9dff" fill-rule="nonzero" id="svg_170"/>
  <g clip-path="url(#dc39dc16ea)" id="svg_171">
   <g clip-path="url(#68f773bfbb)" id="svg_172">
    <path d="m472.45,313l100.77,0l0,20.91l-100.77,0l0,-20.91zm0,0" fill="#3e9dff" fill-rule="nonzero" id="svg_173"/>
   </g>
  </g>
  <g clip-path="url(#fd01e45368)" id="svg_174">
   <path d="m472.45,309.25l100.75,0l0,14.2l-100.75,0l0,-14.2zm0,0" fill="#3e9dff" fill-rule="nonzero" id="svg_175"/>
  </g>
  <g clip-path="url(#60c90e750f)" id="svg_176">
   <g clip-path="url(#7108d5076d)" id="svg_177">
    <path d="m472.45,300.68l100.73,0l0,17.14l-100.73,0l0,-17.14zm0,0" fill="#b1d7ff" fill-rule="nonzero" id="svg_178"/>
   </g>
  </g>
  <g clip-path="url(#35985825b1)" id="svg_179">
   <g clip-path="url(#babea2b1b0)" id="svg_180">
    <path d="m615.64,253.05l100.78,0l0,20.9l-100.78,0l0,-20.9zm0,0" fill="#3e9dff" fill-rule="nonzero" id="svg_181"/>
   </g>
  </g>
  <g clip-path="url(#ffd1791064)" id="svg_182">
   <path d="m615.64,249.3l100.76,0l0,14.2l-100.76,0l0,-14.2zm0,0" fill="#3e9dff" fill-rule="nonzero" id="svg_183"/>
  </g>
  <g clip-path="url(#fd2e4fb609)" id="svg_184">
   <g clip-path="url(#8a815d6b0e)" id="svg_185">
    <path d="m615.64,240.72l100.75,0l0,17.15l-100.75,0l0,-17.15zm0,0" fill="#b1d7ff" fill-rule="nonzero" id="svg_186"/>
   </g>
  </g>
  <g clip-path="url(#67a6eff97e)" id="svg_187">
   <path d="m114,114l-19.1,-19.1" fill="none" id="svg_188" stroke="#b1d7ff" stroke-linecap="round" stroke-linejoin="round" stroke-miterlimit="10" stroke-width="6" transform="matrix(0.542135, 0, 0, 0.542135, 625.250936, 180.42582)"/>
  </g>
  <g clip-path="url(#a1d6df13be)" id="svg_189">
   <path d="m105,70.5c0,1.13 -0.06,2.26 -0.16,3.38c-0.12,1.13 -0.29,2.24 -0.5,3.35c-0.22,1.11 -0.5,2.2 -0.82,3.28c-0.33,1.08 -0.72,2.15 -1.15,3.19c-0.43,1.05 -0.91,2.06 -1.45,3.07c-0.52,0.99 -1.11,1.96 -1.73,2.9c-0.63,0.94 -1.31,1.84 -2.02,2.72c-0.72,0.87 -1.48,1.7 -2.28,2.5c-0.79,0.8 -1.63,1.56 -2.51,2.28c-0.87,0.71 -1.77,1.39 -2.71,2.02c-0.95,0.63 -1.91,1.2 -2.91,1.73c-1,0.54 -2.01,1.02 -3.06,1.45c-1.04,0.44 -2.1,0.82 -3.18,1.14c-1.08,0.33 -2.18,0.61 -3.29,0.83c-1.11,0.22 -2.22,0.38 -3.35,0.5c-1.12,0.11 -2.25,0.16 -3.38,0.16c-1.13,0 -2.26,-0.05 -3.38,-0.16c-1.13,-0.12 -2.25,-0.28 -3.35,-0.5c-1.11,-0.22 -2.2,-0.5 -3.28,-0.83c-1.08,-0.32 -2.15,-0.7 -3.2,-1.14c-1.04,-0.43 -2.06,-0.91 -3.05,-1.45c-1,-0.53 -1.97,-1.1 -2.9,-1.73c-0.95,-0.63 -1.86,-1.31 -2.73,-2.02c-0.87,-0.72 -1.71,-1.48 -2.5,-2.28c-0.8,-0.8 -1.56,-1.63 -2.28,-2.5c-0.72,-0.88 -1.39,-1.78 -2.02,-2.72c-0.63,-0.94 -1.2,-1.91 -1.74,-2.9c-0.53,-1.01 -1.01,-2.02 -1.44,-3.07c-0.44,-1.04 -0.82,-2.11 -1.14,-3.19c-0.33,-1.08 -0.61,-2.17 -0.82,-3.28c-0.23,-1.11 -0.39,-2.22 -0.5,-3.35c-0.12,-1.12 -0.17,-2.25 -0.17,-3.38c0,-1.13 0.05,-2.26 0.17,-3.38c0.11,-1.13 0.27,-2.24 0.5,-3.35c0.21,-1.11 0.49,-2.2 0.82,-3.28c0.32,-1.09 0.7,-2.15 1.14,-3.19c0.43,-1.05 0.91,-2.06 1.44,-3.07c0.54,-0.99 1.11,-1.96 1.74,-2.9c0.63,-0.94 1.3,-1.84 2.02,-2.72c0.72,-0.87 1.48,-1.7 2.28,-2.5c0.79,-0.8 1.63,-1.56 2.5,-2.28c0.87,-0.71 1.78,-1.39 2.73,-2.02c0.93,-0.62 1.9,-1.2 2.9,-1.73c0.99,-0.54 2.01,-1.02 3.05,-1.45c1.05,-0.43 2.12,-0.82 3.2,-1.15c1.08,-0.32 2.17,-0.6 3.28,-0.82c1.1,-0.22 2.22,-0.38 3.35,-0.5c1.12,-0.1 2.25,-0.16 3.38,-0.16c1.13,0 2.26,0.06 3.38,0.16c1.13,0.12 2.24,0.28 3.35,0.5c1.11,0.22 2.21,0.5 3.29,0.82c1.08,0.33 2.14,0.72 3.18,1.15c1.05,0.43 2.06,0.91 3.06,1.45c1,0.53 1.96,1.11 2.91,1.73c0.94,0.63 1.84,1.31 2.71,2.02c0.88,0.72 1.72,1.48 2.51,2.28c0.8,0.8 1.56,1.63 2.28,2.5c0.71,0.88 1.39,1.78 2.02,2.72c0.62,0.94 1.21,1.91 1.73,2.9c0.54,1.01 1.02,2.02 1.45,3.07c0.43,1.04 0.82,2.1 1.15,3.19c0.32,1.08 0.6,2.17 0.82,3.28c0.21,1.11 0.38,2.22 0.5,3.35c0.1,1.12 0.16,2.25 0.16,3.38zm0,0" fill="none" id="svg_190" stroke="#13329b" stroke-linecap="round" stroke-linejoin="round" stroke-miterlimit="10" stroke-width="6" transform="matrix(0.542135, 0, 0, 0.542135, 625.250936, 180.42582)"/>
  </g>
  <path d="m58.5,84l0,-13.8" fill="none" id="svg_191" stroke="#3e9dff" stroke-linecap="round" stroke-linejoin="round" stroke-miterlimit="10" stroke-width="6" transform="matrix(0.542135, 0, 0, 0.542135, 625.250936, 180.42582)"/>
  <path d="m70.5,84l0,-21.5" fill="none" id="svg_192" stroke="#3e9dff" stroke-linecap="round" stroke-linejoin="round" stroke-miterlimit="10" stroke-width="6" transform="matrix(0.542135, 0, 0, 0.542135, 625.250936, 180.42582)"/>
  <path d="m82.5,84l0,-27" fill="none" id="svg_193" stroke="#3e9dff" stroke-linecap="round" stroke-linejoin="round" stroke-miterlimit="10" stroke-width="6" transform="matrix(0.542135, 0, 0, 0.542135, 625.250936, 180.42582)"/>
  <g clip-path="url(#7b5d6bd2fe)" id="svg_194">
   <g clip-path="url(#1a68361544)" id="svg_195">
    <path d="m329.24,249.48l100.78,0l0,20.91l-100.78,0l0,-20.91zm0,0" fill="#3e9dff" fill-rule="nonzero" id="svg_196"/>
   </g>
  </g>
  <g clip-path="url(#a53a664fea)" id="svg_197">
   <path d="m329.24,245.73l100.76,0l0,14.21l-100.76,0l0,-14.21zm0,0" fill="#3e9dff" fill-rule="nonzero" id="svg_198"/>
  </g>
  <g clip-path="url(#6561bae5c9)" id="svg_199">
   <g clip-path="url(#bb59144c28)" id="svg_200">
    <path d="m329.24,237.16l100.74,0l0,17.15l-100.74,0l0,-17.15zm0,0" fill="#b1d7ff" fill-rule="nonzero" id="svg_201"/>
   </g>
  </g>
  <g clip-path="url(#8896cf96c1)" id="svg_202">
   <path d="m99.5,40l-53,0c-1.7,0 -3,1.3 -3,3l0,58c0,1.7 1.3,3 3,3l53,0c1.7,0 3,-1.3 3,-3l0,-58c0,-1.7 -1.3,-3 -3,-3zm0,0" fill="none" id="svg_203" stroke="#13329b" stroke-linecap="round" stroke-linejoin="round" stroke-miterlimit="10" stroke-width="6" transform="matrix(0.572706, 0, 0, 0.566902, 479.563533, 244.081795)"/>
  </g>
  <g clip-path="url(#5c565dbd53)" id="svg_204">
   <path d="m545.02,296.8c0,0.67 -0.06,1.34 -0.2,1.99c-0.12,0.66 -0.32,1.3 -0.58,1.92c-0.26,0.62 -0.58,1.2 -0.95,1.76c-0.38,0.56 -0.81,1.08 -1.29,1.55c-0.47,0.47 -1,0.89 -1.56,1.27c-0.56,0.37 -1.15,0.69 -1.78,0.94c-0.62,0.26 -1.27,0.45 -1.93,0.58c-0.67,0.13 -1.34,0.2 -2.02,0.2c-0.67,0 -1.34,-0.07 -2.01,-0.2c-0.66,-0.13 -1.31,-0.32 -1.93,-0.58c-0.63,-0.25 -1.22,-0.57 -1.78,-0.94c-0.56,-0.38 -1.08,-0.8 -1.56,-1.27c-0.48,-0.47 -0.91,-0.99 -1.29,-1.55c-0.37,-0.56 -0.69,-1.14 -0.95,-1.76c-0.26,-0.62 -0.45,-1.26 -0.58,-1.92c-0.14,-0.65 -0.2,-1.32 -0.2,-1.99c0,-0.67 0.06,-1.33 0.2,-1.99c0.13,-0.65 0.32,-1.29 0.58,-1.91c0.26,-0.62 0.58,-1.21 0.95,-1.77c0.38,-0.55 0.81,-1.07 1.29,-1.54c0.48,-0.48 1,-0.9 1.56,-1.27c0.56,-0.37 1.15,-0.69 1.78,-0.94c0.62,-0.26 1.27,-0.45 1.93,-0.58c0.67,-0.14 1.34,-0.2 2.01,-0.2c0.68,0 1.35,0.06 2.02,0.2c0.66,0.13 1.31,0.32 1.93,0.58c0.63,0.25 1.22,0.57 1.78,0.94c0.56,0.37 1.09,0.79 1.56,1.27c0.48,0.47 0.91,0.99 1.29,1.54c0.37,0.56 0.69,1.15 0.95,1.77c0.26,0.62 0.46,1.26 0.58,1.91c0.14,0.66 0.2,1.32 0.2,1.99zm0,0" fill="#3e9dff" fill-rule="nonzero" id="svg_205"/>
  </g>
  <g clip-path="url(#1ab8ea4c31)" id="svg_206">
   <path d="m37.5,57l12,0" fill="none" id="svg_207" stroke="#13329b" stroke-linecap="round" stroke-linejoin="round" stroke-miterlimit="10" stroke-width="6" transform="matrix(0.572706, 0, 0, 0.566902, 479.563533, 244.081795)"/>
  </g>
  <g clip-path="url(#f7224eab8b)" id="svg_208">
   <path d="m37.5,72l12,0" fill="none" id="svg_209" stroke="#13329b" stroke-linecap="round" stroke-linejoin="round" stroke-miterlimit="10" stroke-width="6" transform="matrix(0.572706, 0, 0, 0.566902, 479.563533, 244.081795)"/>
  </g>
  <g clip-path="url(#255ff35668)" id="svg_210">
   <path d="m37.5,87l12,0" fill="none" id="svg_211" stroke="#13329b" stroke-linecap="round" stroke-linejoin="round" stroke-miterlimit="10" stroke-width="6" transform="matrix(0.572706, 0, 0, 0.566902, 479.563533, 244.081795)"/>
  </g>
  <path d="m61.5,56.2l3,5.8l12,-9" fill="none" id="svg_212" stroke="#b1d7ff" stroke-linecap="round" stroke-linejoin="round" stroke-miterlimit="10" stroke-width="6" transform="matrix(0.572706, 0, 0, 0.566902, 479.563533, 244.081795)"/>
  <path d="m61.5,72.7l3,5.8l12,-9" fill="none" id="svg_213" stroke="#b1d7ff" stroke-linecap="round" stroke-linejoin="round" stroke-miterlimit="10" stroke-width="6" transform="matrix(0.572706, 0, 0, 0.566902, 479.563533, 244.081795)"/>
  <path d="m94.8,85.2l0,9.1l9.5,0" fill="none" id="svg_214" stroke="#ffffff" stroke-linecap="round" stroke-linejoin="round" stroke-miterlimit="10" stroke-width="6" transform="matrix(0.572706, 0, 0, 0.566902, 479.563533, 244.081795)"/>
  <path d="m399.14,196.82l-6.33,6.37l-9.61,9.56l-6.32,6.38l-3.99,-3.99l20.45,-20.45c0.88,-0.89 2.21,-1.02 3.23,-0.4l2.57,2.53zm0,0" fill="#ffffff" fill-rule="nonzero" id="svg_215"/>
  <g clip-path="url(#706643e6a1)" id="svg_216">
   <path d="m93,40.2l-60,0c-3.3,0 -6,2.7 -6,6l0,72c0,3.3 2.7,6 6,6l72,0c3.3,0 6,-2.7 6,-6l0,-60" fill="none" id="svg_217" stroke="#032193" stroke-linecap="round" stroke-linejoin="round" stroke-miterlimit="4" stroke-width="6" transform="matrix(0.442636, 0, 0, 0.442636, 347.659203, 181.411721)"/>
  </g>
  <path d="m75,94.2l-9.6,2.4l-14.4,3.6l3.2,-12.8l0.4,-1.6l2.4,-9.6l8.4,8.4l9.6,9.6zm0,0" fill="none" id="svg_218" stroke="#032193" stroke-linecap="round" stroke-linejoin="round" stroke-miterlimit="4" stroke-width="6" transform="matrix(0.442636, 0, 0, 0.442636, 347.659203, 181.411721)"/>
  <path d="m58.5,54.4l50.9,0l0,25.5l-50.9,0l0,-25.5zm0,0" fill="none" id="svg_219" stroke="#032193" stroke-linecap="round" stroke-linejoin="round" stroke-miterlimit="4" stroke-width="6" transform="matrix(0.312985, -0.312996, 0.312996, 0.312985, 337.526283, 216.411121)"/>
  <path d="m86.9,112.2l6.1,0" fill="none" id="svg_220" stroke="#2056ff" stroke-linecap="round" stroke-linejoin="round" stroke-miterlimit="4" stroke-width="6" transform="matrix(0.442636, 0, 0, 0.442636, 347.659203, 181.411721)"/>
  <path d="m45,112.2l30.1,0" fill="none" id="svg_221" stroke="#2056ff" stroke-linecap="round" stroke-linejoin="round" stroke-miterlimit="4" stroke-width="6" transform="matrix(0.442636, 0, 0, 0.442636, 347.659203, 181.411721)"/>
  <g clip-path="url(#6a31eac5f6)" id="svg_222">
   <path d="m121.2,47.9l-10.2,10.3l-18,-18l10.2,-10.2c2,-2 5,-2.3 7.3,-0.9c0.4,0.3 0.9,0.6 1.2,0.9l9.5,9.5c2.4,2.3 2.4,6.1 0,8.4zm0,0" fill="none" id="svg_223" stroke="#2056ff" stroke-linecap="round" stroke-linejoin="round" stroke-miterlimit="4" stroke-width="6" transform="matrix(0.442636, 0, 0, 0.442636, 347.659203, 181.411721)"/>
  </g>
  <path d="m227.84,299.84c-1.41,-1.11 -3.46,-1.31 -5.17,-0.25l-0.25,0.14c-4.06,2.51 -8.72,-2.1 -6.16,-6.11l0.15,-0.25c1.65,-2.6 0.2,-6.01 -2.81,-6.72l-0.3,-0.05c-4.66,-1.05 -4.66,-7.62 0,-8.67l0.3,-0.05c3.01,-0.7 4.46,-4.11 2.81,-6.72l-0.15,-0.25c-2.56,-4.05 2.1,-8.72 6.16,-6.21l0.25,0.15c2.61,1.65 6.07,0.2 6.77,-2.76l0.05,-0.3c1.05,-4.61 7.72,-4.61 8.77,0l0.05,0.3c0.25,1 0.75,1.86 1.51,2.46c-10.88,0.05 -19.65,8.82 -19.7,19.65c0,6.36 3.01,12.03 7.72,15.64zm0,0" fill="#ffffff" fill-rule="nonzero" id="svg_224"/>
  <path d="m92.8,75.2c0,1.16 -0.11,2.3 -0.34,3.43c-0.23,1.14 -0.57,2.24 -1.01,3.31c-0.45,1.06 -1,2.08 -1.65,3.03c-0.65,0.97 -1.38,1.86 -2.22,2.68c-0.82,0.82 -1.72,1.54 -2.69,2.19c-0.97,0.64 -2,1.18 -3.08,1.62c-1.08,0.44 -2.19,0.78 -3.34,1c-1.14,0.23 -2.3,0.34 -3.47,0.34c-1.17,0 -2.33,-0.11 -3.47,-0.34c-1.15,-0.22 -2.26,-0.56 -3.34,-1c-1.08,-0.44 -2.11,-0.98 -3.08,-1.62c-0.97,-0.65 -1.87,-1.37 -2.7,-2.19c-0.83,-0.82 -1.56,-1.71 -2.21,-2.68c-0.65,-0.95 -1.19,-1.97 -1.65,-3.03c-0.44,-1.07 -0.78,-2.17 -1.01,-3.31c-0.23,-1.13 -0.34,-2.27 -0.34,-3.43c0,-1.16 0.11,-2.3 0.34,-3.44c0.23,-1.13 0.57,-2.22 1.01,-3.29c0.46,-1.07 1,-2.09 1.65,-3.05c0.65,-0.96 1.38,-1.85 2.21,-2.66c0.83,-0.82 1.73,-1.55 2.7,-2.19c0.97,-0.64 2,-1.19 3.08,-1.63c1.08,-0.44 2.19,-0.77 3.34,-1c1.14,-0.23 2.3,-0.34 3.47,-0.34c1.17,0 2.33,0.11 3.47,0.34c1.15,0.23 2.26,0.56 3.34,1c1.08,0.44 2.11,0.99 3.08,1.63c0.97,0.64 1.87,1.37 2.69,2.19c0.84,0.81 1.57,1.7 2.22,2.66c0.65,0.96 1.2,1.98 1.65,3.05c0.44,1.07 0.78,2.16 1.01,3.29c0.23,1.14 0.34,2.28 0.34,3.44zm0,0" fill="none" id="svg_225" stroke="#2056ff" stroke-linecap="round" stroke-linejoin="round" stroke-miterlimit="4" stroke-width="6" transform="matrix(0.501238, 0, 0, 0.501238, 196.307143, 244.649791)"/>
  <g clip-path="url(#206bb4f3f6)" id="svg_226">
   <path d="m116.1,66.3l-0.6,-0.1c-6,-1.3 -8.9,-8.2 -5.6,-13.4l0.3,-0.5c5.1,-8 -4.3,-17.3 -12.3,-12.2l-0.5,0.3c-5.2,3.3 -12.1,0.4 -13.5,-5.5l-0.1,-0.6c-2.1,-9.2 -15.4,-9.2 -17.5,0l-0.1,0.6c-1.4,6 -8.3,8.8 -13.5,5.5l-0.6,-0.4c-8.1,-5 -17.4,4.2 -12.3,12.2l0.3,0.5c3.3,5.2 0.4,12 -5.6,13.4l-0.6,0.1c-9.3,2.1 -9.3,15.2 0,17.3l0.6,0.1c6,1.4 8.9,8.2 5.6,13.4l-0.3,0.5c-5.1,8 4.3,17.3 12.3,12.2l0.5,-0.3c5.2,-3.3 12.1,-0.4 13.5,5.5l0.1,0.6c2.1,9.2 15.4,9.2 17.5,0l0.1,-0.6c1.4,-6 8.3,-8.8 13.5,-5.5l0.5,0.3c8.1,5 17.4,-4.2 12.3,-12.2l-0.3,-0.5c-3.3,-5.2 -0.4,-12 5.6,-13.4l0.6,-0.1c9.4,-1.9 9.4,-15.1 0.1,-17.2zm0,0" fill="none" id="svg_227" stroke="#032193" stroke-linecap="round" stroke-linejoin="round" stroke-miterlimit="4" stroke-width="6" transform="matrix(0.501238, 0, 0, 0.501238, 196.307143, 244.649791)"/>
  </g>
  <g fill="#3e9dff" id="svg_316">
   <g id="svg_317" transform="translate(110.293194, 312.865131)">
    <g id="svg_318"/>
   </g>
  </g>
  <g fill="#13329b" id="svg_335">
   <g id="svg_336" transform="translate(42.542988, 334.592282)">
    <g id="svg_337"/>
   </g>
  </g>
  <g fill="#13329b" id="svg_366">
   <g id="svg_367" transform="translate(99.945171, 334.592282)">
    <g id="svg_368"/>
   </g>
  </g>
  <g fill="#13329b" id="svg_425">
   <g id="svg_426" transform="translate(109.894753, 356.319434)">
    <g id="svg_427"/>
   </g>
  </g>
  <g fill="#3e9dff" id="svg_552">
   <g id="svg_553" transform="translate(264.216004, 378.039386)">
    <g id="svg_554"/>
   </g>
  </g>
  <g fill="#13329b" id="svg_683">
   <g id="svg_684" transform="translate(262.227922, 443.220841)">
    <g id="svg_685"/>
   </g>
  </g>
  <g fill="#13329b" id="svg_690">
   <g id="svg_691" transform="translate(276.030351, 443.220841)">
    <g id="svg_692"/>
   </g>
  </g>
  <g fill="#3e9dff" id="svg_793">
   <g id="svg_794" transform="translate(501.620683, 378.788598)">
    <g id="svg_795"/>
   </g>
  </g>
  <g fill="#3e9dff" id="svg_820">
   <g id="svg_821" transform="translate(558.543507, 378.788598)">
    <g id="svg_822"/>
   </g>
  </g>
  <g fill="#13329b" id="svg_855">
   <g id="svg_856" transform="translate(536.401509, 400.51575)">
    <g id="svg_857"/>
   </g>
  </g>
  <g fill="#13329b" id="svg_870">
   <g id="svg_871" transform="translate(569.16374, 400.51575)">
    <g id="svg_872"/>
   </g>
  </g>
  <g fill="#13329b" id="svg_961">
   <g id="svg_962" transform="translate(562.184987, 443.970053)">
    <g id="svg_963"/>
   </g>
  </g>
  <g fill="#13329b" id="svg_980">
   <g id="svg_981" transform="translate(499.491974, 465.697205)">
    <g id="svg_982"/>
   </g>
  </g>
  <g fill="#3e9dff" id="svg_1035">
   <g id="svg_1036" transform="translate(697.746221, 297.827417)">
    <g id="svg_1037"/>
   </g>
  </g>
  <g fill="#3e9dff" id="svg_1114">
   <g id="svg_1115" transform="translate(712.286476, 341.281721)">
    <g id="svg_1116"/>
   </g>
  </g>
  <g fill="#13329b" id="svg_1169">
   <g id="svg_1170" transform="translate(630.076839, 384.736024)">
    <g id="svg_1171"/>
   </g>
  </g>
  <g fill="#13329b" id="svg_1188">
   <g id="svg_1189" transform="translate(670.903858, 384.736024)">
    <g id="svg_1190"/>
   </g>
  </g>
  <g fill="#13329b" id="svg_1251">
   <g id="svg_1252" transform="translate(696.182302, 406.463175)">
    <g id="svg_1253"/>
   </g>
  </g>
  <g fill="#13329b" id="svg_1342">
   <g id="svg_1343" transform="translate(413.197353, 312.865131)">
    <g id="svg_1344"/>
   </g>
  </g>
  <g fill="#13329b" id="svg_1397">
   <g id="svg_1398" transform="translate(408.925222, 356.319434)">
    <g id="svg_1399"/>
   </g>
  </g>
  <g fill="#13329b" id="svg_1460">
   <g id="svg_1461" transform="translate(344.670886, 399.773737)">
    <g id="svg_1462"/>
   </g>
  </g>
  <g fill="#13329b" id="svg_1475">
   <g id="svg_1476" transform="translate(374.202929, 399.773737)">
    <g id="svg_1477"/>
   </g>
  </g>
  <g fill="#3e9dff" id="svg_1506">
   <g id="svg_1507" transform="translate(179.835489, 41.985145)">
    <g id="svg_1508">
     <path d="m15.09,-17.08c-0.09,-0.94 -0.5,-1.68 -1.21,-2.2c-0.72,-0.52 -1.67,-0.78 -2.88,-0.78c-1.25,0 -2.21,0.26 -2.87,0.76c-0.66,0.5 -0.99,1.14 -0.99,1.91c-0.01,0.87 0.36,1.51 1.11,1.95c0.75,0.44 1.64,0.78 2.69,1.03l2.15,0.52c1.39,0.31 2.62,0.76 3.71,1.36c1.08,0.58 1.93,1.34 2.54,2.28c0.63,0.94 0.94,2.07 0.94,3.41c-0.01,2.18 -0.83,3.93 -2.47,5.23c-1.63,1.31 -3.92,1.95 -6.84,1.95c-2.91,0 -5.23,-0.66 -6.97,-1.98c-1.73,-1.33 -2.62,-3.3 -2.69,-5.89l4.91,0c0.08,1.21 0.55,2.12 1.42,2.72c0.86,0.6 1.95,0.9 3.27,0.9c1.29,0 2.32,-0.27 3.09,-0.81c0.77,-0.55 1.16,-1.26 1.16,-2.14c0,-0.81 -0.36,-1.44 -1.07,-1.87c-0.7,-0.44 -1.7,-0.82 -3,-1.13l-2.62,-0.66c-2.02,-0.47 -3.62,-1.24 -4.78,-2.29c-1.17,-1.07 -1.75,-2.48 -1.75,-4.24c0,-1.44 0.39,-2.71 1.17,-3.79c0.78,-1.1 1.86,-1.95 3.23,-2.55c1.38,-0.61 2.94,-0.92 4.69,-0.92c1.78,0 3.33,0.31 4.66,0.92c1.33,0.6 2.36,1.45 3.11,2.55c0.75,1.08 1.13,2.34 1.15,3.76l-4.86,0zm0,0" id="svg_1509"/>
    </g>
   </g>
   <g id="svg_1510" transform="translate(201.422162, 41.985145)">
    <g id="svg_1511">
     <path d="m2.08,0l0,-23.98l16.15,0l0,4.18l-11.07,0l0,5.72l10.25,0l0,4.17l-10.25,0l0,5.74l11.12,0l0,4.17l-16.2,0zm0,0" id="svg_1512"/>
    </g>
   </g>
   <g id="svg_1513" transform="translate(221.615771, 41.985145)">
    <g id="svg_1514">
     <path d="m2.08,0l0,-23.98l9.47,0c2.72,0 4.83,0.71 6.33,2.14c1.5,1.41 2.26,3.32 2.26,5.7c0,1.64 -0.37,3.04 -1.09,4.2c-0.73,1.16 -1.78,2.03 -3.14,2.63l5.07,9.31l-5.59,0l-4.53,-8.5l-3.7,0l0,8.5l-5.08,0zm5.08,-12.58l3.43,0c2.89,0 4.33,-1.19 4.33,-3.56c0,-2.46 -1.45,-3.69 -4.34,-3.69l-3.42,0l0,7.25zm0,0" id="svg_1515"/>
    </g>
   </g>
   <g id="svg_1516" transform="translate(243.249271, 41.985145)">
    <g id="svg_1517">
     <path d="m6.42,-23.98l5.8,18.21l0.22,0l5.79,-18.21l5.63,0l-8.27,23.98l-6.53,0l-8.28,-23.98l5.64,0zm0,0" id="svg_1518"/>
    </g>
   </g>
   <g id="svg_1519" transform="translate(267.903033, 41.985145)">
    <g id="svg_1520">
     <path d="m7.16,-23.98l0,23.98l-5.08,0l0,-23.98l5.08,0zm0,0" id="svg_1521"/>
    </g>
   </g>
   <g id="svg_1522" transform="translate(277.151119, 41.985145)">
    <g id="svg_1523">
     <path d="m23.23,-15.58l-5.12,0c-0.2,-1.32 -0.76,-2.36 -1.69,-3.11c-0.93,-0.76 -2.08,-1.14 -3.47,-1.14c-1.86,0 -3.36,0.69 -4.48,2.05c-1.12,1.37 -1.67,3.3 -1.67,5.8c0,2.55 0.56,4.49 1.68,5.82c1.14,1.34 2.61,2 4.43,2c1.35,0 2.5,-0.35 3.43,-1.06c0.94,-0.71 1.53,-1.69 1.77,-2.97l5.12,0.02c-0.18,1.47 -0.69,2.85 -1.56,4.15c-0.87,1.3 -2.04,2.34 -3.53,3.14c-1.49,0.81 -3.26,1.21 -5.31,1.21c-2.14,0 -4.05,-0.49 -5.74,-1.46c-1.68,-0.96 -3,-2.36 -3.98,-4.2c-0.97,-1.83 -1.45,-4.05 -1.45,-6.65c0,-2.62 0.48,-4.84 1.47,-6.68c0.98,-1.83 2.32,-3.23 4.01,-4.2c1.69,-0.97 3.58,-1.45 5.69,-1.45c1.85,0 3.52,0.34 5,1.03c1.49,0.69 2.71,1.68 3.65,2.98c0.95,1.3 1.54,2.87 1.75,4.72zm0,0" id="svg_1524"/>
    </g>
   </g>
   <g id="svg_1525" transform="translate(301.945358, 41.985145)">
    <g id="svg_1526">
     <path d="m7.16,-23.98l0,23.98l-5.08,0l0,-23.98l5.08,0zm0,0" id="svg_1527"/>
    </g>
   </g>
   <g id="svg_1528" transform="translate(311.193445, 41.985145)">
    <g id="svg_1529">
     <path d="m24.13,-11.98c0,2.61 -0.5,4.84 -1.49,6.67c-0.99,1.83 -2.34,3.23 -4.03,4.2c-1.69,0.96 -3.59,1.44 -5.72,1.44c-2.14,0 -4.05,-0.49 -5.75,-1.46c-1.69,-0.96 -3.03,-2.36 -4.01,-4.2c-0.99,-1.84 -1.47,-4.06 -1.47,-6.65c0,-2.62 0.48,-4.84 1.47,-6.68c0.98,-1.83 2.32,-3.23 4.01,-4.2c1.7,-0.97 3.61,-1.45 5.75,-1.45c2.13,0 4.03,0.48 5.72,1.45c1.69,0.97 3.04,2.37 4.03,4.2c0.99,1.84 1.49,4.06 1.49,6.68zm-5.15,0c0,-2.56 -0.55,-4.5 -1.67,-5.83c-1.1,-1.35 -2.58,-2.02 -4.42,-2.02c-1.84,0 -3.32,0.67 -4.44,2.02c-1.1,1.33 -1.65,3.27 -1.65,5.83c0,2.53 0.55,4.46 1.65,5.81c1.12,1.34 2.6,2.01 4.44,2.01c1.84,0 3.32,-0.67 4.42,-2.01c1.12,-1.35 1.67,-3.28 1.67,-5.81zm0,0" id="svg_1530"/>
    </g>
   </g>
   <g id="svg_1531" transform="translate(336.971024, 41.985145)">
    <g id="svg_1532">
     <path d="m15.09,-17.08c-0.09,-0.94 -0.5,-1.68 -1.21,-2.2c-0.72,-0.52 -1.67,-0.78 -2.88,-0.78c-1.25,0 -2.21,0.26 -2.87,0.76c-0.66,0.5 -0.99,1.14 -0.99,1.91c-0.01,0.87 0.36,1.51 1.11,1.95c0.75,0.44 1.64,0.78 2.69,1.03l2.15,0.52c1.39,0.31 2.62,0.76 3.71,1.36c1.08,0.58 1.93,1.34 2.54,2.28c0.63,0.94 0.94,2.07 0.94,3.41c-0.01,2.18 -0.83,3.93 -2.47,5.23c-1.63,1.31 -3.92,1.95 -6.84,1.95c-2.91,0 -5.23,-0.66 -6.97,-1.98c-1.73,-1.33 -2.62,-3.3 -2.69,-5.89l4.91,0c0.08,1.21 0.55,2.12 1.42,2.72c0.86,0.6 1.95,0.9 3.27,0.9c1.29,0 2.32,-0.27 3.09,-0.81c0.77,-0.55 1.16,-1.26 1.16,-2.14c0,-0.81 -0.36,-1.44 -1.07,-1.87c-0.7,-0.44 -1.7,-0.82 -3,-1.13l-2.62,-0.66c-2.02,-0.47 -3.62,-1.24 -4.78,-2.29c-1.17,-1.07 -1.75,-2.48 -1.75,-4.24c0,-1.44 0.39,-2.71 1.17,-3.79c0.78,-1.1 1.86,-1.95 3.23,-2.55c1.38,-0.61 2.94,-0.92 4.69,-0.92c1.78,0 3.33,0.31 4.66,0.92c1.33,0.6 2.36,1.45 3.11,2.55c0.75,1.08 1.13,2.34 1.15,3.76l-4.86,0zm0,0" id="svg_1533"/>
    </g>
   </g>
  </g>
  <g fill="#13329b" id="svg_1534">
   <g id="svg_1535" transform="translate(358.557703, 41.985145)">
    <g id="svg_1536"/>
   </g>
   <g id="svg_1537" transform="translate(366.202008, 41.985145)">
    <g id="svg_1538">
     <path d="m7.16,-23.98l0,23.98l-5.08,0l0,-23.98l5.08,0zm0,0" id="svg_1539"/>
    </g>
   </g>
   <g id="svg_1540" transform="translate(375.450095, 41.985145)">
    <g id="svg_1541">
     <path d="m22.14,-23.98l0,23.98l-4.37,0l-10.44,-15.09l-0.17,0l0,15.09l-5.08,0l0,-23.98l4.45,0l10.35,15.09l0.21,0l0,-15.09l5.05,0zm0,0" id="svg_1542"/>
    </g>
   </g>
   <g id="svg_1543" transform="translate(399.682424, 41.985145)">
    <g id="svg_1544">
     <path d="m23.23,-15.58l-5.12,0c-0.2,-1.32 -0.76,-2.36 -1.69,-3.11c-0.93,-0.76 -2.08,-1.14 -3.47,-1.14c-1.86,0 -3.36,0.69 -4.48,2.05c-1.12,1.37 -1.67,3.3 -1.67,5.8c0,2.55 0.56,4.49 1.68,5.82c1.14,1.34 2.61,2 4.43,2c1.35,0 2.5,-0.35 3.43,-1.06c0.94,-0.71 1.53,-1.69 1.77,-2.97l5.12,0.02c-0.18,1.47 -0.69,2.85 -1.56,4.15c-0.87,1.3 -2.04,2.34 -3.53,3.14c-1.49,0.81 -3.26,1.21 -5.31,1.21c-2.14,0 -4.05,-0.49 -5.74,-1.46c-1.68,-0.96 -3,-2.36 -3.98,-4.2c-0.97,-1.83 -1.45,-4.05 -1.45,-6.65c0,-2.62 0.48,-4.84 1.47,-6.68c0.98,-1.83 2.32,-3.23 4.01,-4.2c1.69,-0.97 3.58,-1.45 5.69,-1.45c1.85,0 3.52,0.34 5,1.03c1.49,0.69 2.71,1.68 3.65,2.98c0.95,1.3 1.54,2.87 1.75,4.72zm0,0" id="svg_1545"/>
    </g>
   </g>
   <g id="svg_1546" transform="translate(424.476663, 41.985145)">
    <g id="svg_1547">
     <path d="m2.08,0l0,-23.98l5.08,0l0,19.81l10.28,0l0,4.17l-15.36,0zm0,0" id="svg_1548"/>
    </g>
   </g>
   <g id="svg_1549" transform="translate(443.183554, 41.985145)">
    <g id="svg_1550">
     <path d="m16.92,-23.98l5.05,0l0,15.85c0,1.82 -0.43,3.36 -1.28,4.61c-0.86,1.27 -2.03,2.22 -3.53,2.88c-1.5,0.66 -3.2,0.98 -5.13,0.98c-1.94,0 -3.65,-0.32 -5.15,-0.98c-1.5,-0.66 -2.68,-1.61 -3.54,-2.88c-0.84,-1.25 -1.26,-2.79 -1.26,-4.61l0,-15.85l5.08,0l0,15.68c0,1.28 0.45,2.3 1.37,3.03c0.93,0.73 2.1,1.1 3.5,1.1c1.42,0 2.58,-0.37 3.5,-1.1c0.93,-0.73 1.39,-1.75 1.39,-3.03l0,-15.68zm0,0" id="svg_1551"/>
    </g>
   </g>
   <g id="svg_1552" transform="translate(467.22858, 41.985145)">
    <g id="svg_1553">
     <path d="m7.16,-23.98l0,23.98l-5.08,0l0,-23.98l5.08,0zm0,0" id="svg_1554"/>
    </g>
   </g>
   <g id="svg_1555" transform="translate(476.476667, 41.985145)">
    <g id="svg_1556">
     <path d="m10.58,0l-8.5,0l0,-23.98l8.58,0c2.4,0 4.47,0.48 6.22,1.43c1.75,0.96 3.09,2.34 4.03,4.13c0.93,1.78 1.4,3.92 1.4,6.4c0,2.5 -0.47,4.66 -1.4,6.46c-0.94,1.79 -2.29,3.17 -4.05,4.12c-1.75,0.96 -3.84,1.44 -6.28,1.44zm-3.42,-4.34l3.22,0c2.25,0 3.95,-0.61 5.12,-1.83c1.16,-1.22 1.75,-3.17 1.75,-5.85c0,-2.65 -0.59,-4.58 -1.75,-5.79c-1.17,-1.22 -2.87,-1.83 -5.11,-1.83l-3.23,0l0,15.3zm0,0" id="svg_1557"/>
    </g>
   </g>
   <g id="svg_1558" transform="translate(500.451454, 41.985145)">
    <g id="svg_1559">
     <path d="m24.13,-11.98c0,2.61 -0.5,4.84 -1.49,6.67c-0.99,1.83 -2.34,3.23 -4.03,4.2c-1.69,0.96 -3.59,1.44 -5.72,1.44c-2.14,0 -4.05,-0.49 -5.75,-1.46c-1.69,-0.96 -3.03,-2.36 -4.01,-4.2c-0.99,-1.84 -1.47,-4.06 -1.47,-6.65c0,-2.62 0.48,-4.84 1.47,-6.68c0.98,-1.83 2.32,-3.23 4.01,-4.2c1.7,-0.97 3.61,-1.45 5.75,-1.45c2.13,0 4.03,0.48 5.72,1.45c1.69,0.97 3.04,2.37 4.03,4.2c0.99,1.84 1.49,4.06 1.49,6.68zm-5.15,0c0,-2.56 -0.55,-4.5 -1.67,-5.83c-1.1,-1.35 -2.58,-2.02 -4.42,-2.02c-1.84,0 -3.32,0.67 -4.44,2.02c-1.1,1.33 -1.65,3.27 -1.65,5.83c0,2.53 0.55,4.46 1.65,5.81c1.12,1.34 2.6,2.01 4.44,2.01c1.84,0 3.32,-0.67 4.42,-2.01c1.12,-1.35 1.67,-3.28 1.67,-5.81zm0,0" id="svg_1560"/>
    </g>
   </g>
   <g id="svg_1561" transform="translate(526.229033, 41.985145)">
    <g id="svg_1562">
     <path d="m15.09,-17.08c-0.09,-0.94 -0.5,-1.68 -1.21,-2.2c-0.72,-0.52 -1.67,-0.78 -2.88,-0.78c-1.25,0 -2.21,0.26 -2.87,0.76c-0.66,0.5 -0.99,1.14 -0.99,1.91c-0.01,0.87 0.36,1.51 1.11,1.95c0.75,0.44 1.64,0.78 2.69,1.03l2.15,0.52c1.39,0.31 2.62,0.76 3.71,1.36c1.08,0.58 1.93,1.34 2.54,2.28c0.63,0.94 0.94,2.07 0.94,3.41c-0.01,2.18 -0.83,3.93 -2.47,5.23c-1.63,1.31 -3.92,1.95 -6.84,1.95c-2.91,0 -5.23,-0.66 -6.97,-1.98c-1.73,-1.33 -2.62,-3.3 -2.69,-5.89l4.91,0c0.08,1.21 0.55,2.12 1.42,2.72c0.86,0.6 1.95,0.9 3.27,0.9c1.29,0 2.32,-0.27 3.09,-0.81c0.77,-0.55 1.16,-1.26 1.16,-2.14c0,-0.81 -0.36,-1.44 -1.07,-1.87c-0.7,-0.44 -1.7,-0.82 -3,-1.13l-2.62,-0.66c-2.02,-0.47 -3.62,-1.24 -4.78,-2.29c-1.17,-1.07 -1.75,-2.48 -1.75,-4.24c0,-1.44 0.39,-2.71 1.17,-3.79c0.78,-1.1 1.86,-1.95 3.23,-2.55c1.38,-0.61 2.94,-0.92 4.69,-0.92c1.78,0 3.33,0.31 4.66,0.92c1.33,0.6 2.36,1.45 3.11,2.55c0.75,1.08 1.13,2.34 1.15,3.76l-4.86,0zm0,0" id="svg_1563"/>
    </g>
   </g>
  </g>
  <g fill="#ffffff" id="svg_1564">
   <g id="svg_1565" transform="translate(60.92365, 113.28003)">
    <g id="svg_1566">
     <path d="m7.14,-14.44l0,14.44l-3.05,0l0,-10.7l-0.12,0c-0.16,0.24 -0.49,0.48 -0.99,0.72c-0.5,0.24 -1.15,0.35 -1.95,0.35l0,-2.42c0.61,0 1.16,-0.13 1.63,-0.4c0.47,-0.28 0.83,-0.61 1.09,-0.99c0.26,-0.37 0.39,-0.7 0.41,-1l2.98,0zm0,0" id="svg_1567"/>
    </g>
   </g>
  </g>
  <g fill="#ffffff" id="svg_1568">
   <g id="svg_1569" transform="translate(228.225644, 113.28003)">
    <g id="svg_1570">
     <path d="m1.17,0l0,-2.2l5.14,-4.75c0.66,-0.64 1.16,-1.18 1.5,-1.64c0.35,-0.47 0.52,-0.99 0.52,-1.57c0,-0.63 -0.22,-1.13 -0.64,-1.5c-0.42,-0.37 -0.95,-0.56 -1.58,-0.56c-0.66,0 -1.19,0.2 -1.59,0.61c-0.4,0.4 -0.6,0.94 -0.6,1.63l-2.89,0c0,-0.95 0.21,-1.77 0.64,-2.46c0.43,-0.69 1.02,-1.23 1.78,-1.61c0.77,-0.38 1.66,-0.58 2.68,-0.58c1.03,0 1.94,0.19 2.7,0.55c0.77,0.37 1.37,0.87 1.8,1.52c0.42,0.63 0.64,1.37 0.64,2.2c0,0.54 -0.11,1.08 -0.33,1.61c-0.21,0.53 -0.59,1.12 -1.14,1.77c-0.55,0.64 -1.31,1.42 -2.3,2.32l-2.11,2.07l0,0.09l6.06,0l0,2.5l-10.28,0zm0,0" id="svg_1571"/>
    </g>
   </g>
  </g>
  <g fill="#ffffff" id="svg_1572">
   <g id="svg_1573" transform="translate(373.116436, 113.28003)">
    <g id="svg_1574">
     <path d="m6.5,0.2c-1.05,0 -1.99,-0.18 -2.81,-0.54c-0.81,-0.37 -1.46,-0.87 -1.92,-1.5c-0.47,-0.65 -0.72,-1.39 -0.74,-2.24l3.06,0c0.04,0.53 0.27,0.95 0.72,1.28c0.46,0.33 1.03,0.49 1.71,0.49c0.69,0 1.26,-0.18 1.7,-0.53c0.44,-0.37 0.67,-0.84 0.67,-1.41c0,-0.58 -0.24,-1.05 -0.72,-1.42c-0.47,-0.38 -1.12,-0.56 -1.94,-0.56l-1.34,0l0,-2.25l1.34,0c0.7,0 1.27,-0.18 1.71,-0.52c0.44,-0.35 0.65,-0.81 0.64,-1.38c0.01,-0.55 -0.18,-0.99 -0.56,-1.32c-0.38,-0.35 -0.88,-0.52 -1.49,-0.52c-0.62,0 -1.16,0.17 -1.61,0.5c-0.44,0.34 -0.67,0.77 -0.69,1.31l-2.92,0c0.02,-0.82 0.26,-1.55 0.72,-2.18c0.46,-0.65 1.08,-1.15 1.86,-1.5c0.78,-0.36 1.66,-0.54 2.66,-0.54c1,0 1.86,0.19 2.61,0.55c0.75,0.36 1.33,0.84 1.75,1.45c0.41,0.62 0.61,1.31 0.61,2.07c0,0.81 -0.25,1.49 -0.75,2.03c-0.5,0.53 -1.16,0.87 -1.97,1.01l0,0.11c1.06,0.14 1.86,0.51 2.42,1.11c0.56,0.61 0.84,1.36 0.84,2.25c0,0.83 -0.24,1.56 -0.72,2.19c-0.46,0.64 -1.12,1.14 -1.96,1.52c-0.84,0.36 -1.8,0.54 -2.88,0.54zm0,0" id="svg_1575"/>
    </g>
   </g>
  </g>
  <g fill="#ffffff" id="svg_1576">
   <g id="svg_1577" transform="translate(514.463417, 113.28003)">
    <g id="svg_1578">
     <path d="m0.95,-2.53l0,-2.41l6.02,-9.5l3.83,0l0,9.46l1.78,0l0,2.45l-1.78,0l0,2.53l-2.92,0l0,-2.53l-6.93,0zm6.99,-2.45l0,-6.13l-0.11,0l-3.8,6.02l0,0.11l3.91,0zm0,0" id="svg_1579"/>
    </g>
   </g>
  </g>
  <g fill="#ffffff" id="svg_1580">
   <g id="svg_1581" transform="translate(658.749253, 113.28003)">
    <g id="svg_1582">
     <path d="m6.44,0.2c-0.99,0 -1.88,-0.18 -2.66,-0.54c-0.78,-0.38 -1.4,-0.88 -1.86,-1.52c-0.45,-0.64 -0.68,-1.38 -0.7,-2.22l2.95,0c0.04,0.56 0.28,1.02 0.71,1.36c0.43,0.34 0.95,0.52 1.56,0.52c0.72,0 1.3,-0.24 1.76,-0.71c0.46,-0.47 0.69,-1.07 0.69,-1.82c0,-0.76 -0.23,-1.38 -0.7,-1.85c-0.47,-0.47 -1.07,-0.72 -1.8,-0.73c-0.43,0 -0.84,0.09 -1.23,0.26c-0.39,0.18 -0.7,0.42 -0.93,0.72l-2.7,-0.5l0.69,-7.61l8.81,0l0,2.5l-6.3,0l-0.37,3.61l0.08,0c0.25,-0.35 0.63,-0.64 1.14,-0.87c0.52,-0.24 1.1,-0.36 1.73,-0.36c0.87,0 1.64,0.2 2.32,0.61c0.68,0.4 1.22,0.97 1.62,1.68c0.39,0.72 0.59,1.54 0.58,2.46c0.01,0.97 -0.22,1.83 -0.67,2.59c-0.45,0.75 -1.08,1.34 -1.89,1.78c-0.82,0.43 -1.76,0.64 -2.83,0.64zm0,0" id="svg_1583"/>
    </g>
   </g>
  </g>
 </g>
</svg>