<svg version="1.0" preserveAspectRatio="xMidYMid meet" viewBox="621.2843243243243 286.0269230769231 105.16756756756756 40.15384615384615" zoomAndPan="magnify" xmlns:xlink="http://www.w3.org/1999/xlink" xmlns="http://www.w3.org/2000/svg" style="max-height: 500px" width="105.16756756756756" height="40.15384615384615"><defs><clipPath id="26d5b64849"><path clip-rule="nonzero" d="M 624.757812 301.875 L 725.636719 301.875 L 725.636719 322.804688 L 624.757812 322.804688 Z M 624.757812 301.875"/></clipPath><clipPath id="4e35e4a3ab"><path clip-rule="nonzero" d="M 675.183594 301.875 C 647.335938 301.875 624.757812 306.5625 624.757812 312.339844 C 624.757812 318.117188 647.335938 322.804688 675.183594 322.804688 C 703.035156 322.804688 725.613281 318.117188 725.613281 312.339844 C 725.613281 306.5625 703.035156 301.875 675.183594 301.875 Z M 675.183594 301.875"/></clipPath><clipPath id="1b823f7d80"><path clip-rule="nonzero" d="M 624.757812 298.121094 L 725.613281 298.121094 L 725.613281 312.339844 L 624.757812 312.339844 Z M 624.757812 298.121094"/></clipPath><clipPath id="81c7b0cd28"><path clip-rule="nonzero" d="M 624.757812 289.539062 L 725.667969 289.539062 L 725.667969 306.703125 L 624.757812 306.703125 Z M 624.757812 289.539062"/></clipPath><clipPath id="80757c6051"><path clip-rule="nonzero" d="M 675.183594 289.539062 C 647.335938 289.539062 624.757812 293.382812 624.757812 298.121094 C 624.757812 302.863281 647.335938 306.703125 675.183594 306.703125 C 703.035156 306.703125 725.613281 302.863281 725.613281 298.121094 C 725.613281 293.382812 703.035156 289.539062 675.183594 289.539062 Z M 675.183594 289.539062"/></clipPath></defs><rect fill-opacity="1" height="691.2" y="-57.6" fill="#ffffff" width="921.6" x="-76.8"/><rect fill-opacity="1" height="691.2" y="-57.6" fill="#ffffff" width="921.6" x="-76.8"/><g clip-path="url(#26d5b64849)"><g clip-path="url(#4e35e4a3ab)"><path fill-rule="nonzero" fill-opacity="1" d="M 624.757812 301.875 L 725.636719 301.875 L 725.636719 322.804688 L 624.757812 322.804688 Z M 624.757812 301.875" fill="#3e9dff"/></g></g><g clip-path="url(#1b823f7d80)"><path fill-rule="nonzero" fill-opacity="1" d="M 624.757812 298.121094 L 725.613281 298.121094 L 725.613281 312.339844 L 624.757812 312.339844 Z M 624.757812 298.121094" fill="#3e9dff"/></g><g clip-path="url(#81c7b0cd28)"><g clip-path="url(#80757c6051)"><path fill-rule="nonzero" fill-opacity="1" d="M 624.757812 289.539062 L 725.601562 289.539062 L 725.601562 306.703125 L 624.757812 306.703125 Z M 624.757812 289.539062" fill="#b1d7ff"/></g></g></svg>