<svg version="1.0" preserveAspectRatio="xMidYMid meet" viewBox="642.8564210526316 233.95955056179776 64.67368421052632 71.19101123595506" zoomAndPan="magnify" xmlns:xlink="http://www.w3.org/1999/xlink" xmlns="http://www.w3.org/2000/svg" style="max-height: 500px" width="64.67368421052632" height="71.19101123595506"><defs><clipPath id="fb5d87d5b5"><path clip-rule="nonzero" d="M 684 279 L 698 279 L 698 292.835938 L 684 292.835938 Z M 684 279"/></clipPath><clipPath id="942f457db9"><path clip-rule="nonzero" d="M 652.28125 247.085938 L 693 247.085938 L 693 288 L 652.28125 288 Z M 652.28125 247.085938"/></clipPath></defs><g clip-path="url(#fb5d87d5b5)"><path stroke-miterlimit="10" stroke-opacity="1" stroke-width="6" stroke="#b1d7ff" d="M 114.002359 113.999889 L 94.899541 94.897071" stroke-linejoin="round" fill="none" transform="matrix(0.542705, 0, 0, 0.542705, 634.372582, 229.17861)" stroke-linecap="round"/></g><g clip-path="url(#942f457db9)"><path stroke-miterlimit="10" stroke-opacity="1" stroke-width="6" stroke="#13329b" d="M 104.997979 70.496712 C 104.997979 71.626758 104.947595 72.756804 104.832431 73.879652 C 104.724465 75.002501 104.558916 76.125349 104.335786 77.233802 C 104.119854 78.342255 103.839142 79.436312 103.515243 80.515974 C 103.184147 81.595636 102.802666 82.660903 102.370802 83.704576 C 101.938937 84.748249 101.456688 85.763131 100.924055 86.763618 C 100.391421 87.756907 99.815602 88.728603 99.1822 89.66431 C 98.555996 90.607214 97.886606 91.51413 97.166831 92.385058 C 96.454254 93.263183 95.691293 94.098121 94.892343 94.897071 C 94.093394 95.696021 93.258455 96.451784 92.387528 97.171559 C 91.516601 97.884136 90.609684 98.560724 89.66678 99.186928 C 88.731073 99.813132 87.759377 100.396149 86.766088 100.928782 C 85.765601 101.461415 84.743521 101.943664 83.699848 102.375529 C 82.656175 102.807394 81.598106 103.188875 80.511247 103.512773 C 79.431585 103.843869 78.337527 104.117384 77.229074 104.340514 C 76.120622 104.556446 75.004971 104.721994 73.882123 104.837158 C 72.759274 104.945125 71.629228 105.002707 70.499182 105.002707 C 69.369136 105.002707 68.246287 104.945125 67.116241 104.837158 C 65.993393 104.721994 64.877742 104.556446 63.769289 104.340514 C 62.660836 104.117384 61.566779 103.843869 60.487117 103.512773 C 59.407455 103.188875 58.342189 102.807394 57.298515 102.375529 C 56.254842 101.943664 55.232762 101.461415 54.239473 100.928782 C 53.238987 100.396149 52.274489 99.813132 51.331584 99.186928 C 50.395877 98.560724 49.488961 97.884136 48.610836 97.171559 C 47.739909 96.451784 46.90497 95.696021 46.10602 94.897071 C 45.30707 94.098121 44.551307 93.263183 43.831532 92.385058 C 43.111758 91.51413 42.442367 90.607214 41.816164 89.66431 C 41.18996 88.728603 40.606942 87.756907 40.074309 86.763618 C 39.541676 85.763131 39.059427 84.748249 38.627562 83.704576 C 38.195697 82.660903 37.814217 81.595636 37.48312 80.515974 C 37.159222 79.436312 36.885707 78.342255 36.662577 77.233802 C 36.439447 76.125349 36.273899 75.002501 36.165933 73.879652 C 36.057967 72.756804 36.000385 71.626758 36.000385 70.496712 C 36.000385 69.366665 36.057967 68.243817 36.165933 67.120969 C 36.273899 65.990923 36.439447 64.875272 36.662577 63.766819 C 36.885707 62.658366 37.159222 61.564309 37.48312 60.484647 C 37.814217 59.404985 38.195697 58.339718 38.627562 57.296045 C 39.059427 56.252372 39.541676 55.230292 40.074309 54.237003 C 40.606942 53.243714 41.18996 52.272018 41.816164 51.336311 C 42.442367 50.393407 43.111758 49.486491 43.831532 48.615563 C 44.551307 47.737438 45.30707 46.9025 46.10602 46.10355 C 46.90497 45.3046 47.739909 44.548837 48.610836 43.829062 C 49.488961 43.116485 50.395877 42.439897 51.331584 41.813693 C 52.274489 41.187489 53.238987 40.604472 54.239473 40.071839 C 55.232762 39.539206 56.254842 39.056957 57.298515 38.625092 C 58.342189 38.193227 59.407455 37.811746 60.487117 37.487848 C 61.566779 37.156752 62.660836 36.883237 63.769289 36.660107 C 64.877742 36.444175 65.993393 36.278627 67.116241 36.163463 C 68.246287 36.055496 69.369136 35.997914 70.499182 35.997914 C 71.629228 35.997914 72.759274 36.055496 73.882123 36.163463 C 75.004971 36.278627 76.120622 36.444175 77.229074 36.660107 C 78.337527 36.883237 79.431585 37.156752 80.511247 37.487848 C 81.598106 37.811746 82.656175 38.193227 83.699848 38.625092 C 84.743521 39.056957 85.765601 39.539206 86.766088 40.071839 C 87.759377 40.604472 88.731073 41.187489 89.66678 41.813693 C 90.609684 42.439897 91.516601 43.116485 92.387528 43.829062 C 93.258455 44.548837 94.093394 45.3046 94.892343 46.10355 C 95.691293 46.9025 96.454254 47.737438 97.166831 48.615563 C 97.886606 49.486491 98.555996 50.393407 99.1822 51.336311 C 99.815602 52.272018 100.391421 53.243714 100.924055 54.237003 C 101.456688 55.230292 101.938937 56.252372 102.370802 57.296045 C 102.802666 58.339718 103.184147 59.404985 103.515243 60.484647 C 103.839142 61.564309 104.119854 62.658366 104.335786 63.766819 C 104.558916 64.875272 104.724465 65.990923 104.832431 67.120969 C 104.947595 68.243817 104.997979 69.366665 104.997979 70.496712 Z M 104.997979 70.496712" stroke-linejoin="round" fill="none" transform="matrix(0.542705, 0, 0, 0.542705, 634.372582, 229.17861)" stroke-linecap="round"/></g><path stroke-miterlimit="10" stroke-opacity="1" stroke-width="6" stroke="#3e9dff" d="M 58.500539 83.999683 L 58.500539 70.201604" stroke-linejoin="round" fill="none" transform="matrix(0.542705, 0, 0, 0.542705, 634.372582, 229.17861)" stroke-linecap="round"/><path stroke-miterlimit="10" stroke-opacity="1" stroke-width="6" stroke="#3e9dff" d="M 70.499182 83.999683 L 70.499182 62.500016" stroke-linejoin="round" fill="none" transform="matrix(0.542705, 0, 0, 0.542705, 634.372582, 229.17861)" stroke-linecap="round"/><path stroke-miterlimit="10" stroke-opacity="1" stroke-width="6" stroke="#3e9dff" d="M 82.497825 83.999683 L 82.497825 57.000938" stroke-linejoin="round" fill="none" transform="matrix(0.542705, 0, 0, 0.542705, 634.372582, 229.17861)" stroke-linecap="round"/></svg>