<svg version="1.0" preserveAspectRatio="xMidYMid meet" viewBox="506.70702702702704 308.7346153846154 49.81621621621622 51.23076923076923" zoomAndPan="magnify" xmlns:xlink="http://www.w3.org/1999/xlink" xmlns="http://www.w3.org/2000/svg" style="max-height: 500px" width="49.81621621621622" height="51.23076923076923"><defs><clipPath id="9dc32913ae"><path clip-rule="nonzero" d="M 511 313.894531 L 550 313.894531 L 550 354 L 511 354 Z M 511 313.894531"/></clipPath><clipPath id="d778aac345"><path clip-rule="nonzero" d="M 533 335 L 554.0625 335 L 554.0625 355.894531 L 533 355.894531 Z M 533 335"/></clipPath><clipPath id="31ce1db981"><path clip-rule="nonzero" d="M 508.3125 323 L 519 323 L 519 327 L 508.3125 327 Z M 508.3125 323"/></clipPath><clipPath id="eede60569d"><path clip-rule="nonzero" d="M 508.3125 332 L 519 332 L 519 336 L 508.3125 336 Z M 508.3125 332"/></clipPath><clipPath id="471ff6290b"><path clip-rule="nonzero" d="M 508.3125 340 L 519 340 L 519 344 L 508.3125 344 Z M 508.3125 340"/></clipPath></defs><g clip-path="url(#9dc32913ae)"><path stroke-miterlimit="10" stroke-opacity="1" stroke-width="6" stroke="#13329b" d="M 99.496717 40.000155 L 46.501119 40.000155 C 44.797738 40.000155 43.503168 41.301095 43.503168 43.001266 L 43.503168 100.999811 C 43.503168 102.699982 44.797738 104.000923 46.501119 104.000923 L 99.496717 104.000923 C 101.200099 104.000923 102.501482 102.699982 102.501482 100.999811 L 102.501482 43.001266 C 102.501482 41.301095 101.200099 40.000155 99.496717 40.000155 Z M 99.496717 40.000155" stroke-linejoin="round" fill="none" transform="matrix(0.573308, 0, 0, 0.567498, 488.531932, 292.901552)" stroke-linecap="round"/></g><g clip-path="url(#d778aac345)"><path fill-rule="nonzero" fill-opacity="1" d="M 554.0625 345.679688 C 554.0625 346.347656 553.996094 347.015625 553.863281 347.671875 C 553.730469 348.328125 553.535156 348.96875 553.277344 349.589844 C 553.015625 350.207031 552.699219 350.796875 552.320312 351.355469 C 551.945312 351.910156 551.519531 352.425781 551.039062 352.902344 C 550.558594 353.375 550.039062 353.800781 549.476562 354.171875 C 548.910156 354.546875 548.316406 354.859375 547.691406 355.117188 C 547.066406 355.371094 546.417969 355.566406 545.753906 355.699219 C 545.089844 355.828125 544.417969 355.894531 543.742188 355.894531 C 543.0625 355.894531 542.394531 355.828125 541.726562 355.699219 C 541.0625 355.566406 540.417969 355.371094 539.792969 355.117188 C 539.167969 354.859375 538.570312 354.546875 538.007812 354.171875 C 537.445312 353.800781 536.921875 353.375 536.445312 352.902344 C 535.964844 352.425781 535.539062 351.910156 535.160156 351.355469 C 534.785156 350.796875 534.46875 350.207031 534.207031 349.589844 C 533.949219 348.96875 533.753906 348.328125 533.621094 347.671875 C 533.488281 347.015625 533.421875 346.347656 533.421875 345.679688 C 533.421875 345.007812 533.488281 344.34375 533.621094 343.6875 C 533.753906 343.027344 533.949219 342.390625 534.207031 341.769531 C 534.46875 341.148438 534.785156 340.5625 535.160156 340.003906 C 535.539062 339.445312 535.964844 338.929688 536.445312 338.457031 C 536.921875 337.980469 537.445312 337.558594 538.007812 337.183594 C 538.570312 336.8125 539.167969 336.5 539.792969 336.242188 C 540.417969 335.984375 541.0625 335.792969 541.726562 335.660156 C 542.394531 335.53125 543.0625 335.464844 543.742188 335.464844 C 544.417969 335.464844 545.089844 335.53125 545.753906 335.660156 C 546.417969 335.792969 547.066406 335.984375 547.691406 336.242188 C 548.316406 336.5 548.910156 336.8125 549.476562 337.183594 C 550.039062 337.558594 550.558594 337.980469 551.039062 338.457031 C 551.519531 338.929688 551.945312 339.445312 552.320312 340.003906 C 552.699219 340.5625 553.015625 341.148438 553.277344 341.769531 C 553.535156 342.390625 553.730469 343.027344 553.863281 343.6875 C 553.996094 344.34375 554.0625 345.007812 554.0625 345.679688 Z M 554.0625 345.679688" fill="#3e9dff"/></g><g clip-path="url(#31ce1db981)"><path stroke-miterlimit="10" stroke-opacity="1" stroke-width="6" stroke="#13329b" d="M 37.500453 57.001864 L 49.499071 57.001864" stroke-linejoin="round" fill="none" transform="matrix(0.573308, 0, 0, 0.567498, 488.531932, 292.901552)" stroke-linecap="round"/></g><g clip-path="url(#eede60569d)"><path stroke-miterlimit="10" stroke-opacity="1" stroke-width="6" stroke="#13329b" d="M 37.500453 72.000539 L 49.499071 72.000539" stroke-linejoin="round" fill="none" transform="matrix(0.573308, 0, 0, 0.567498, 488.531932, 292.901552)" stroke-linecap="round"/></g><g clip-path="url(#471ff6290b)"><path stroke-miterlimit="10" stroke-opacity="1" stroke-width="6" stroke="#13329b" d="M 37.500453 86.999213 L 49.499071 86.999213" stroke-linejoin="round" fill="none" transform="matrix(0.573308, 0, 0, 0.567498, 488.531932, 292.901552)" stroke-linecap="round"/></g><path stroke-miterlimit="10" stroke-opacity="1" stroke-width="6" stroke="#b1d7ff" d="M 61.497688 56.203404 L 64.502453 61.999128 L 76.50107 53.002677" stroke-linejoin="round" fill="none" transform="matrix(0.573308, 0, 0, 0.567498, 488.531932, 292.901552)" stroke-linecap="round"/><path stroke-miterlimit="10" stroke-opacity="1" stroke-width="6" stroke="#b1d7ff" d="M 61.497688 72.702634 L 64.502453 78.498358 L 76.50107 69.501907" stroke-linejoin="round" fill="none" transform="matrix(0.573308, 0, 0, 0.567498, 488.531932, 292.901552)" stroke-linecap="round"/><path stroke-miterlimit="10" stroke-opacity="1" stroke-width="6" stroke="#ffffff" d="M 94.802199 85.202676 L 94.802199 94.302377 L 104.300252 94.302377" stroke-linejoin="round" fill="none" transform="matrix(0.573308, 0, 0, 0.567498, 488.531932, 292.901552)" stroke-linecap="round"/></svg>