<svg xmlns="http://www.w3.org/2000/svg" xmlns:xlink="http://www.w3.org/1999/xlink" width="1024" zoomAndPan="magnify" viewBox="0 0 768 576" height="768" preserveAspectRatio="xMidYMid meet" version="1.0"><defs><clipPath id="577b9a4938"><path d="M 65 247.050781 L 87 247.050781 L 87 291 L 65 291 Z M 65 247.050781 " clip-rule="nonzero"/></clipPath><clipPath id="b31f0eb172"><path d="M 54.625 247.050781 L 98 247.050781 L 98 291 L 54.625 291 Z M 54.625 247.050781 " clip-rule="nonzero"/></clipPath><clipPath id="d3d0c3f232"><path d="M 91 284 L 103.375 284 L 103.375 295.800781 L 91 295.800781 Z M 91 284 " clip-rule="nonzero"/></clipPath></defs><rect x="-76.8" width="921.6" fill="#ffffff" y="-57.6" height="691.2" fill-opacity="1"/><rect x="-76.8" width="921.6" fill="#ffffff" y="-57.6" height="691.2" fill-opacity="1"/><g clip-path="url(#577b9a4938)"><path stroke-linecap="round" transform="matrix(0.578292, 0, 0, 0.578292, 35.5414, 227.967258)" fill="none" stroke-linejoin="round" d="M 85.700963 70.502512 C 85.700963 72.765373 85.599641 75.007969 85.410506 77.230301 C 85.214617 79.452633 84.92416 81.607417 84.545891 83.701407 C 84.160867 85.795398 83.694785 87.781311 83.140891 89.665903 C 82.586996 91.550494 81.952044 93.293235 81.249544 94.894124 C 80.54029 96.495014 79.776996 97.927033 78.946155 99.183427 C 78.115313 100.446576 77.237188 101.507081 76.318534 102.371697 C 75.393126 103.243067 74.447453 103.898283 73.468005 104.337346 C 72.488558 104.776408 71.495602 104.999317 70.502645 104.999317 C 69.502933 104.999317 68.516731 104.776408 67.537284 104.337346 C 66.557837 103.898283 65.605409 103.243067 64.68 102.371697 C 63.761346 101.507081 62.883221 100.446576 62.05238 99.183427 C 61.228293 97.927033 60.458245 96.495014 59.74899 94.894124 C 59.04649 93.293235 58.418293 91.550494 57.864399 89.665903 C 57.310505 87.781311 56.837668 85.795398 56.459399 83.701407 C 56.074375 81.607417 55.783918 79.452633 55.594783 77.230301 C 55.398894 75.007969 55.297572 72.765373 55.297572 70.502512 C 55.297572 68.232897 55.398894 65.9903 55.594783 63.767969 C 55.783918 61.545637 56.074375 59.390853 56.459399 57.296862 C 56.837668 55.202872 57.310505 53.216958 57.864399 51.332367 C 58.418293 49.447775 59.04649 47.705035 59.74899 46.104146 C 60.458245 44.503256 61.228293 43.071237 62.05238 41.814842 C 62.883221 40.558448 63.761346 39.491188 64.68 38.626573 C 65.605409 37.761958 66.557837 37.106741 67.537284 36.660924 C 68.516731 36.221861 69.502933 35.998953 70.502645 35.998953 C 71.495602 35.998953 72.488558 36.221861 73.468005 36.660924 C 74.447453 37.106741 75.393126 37.761958 76.318534 38.626573 C 77.237188 39.491188 78.115313 40.558448 78.946155 41.814842 C 79.776996 43.071237 80.54029 44.503256 81.249544 46.104146 C 81.952044 47.705035 82.586996 49.447775 83.140891 51.332367 C 83.694785 53.216958 84.160867 55.202872 84.545891 57.296862 C 84.92416 59.390853 85.214617 61.545637 85.410506 63.767969 C 85.599641 65.9903 85.700963 68.232897 85.700963 70.502512 Z M 85.700963 70.502512 " stroke="#b1d7ff" stroke-width="6" stroke-opacity="1" stroke-miterlimit="10"/></g><path stroke-linecap="round" transform="matrix(0.578292, 0, 0, 0.578292, 35.5414, 227.967258)" fill="none" stroke-linejoin="round" d="M 101.898993 56.999651 L 39.099542 56.999651 " stroke="#b1d7ff" stroke-width="6" stroke-opacity="1" stroke-miterlimit="10"/><path stroke-linecap="round" transform="matrix(0.578292, 0, 0, 0.578292, 35.5414, 227.967258)" fill="none" stroke-linejoin="round" d="M 101.898993 83.998619 L 39.099542 83.998619 " stroke="#b1d7ff" stroke-width="6" stroke-opacity="1" stroke-miterlimit="10"/><g clip-path="url(#b31f0eb172)"><path stroke-linecap="round" transform="matrix(0.578292, 0, 0, 0.578292, 35.5414, 227.967258)" fill="none" stroke-linejoin="round" d="M 104.999449 70.502512 C 104.999449 71.630565 104.945411 72.758618 104.830579 73.879916 C 104.722502 75.007969 104.560387 76.122512 104.337478 77.230301 C 104.11457 78.33809 103.844377 79.432368 103.513392 80.513138 C 103.189161 81.593907 102.804137 82.661167 102.371829 83.701407 C 101.939521 84.748402 101.45993 85.768378 100.9263 86.761335 C 100.39267 87.761047 99.811757 88.726984 99.18356 89.665903 C 98.555363 90.604821 97.886637 91.509965 97.170627 92.38809 C 96.454617 93.259461 95.691324 94.097057 94.894257 94.894124 C 94.097189 95.691191 93.259593 96.454485 92.388223 97.170494 C 91.510098 97.886504 90.604954 98.55523 89.666035 99.183427 C 88.727117 99.811624 87.761179 100.392538 86.761468 100.926168 C 85.768511 101.459798 84.748535 101.939389 83.70154 102.371697 C 82.661299 102.804004 81.59404 103.189028 80.51327 103.513259 C 79.432501 103.844245 78.338222 104.114437 77.230434 104.337346 C 76.122645 104.560254 75.008102 104.72237 73.880049 104.837202 C 72.758751 104.945278 71.630698 104.999317 70.502645 104.999317 C 69.367837 104.999317 68.239784 104.945278 67.118486 104.837202 C 65.997188 104.72237 64.87589 104.560254 63.768101 104.337346 C 62.660313 104.114437 61.566034 103.844245 60.485264 103.513259 C 59.404495 103.189028 58.34399 102.804004 57.296995 102.371697 C 56.256755 101.939389 55.230024 101.459798 54.237067 100.926168 C 53.237355 100.392538 52.271418 99.811624 51.332499 99.183427 C 50.393581 98.55523 49.488437 97.886504 48.610312 97.170494 C 47.738942 96.454485 46.901345 95.691191 46.104278 94.894124 C 45.307211 94.097057 44.550672 93.259461 43.827908 92.38809 C 43.111898 91.509965 42.443172 90.604821 41.814975 89.665903 C 41.186778 88.726984 40.605864 87.761047 40.072234 86.761335 C 39.538605 85.768378 39.059013 84.748402 38.626706 83.701407 C 38.194398 82.661167 37.816129 81.593907 37.485143 80.513138 C 37.160912 79.432368 36.883965 78.33809 36.661056 77.230301 C 36.444903 76.122512 36.276032 75.007969 36.167955 73.879916 C 36.053124 72.758618 35.999085 71.630565 35.999085 70.502512 C 35.999085 69.367704 36.053124 68.239651 36.167955 67.118353 C 36.276032 65.997055 36.444903 64.875757 36.661056 63.767969 C 36.883965 62.66018 37.160912 61.565901 37.485143 60.485132 C 37.816129 59.404363 38.194398 58.343858 38.626706 57.296862 C 39.059013 56.256622 39.538605 55.236646 40.072234 54.236934 C 40.605864 53.237223 41.186778 52.271285 41.814975 51.332367 C 42.443172 50.393449 43.111898 49.488304 43.827908 48.610179 C 44.550672 47.738809 45.307211 46.901213 46.104278 46.104146 C 46.901345 45.307078 47.738942 44.55054 48.610312 43.827775 C 49.488437 43.111766 50.393581 42.44304 51.332499 41.814842 C 52.271418 41.186645 53.237355 40.605732 54.237067 40.072102 C 55.230024 39.538472 56.256755 39.058881 57.296995 38.626573 C 58.34399 38.194265 59.404495 37.815996 60.485264 37.48501 C 61.566034 37.16078 62.660313 36.883833 63.768101 36.660924 C 64.87589 36.44477 65.997188 36.2759 67.118486 36.167823 C 68.239784 36.052991 69.367837 35.998953 70.502645 35.998953 C 71.630698 35.998953 72.758751 36.052991 73.880049 36.167823 C 75.008102 36.2759 76.122645 36.44477 77.230434 36.660924 C 78.338222 36.883833 79.432501 37.16078 80.51327 37.48501 C 81.59404 37.815996 82.661299 38.194265 83.70154 38.626573 C 84.748535 39.058881 85.768511 39.538472 86.761468 40.072102 C 87.761179 40.605732 88.727117 41.186645 89.666035 41.814842 C 90.604954 42.44304 91.510098 43.111766 92.388223 43.827775 C 93.259593 44.55054 94.097189 45.307078 94.894257 46.104146 C 95.691324 46.901213 96.454617 47.738809 97.170627 48.610179 C 97.886637 49.488304 98.555363 50.393449 99.18356 51.332367 C 99.811757 52.271285 100.39267 53.237223 100.9263 54.236934 C 101.45993 55.236646 101.939521 56.256622 102.371829 57.296862 C 102.804137 58.343858 103.189161 59.404363 103.513392 60.485132 C 103.844377 61.565901 104.11457 62.66018 104.337478 63.767969 C 104.560387 64.875757 104.722502 65.997055 104.830579 67.118353 C 104.945411 68.239651 104.999449 69.367704 104.999449 70.502512 Z M 104.999449 70.502512 " stroke="#13329b" stroke-width="6" stroke-opacity="1" stroke-miterlimit="10"/></g><g clip-path="url(#d3d0c3f232)"><path stroke-linecap="round" transform="matrix(0.578292, 0, 0, 0.578292, 35.5414, 227.967258)" fill="none" stroke-linejoin="round" d="M 113.996854 113.996721 L 100.602069 100.601937 " stroke="#13329b" stroke-width="6" stroke-opacity="1" stroke-miterlimit="10"/></g><path fill="#3e9dff" d="M 99.730469 280.882812 C 99.730469 281.621094 99.660156 282.355469 99.515625 283.082031 C 99.371094 283.808594 99.15625 284.511719 98.875 285.195312 C 98.589844 285.878906 98.242188 286.53125 97.832031 287.144531 C 97.421875 287.761719 96.953125 288.332031 96.429688 288.855469 C 95.90625 289.378906 95.335938 289.847656 94.71875 290.257812 C 94.105469 290.667969 93.453125 291.015625 92.769531 291.300781 C 92.085938 291.582031 91.382812 291.796875 90.65625 291.941406 C 89.929688 292.085938 89.195312 292.15625 88.457031 292.15625 C 87.714844 292.15625 86.980469 292.085938 86.253906 291.941406 C 85.527344 291.796875 84.824219 291.582031 84.140625 291.300781 C 83.457031 291.015625 82.804688 290.667969 82.191406 290.257812 C 81.574219 289.847656 81.003906 289.378906 80.480469 288.855469 C 79.957031 288.332031 79.488281 287.761719 79.078125 287.144531 C 78.667969 286.53125 78.320312 285.878906 78.035156 285.195312 C 77.753906 284.511719 77.539062 283.808594 77.394531 283.082031 C 77.25 282.355469 77.179688 281.621094 77.179688 280.882812 C 77.179688 280.140625 77.25 279.40625 77.394531 278.679688 C 77.539062 277.953125 77.753906 277.25 78.035156 276.566406 C 78.320312 275.882812 78.667969 275.230469 79.078125 274.617188 C 79.488281 274 79.957031 273.429688 80.480469 272.90625 C 81.003906 272.382812 81.574219 271.917969 82.191406 271.503906 C 82.804688 271.09375 83.457031 270.746094 84.140625 270.460938 C 84.824219 270.179688 85.527344 269.964844 86.253906 269.820312 C 86.980469 269.675781 87.714844 269.605469 88.457031 269.605469 C 89.195312 269.605469 89.929688 269.675781 90.65625 269.820312 C 91.382812 269.964844 92.085938 270.179688 92.769531 270.460938 C 93.453125 270.746094 94.105469 271.09375 94.71875 271.503906 C 95.335938 271.917969 95.90625 272.382812 96.429688 272.90625 C 96.953125 273.429688 97.421875 274 97.832031 274.617188 C 98.242188 275.230469 98.589844 275.882812 98.875 276.566406 C 99.15625 277.25 99.371094 277.953125 99.515625 278.679688 C 99.660156 279.40625 99.730469 280.140625 99.730469 280.882812 Z M 99.730469 280.882812 " fill-opacity="1" fill-rule="nonzero"/></svg>