<svg xmlns="http://www.w3.org/2000/svg" xmlns:xlink="http://www.w3.org/1999/xlink" width="1024" zoomAndPan="magnify" viewBox="0 0 768 576" height="768" preserveAspectRatio="xMidYMid meet" version="1.0"><defs><clipPath id="a32cba1625"><path d="M 174.46875 236.304688 L 226.96875 236.304688 L 226.96875 288 L 174.46875 288 Z M 174.46875 236.304688 " clip-rule="nonzero"/></clipPath></defs><rect x="-76.8" width="921.6" fill="#ffffff" y="-57.6" height="691.2" fill-opacity="1"/><rect x="-76.8" width="921.6" fill="#ffffff" y="-57.6" height="691.2" fill-opacity="1"/><path fill="#ffffff" d="M 194.539062 279.8125 C 193.132812 278.710938 191.078125 278.507812 189.371094 279.5625 L 189.121094 279.714844 C 185.054688 282.222656 180.390625 277.605469 182.949219 273.59375 L 183.097656 273.339844 C 184.753906 270.730469 183.300781 267.320312 180.289062 266.617188 L 179.988281 266.566406 C 175.320312 265.511719 175.320312 258.941406 179.988281 257.886719 L 180.289062 257.835938 C 183.300781 257.132812 184.753906 253.722656 183.097656 251.113281 L 182.949219 250.863281 C 180.390625 246.796875 185.054688 242.132812 189.121094 244.640625 L 189.371094 244.789062 C 191.980469 246.445312 195.441406 244.992188 196.144531 242.03125 L 196.195312 241.730469 C 197.25 237.113281 203.921875 237.113281 204.976562 241.730469 L 205.027344 242.03125 C 205.277344 243.035156 205.777344 243.886719 206.53125 244.488281 C 195.644531 244.539062 186.863281 253.320312 186.8125 264.160156 C 186.8125 270.53125 189.820312 276.199219 194.539062 279.8125 Z M 194.539062 279.8125 " fill-opacity="1" fill-rule="nonzero"/><path stroke-linecap="round" transform="matrix(0.501765, 0, 0, 0.501765, 162.977717, 224.569405)" fill="none" stroke-linejoin="round" d="M 92.802859 75.197266 C 92.802859 76.357233 92.686084 77.50163 92.460319 78.630457 C 92.226768 79.76707 91.892013 80.864757 91.448267 81.939089 C 90.996736 83.005636 90.451785 84.017688 89.797844 84.975244 C 89.151688 85.940586 88.412111 86.828078 87.5869 87.645504 C 86.761688 88.462931 85.858626 89.194722 84.885499 89.833094 C 83.920158 90.47925 82.892536 91.016416 81.810419 91.460162 C 80.728302 91.903908 79.615044 92.238663 78.470647 92.464429 C 77.32625 92.690194 76.166283 92.799184 74.998531 92.799184 C 73.830778 92.799184 72.670811 92.690194 71.526414 92.464429 C 70.382017 92.238663 69.26876 91.903908 68.186643 91.460162 C 67.112311 91.016416 66.084689 90.47925 65.111562 89.833094 C 64.138435 89.194722 63.243158 88.462931 62.410162 87.645504 C 61.58495 86.828078 60.845374 85.940586 60.199218 84.975244 C 59.553061 84.017688 59.000325 83.005636 58.55658 81.939089 C 58.105049 80.864757 57.770293 79.76707 57.544528 78.630457 C 57.310977 77.50163 57.201987 76.357233 57.201987 75.197266 C 57.201987 74.045084 57.310977 72.900687 57.544528 71.764074 C 57.770293 70.635247 58.105049 69.529775 58.55658 68.463228 C 59.000325 67.396681 59.553061 66.384629 60.199218 65.419287 C 60.845374 64.461731 61.58495 63.574239 62.410162 62.756812 C 63.243158 61.939386 64.138435 61.207594 65.111562 60.569223 C 66.084689 59.923067 67.112311 59.378116 68.186643 58.942155 C 69.26876 58.498409 70.382017 58.163654 71.526414 57.937888 C 72.670811 57.712123 73.830778 57.603133 74.998531 57.603133 C 76.166283 57.603133 77.32625 57.712123 78.470647 57.937888 C 79.615044 58.163654 80.728302 58.498409 81.810419 58.942155 C 82.892536 59.378116 83.920158 59.923067 84.885499 60.569223 C 85.858626 61.207594 86.761688 61.939386 87.5869 62.756812 C 88.412111 63.574239 89.151688 64.461731 89.797844 65.419287 C 90.451785 66.384629 90.996736 67.396681 91.448267 68.463228 C 91.892013 69.529775 92.226768 70.635247 92.460319 71.764074 C 92.686084 72.900687 92.802859 74.045084 92.802859 75.197266 Z M 92.802859 75.197266 " stroke="#2056ff" stroke-width="6" stroke-opacity="1" stroke-miterlimit="4"/><g clip-path="url(#a32cba1625)"><path stroke-linecap="round" transform="matrix(0.501765, 0, 0, 0.501765, 162.977717, 224.569405)" fill="none" stroke-linejoin="round" d="M 116.103409 66.298994 L 115.496177 66.197789 C 109.501716 64.897691 106.597906 58.000168 109.898752 52.799778 L 110.202367 52.301538 C 115.301552 44.298542 105.897254 35.003235 97.902044 40.102419 L 97.403803 40.39825 C 92.203413 43.699096 85.298105 40.803071 83.896803 34.90203 L 83.803382 34.302583 C 81.701428 25.100696 68.396838 25.100696 66.302669 34.302583 L 66.201464 34.90203 C 64.800161 40.896491 57.902638 43.699096 52.702248 40.39825 L 52.102802 40.001214 C 43.998602 35.003235 34.703294 44.197337 39.802479 52.200332 L 40.09831 52.698573 C 43.399156 57.898963 40.50313 64.703066 34.500884 66.096584 L 33.901438 66.197789 C 24.598345 68.299743 24.598345 81.401923 33.901438 83.503877 L 34.500884 83.597297 C 40.50313 84.998599 43.399156 91.802702 40.09831 97.003092 L 39.802479 97.501333 C 34.703294 105.496543 44.099807 114.799636 52.102802 109.700451 L 52.601043 109.396836 C 57.801433 106.103774 64.698956 108.9998 66.100259 114.900841 L 66.201464 115.500287 C 68.303418 124.702175 81.600223 124.702175 83.702177 115.500287 L 83.803382 114.900841 C 85.1969 108.898595 92.102208 106.103774 97.302598 109.396836 L 97.800839 109.700451 C 105.897254 114.698431 115.200347 105.496543 110.101162 97.501333 L 109.797547 97.003092 C 106.4967 91.802702 109.400511 84.998599 115.402757 83.597297 L 116.002203 83.503877 C 125.398716 81.596548 125.398716 68.400948 116.103409 66.298994 Z M 116.103409 66.298994 " stroke="#032193" stroke-width="6" stroke-opacity="1" stroke-miterlimit="4"/></g></svg>