<svg xmlns="http://www.w3.org/2000/svg" xmlns:xlink="http://www.w3.org/1999/xlink" width="1024" zoomAndPan="magnify" viewBox="0 0 768 576" height="768" preserveAspectRatio="xMidYMid meet" version="1.0"><defs><g/><clipPath id="6025a12890"><path d="M 54.816406 135.164062 L 95.261719 135.164062 L 95.261719 175.609375 L 54.816406 175.609375 Z M 54.816406 135.164062 " clip-rule="nonzero"/></clipPath><clipPath id="7c8384eab7"><path d="M 75.039062 135.164062 C 63.871094 135.164062 54.816406 144.21875 54.816406 155.386719 C 54.816406 166.558594 63.871094 175.609375 75.039062 175.609375 C 86.207031 175.609375 95.261719 166.558594 95.261719 155.386719 C 95.261719 144.21875 86.207031 135.164062 75.039062 135.164062 Z M 75.039062 135.164062 " clip-rule="nonzero"/></clipPath><clipPath id="111d24b25c"><path d="M 54.816406 135.164062 L 95.257812 135.164062 L 95.257812 175.605469 L 54.816406 175.605469 Z M 54.816406 135.164062 " clip-rule="nonzero"/></clipPath><clipPath id="b60f141575"><path d="M 75.039062 135.164062 C 63.871094 135.164062 54.816406 144.21875 54.816406 155.386719 C 54.816406 166.554688 63.871094 175.605469 75.039062 175.605469 C 86.207031 175.605469 95.257812 166.554688 95.257812 155.386719 C 95.257812 144.21875 86.207031 135.164062 75.039062 135.164062 Z M 75.039062 135.164062 " clip-rule="nonzero"/></clipPath><clipPath id="73350c6d64"><path d="M 223.84375 136.042969 L 264.289062 136.042969 L 264.289062 176.488281 L 223.84375 176.488281 Z M 223.84375 136.042969 " clip-rule="nonzero"/></clipPath><clipPath id="c3fc43949a"><path d="M 244.066406 136.042969 C 232.898438 136.042969 223.84375 145.097656 223.84375 156.265625 C 223.84375 167.433594 232.898438 176.488281 244.066406 176.488281 C 255.234375 176.488281 264.289062 167.433594 264.289062 156.265625 C 264.289062 145.097656 255.234375 136.042969 244.066406 136.042969 Z M 244.066406 136.042969 " clip-rule="nonzero"/></clipPath><clipPath id="65aa85fd47"><path d="M 223.84375 136.042969 L 264.285156 136.042969 L 264.285156 176.484375 L 223.84375 176.484375 Z M 223.84375 136.042969 " clip-rule="nonzero"/></clipPath><clipPath id="679717ed4f"><path d="M 244.0625 136.042969 C 232.894531 136.042969 223.84375 145.09375 223.84375 156.261719 C 223.84375 167.429688 232.894531 176.484375 244.0625 176.484375 C 255.230469 176.484375 264.285156 167.429688 264.285156 156.261719 C 264.285156 145.09375 255.230469 136.042969 244.0625 136.042969 Z M 244.0625 136.042969 " clip-rule="nonzero"/></clipPath><clipPath id="d07b435af4"><path d="M 369.179688 136.042969 L 409.625 136.042969 L 409.625 176.488281 L 369.179688 176.488281 Z M 369.179688 136.042969 " clip-rule="nonzero"/></clipPath><clipPath id="d80407aae2"><path d="M 389.402344 136.042969 C 378.234375 136.042969 369.179688 145.097656 369.179688 156.265625 C 369.179688 167.433594 378.234375 176.488281 389.402344 176.488281 C 400.570312 176.488281 409.625 167.433594 409.625 156.265625 C 409.625 145.097656 400.570312 136.042969 389.402344 136.042969 Z M 389.402344 136.042969 " clip-rule="nonzero"/></clipPath><clipPath id="f5500ee66c"><path d="M 369.179688 136.042969 L 409.621094 136.042969 L 409.621094 176.484375 L 369.179688 176.484375 Z M 369.179688 136.042969 " clip-rule="nonzero"/></clipPath><clipPath id="5480b15e85"><path d="M 389.402344 136.042969 C 378.234375 136.042969 369.179688 145.09375 369.179688 156.261719 C 369.179688 167.429688 378.234375 176.484375 389.402344 176.484375 C 400.570312 176.484375 409.621094 167.429688 409.621094 156.261719 C 409.621094 145.09375 400.570312 136.042969 389.402344 136.042969 Z M 389.402344 136.042969 " clip-rule="nonzero"/></clipPath><clipPath id="4c2bc90bd6"><path d="M 510.859375 136.042969 L 551.304688 136.042969 L 551.304688 176.488281 L 510.859375 176.488281 Z M 510.859375 136.042969 " clip-rule="nonzero"/></clipPath><clipPath id="9b9e3f5bf0"><path d="M 531.082031 136.042969 C 519.914062 136.042969 510.859375 145.097656 510.859375 156.265625 C 510.859375 167.433594 519.914062 176.488281 531.082031 176.488281 C 542.253906 176.488281 551.304688 167.433594 551.304688 156.265625 C 551.304688 145.097656 542.253906 136.042969 531.082031 136.042969 Z M 531.082031 136.042969 " clip-rule="nonzero"/></clipPath><clipPath id="6f0545fe87"><path d="M 510.859375 136.042969 L 551.300781 136.042969 L 551.300781 176.484375 L 510.859375 176.484375 Z M 510.859375 136.042969 " clip-rule="nonzero"/></clipPath><clipPath id="a7fbe8ccf3"><path d="M 531.082031 136.042969 C 519.914062 136.042969 510.859375 145.09375 510.859375 156.261719 C 510.859375 167.429688 519.914062 176.484375 531.082031 176.484375 C 542.25 176.484375 551.300781 167.429688 551.300781 156.261719 C 551.300781 145.09375 542.25 136.042969 531.082031 136.042969 Z M 531.082031 136.042969 " clip-rule="nonzero"/></clipPath><clipPath id="5a534d7611"><path d="M 654.964844 136.042969 L 695.40625 136.042969 L 695.40625 176.488281 L 654.964844 176.488281 Z M 654.964844 136.042969 " clip-rule="nonzero"/></clipPath><clipPath id="06feee07ba"><path d="M 675.183594 136.042969 C 664.015625 136.042969 654.964844 145.097656 654.964844 156.265625 C 654.964844 167.433594 664.015625 176.488281 675.183594 176.488281 C 686.355469 176.488281 695.40625 167.433594 695.40625 156.265625 C 695.40625 145.097656 686.355469 136.042969 675.183594 136.042969 Z M 675.183594 136.042969 " clip-rule="nonzero"/></clipPath><clipPath id="d156352367"><path d="M 654.964844 136.042969 L 695.40625 136.042969 L 695.40625 176.484375 L 654.964844 176.484375 Z M 654.964844 136.042969 " clip-rule="nonzero"/></clipPath><clipPath id="34a05ae848"><path d="M 675.183594 136.042969 C 664.015625 136.042969 654.964844 145.09375 654.964844 156.261719 C 654.964844 167.429688 664.015625 176.484375 675.183594 176.484375 C 686.351562 176.484375 695.40625 167.429688 695.40625 156.261719 C 695.40625 145.09375 686.351562 136.042969 675.183594 136.042969 Z M 675.183594 136.042969 " clip-rule="nonzero"/></clipPath></defs><rect x="-76.8" width="921.6" fill="#ffffff" y="-57.6" height="691.2" fill-opacity="1"/><rect x="-76.8" width="921.6" fill="#ffffff" y="-57.6" height="691.2" fill-opacity="1"/><g clip-path="url(#6025a12890)"><g clip-path="url(#7c8384eab7)"><path fill="#3e9dff" d="M 54.816406 135.164062 L 95.261719 135.164062 L 95.261719 175.609375 L 54.816406 175.609375 Z M 54.816406 135.164062 " fill-opacity="1" fill-rule="nonzero"/></g></g><g clip-path="url(#111d24b25c)"><g clip-path="url(#b60f141575)"><path stroke-linecap="butt" transform="matrix(0.75, 0, 0, 0.75, 54.817323, 135.16585)" fill="none" stroke-linejoin="miter" d="M 26.962319 -0.00238276 C 12.071695 -0.00238276 -0.00122169 12.070534 -0.00122169 26.961158 C -0.00122169 41.851783 12.071695 53.919491 26.962319 53.919491 C 41.852944 53.919491 53.920652 41.851783 53.920652 26.961158 C 53.920652 12.070534 41.852944 -0.00238276 26.962319 -0.00238276 Z M 26.962319 -0.00238276 " stroke="#ffffff" stroke-width="8" stroke-opacity="1" stroke-miterlimit="4"/></g></g><g clip-path="url(#73350c6d64)"><g clip-path="url(#c3fc43949a)"><path fill="#3e9dff" d="M 223.84375 136.042969 L 264.289062 136.042969 L 264.289062 176.488281 L 223.84375 176.488281 Z M 223.84375 136.042969 " fill-opacity="1" fill-rule="nonzero"/></g></g><g clip-path="url(#65aa85fd47)"><g clip-path="url(#679717ed4f)"><path stroke-linecap="butt" transform="matrix(0.75, 0, 0, 0.75, 223.842852, 136.042382)" fill="none" stroke-linejoin="miter" d="M 26.95953 0.000781891 C 12.068905 0.000781891 0.00119697 12.06849 0.00119697 26.959115 C 0.00119697 41.849739 12.068905 53.922656 26.95953 53.922656 C 41.850154 53.922656 53.923071 41.849739 53.923071 26.959115 C 53.923071 12.06849 41.850154 0.000781891 26.95953 0.000781891 Z M 26.95953 0.000781891 " stroke="#ffffff" stroke-width="8" stroke-opacity="1" stroke-miterlimit="4"/></g></g><g clip-path="url(#d07b435af4)"><g clip-path="url(#d80407aae2)"><path fill="#3e9dff" d="M 369.179688 136.042969 L 409.625 136.042969 L 409.625 176.488281 L 369.179688 176.488281 Z M 369.179688 136.042969 " fill-opacity="1" fill-rule="nonzero"/></g></g><g clip-path="url(#f5500ee66c)"><g clip-path="url(#5480b15e85)"><path stroke-linecap="butt" transform="matrix(0.75, 0, 0, 0.75, 369.180484, 136.042382)" fill="none" stroke-linejoin="miter" d="M 26.962479 0.000781891 C 12.071855 0.000781891 -0.00106176 12.06849 -0.00106176 26.959115 C -0.00106176 41.849739 12.071855 53.922656 26.962479 53.922656 C 41.853104 53.922656 53.920812 41.849739 53.920812 26.959115 C 53.920812 12.06849 41.853104 0.000781891 26.962479 0.000781891 Z M 26.962479 0.000781891 " stroke="#ffffff" stroke-width="8" stroke-opacity="1" stroke-miterlimit="4"/></g></g><g clip-path="url(#4c2bc90bd6)"><g clip-path="url(#9b9e3f5bf0)"><path fill="#3e9dff" d="M 510.859375 136.042969 L 551.304688 136.042969 L 551.304688 176.488281 L 510.859375 176.488281 Z M 510.859375 136.042969 " fill-opacity="1" fill-rule="nonzero"/></g></g><g clip-path="url(#6f0545fe87)"><g clip-path="url(#a7fbe8ccf3)"><path stroke-linecap="butt" transform="matrix(0.75, 0, 0, 0.75, 510.861003, 136.042382)" fill="none" stroke-linejoin="miter" d="M 26.961371 0.000781891 C 12.070746 0.000781891 -0.00217029 12.06849 -0.00217029 26.959115 C -0.00217029 41.849739 12.070746 53.922656 26.961371 53.922656 C 41.851995 53.922656 53.919704 41.849739 53.919704 26.959115 C 53.919704 12.06849 41.851995 0.000781891 26.961371 0.000781891 Z M 26.961371 0.000781891 " stroke="#ffffff" stroke-width="8" stroke-opacity="1" stroke-miterlimit="4"/></g></g><g clip-path="url(#5a534d7611)"><g clip-path="url(#06feee07ba)"><path fill="#3e9dff" d="M 654.964844 136.042969 L 695.40625 136.042969 L 695.40625 176.488281 L 654.964844 176.488281 Z M 654.964844 136.042969 " fill-opacity="1" fill-rule="nonzero"/></g></g><g clip-path="url(#d156352367)"><g clip-path="url(#34a05ae848)"><path stroke-linecap="butt" transform="matrix(0.75, 0, 0, 0.75, 654.962973, 136.042382)" fill="none" stroke-linejoin="miter" d="M 26.960827 0.000781891 C 12.070203 0.000781891 0.00249472 12.06849 0.00249472 26.959115 C 0.00249472 41.849739 12.070203 53.922656 26.960827 53.922656 C 41.851452 53.922656 53.924369 41.849739 53.924369 26.959115 C 53.924369 12.06849 41.851452 0.000781891 26.960827 0.000781891 Z M 26.960827 0.000781891 " stroke="#ffffff" stroke-width="8" stroke-opacity="1" stroke-miterlimit="4"/></g></g><g fill="#ffffff" fill-opacity="1"><g transform="translate(69.45185, 161.962247)"><g><path d="M 7.15625 -14.4375 L 7.15625 0 L 4.109375 0 L 4.109375 -10.703125 L 3.96875 -10.703125 C 3.8125 -10.460938 3.484375 -10.222656 2.984375 -9.984375 C 2.484375 -9.753906 1.832031 -9.640625 1.03125 -9.640625 L 1.03125 -12.0625 C 1.644531 -12.0625 2.1875 -12.195312 2.65625 -12.46875 C 3.125 -12.75 3.488281 -13.070312 3.75 -13.4375 C 4.007812 -13.8125 4.144531 -14.144531 4.15625 -14.4375 Z M 7.15625 -14.4375 "/></g></g></g><g fill="#ffffff" fill-opacity="1"><g transform="translate(236.929766, 161.962247)"><g><path d="M 1.171875 0 L 1.171875 -2.203125 L 6.3125 -6.953125 C 6.96875 -7.585938 7.46875 -8.132812 7.8125 -8.59375 C 8.15625 -9.0625 8.328125 -9.582031 8.328125 -10.15625 C 8.328125 -10.789062 8.113281 -11.289062 7.6875 -11.65625 C 7.269531 -12.03125 6.742188 -12.21875 6.109375 -12.21875 C 5.453125 -12.21875 4.921875 -12.019531 4.515625 -11.625 C 4.117188 -11.226562 3.921875 -10.6875 3.921875 -10 L 1.03125 -10 C 1.03125 -10.9375 1.242188 -11.753906 1.671875 -12.453125 C 2.097656 -13.148438 2.695312 -13.6875 3.46875 -14.0625 C 4.238281 -14.445312 5.128906 -14.640625 6.140625 -14.640625 C 7.171875 -14.640625 8.070312 -14.457031 8.84375 -14.09375 C 9.613281 -13.726562 10.210938 -13.222656 10.640625 -12.578125 C 11.066406 -11.941406 11.28125 -11.203125 11.28125 -10.359375 C 11.28125 -9.816406 11.171875 -9.28125 10.953125 -8.75 C 10.734375 -8.21875 10.351562 -7.628906 9.8125 -6.984375 C 9.269531 -6.335938 8.503906 -5.5625 7.515625 -4.65625 L 5.40625 -2.59375 L 5.40625 -2.5 L 11.46875 -2.5 L 11.46875 0 Z M 1.171875 0 "/></g></g></g><g fill="#ffffff" fill-opacity="1"><g transform="translate(381.972934, 161.962247)"><g><path d="M 6.515625 0.203125 C 5.453125 0.203125 4.507812 0.0195312 3.6875 -0.34375 C 2.875 -0.707031 2.234375 -1.210938 1.765625 -1.859375 C 1.296875 -2.503906 1.050781 -3.242188 1.03125 -4.078125 L 4.109375 -4.078125 C 4.128906 -3.554688 4.367188 -3.128906 4.828125 -2.796875 C 5.285156 -2.472656 5.847656 -2.3125 6.515625 -2.3125 C 7.210938 -2.3125 7.785156 -2.492188 8.234375 -2.859375 C 8.679688 -3.222656 8.898438 -3.691406 8.890625 -4.265625 C 8.898438 -4.847656 8.664062 -5.320312 8.1875 -5.6875 C 7.707031 -6.050781 7.054688 -6.234375 6.234375 -6.234375 L 4.890625 -6.234375 L 4.890625 -8.484375 L 6.234375 -8.484375 C 6.929688 -8.484375 7.5 -8.65625 7.9375 -9 C 8.375 -9.351562 8.59375 -9.816406 8.59375 -10.390625 C 8.59375 -10.929688 8.40625 -11.367188 8.03125 -11.703125 C 7.65625 -12.046875 7.15625 -12.21875 6.53125 -12.21875 C 5.90625 -12.21875 5.375 -12.050781 4.9375 -11.71875 C 4.5 -11.394531 4.269531 -10.957031 4.25 -10.40625 L 1.3125 -10.40625 C 1.332031 -11.238281 1.570312 -11.972656 2.03125 -12.609375 C 2.488281 -13.242188 3.109375 -13.738281 3.890625 -14.09375 C 4.679688 -14.457031 5.566406 -14.640625 6.546875 -14.640625 C 7.546875 -14.640625 8.421875 -14.457031 9.171875 -14.09375 C 9.921875 -13.738281 10.5 -13.253906 10.90625 -12.640625 C 11.320312 -12.023438 11.53125 -11.335938 11.53125 -10.578125 C 11.53125 -9.765625 11.273438 -9.085938 10.765625 -8.546875 C 10.265625 -8.003906 9.613281 -7.660156 8.8125 -7.515625 L 8.8125 -7.40625 C 9.875 -7.269531 10.679688 -6.898438 11.234375 -6.296875 C 11.796875 -5.703125 12.070312 -4.957031 12.0625 -4.0625 C 12.070312 -3.238281 11.835938 -2.503906 11.359375 -1.859375 C 10.878906 -1.222656 10.21875 -0.71875 9.375 -0.34375 C 8.539062 0.0195312 7.585938 0.203125 6.515625 0.203125 Z M 6.515625 0.203125 "/></g></g></g><g fill="#ffffff" fill-opacity="1"><g transform="translate(523.468514, 161.962247)"><g><path d="M 0.953125 -2.53125 L 0.953125 -4.9375 L 6.984375 -14.4375 L 10.796875 -14.4375 L 10.796875 -4.984375 L 12.59375 -4.984375 L 12.59375 -2.53125 L 10.796875 -2.53125 L 10.796875 0 L 7.890625 0 L 7.890625 -2.53125 Z M 7.9375 -4.984375 L 7.9375 -11.109375 L 7.828125 -11.109375 L 4.03125 -5.09375 L 4.03125 -4.984375 Z M 7.9375 -4.984375 "/></g></g></g><g fill="#ffffff" fill-opacity="1"><g transform="translate(667.906076, 161.962247)"><g><path d="M 6.453125 0.203125 C 5.453125 0.203125 4.5625 0.0195312 3.78125 -0.34375 C 3 -0.71875 2.378906 -1.222656 1.921875 -1.859375 C 1.472656 -2.503906 1.238281 -3.242188 1.21875 -4.078125 L 4.1875 -4.078125 C 4.21875 -3.523438 4.445312 -3.070312 4.875 -2.71875 C 5.3125 -2.375 5.835938 -2.203125 6.453125 -2.203125 C 7.160156 -2.203125 7.742188 -2.4375 8.203125 -2.90625 C 8.671875 -3.375 8.90625 -3.984375 8.90625 -4.734375 C 8.90625 -5.492188 8.671875 -6.113281 8.203125 -6.59375 C 7.734375 -7.070312 7.132812 -7.3125 6.40625 -7.3125 C 5.976562 -7.3125 5.566406 -7.222656 5.171875 -7.046875 C 4.773438 -6.878906 4.46875 -6.644531 4.25 -6.34375 L 1.53125 -6.828125 L 2.21875 -14.4375 L 11.046875 -14.4375 L 11.046875 -11.953125 L 4.734375 -11.953125 L 4.359375 -8.328125 L 4.4375 -8.328125 C 4.695312 -8.679688 5.082031 -8.972656 5.59375 -9.203125 C 6.101562 -9.441406 6.675781 -9.5625 7.3125 -9.5625 C 8.1875 -9.5625 8.960938 -9.359375 9.640625 -8.953125 C 10.316406 -8.546875 10.851562 -7.984375 11.25 -7.265625 C 11.644531 -6.554688 11.84375 -5.738281 11.84375 -4.8125 C 11.84375 -3.84375 11.613281 -2.976562 11.15625 -2.21875 C 10.707031 -1.46875 10.078125 -0.875 9.265625 -0.4375 C 8.453125 -0.0078125 7.515625 0.203125 6.453125 0.203125 Z M 6.453125 0.203125 "/></g></g></g></svg>